<?xml version="1.0" encoding="utf-8"?>
<!-- Svg Vector Icons : http://www.onlinewebfonts.com/icon -->
<!DOCTYPE svg PUBLIC "-//W3C//DTD SVG 1.1//EN" "http://www.w3.org/Graphics/SVG/1.1/DTD/svg11.dtd">
<svg version="1.1" xmlns="http://www.w3.org/2000/svg" xmlns:xlink="http://www.w3.org/1999/xlink" x="0px" y="0px" viewBox="0 0 1000 1000" enable-background="new 0 0 1000 1000" xml:space="preserve">
<metadata> Svg Vector Icons : http://www.onlinewebfonts.com/icon </metadata>
<g><g transform="translate(0.000000,511.000000) scale(0.100000,-0.100000)"><path d="M4430.9,5002.6c-1019.2-108.1-1848.6-439-2594.3-1041.2c-196.3-158.8-611.1-582.4-750.1-765.5c-465.5-613.3-763.3-1270.7-900.1-1981C-69.4-124.2,246-1454.5,1086.5-2561.9c147.8-196.3,560.3-613.3,774.3-780.9C2655-3973.8,3533-4309.1,4558.8-4373l236-15.4v467.7v465.5h-103.7c-304.4,0-725.8,77.2-1089.8,198.5c-946.4,313.3-1729.5,994.9-2181.8,1895C709.3,58.9,971.8,1777.4,2077,2924.5C3230.8,4120.2,5000,4429,6473.7,3692.2c1151.6-578,1923.7-1683.2,2071.5-2967.1c11-110.3,22.1-244.9,22.1-302.2V317h465.5h467.7l-15.4,238.2c-64,1023.6-399.3,1901.6-1030.2,2695.8c-167.7,214-584.6,626.5-780.9,774.3c-659.6,500.8-1389.8,814-2172.9,935.4C5275.8,4993.8,4609.6,5020.2,4430.9,5002.6z"/><path d="M4530.2,3118.6c-1076.5-99.3-2018.5-836.1-2391.3-1870.7c-156.6-436.8-198.5-1021.4-103.7-1475.9C2297.6-1494.2,3354.3-2414.1,4636-2491.3l158.8-8.8v456.7v458.8l-136.8,15.4c-487.5,52.9-869.2,229.4-1197.9,553.7c-251.5,244.9-425.8,566.9-509.6,928.7c-52.9,227.2-52.9,622.1,2.2,831.7c222.8,871.4,955.2,1453.8,1831,1456c520.6,2.2,992.7-191.9,1343.5-549.3C6451.6,1322.9,6628.1,941.3,6681,456l15.4-139h458.8H7612l-8.8,161c-68.4,1127.3-809.6,2113.4-1877.3,2495C5383.9,3094.4,4907.4,3153.9,4530.2,3118.6z"/><path d="M5308.9-239c15.4-39.7,436.8-1089.8,933.1-2331.8c496.4-1242,904.5-2241.3,908.9-2217.1c4.4,22.1,108.1,547.1,233.8,1167l225,1122.9l1122.9,225c619.9,123.5,1144.9,227.2,1167,231.6c22.1,4.4-975.1,414.7-2217.1,911.1C6440.6-633.8,5390.5-212.5,5350.8-197l-70.6,28.7L5308.9-239z"/></g></g>
</svg>