<?xml version="1.0" encoding="utf-8"?>
<!-- Generator: Adobe Illustrator 23.0.0, SVG Export Plug-In . SVG Version: 6.00 Build 0)  -->
<svg version="1.1" id="Слой_1" xmlns="http://www.w3.org/2000/svg" xmlns:xlink="http://www.w3.org/1999/xlink" x="0px" y="0px"
	 viewBox="0 0 264.1 264.1" style="enable-background:new 0 0 264.1 264.1;" xml:space="preserve">
<style type="text/css">
	.st0{fill:#395185;}
	.st1{fill:#FFFFFF;}
</style>
<g>
	<path class="st0" d="M245.9,260.1c7.8,0,14.1-6.3,14.1-14.1V18.2c0-7.8-6.3-14.1-14.1-14.1H18.2c-7.8,0-14.1,6.3-14.1,14.1v227.7
		c0,7.8,6.3,14.1,14.1,14.1H245.9"/>
	<path class="st1" d="M180.7,260.1v-99.1H214l5-38.6h-38.3V97.6c0-11.2,3.1-18.8,19.1-18.8l20.5,0V44.2c-3.5-0.5-15.7-1.5-29.8-1.5
		c-29.5,0-49.7,18-49.7,51.1v28.5h-33.4v38.6h33.4v99.1H180.7"/>
</g>
</svg>
