<?xml version="1.0" encoding="utf-8"?>
<!-- Generator: Adobe Illustrator 23.0.0, SVG Export Plug-In . SVG Version: 6.00 Build 0)  -->
<svg version="1.1" id="Camada_1" xmlns="http://www.w3.org/2000/svg" xmlns:xlink="http://www.w3.org/1999/xlink" x="0px" y="0px"
	 viewBox="0 0 724.5 662.6" style="enable-background:new 0 0 724.5 662.6;" xml:space="preserve">
<style type="text/css">
	.st0{fill:#FBBD04;}
	.st1{fill:#438EDC;}
	.st2{fill:#34A952;}
</style>
<g>
	<path class="st0" d="M67.8,639.8L67.8,639.8C11.1,607-8.5,533.8,24.3,477.1L259.7,69.3C292.4,12.6,365.6-7,422.3,25.8l0,0
		c56.7,32.7,76.3,105.9,43.6,162.6L230.5,596.2C197.8,652.9,124.6,672.5,67.8,639.8z"/>
	<path class="st1" d="M659,638L659,638c-56.7,32.7-129.9,13.1-162.6-43.6L261,186.6C228.2,129.9,247.8,56.7,304.5,24l0,0
		c56.7-32.7,129.9-13.1,162.6,43.6l235.4,407.8C735.4,532.1,715.7,605.3,659,638z"/>
	<circle class="st2" cx="129" cy="534.9" r="120.7"/>
</g>
</svg>
