<?xml version="1.0" encoding="utf-8"?>
<!-- Generator: Adobe Illustrator 23.0.0, SVG Export Plug-In . SVG Version: 6.00 Build 0)  -->
<svg version="1.1" id="Слой_1" xmlns="http://www.w3.org/2000/svg" xmlns:xlink="http://www.w3.org/1999/xlink" x="0px" y="0px"
	 viewBox="0 0 276.5 293.5" style="enable-background:new 0 0 276.5 293.5;" xml:space="preserve">
<style type="text/css">
	.st0{fill-rule:evenodd;clip-rule:evenodd;fill:#060606;}
	.st1{fill-rule:evenodd;clip-rule:evenodd;fill:#3F74B9;}
</style>
<g>
	<path class="st0" d="M89.2,239.7c-12,0-22.4,10.3-22.4,22.4c0,12,10.3,22.4,22.4,22.4s22.4-10.3,22.4-22.4
		C111.6,250,101.3,239.7,89.2,239.7L89.2,239.7z M214.8,239.7c-12,0-22.4,10.3-22.4,22.4c0,12,10.3,22.4,22.4,22.4
		c12,0,22.4-10.3,22.4-22.4C237.2,250,228.6,239.7,214.8,239.7z"/>
	<path class="st1" d="M266.5,60.7H94.4L75.4,9.1H8.3v34.4h44.7l56.8,172.1l137.7-37.9c13.8-3.4,20.7-12,20.7-32.7V60.7L266.5,60.7z"
		/>
</g>
</svg>
