<?xml version="1.0" encoding="utf-8"?>
<!-- Generator: Adobe Illustrator 23.0.0, SVG Export Plug-In . SVG Version: 6.00 Build 0)  -->
<svg version="1.1" id="Слой_1" xmlns="http://www.w3.org/2000/svg" xmlns:xlink="http://www.w3.org/1999/xlink" x="0px" y="0px"
	 viewBox="0 0 264 264" style="enable-background:new 0 0 264 264;" xml:space="preserve">
<style type="text/css">
	.st0{fill:#2A89D8;}
	.st1{fill:#FFFFFF;}
</style>
<g>
	<path class="st0" d="M246,260.1c7.8,0,14.1-6.3,14.1-14.1V18.2c0-7.8-6.3-14.1-14.1-14.1H18.2c-7.8,0-14.1,6.3-14.1,14.1V246
		c0,7.8,6.3,14.1,14.1,14.1H246"/>
</g>
<g>
	<circle class="st1" cx="97.8" cy="87.9" r="14.7"/>
	<circle class="st1" cx="166.2" cy="87.9" r="14.7"/>
	<path class="st1" d="M52.5,184.7c-4.9,0-8.8-4-8.8-8.8c0-1.7,0.5-3.3,1.3-4.7l22.1-35.4c2.6-4.1,8-5.4,12.2-2.8
		c4.1,2.6,5.4,8,2.8,12.1L60,180.5C58.3,183.1,55.5,184.7,52.5,184.7z"/>
	<path class="st1" d="M132,190.8c-27.2,0.1-52.9-12.5-69.6-34l13.9-10.9c24,30.7,68.3,36.2,99.1,12.2c4.6-3.6,8.7-7.7,12.2-12.2
		l13.9,10.9C184.8,178.3,159.1,190.8,132,190.8z"/>
	<path class="st1" d="M211.5,184.7c-3,0-5.9-1.6-7.5-4.1l-22.1-35.4c-2.6-4.1-1.3-9.6,2.8-12.1c4.1-2.6,9.5-1.3,12.1,2.8l22.1,35.4
		c2.6,4.1,1.3,9.6-2.8,12.2C214.8,184.2,213.2,184.7,211.5,184.7L211.5,184.7z"/>
</g>
</svg>
