<?xml version="1.0" encoding="utf-8"?>
<!-- Generator: Adobe Illustrator 23.0.0, SVG Export Plug-In . SVG Version: 6.00 Build 0)  -->
<svg version="1.1" id="Слой_1" xmlns="http://www.w3.org/2000/svg" xmlns:xlink="http://www.w3.org/1999/xlink" x="0px" y="0px"
	 viewBox="0 0 264 264" style="enable-background:new 0 0 264 264;" xml:space="preserve">
<style type="text/css">
	.st0{fill:#FF9800;}
	.st1{fill:#FFFFFF;}
</style>
<g>
	<path class="st0" d="M246,260.1c7.8,0,14.1-6.3,14.1-14.1V18.2c0-7.8-6.3-14.1-14.1-14.1H18.2c-7.8,0-14.1,6.3-14.1,14.1V246
		c0,7.8,6.3,14.1,14.1,14.1H246"/>
</g>
<g>
	<path class="st1" d="M132.1,141.3c33.2,0,60.1-26.9,60.1-60.1S165.3,21,132.1,21S72,47.9,72,81.1C72,114.3,98.9,141.2,132.1,141.3z
		 M132.1,48.8c17.9,0,32.4,14.5,32.4,32.4s-14.5,32.4-32.4,32.4S99.7,99,99.7,81.1S114.2,48.8,132.1,48.8z"/>
	<path class="st1" d="M191,169.7c6.5-4.3,10.5-11.6,10.5-19.4c0.1-6.5-3.6-12.5-9.4-15.3c-6-3-13.2-2.3-18.5,1.7
		c-24.7,18-58.2,18-82.9,0c-5.3-4-12.5-4.7-18.5-1.7c-5.8,2.9-9.5,8.8-9.4,15.3c0,7.8,3.9,15.1,10.5,19.4c8.4,5.6,17.5,9.9,27.1,13
		c1.6,0.5,3.3,1,5,1.4l-28,27.3c-7.3,7.1-7.5,18.8-0.4,26.2c7.1,7.3,18.8,7.5,26.2,0.4c0.2-0.1,0.3-0.3,0.5-0.5l28.5-29.5l28.5,29.5
		c7.1,7.3,18.8,7.5,26.2,0.4c7.3-7.1,7.5-18.8,0.4-26.2c-0.1-0.2-0.3-0.3-0.5-0.5l-27.9-27.3c1.7-0.4,3.4-0.9,5.1-1.4
		C173.5,179.7,182.6,175.3,191,169.7z"/>
</g>
</svg>
