<?xml version="1.0" encoding="utf-8"?>
<!-- Generator: Adobe Illustrator 23.0.0, SVG Export Plug-In . SVG Version: 6.00 Build 0)  -->
<svg version="1.1" id="Capa_1" xmlns="http://www.w3.org/2000/svg" xmlns:xlink="http://www.w3.org/1999/xlink" x="0px" y="0px"
	 viewBox="0 0 510.2 510.2" style="enable-background:new 0 0 510.2 510.2;" xml:space="preserve">
<style type="text/css">
	.st0{fill:#696969;}
</style>
<path class="st0" d="M489.1,460.5l-119-123.8c30.6-36.4,47.4-82.1,47.4-129.8c0-111.3-90.6-201.9-201.9-201.9S13.8,95.7,13.8,207
	s90.6,201.9,201.9,201.9c41.8,0,81.6-12.6,115.7-36.5L451.2,497c5,5.2,11.8,8.1,19,8.1c6.8,0,13.3-2.6,18.2-7.3
	C498.9,487.7,499.2,471,489.1,460.5z M215.6,57.8c82.3,0,149.2,66.9,149.2,149.2s-66.9,149.2-149.2,149.2S66.4,289.3,66.4,207
	S133.4,57.8,215.6,57.8z"/>
</svg>
