<?xml version="1.0" encoding="utf-8"?>
<!-- Svg Vector Icons : http://www.onlinewebfonts.com/icon -->
<!DOCTYPE svg PUBLIC "-//W3C//DTD SVG 1.1//EN" "http://www.w3.org/Graphics/SVG/1.1/DTD/svg11.dtd">
<svg version="1.1" xmlns="http://www.w3.org/2000/svg" xmlns:xlink="http://www.w3.org/1999/xlink" x="0px" y="0px" viewBox="0 0 1000 1000" enable-background="new 0 0 1000 1000" xml:space="preserve">
<metadata> Svg Vector Icons : http://www.onlinewebfonts.com/icon </metadata>
<g><g transform="translate(0.000000,511.000000) scale(0.100000,-0.100000)"><path d="M5242.4,4978.9c-170.7-60-304.6-244.6-357.6-491.4c-13.8-66.9-25.4-242.3-25.4-387.6c0-299.9-6.9-325.3-311.5-1024.4c-449.9-1036-851.4-1712-1280.5-2157.3c-258.4-267.6-346.1-380.7-449.9-588.3c-36.9-69.2-66.9-129.2-69.2-131.5c-2.3-4.6-60,16.2-129.2,46.1c-120,48.5-150,50.8-909.1,50.8c-551.4,0-812.2-9.2-876.8-27.7C678.7,219,494.1,94.4,401.8-27.9c-177.6-233-168.4-122.3-168.4-2203.4v-1857.3l73.8-152.3c90-182.3,235.3-323,417.6-408.4l131.5-62.3h842.1h842.2l154.6,76.1c152.3,78.5,152.3,78.5,323,50.8c754.5-117.7,1400.5-159.2,2835.6-189.2c1179-23.1,1329-23.1,1568.9,11.5c482.2,69.2,819.1,184.6,1107.5,373.8c380.7,256.1,574.5,606.8,574.5,1052.1c0,189.2,2.3,198.4,71.5,265.3c103.8,99.2,260.7,346.1,320.7,505.3c73.8,198.4,87.7,544.5,27.7,752.2c-41.5,150-41.5,152.3,2.3,207.6c78.5,96.9,177.7,316.1,214.6,475.3c64.6,272.2,2.3,599.9-161.5,860.6c-78.4,122.3-78.4,124.6-41.5,216.9c25.4,66.9,36.9,177.6,36.9,371.5c2.3,276.9,2.3,281.5-83.1,452.2c-170.7,343.8-493.7,563-987.5,669.1c-203,43.8-313.8,50.7-680.6,50.7c-468.4,0-777.5-32.3-1278.2-133.8c-156.9-32.3-290.7-57.7-297.6-57.7s-4.6,90,2.3,203c16.2,219.2,99.2,565.3,246.9,1031.3c147.7,475.3,191.5,715.2,191.5,1072.9c2.3,228.4-9.2,350.7-39.2,461.5c-131.5,477.6-477.6,812.2-950.6,911.4C5500.9,5020.4,5360.1,5020.4,5242.4,4978.9z M5602.4,4480.5c161.5-34.6,265.3-90,369.2-196.1c175.3-173,239.9-408.4,216.9-782.1c-16.2-265.3-57.7-452.2-219.2-969.1c-173-563-221.5-805.2-221.5-1130.6c0-240,6.9-288.4,50.8-371.5c113.1-210,300-297.6,514.5-240c55.4,16.2,258.4,57.7,452.2,92.3c832.9,159.2,1550.5,147.7,1951.9-30c343.8-152.3,461.5-484.5,297.6-839.9c-94.6-200.7-92.3-253.8,23.1-389.9c161.5-193.8,214.6-320.7,214.6-505.3c0-193.8-46.1-311.5-203-503c-143-175.4-152.3-233-69.2-415.3c55.4-122.3,66.9-173,66.9-339.2c0-265.3-66.9-410.7-288.4-623c-184.6-177.7-219.2-244.6-184.6-366.9c11.5-46.2,23.1-152.3,23.1-235.3c0-445.3-417.6-766-1155.9-886c-272.3-43.8-685.3-50.8-1624.3-30c-1107.5,25.4-1728.1,66.9-2461.9,161.5l-203,25.4l-4.6,1871.2c-2.3,1029-4.6,1908.1-4.6,1954.2c2.3,90,126.9,376.1,235.3,535.3c39.2,53.1,143.1,170.7,235.3,258.4c196.1,191.5,424.5,486.8,632.2,819.1c286.1,454.5,722.2,1359,1031.4,2134.2l101.5,253.8v334.6c0,228.4,9.2,350.7,30,387.6C5443.2,4515.1,5440.9,4515.1,5602.4,4480.5z M1783.9-3156.5c246.9-92.3,346.1-403.8,203-632.2c-175.4-281.5-563-281.5-738.3,0c-113.1,182.3-85.4,396.8,73.8,546.8c34.6,34.6,90,71.5,122.3,85.4C1523.1-3126.5,1703.1-3126.5,1783.9-3156.5z"/></g></g>
</svg>