<?xml version="1.0" encoding="utf-8"?>
<!-- Generator: Adobe Illustrator 23.0.0, SVG Export Plug-In . SVG Version: 6.00 Build 0)  -->
<svg version="1.1" id="Capa_1" xmlns="http://www.w3.org/2000/svg" xmlns:xlink="http://www.w3.org/1999/xlink" x="0px" y="0px"
	 viewBox="0 0 512 512" style="enable-background:new 0 0 512 512;" xml:space="preserve">
<style type="text/css">
	.st0{fill:#696969;}
</style>
<path class="st0" d="M355.6,347.4V159.2c0-5.2-4.6-9.9-9.9-9.9h-44.6c-5.5,0-9.9,4.4-9.9,9.9v85c0,0-163.1-164.5-203.4-202.8
	C83,36.9,75.5,37.1,71,41.9L40.1,75.3c-4.2,4.6-4,11.7,0.4,16c6.8,6.5,15.7,15.2,18,17.5l184,184h-85c-5.5,0-9.9,4.4-9.9,9.9v44.6
	c0,2.6,1,5.1,2.9,7s4.4,2.9,7,2.9h188.2c2.6,0,5.1-1,7-2.9C354.6,352.5,355.6,350,355.6,347.4z"/>
<g>
	<g>
		<path class="st0" d="M512,429.3V82.7C512,37,474.9,0,429.3,0H291.5c-4.1,0-7.4,3.3-7.4,7.4l0.1,47c0,5.2,4.3,9.5,9.5,9.5h71.5
			c45.7,0,82.7,37,82.7,82.7v218.6c0,45.7-37,82.7-82.7,82.7H146.7C101,448,64,411,64,365.3V288c0-5-4.1-9-9-8.9l-46.1,0.6
			c-4.9,0.1-8.8,4-8.8,8.9v140.8C0,475,37,512,82.7,512h346.6C474.9,512,512,475,512,429.3z"/>
	</g>
</g>
</svg>
