<?xml version="1.0" encoding="utf-8"?>
<!-- Generator: Adobe Illustrator 23.0.0, SVG Export Plug-In . SVG Version: 6.00 Build 0)  -->
<svg version="1.1" id="Capa_1" xmlns="http://www.w3.org/2000/svg" xmlns:xlink="http://www.w3.org/1999/xlink" x="0px" y="0px"
	 viewBox="0 0 507.6 402" style="enable-background:new 0 0 507.6 402;" xml:space="preserve">
<style type="text/css">
	.st0{fill:#696969;}
</style>
<g>
	<path class="st0" d="M4.2,395.8L134.9,6.2h59.3L64.8,395.8H4.2z"/>
	<path class="st0" d="M502.1,128.5c0,47-28.2,67.3-59.8,87c-23.2,15.3-31.7,24.2-31.7,38.6v12.4h-88v-12.4
		c0-37.1,14.8-55.9,44.5-76.7c25.7-17.3,45.5-23.7,45.5-48.5c0-17.8-12.4-31.7-38.1-31.7c-27.2,0-42.5,13.4-43,43.5H244
		c0-62.3,39.6-119.7,127.6-119.7C464,21.2,502.1,71.2,502.1,128.5z M320.6,380.8v-86.1h91v86.1H320.6z"/>
</g>
</svg>
