<?xml version="1.0" encoding="utf-8"?>
<!-- Generator: Adobe Illustrator 23.0.0, SVG Export Plug-In . SVG Version: 6.00 Build 0)  -->
<svg version="1.1" id="Layer_1" xmlns="http://www.w3.org/2000/svg" xmlns:xlink="http://www.w3.org/1999/xlink" x="0px" y="0px"
	 viewBox="0 0 100 100" style="enable-background:new 0 0 100 100;" xml:space="preserve">
<style type="text/css">
	.st0{display:none;}
	.st1{display:inline;fill:#8921B4;}
	.st2{fill:#6001D2;}
	.st3{fill:#FFFFFF;}
</style>
<g>
	<g class="st0">
		<path class="st1" d="M98.6,50.4c0,26.8-21.7,48.6-48.6,48.6c-26.8,0-48.6-21.7-48.6-48.6C1.4,23.6,23.2,1.8,50,1.8
			C76.8,1.8,98.6,23.6,98.6,50.4z"/>
	</g>
	<rect x="1.4" y="1.8" class="st2" width="97.1" height="97.1"/>
</g>
<g>
	<path class="st3" d="M23.8,84.1c0.7-1.6,1.4-3.3,2.1-4.9c1.1-2.5,2.1-5,3.2-7.5c0,0,0,0,0-0.1c0.2-0.3,0.4-0.7,0.4-1
		c0-0.3-0.3-0.7-0.4-1.1c-1.4-3.3-2.8-6.6-4.2-9.9c-1-2.5-2.1-4.9-3.1-7.4c-1.8-4.2-3.6-8.5-5.4-12.7c-0.9-2.1-1.8-4.2-2.6-6.2
		c0,0,0-0.1-0.1-0.2c0.1,0,0.2,0,0.2,0c4.6,0,9.2,0,13.7,0c0.2,0,0.3,0.1,0.3,0.2c1.5,3.8,3,7.6,4.4,11.4c1.3,3.2,2.5,6.4,3.8,9.6
		c0.1,0.2,0.2,0.4,0.2,0.6c0.2-0.4,0.3-0.7,0.4-1c1.5-3.7,3-7.5,4.4-11.2c1.2-3.1,2.5-6.3,3.7-9.4c0.1-0.1,0.1-0.2,0.3-0.2
		c4.5,0,9,0,13.5,0c0,0,0.1,0,0.1,0c-0.2,0.4-0.3,0.7-0.5,1.1l-4,9.7c-1.4,3.3-2.8,6.7-4.2,10c-1.6,3.8-3.2,7.6-4.7,11.5
		c-1.4,3.4-2.8,6.7-4.2,10c-1.2,2.8-2.3,5.6-3.5,8.3c0,0.1-0.1,0.2-0.1,0.3L23.8,84.1z M86.4,16.6l-5,12l-5.3,12.7
		c-1.2,2.9-2.4,5.9-3.6,8.8c0,0.1-0.1,0.2-0.3,0.2c-5.1,0-10.1,0-15.2,0c0,0-0.1,0-0.1,0c0-0.1,0-0.2,0.1-0.2
		c1.4-3.5,2.9-7,4.3-10.4c1.4-3.3,2.8-6.7,4.2-10c1.4-3.3,2.8-6.7,4.2-10.1c0.4-0.9,0.8-1.9,1.2-2.8c0-0.1,0-0.1,0-0.2L86.4,16.6z
		 M60.1,71c-3-0.1-5.6-1.6-7.2-4.8c-1.1-2.3-1.1-4.7-0.2-7c0.9-2.3,2.6-4,4.9-4.9c1.4-0.6,3-0.7,4.5-0.5c2.4,0.3,4.3,1.5,5.7,3.4
		c1.1,1.5,1.6,3.3,1.5,5.1c-0.1,3.3-1.6,5.8-4.4,7.5C63.7,70.6,62.2,71,60.1,71z"/>
</g>
</svg>
