<?xml version="1.0" encoding="utf-8"?>
<!-- Generator: Adobe Illustrator 23.0.0, SVG Export Plug-In . SVG Version: 6.00 Build 0)  -->
<svg version="1.1" id="Capa_1" xmlns="http://www.w3.org/2000/svg" xmlns:xlink="http://www.w3.org/1999/xlink" x="0px" y="0px"
	 viewBox="0 0 322 369" style="enable-background:new 0 0 322 369;" xml:space="preserve">
<style type="text/css">
	.st0{fill:#CCD0D6;}
</style>
<g>
	<path class="st0" d="M280.5,42.6c9.1,0,17.1,3.5,24.1,10.4c7,7,10.4,15,10.4,24.1v252.4c0,9.1-3.5,17.1-10.4,24.1
		c-7,7-15,10.4-24.1,10.4H41c-9.1,0-17.2-3.5-24.1-10.4c-7-7-10.4-15-10.4-24.1V77.1C6.4,68.1,9.9,60,16.8,53c7-7,15-10.4,24.1-10.4
		h69.9c2.7-11.3,8.7-20.5,18.1-27.7c9.4-7.2,20-10.9,31.8-10.9c11.8,0,22.4,3.6,31.8,10.9c9.4,7.2,15.4,16.5,18.1,27.7H280.5z
		 M282.9,332V74.7h-32.2v57.9H70.7V74.7H38.6V332H282.9z M172.8,47.4c-3.2-3.2-7.2-4.8-12.1-4.8c-4.8,0-8.8,1.6-12.1,4.8
		c-3.2,3.2-4.8,7.2-4.8,12.1s1.6,9,4.8,12.5c3.2,3.5,7.2,5.2,12.1,5.2c4.8,0,8.8-1.7,12.1-5.2c3.2-3.5,4.8-7.6,4.8-12.5
		S176,50.6,172.8,47.4z"/>
</g>
</svg>
