<?xml version="1.0" encoding="utf-8"?>
<!-- Generator: Adobe Illustrator 23.0.0, SVG Export Plug-In . SVG Version: 6.00 Build 0)  -->
<svg version="1.1" id="Capa_1" xmlns="http://www.w3.org/2000/svg" xmlns:xlink="http://www.w3.org/1999/xlink" x="0px" y="0px"
	 viewBox="0 0 322 323" style="enable-background:new 0 0 322 323;" xml:space="preserve">
<style type="text/css">
	.st0{fill:#00B9EE;}
</style>
<g>
	<path class="st0" d="M281.2,6.5c9.2,0,17.3,3.5,24.3,10.5c7,7,10.5,15.1,10.5,24.3v241.3c0,9.2-3.5,17.3-10.5,24.3
		c-7,7-15.1,10.5-24.3,10.5H39.8c-9.2,0-17.3-3.5-24.3-10.5C8.5,300,5,291.9,5,282.7V41.4c0-9.2,3.5-17.3,10.5-24.3
		c7-7,15.1-10.5,24.3-10.5H281.2z M281.2,41.4H39.8v241.3h241.3V41.4z"/>
</g>
<g>
	<path class="st0" d="M101.6,145.8c-7,0-13.4-1.2-19.4-3.5c-6-2.3-11.2-5.5-15.7-9.6c-4.4-4.1-8-8.9-10.6-14.4
		c-2.6-5.5-3.9-11.4-3.9-17.6c0-6.2,1.3-12,3.9-17.4c2.6-5.4,6.1-10.2,10.6-14.2c4.4-4.1,9.7-7.3,15.7-9.6c6-2.3,12.5-3.5,19.4-3.5
		c7,0,13.4,1.2,19.4,3.5c6,2.3,11.3,5.5,15.8,9.6c4.5,4.1,8.1,8.8,10.6,14.2c2.5,5.4,3.8,11.2,3.8,17.4c0,6.2-1.2,12-3.8,17.6
		c-2.5,5.5-6,10.3-10.6,14.4c-4.5,4.1-9.8,7.3-15.8,9.6C115.1,144.6,108.6,145.8,101.6,145.8z M72,248.8l81.8-94l74.3-98.4L249,75
		l-79.2,91.7l-77.2,101L72,248.8z M101.6,123.2c4.8,0,9-2.2,12.3-6.5c3.4-4.3,5.1-9.6,5.1-15.8c0-6.2-1.7-11.4-5.1-15.7
		c-3.4-4.2-7.5-6.4-12.3-6.4c-4.8,0-8.9,2.2-12.3,6.5c-3.4,4.3-5.1,9.5-5.1,15.5c0,6.2,1.7,11.5,5.1,15.8
		C92.7,121,96.8,123.2,101.6,123.2z M219.4,267.9c-7,0-13.4-1.2-19.4-3.5s-11.2-5.5-15.7-9.6s-8-8.8-10.6-14.2
		c-2.6-5.4-3.9-11.2-3.9-17.4s1.3-12,3.9-17.6c2.6-5.5,6.1-10.3,10.6-14.4c4.4-4.1,9.7-7.3,15.7-9.6c6-2.3,12.5-3.5,19.4-3.5
		c7,0,13.4,1.2,19.4,3.5c6,2.3,11.3,5.5,15.8,9.6c4.5,4.1,8.1,8.9,10.6,14.4c2.5,5.5,3.8,11.4,3.8,17.6s-1.3,12-3.8,17.4
		c-2.5,5.4-6,10.1-10.6,14.2c-4.5,4.1-9.8,7.3-15.8,9.6S226.4,267.9,219.4,267.9z M219.4,245.3c4.8,0,9-2.2,12.5-6.5
		c3.5-4.4,5.2-9.5,5.2-15.5c0-6.2-1.7-11.5-5.2-15.8c-3.5-4.3-7.6-6.5-12.5-6.5c-4.8,0-8.9,2.2-12.3,6.5c-3.4,4.3-5.1,9.6-5.1,15.8
		s1.7,11.4,5.1,15.7C210.5,243.2,214.6,245.3,219.4,245.3z"/>
</g>
</svg>
