<?xml version="1.0" encoding="utf-8"?>
<!-- Generator: Adobe Illustrator 23.0.0, SVG Export Plug-In . SVG Version: 6.00 Build 0)  -->
<svg version="1.1" id="Capa_1" xmlns="http://www.w3.org/2000/svg" xmlns:xlink="http://www.w3.org/1999/xlink" x="0px" y="0px"
	 viewBox="0 0 72.2 84.6" style="enable-background:new 0 0 72.2 84.6;" xml:space="preserve">
<style type="text/css">
	.st0{fill:#CCD0D6;}
</style>
<g>
	<path class="st0" d="M49.4,0H13.9C7.6,0,2.5,5.1,2.5,11.4v61.8c0,6.3,5.1,11.4,11.4,11.4h45.1c6.3,0,11.4-5.1,11.4-11.4V23.4
		L49.4,0z M51,10.9l9.6,10.7H51C51,21.5,51,10.9,51,10.9z M58.9,78.6H13.9c-3,0-5.4-2.4-5.4-5.4V11.4c0-3,2.4-5.4,5.4-5.4H45v21.5
		h19.3v45.7C64.3,76.2,61.9,78.6,58.9,78.6z"/>
	<rect x="14.9" y="60.6" class="st0" width="42.9" height="6"/>
	<rect x="14.9" y="47.6" class="st0" width="42.9" height="6"/>
	<rect x="14.9" y="34.6" class="st0" width="42.9" height="6"/>
</g>
</svg>
