<?xml version="1.0" encoding="utf-8"?>
<!-- Generator: Adobe Illustrator 23.0.0, SVG Export Plug-In . SVG Version: 6.00 Build 0)  -->
<svg version="1.1" id="Capa_1" xmlns="http://www.w3.org/2000/svg" xmlns:xlink="http://www.w3.org/1999/xlink" x="0px" y="0px"
	 viewBox="0 0 512 512" style="enable-background:new 0 0 512 512;" xml:space="preserve">
<style type="text/css">
	.st0{fill:#00B9EE;}
</style>
<g>
	<path class="st0" d="M306.5,213.4c4.3,0,8.7-3.9,8.7-17.1c0-13.2-4.3-17.1-8.7-17.1s-8.7,3.9-8.7,17.1
		C297.8,209.5,302.1,213.4,306.5,213.4z"/>
	<path class="st0" d="M205.5,148.5c4.3,0,8.7-3.9,8.7-17.1c0-13.2-4.3-17.1-8.7-17.1c-4.3,0-8.7,3.9-8.7,17.1
		C196.9,144.5,201.2,148.5,205.5,148.5z"/>
	<path class="st0" d="M479.7,249.7h-70.1V0H102.3v249.7h-70L230.5,482H122.7v30h266.7v-30H281.5L479.7,249.7z M205.5,93
		c20.9,0,36.6,14,36.6,38.4c0,24.6-15.7,38.4-36.6,38.4s-36.6-13.8-36.6-38.4C168.9,107,184.7,93,205.5,93z M286.4,95h33.3
		l-94.1,137.7h-33.3L286.4,95z M306.5,157.9c20.9,0,36.6,14,36.6,38.4c0,24.6-15.7,38.4-36.6,38.4c-20.9,0-36.6-13.8-36.6-38.4
		C269.9,171.9,285.6,157.9,306.5,157.9z"/>
</g>
</svg>
