<?xml version="1.0" encoding="utf-8"?>
<!-- Generator: Adobe Illustrator 23.0.0, SVG Export Plug-In . SVG Version: 6.00 Build 0)  -->
<svg version="1.1" id="Layer_1" xmlns="http://www.w3.org/2000/svg" xmlns:xlink="http://www.w3.org/1999/xlink" x="0px" y="0px"
	 viewBox="0 0 512 509" style="enable-background:new 0 0 512 509;" xml:space="preserve">
<style type="text/css">
	.st0{fill:#00B9EE;}
</style>
<g>
	<path class="st0" d="M502.3,502.3H254.1H6c0-22.4,0.8-39.6,2.6-51.7c3.4-17.2,38.3-38.3,104.7-63.3c10.3-3.4,22.8-7.8,37.5-12.9
		c19.8-6.9,31.4-12.3,34.9-16.2c3.4-3.9,5.2-15.3,5.2-34.2c0-3.4,0-6,0-7.8c0-10.3-3.9-20.5-11.6-30.4c-7.8-9.9-13.8-27.3-18.1-52.3
		c-1.7-8.6-4.3-15.5-7.8-20.7c-3.5-5.2-6.9-15.5-10.3-31c-2.6-7.8-2.8-15.1-0.6-22c2.1-6.9,3.2-11.2,3.2-12.9
		c-1.7-13.8-3.5-28-5.2-42.6c-1.7-19.8,6.9-41.1,25.8-64C185.2,17.5,214.5,6,254.1,6c39.6,0,68.9,11.4,87.9,34.2
		c18.9,22.8,27.6,44.2,25.8,64c-1.7,14.7-3.5,28.9-5.2,42.6c0,1.7,1.1,6,3.2,12.9c2.1,6.9,1.9,14.2-0.6,22
		c-3.5,15.5-6.9,25.8-10.3,31c-3.5,5.2-6,12.1-7.8,20.7c-4.3,25-10.3,42.4-18.1,52.3c-7.8,9.9-11.6,20-11.6,30.4
		c0,25.8,2.6,40.5,7.8,43.9c1.7,1.7,22.8,9.9,63.3,24.6c1.7,0.9,3.9,1.7,6.5,2.6c66.3,25,101.2,46.1,104.7,63.3L502.3,502.3z"/>
</g>
</svg>
