<?xml version="1.0" encoding="utf-8"?>
<!-- Generator: Adobe Illustrator 23.0.0, SVG Export Plug-In . SVG Version: 6.00 Build 0)  -->
<svg version="1.1" id="Capa_1" xmlns="http://www.w3.org/2000/svg" xmlns:xlink="http://www.w3.org/1999/xlink" x="0px" y="0px"
	 viewBox="0 0 72.2 62.9" style="enable-background:new 0 0 72.2 62.9;" xml:space="preserve">
<style type="text/css">
	.st0{fill:#CCD0D6;}
</style>
<g>
	<path class="st0" d="M67.9,13.1c1,0.1,1.9,0.5,2.6,1.3c0.7,0.7,1,1.6,0.9,2.5l-2.2,41.3c-0.1,1-0.5,1.9-1.3,2.5
		c-0.7,0.6-1.6,0.9-2.7,0.8l-51.8-2.5c-1-0.1-1.9-0.5-2.6-1.1c-0.7-0.6-1-1.5-0.9-2.5l0.3-7.2L8,48.2c-0.9,0.1-1.8-0.1-2.4-0.7
		c-0.7-0.6-1.1-1.3-1.2-2.1l-3.3-37C1,7.6,1.2,6.8,1.8,6.1C2.4,5.4,3.1,5,4.1,4.9l46.4-3.8c0.9-0.1,1.8,0.1,2.4,0.7
		C53.6,2.5,54,3.2,54.1,4l0.8,8.5L67.9,13.1z M12.2,14c0.1-0.9,0.5-1.8,1.2-2.4c0.7-0.7,1.5-1,2.6-1l34.4,1.7L50,7.4h-0.2V7.3
		C49.7,6.5,49.1,6,48.3,6L7.4,9.5c-1,0-1.6,0.5-1.6,1.4v0.2L8.3,39l2.8-3.9L12.2,14z M64.6,51.1L66.2,20v-0.2c0-1-0.6-1.6-1.7-1.6
		l-9.1-0.5l-4.5-0.3l-32-1.4c-1,0-1.7,0.5-1.9,1.4v0.2l-0.5,9.9l-1.1,20.1v1.1l0.9-1.1l16-17.1c0.6-0.6,1.4-0.9,2.2-0.9
		c0.9,0,1.7,0.4,2.2,1.1l6.7,7.7l0.5,0.5c0.4,0.4,0.9,0.6,1.6,0.6c0.3,0,0.8-0.2,1.4-0.5l2.7-1.9c0.5-0.4,1.1-0.6,1.7-0.6
		c0.8,0,1.4,0.3,1.7,0.8l4.2,5.2L64.6,51.1z M54.6,32.2c-1.6,0-2.9-0.5-3.9-1.6c-1-1-1.6-2.4-1.6-3.9c0-1.6,0.5-2.9,1.6-3.9
		c1.1-1,2.4-1.6,3.8-1.6c1.6,0,2.9,0.5,3.9,1.6c1,1.1,1.6,2.4,1.6,3.8c0,1.5-0.5,2.7-1.6,3.8C57.3,31.7,56,32.2,54.6,32.2z"/>
</g>
</svg>
