<?xml version="1.0" encoding="utf-8"?>
<!-- Generator: Adobe Illustrator 23.0.0, SVG Export Plug-In . SVG Version: 6.00 Build 0)  -->
<svg version="1.1" id="Слой_1" xmlns="http://www.w3.org/2000/svg" xmlns:xlink="http://www.w3.org/1999/xlink" x="0px" y="0px"
	 viewBox="0 0 512 512" style="enable-background:new 0 0 512 512;" xml:space="preserve">
<style type="text/css">
	.st0{fill:#00B9EE;}
</style>
<path class="st0" d="M438,149c40.8,0,74-33.2,74-74c0-40.8-33.2-74-74-74c-40.8,0-74,33.2-74,74c0,16.8,5.6,32.3,15.1,44.7
	l-72.7,72.7C292.5,181.5,275,175,256,175c-14.2,0-27.6,3.6-39.3,10.1l-43.6-60.8c6.3-7.3,10.1-16.9,10.1-27.3c0-23.2-18.8-42-42-42
	c-23.2,0-42,18.8-42,42c0,23.2,18.8,42,42,42c5.5,0,10.8-1.1,15.6-3l43.6,60.8c-16.3,15-26.5,36.5-26.5,60.3c0,45.2,36.8,82,82,82
	c19,0,36.5-6.5,50.4-17.4l55.1,55.1c-6.6,9.4-10.6,20.9-10.6,33.3c0,32,26,58,58,58s58-26,58-58s-26-58-58-58
	c-12.4,0-23.9,3.9-33.3,10.6l-55.1-55.1C331.5,293.5,338,276,338,257c0-19-6.5-36.5-17.4-50.4l72.7-72.7
	C405.7,143.4,421.2,149,438,149z M119.3,97c0-12.1,9.9-22,22-22c12.1,0,22,9.9,22,22c0,12.1-9.9,22-22,22
	C129.1,119,119.3,109.1,119.3,97z M438,21c29.8,0,54,24.2,54,54c0,29.8-24.2,54-54,54c-14.4,0-27.6-5.7-37.3-15
	c-0.3-0.3-0.5-0.7-0.8-1c-0.3-0.3-0.6-0.6-1-0.8c-9.3-9.7-15-22.8-15-37.2C384,45.2,408.2,21,438,21z M194,257c0-34.2,27.8-62,62-62
	s62,27.8,62,62c0,34.2-27.8,62-62,62S194,291.2,194,257z M447,410c0,20.9-17,38-38,38s-38-17-38-38c0-9.8,3.8-18.8,9.9-25.6
	c0.5-0.3,0.9-0.7,1.4-1.1c0.4-0.4,0.8-0.9,1.1-1.4c6.8-6.2,15.7-9.9,25.6-9.9C430,372,447,389.1,447,410z"/>
<path class="st0" d="M256,223c-18.7,0-34,15.3-34,34c0,18.7,15.3,34,34,34s34-15.3,34-34C290,238.2,274.7,223,256,223z M256,271
	c-7.7,0-14-6.3-14-14c0-7.7,6.3-14,14-14s14,6.3,14,14C270,264.7,263.7,271,256,271z"/>
<path class="st0" d="M134.4,364.5L111.9,387c-11.7-8.8-26.2-14-41.9-14c-38.6,0-70,31.4-70,70c0,38.6,31.4,70,70,70
	c38.6,0,70-31.4,70-70c0-15.7-5.2-30.2-14-41.9l22.5-22.5c3.9-3.9,3.9-10.2,0-14.1C144.6,360.6,138.3,360.6,134.4,364.5z M70,493
	c-27.6,0-50-22.4-50-50c0-27.6,22.4-50,50-50c27.6,0,50,22.4,50,50C120,470.6,97.6,493,70,493z"/>
<path class="st0" d="M166.2,332.7c-3.9,3.9-3.9,10.2,0,14.1l0,0c1.9,1.9,4.5,2.9,7,2.9c2.6,0,5.1-1,7.1-2.9c3.9-3.9,3.9-10.3,0-14.2
	C176.4,328.8,170.1,328.8,166.2,332.7z"/>
</svg>
