<?xml version="1.0" encoding="utf-8"?>
<!-- Generator: Adobe Illustrator 23.0.0, SVG Export Plug-In . SVG Version: 6.00 Build 0)  -->
<svg version="1.1" id="Capa_1" xmlns="http://www.w3.org/2000/svg" xmlns:xlink="http://www.w3.org/1999/xlink" x="0px" y="0px"
	 viewBox="0 0 512 512" style="enable-background:new 0 0 512 512;" xml:space="preserve">
<style type="text/css">
	.st0{fill:#00B9EE;}
</style>
<g>
	<g>
		<path class="st0" d="M507.5,71.2l-63.9-42.5c-3.1-2-7-2.2-10.3-0.5c-3.2,1.7-5.3,5.1-5.3,8.8v8.5H284.3c-5.5,0-10,4.5-10,10
			s4.5,10,10,10h153.8c5.5,0,9.9-4.4,10-9.8l35.9,23.8l-35.9,23.8c-0.1-5.5-4.5-9.8-10-9.8H328c-5.5,0-10,4.5-10,10s4.5,10,10,10
			h100.1v8.5c0,3.7,2,7.1,5.3,8.8c1.5,0.8,3.1,1.2,4.7,1.2c1.9,0,3.9-0.6,5.5-1.7l63.9-42.5c2.8-1.9,4.5-5,4.5-8.3
			C512,76.1,510.3,73,507.5,71.2z"/>
	</g>
</g>
<g>
	<g>
		<path class="st0" d="M291.4,96.4c-1.9-1.9-4.4-2.9-7.1-2.9s-5.2,1.1-7.1,2.9c-1.9,1.9-2.9,4.4-2.9,7.1s1.1,5.2,2.9,7.1
			c1.9,1.9,4.4,2.9,7.1,2.9s5.2-1.1,7.1-2.9c1.9-1.9,2.9-4.4,2.9-7.1S293.2,98.3,291.4,96.4z"/>
	</g>
</g>
<g>
	<g>
		<path class="st0" d="M502,219H348.2c-5.5,0-9.9,4.4-10,9.8L302.4,205l35.9-23.8c0.1,5.5,4.5,9.8,10,9.8H502c5.5,0,10-4.5,10-10
			s-4.5-10-10-10H358.2v-8.5c0-3.7-2-7.1-5.3-8.8c-3.2-1.7-7.2-1.6-10.3,0.5l-63.9,42.5c-2.8,1.9-4.5,5-4.5,8.3s1.7,6.5,4.5,8.3
			l63.9,42.5c1.7,1.1,3.6,1.7,5.5,1.7c1.6,0,3.2-0.4,4.7-1.2c3.2-1.7,5.3-5.1,5.3-8.8V239H502c5.5,0,10-4.5,10-10
			C512,223.5,507.5,219,502,219z"/>
	</g>
</g>
<g>
	<g>
		<path class="st0" d="M167.6,337.8c-1.9-1.9-4.4-2.9-7.1-2.9s-5.2,1.1-7.1,2.9c-1.9,1.9-2.9,4.4-2.9,7.1c0,2.6,1.1,5.2,2.9,7.1
			c1.9,1.9,4.4,2.9,7.1,2.9s5.2-1.1,7.1-2.9c1.9-1.9,2.9-4.4,2.9-7.1C170.5,342.3,169.4,339.7,167.6,337.8z"/>
	</g>
</g>
<g>
	<g>
		<path class="st0" d="M444,363.9l-69.4-69.4c-9-9-21.1-14-33.9-14s-24.8,5-33.9,14L291,310.3c-7.5,7.5-19.7,7.5-27.3,0l-89.1-89.1
			c-3.6-3.6-5.6-8.5-5.6-13.6s2-10,5.6-13.6l15.8-15.8c18.7-18.7,18.7-49.1,0-67.8L121.1,41c-9-9-21.1-14-33.9-14s-24.8,5-33.9,14
			L36.7,57.6c-49,49-49,128.7,0,177.7l92.7,92.7c3.9,3.9,10.2,3.9,14.1,0c3.9-3.9,3.9-10.2,0-14.1l-92.7-92.7
			c-39-39-41.1-101.1-6.2-142.6l73.6,73.6c2,2,4.5,2.9,7.1,2.9s5.1-1,7.1-2.9c3.9-3.9,3.9-10.2,0-14.1L58.5,64.1l9-9
			c5.3-5.3,12.3-8.2,19.7-8.2c7.5,0,14.5,2.9,19.7,8.2l69.4,69.4c10.9,10.9,10.9,28.6,0,39.5l-15.8,15.8
			c-7.4,7.4-11.5,17.3-11.5,27.8s4.1,20.4,11.5,27.8l89.1,89.1c7.4,7.4,17.3,11.5,27.8,11.5c6.9,0,13.6-1.8,19.5-5.2l73.4,73.4
			c2,2,4.5,2.9,7.1,2.9s5.1-1,7.1-2.9c3.9-3.9,3.9-10.2,0-14.1L312,317.6l9-9c5.3-5.3,12.3-8.2,19.7-8.2s14.5,2.9,19.7,8.2
			l69.4,69.4c10.9,10.9,10.9,28.6,0,39.5l-16.6,16.6c-20,20-46.5,30.9-74.7,30.9c-28.2,0-54.7-11-74.7-30.9l-69.2-69.2
			c-3.9-3.9-10.2-3.9-14.1,0c-3.9,3.9-3.9,10.2,0,14.1l69.2,69.2C273.4,472,305,485,338.5,485s65.1-13.1,88.8-36.8l16.6-16.6
			C462.6,412.9,462.6,382.6,444,363.9z"/>
	</g>
</g>
</svg>
