<?xml version="1.0" encoding="utf-8"?>
<!-- Generator: Adobe Illustrator 23.0.0, SVG Export Plug-In . SVG Version: 6.00 Build 0)  -->
<svg version="1.1" id="Capa_1" xmlns="http://www.w3.org/2000/svg" xmlns:xlink="http://www.w3.org/1999/xlink" x="0px" y="0px"
	 viewBox="0 0 55.9 55.9" style="enable-background:new 0 0 55.9 55.9;" xml:space="preserve">
<style type="text/css">
	.st0{fill:#00B9EE;}
</style>
<g>
	<path class="st0" d="M18.1,36.9l-5.6,8l-3.9-3.2c-0.4-0.4-1.1-0.3-1.4,0.1c-0.4,0.4-0.3,1.1,0.1,1.4l4.8,3.9
		c0.2,0.1,0.4,0.2,0.6,0.2c0,0,0.1,0,0.1,0c0.3,0,0.5-0.2,0.7-0.4l6.2-8.9c0.3-0.5,0.2-1.1-0.3-1.4C19.1,36.3,18.4,36.4,18.1,36.9z"
		/>
	<path class="st0" d="M55.4,41.4c-2-3.8-9-7.9-9.3-8.1c-1.3-0.7-2.6-1-3.7-0.6c-0.8,0.2-1.5,0.8-2,1.5c-1,1.2-2.3,2.6-2.6,2.9
		c-2.4,1.6-4.3,1.4-6.3-0.6L20,24.9c-2-2-2.2-3.9-0.6-6.3c0.2-0.3,1.6-1.6,2.9-2.6c0.8-0.5,1.3-1.1,1.5-2c0.3-1.1,0.1-2.5-0.7-3.7
		C22.9,10,18.8,3.1,15,1c-1.9-1-4.3-0.7-5.8,0.9L6.7,4.5c-4,4-5.5,8.6-4.3,13.5c0.9,3.8,3.3,7.8,7.2,12C4.1,31.4,0,36.5,0,42.5
		c0,7.2,5.8,13,13,13c6,0,11-4.1,12.5-9.6c4.5,4.4,8.8,7.2,12.9,8.1c1.1,0.3,2.2,0.4,3.2,0.4c3.7,0,7.2-1.6,10.3-4.7l2.5-2.5
		C56,45.6,56.4,43.3,55.4,41.4z M13,53.5c-6.1,0-11-4.9-11-11c0-5.6,4.2-10.3,9.7-10.9l0,0c0.1,0,0.3,0,0.4,0c0.3,0,0.6,0,0.9,0h0
		c6.1,0,11,4.9,11,11c0,0.3,0,0.6,0,0.9c0,0.1,0,0.3,0,0.4C23.3,49.2,18.6,53.5,13,53.5z M53.1,45.8l-2.5,2.5
		c-3.5,3.5-7.4,4.8-11.7,3.8c-3.8-0.9-7.8-3.5-12.1-7.7L26,43.5c0-0.4,0-0.7,0-1c0-7.2-5.8-13-13-13l0,0l0,0c0,0,0,0,0,0
		c-0.3,0-0.7,0-1,0c-4.2-4.2-6.8-8.3-7.6-12c-1-4.3,0.2-8.1,3.8-11.7l2.5-2.5c0.9-0.9,2.3-1.1,3.4-0.5c3.3,1.7,7.3,8.5,7.3,8.5
		c0.4,0.8,0.6,1.6,0.5,2.2c-0.1,0.4-0.3,0.6-0.7,0.8L21,14.5c-0.9,0.7-2.9,2.4-3.3,3.1c-0.6,0.9-1,1.8-1.2,2.7
		c-0.7-1.4-1.3-3.1-1.5-4.9c-0.1-0.5-0.5-0.9-1.1-0.9c-0.5,0.1-0.9,0.5-0.9,1.1c0.7,7,6.1,11.5,6.4,11.7c0,0,0.1,0,0.1,0l10.6,10.6
		c0,0,0.1,0.1,0.1,0.1c0,0.1,0.1,0.1,0.1,0.2c0.2,0.2,4.7,4.6,11.6,5.3c0,0,0.1,0,0.1,0c0.5,0,0.9-0.4,1-0.9c0.1-0.5-0.3-1-0.9-1.1
		c-2.1-0.2-4-0.8-5.5-1.6c0.8-0.2,1.5-0.6,2.3-1.1c0.6-0.4,2.4-2.5,3.1-3.3l0.1-0.2c0.2-0.4,0.5-0.6,0.8-0.7c0.6-0.2,1.4,0,2.2,0.5
		c0.1,0,6.8,4,8.5,7.3C54.2,43.5,54,44.8,53.1,45.8z"/>
</g>
</svg>
