<?xml version="1.0" encoding="utf-8"?>
<!-- Generator: Adobe Illustrator 23.0.0, SVG Export Plug-In . SVG Version: 6.00 Build 0)  -->
<svg version="1.1" id="Слой_1" xmlns="http://www.w3.org/2000/svg" xmlns:xlink="http://www.w3.org/1999/xlink" x="0px" y="0px"
	 viewBox="0 0 512 512" style="enable-background:new 0 0 512 512;" xml:space="preserve">
<style type="text/css">
	.st0{fill:#00B9EE;}
</style>
<path class="st0" d="M358.9,316c-34.2,0-62,27.8-62,62s27.8,62,62,62s62-27.8,62-62S393.1,316,358.9,316z M358.9,420
	c-23.2,0-42-18.8-42-42s18.8-42,42-42s42,18.8,42,42S382.1,420,358.9,420z"/>
<path class="st0" d="M482.9,345.4h-11.8c-2.4-8.3-5.7-16.2-9.9-23.8l8.3-8.3c1.9-1.9,2.9-4.4,2.9-7.1c0-2.7-1.1-5.2-2.9-7.1
	l-31.9-31.9c-3.9-3.9-10.2-3.9-14.1,0l-8.3,8.3c-7.6-4.2-15.5-7.5-23.8-9.9V254c0-1.5-0.4-3-1-4.3l31.7-32.3c1.8-1.9,2.9-4.4,2.9-7
	V158c0-5.5-4.5-10-10-10H274.5v-35.2c14.5-3.9,25.2-17.1,25.2-32.8c0-18.8-15.3-34-34-34c-18.7,0-34,15.3-34,34
	c0,14.8,9.6,27.5,22.8,32.1V148H137.1c0.8-3.3,1.2-6.7,1.2-10.1c0-23.8-19.3-43.1-43.1-43.1c-23.8,0-43.1,19.3-43.1,43.1
	c0,3.4,0.4,6.8,1.2,10.1H31c-5.5,0-10,4.5-10,10v52.4c0,2.6,1,5.1,2.9,7l38.7,39.5c3.9,3.9,10.2,4,14.1,0.1c3.9-3.9,4-10.2,0.1-14.1
	L41,206.3V168h80.4h0h0H405v38.3L368,244h-31.6c-5.5,0-10,4.5-10,10v11.7c-8.3,2.4-16.2,5.7-23.8,9.9l-8.3-8.3
	c-3.9-3.9-10.2-3.9-14.1,0l-31.9,31.9c-1.9,1.9-2.9,4.4-2.9,7.1s1.1,5.2,2.9,7.1l8.3,8.3c-4.2,7.6-7.5,15.5-9.9,23.8H235
	c-5.5,0-10,4.5-10,10l0,45.1c0,2.7,1.1,5.2,2.9,7.1c1.9,1.9,4.4,2.9,7.1,2.9h11.8c2.4,8.3,5.7,16.2,9.9,23.8l-8.4,8.4
	c-1.5,1.5-2.5,3.4-2.8,5.4l-62.6,36.5V355.2c0-2.6-1-5.1-2.9-7l-40.2-41c-3.9-3.9-10.2-4-14.1-0.1s-4,10.2-0.1,14.1l37.4,38.1V502
	c0,3.6,1.9,6.9,5,8.7c1.5,0.9,3.3,1.3,5,1.3c1.7,0,3.5-0.5,5-1.4l78.4-45.8l23.8,23.8c1.9,1.9,4.4,2.9,7.1,2.9s5.2-1.1,7.1-2.9
	l8.4-8.4c7.6,4.2,15.5,7.5,23.8,9.9V502c0,5.5,4.5,10,10,10h45.1c5.5,0,10-4.5,10-10v-11.9c8.3-2.4,16.2-5.7,23.8-9.9l8.4,8.4
	c1.9,1.9,4.4,2.9,7.1,2.9s5.2-1.1,7.1-2.9l31.9-31.9c3.9-3.9,3.9-10.2,0-14.1l-8.4-8.4c4.2-7.6,7.5-15.5,9.9-23.8h11.8
	c5.5,0,10-4.5,10-10v-45.1C492.9,349.9,488.5,345.4,482.9,345.4z M265.6,66c7.7,0,14,6.3,14,14c0,7.7-6.3,14-14,14
	c-7.7,0-14-6.3-14-14C251.6,72.3,257.9,66,265.6,66z M72.1,137.9c0-12.7,10.4-23.1,23.1-23.1s23.1,10.4,23.1,23.1
	c0,3.6-0.8,7-2.3,10.1H74.4C72.9,144.9,72.1,141.5,72.1,137.9z M472.9,390.5h-9.6c-4.7,0-8.8,3.3-9.8,7.9
	c-2.5,11.4-6.9,22.2-13.3,32c-2.6,4-2,9.2,1.3,12.5l6.8,6.8l-17.7,17.7l-6.8-6.8c-3.3-3.3-8.5-3.9-12.5-1.3
	c-9.8,6.4-20.6,10.8-32,13.3c-4.6,1-7.9,5.1-7.9,9.8v9.6h-25.1v-9.6c0-4.7-3.3-8.8-7.9-9.8c-11.4-2.5-22.2-6.9-32-13.3
	c-4-2.6-9.2-2-12.5,1.3l-6.8,6.8l-17.7-17.7l6.8-6.8c3.3-3.3,3.9-8.5,1.3-12.5c-6.4-9.8-10.8-20.6-13.3-32c-1-4.6-5.1-7.9-9.8-7.9
	h-9.6l0-25.1h9.6c4.7,0,8.8-3.3,9.8-7.9c2.5-11.4,6.9-22.2,13.3-32c2.6-4,2-9.2-1.3-12.5l-6.7-6.7l17.7-17.7l6.7,6.7
	c3.3,3.3,8.5,3.9,12.5,1.3c9.8-6.4,20.6-10.8,32-13.3c4.6-1,7.9-5.1,7.9-9.8V264h25.1v9.5c0,4.7,3.3,8.8,7.9,9.8
	c11.4,2.5,22.2,6.9,32,13.3c4,2.6,9.2,2,12.5-1.3l6.7-6.7l17.7,17.7l-6.7,6.7c-3.3,3.3-3.9,8.5-1.3,12.5c6.4,9.8,10.8,20.6,13.3,32
	c1,4.6,5.1,7.9,9.8,7.9h9.6V390.5z"/>
<path class="st0" d="M161.4,74.7v37.7c0,5.5,4.5,10,10,10c5.5,0,10-4.5,10-10V74.7c16.1-4.4,28-19.2,28-36.7c0-21-17-38-38-38
	s-38,17-38,38C133.4,55.5,145.3,70.3,161.4,74.7z M171.4,20c9.9,0,18,8.1,18,18s-8.1,18-18,18c-9.9,0-18-8.1-18-18
	S161.5,20,171.4,20z"/>
<path class="st0" d="M351.8,74.7V117c0,5.5,4.5,10,10,10c5.5,0,10-4.5,10-10V74.7c16.1-4.4,28-19.2,28-36.7c0-21-17-38-38-38
	s-38,17-38,38C323.8,55.5,335.7,70.3,351.8,74.7z M361.8,20c9.9,0,18,8.1,18,18s-8.1,18-18,18s-18-8.1-18-18S351.9,20,361.8,20z"/>
<path class="st0" d="M101.2,272c-2.6,0-5.2,1.1-7.1,2.9c-1.9,1.9-2.9,4.4-2.9,7.1s1.1,5.2,2.9,7.1c1.9,1.9,4.4,2.9,7.1,2.9
	c2.6,0,5.2-1.1,7.1-2.9c1.9-1.9,2.9-4.4,2.9-7.1s-1.1-5.2-2.9-7.1C106.4,273.1,103.8,272,101.2,272z"/>
</svg>
