<?xml version="1.0" encoding="utf-8"?>
<!-- Generator: Adobe Illustrator 23.0.0, SVG Export Plug-In . SVG Version: 6.00 Build 0)  -->
<svg version="1.1" id="Слой_1" xmlns="http://www.w3.org/2000/svg" xmlns:xlink="http://www.w3.org/1999/xlink" x="0px" y="0px"
	 viewBox="0 0 512 512" style="enable-background:new 0 0 512 512;" xml:space="preserve">
<style type="text/css">
	.st0{fill:#00B9EE;}
</style>
<path class="st0" d="M236,306.9h-64c-5.5,0-10-4.5-10-10V185h-22c-4,0-7.7-2.4-9.2-6.2c-1.5-3.7-0.7-8,2.2-10.9l64-64
	c3.9-3.9,10.2-3.9,14.1,0l64,64c2.9,2.9,3.7,7.2,2.2,10.9c-1.5,3.7-5.2,6.2-9.2,6.2h-22v111.9C246,302.4,241.5,306.9,236,306.9z
	 M182,286.9h44V175c0-5.5,4.5-10,10-10h7.9L204,125.2L164.1,165h7.9c5.5,0,10,4.5,10,10V286.9z"/>
<path class="st0" d="M308,411c-2.6,0-5.1-1-7.1-2.9l-64-64c-2.9-2.9-3.7-7.2-2.2-10.9c1.5-3.7,5.2-6.2,9.2-6.2h22V215
	c0-5.5,4.5-10,10-10h64c5.5,0,10,4.5,10,10V327h22c4,0,7.7,2.4,9.2,6.2c1.5,3.7,0.7,8-2.2,10.9l-64,64C313.1,410,310.6,411,308,411z
	 M268.1,347l39.9,39.9l39.9-39.9H340c-5.5,0-10-4.5-10-10V225h-44V337c0,5.5-4.5,10-10,10H268.1z"/>
<path class="st0" d="M54,266H10c-5.5,0-10-4.5-10-10c0-52.3,15.6-102.5,45-145.1c3.1-4.5,9.4-5.7,13.9-2.5s5.7,9.4,2.5,13.9
	C36.2,158.8,22.1,201.4,20.2,246h24C49.5,133.7,142.5,44,256,44c56.4,0,109.5,22,149.5,61.8c1.9,1.9,2.9,4.4,2.9,7.1
	c0,2.7-1.1,5.2-2.9,7.1l-2.1,2.1H438V87.5l-1.3,1.3c-3.9,3.9-10.2,3.9-14.1,0C378,44.4,318.9,20,256,20
	c-48.2,0-94.4,14.3-133.7,41.5c-4.5,3.1-10.8,2-13.9-2.5c-3.1-4.5-2-10.8,2.5-13.9C153.5,15.6,203.7,0,256,0
	c64.9,0,126.1,24,173.5,67.8l11.4-11.4c2.9-2.9,7.2-3.7,10.9-2.2c3.7,1.6,6.2,5.2,6.2,9.2v68.8c0,5.5-4.5,10-10,10h-68.8
	c-4,0-7.7-2.4-9.2-6.2c-1.5-3.7-0.7-8,2.2-10.9l11.9-11.9C348.8,81.4,303.7,64,256,64C150.1,64,64,150.1,64,256
	C64,261.5,59.5,266,54,266z"/>
<path class="st0" d="M256,512c-64.9,0-126.1-24-173.5-67.8l-11.4,11.4c-2.9,2.9-7.2,3.7-10.9,2.2c-3.7-1.6-6.2-5.2-6.2-9.2v-68.8
	c0-5.5,4.5-10,10-10h68.8c4,0,7.7,2.4,9.2,6.2c1.5,3.7,0.7,8-2.2,10.9l-11.9,11.9C163.2,430.6,208.3,448,256,448
	c105.9,0,192-86.1,192-192c0-5.5,4.5-10,10-10h44c5.5,0,10,4.5,10,10c0,68.4-26.6,132.7-75,181S324.4,512,256,512z M82.4,420.3
	c2.6,0,5.1,1,7.1,2.9C134,467.6,193.1,492,256,492c63,0,122.3-24.5,166.9-69.1c42.2-42.2,66.5-97.6,68.9-156.9h-24
	c-5.2,112.3-98.2,202-211.8,202c-56.4,0-109.5-22-149.5-61.8c-1.9-1.9-2.9-4.4-2.9-7.1c0-2.7,1.1-5.2,2.9-7.1l2.1-2.1H74v34.6
	l1.3-1.3C77.2,421.2,79.8,420.3,82.4,420.3z"/>
<path class="st0" d="M82.1,92.1c-2.6,0-5.2-1.1-7.1-2.9s-2.9-4.4-2.9-7.1s1.1-5.2,2.9-7.1s4.4-2.9,7.1-2.9s5.2,1.1,7.1,2.9
	s2.9,4.4,2.9,7.1c0,2.6-1.1,5.2-2.9,7.1S84.7,92.1,82.1,92.1z"/>
</svg>
