<?xml version="1.0" encoding="utf-8"?>
<!-- Generator: Adobe Illustrator 23.0.0, SVG Export Plug-In . SVG Version: 6.00 Build 0)  -->
<svg version="1.1" id="Capa_1" xmlns="http://www.w3.org/2000/svg" xmlns:xlink="http://www.w3.org/1999/xlink" x="0px" y="0px"
	 viewBox="0 0 512 512" style="enable-background:new 0 0 512 512;" xml:space="preserve">
<style type="text/css">
	.st0{fill:none;stroke:#00B9EE;stroke-width:16;stroke-miterlimit:10;}
	.st1{enable-background:new    ;}
	.st2{fill:#00B9EE;}
</style>
<circle class="st0" cx="255.9" cy="256.4" r="242"/>
<g class="st1">
	<path class="st2" d="M329.7,204.5c0.5,1,0.7,1.7,0.7,2.1c0,0.5-0.2,1.2-0.7,2.1l-89.2,114.6c-1.4,1.4-2.5,2.2-3.2,2.2
		c-1.2,0-2.4-0.6-3.6-1.8l-50.5-48.7l-1.1-1.1c-0.5-1-0.7-1.7-0.7-2.1c0-0.2,0.2-0.8,0.7-1.8l0.7-0.7c6.7-7.2,11.9-12.7,15.8-16.5
		c1.4-1.4,2.4-2.1,2.9-2.1c1,0,2.1,0.7,3.6,2.1l28.7,27.9l71.6-92.1c0.5-0.5,1.2-0.7,2.1-0.7c0.7,0,1.5,0.2,2.5,0.7L329.7,204.5z"/>
</g>
</svg>
