<?xml version="1.0" encoding="utf-8"?>
<!-- Generator: Adobe Illustrator 23.0.0, SVG Export Plug-In . SVG Version: 6.00 Build 0)  -->
<svg version="1.1" id="Layer_1" xmlns="http://www.w3.org/2000/svg" xmlns:xlink="http://www.w3.org/1999/xlink" x="0px" y="0px"
	 viewBox="0 0 84 84" style="enable-background:new 0 0 84 84;" xml:space="preserve">
<style type="text/css">
	.st0{fill:#696969;}
</style>
<g>
	<path class="st0" d="M27.9,29.5L42.8,77c0.2,0.9,1.1,1.5,2,1.6c0.1,0,0.1,0,0.2,0c0.9,0,1.7-0.5,2.1-1.3l9.4-19.5l20.3,20.3
		c0.4,0.5,1,0.7,1.6,0.7s1.1-0.2,1.6-0.7c0.9-0.9,0.9-2.4,0-3.3L58,52.6c-0.1,0-0.2-0.1-0.3-0.2c-0.3-0.3-0.5-0.5-0.9-0.7
		c-1.2-0.5-2.5-0.1-3.1,1.1L45.4,70L33.6,32.3l37.1,12.1l-9.6,4.4c-1.2,0.6-1.7,1.9-1.2,3.1c0.6,1.2,1.9,1.7,3.1,1.2l15-6.8
		c0.9-0.4,1.5-1.2,1.4-2.2c-0.1-1-0.7-1.8-1.6-2.1l-47-15.4c-0.9-0.2-1.8,0-2.4,0.6C27.8,27.8,27.6,28.7,27.9,29.5z"/>
	<path class="st0" d="M3.4,38.4c0,15.8,10.7,29.7,26,33.8c0.2,0.1,0.4,0.1,0.6,0.1c1,0,1.9-0.7,2.2-1.7c0.4-1.2-0.4-2.5-1.6-2.8
		C17.4,64.3,8.1,52.2,8.1,38.5c0-16.7,13.6-30.3,30.3-30.3c12.4,0,23.4,7.4,28.1,18.8c0.5,1.2,1.8,1.8,3,1.3c1.2-0.5,1.8-1.8,1.3-3
		C65.4,12.1,52.7,3.6,38.4,3.6C19.2,3.6,3.5,19.3,3.4,38.4z"/>
	<path class="st0" d="M18.1,38.4c0-11,9-20,20-20c7.7,0,14.8,4.5,18.1,11.4c0.6,1.2,1.9,1.6,3.1,1.1c1.2-0.6,1.6-1.9,1.1-3.1
		c-4.1-8.6-12.8-14.1-22.3-14.1c-13.6,0-24.6,11-24.6,24.6c0,5.1,1.5,10,4.4,14.1c2.8,4.1,6.7,7.1,11.3,8.9c0.2,0.1,0.5,0.2,0.8,0.2
		c1,0,1.8-0.6,2.2-1.5c0.5-1.2-0.1-2.5-1.3-3C23.2,54.1,18.1,46.6,18.1,38.4z"/>
</g>
</svg>
