<?xml version="1.0" encoding="utf-8"?>
<!-- Generator: Adobe Illustrator 23.0.0, SVG Export Plug-In . SVG Version: 6.00 Build 0)  -->
<svg version="1.1" id="Capa_1" xmlns="http://www.w3.org/2000/svg" xmlns:xlink="http://www.w3.org/1999/xlink" x="0px" y="0px"
	 viewBox="0 0 512 512" style="enable-background:new 0 0 512 512;" xml:space="preserve">
<style type="text/css">
	.st0{fill:#696969;}
</style>
<path class="st0" d="M366,345l0-188.2c0-5.2-4.6-9.9-9.9-9.9l-44.6,0c-5.5,0-9.9,4.4-9.9,9.9l0,85l-184-184c-3.9-3.9-10.1-3.9-14,0
	L69,92.5c-3.9,3.9-3.9,10.1,0,14l184,184l-85,0c-5.5,0-9.9,4.4-9.9,9.9l0,44.6c0,2.6,1,5.1,2.9,7c1.9,1.9,4.4,2.9,7,2.9l188.2,0
	c2.6,0,5.1-1,7-2.9C365,350.1,366,347.6,366,345z"/>
<g>
	<g>
		<path class="st0" d="M512,429.3V82.7C512,37,475,0,429.3,0H255.9c-5,0-9,4.1-8.9,9l0.6,46.1c0.1,4.9,4,8.8,8.9,8.8h108.8
			c45.7,0,82.7,37,82.7,82.7v218.6c0,45.7-37,82.7-82.7,82.7H146.7C101,448,64,411,64,365.3V288c0-5-4.1-9-9-8.9l-46.1,0.6
			c-4.9,0.1-8.8,4-8.8,8.9v140.8C0,475,37,512,82.7,512h346.6C475,512,512,475,512,429.3z"/>
	</g>
</g>
</svg>
