<?xml version="1.0" encoding="utf-8"?>
<!-- Generator: Adobe Illustrator 23.0.0, SVG Export Plug-In . SVG Version: 6.00 Build 0)  -->
<svg version="1.1" id="Layer_1" xmlns="http://www.w3.org/2000/svg" xmlns:xlink="http://www.w3.org/1999/xlink" x="0px" y="0px"
	 viewBox="0 0 474 512" style="enable-background:new 0 0 474 512;" xml:space="preserve">
<style type="text/css">
	.st0{fill:#999999;}
</style>
<g>
	<path class="st0" d="M377.9,509.3c-29.2,0-57.3-12.6-77.9-33.1L42.5,219C19,195.2,5.1,162.7,5.1,129.3C5.1,59,60.4,3,130.7,3
		c33.8,0,66.3,13.6,90.5,37.4l200.5,200.8c2,2,3.3,4.6,3.3,7.3c0,6.9-18.5,25.5-25.5,25.5c-3,0-5.6-1.3-7.6-3.3L191,69.6
		c-15.9-15.6-37.4-25.5-60-25.5c-47.1,0-83.5,38.1-83.5,84.8c0,22.5,9.3,44.1,25.2,60l257.2,257.5c12.6,12.6,30.1,20.9,48.1,20.9
		c28.2,0,49-20.9,49-49c0-18.2-8.3-35.5-20.9-48.1L213.5,177.6c-5.3-5-12.6-7.9-19.9-7.9c-12.6,0-22.2,9.3-22.2,22.2
		c0,7.3,3.3,14.3,8.3,19.6l135.9,135.9c2,2,3.3,4.6,3.3,7.3c0,6.9-18.9,25.8-25.8,25.8c-2.7,0-5.3-1.3-7.3-3.3L149.9,241.3
		c-13.3-12.9-20.9-31.1-20.9-49.4c0-36.5,28.5-64.9,64.9-64.9c18.6,0,36.5,7.6,49.4,20.9l192.5,192.5c20.9,20.6,33.1,48.7,33.1,77.9
		C469,469.9,429.6,509.3,377.9,509.3z"/>
</g>
</svg>
