<?xml version="1.0" encoding="utf-8"?>
<!-- Generator: Adobe Illustrator 23.0.0, SVG Export Plug-In . SVG Version: 6.00 Build 0)  -->
<svg version="1.1" id="Layer_1" xmlns="http://www.w3.org/2000/svg" xmlns:xlink="http://www.w3.org/1999/xlink" x="0px" y="0px"
	 viewBox="0 0 474 472.3" style="enable-background:new 0 0 474 472.3;" xml:space="preserve">
<style type="text/css">
	.st0{fill:#999999;}
</style>
<g>
	<path class="st0" d="M72.7,71.9C118.2,26.5,172.9,3.7,237,3.7c64.1,0,118.8,22.7,164.3,68.2c45.4,45.5,68.2,100.2,68.2,164.3
		c0,64.1-22.7,118.8-68.2,164.3c-45.5,45.5-100.2,68.2-164.3,68.2c-64.1,0-118.8-22.7-164.3-68.2C27.3,355,4.6,300.3,4.6,236.2
		C4.6,172.1,27.3,117.3,72.7,71.9z M105.7,367.5c36.1,36.1,79.9,54.2,131.3,54.2c51.4,0,95.2-18.1,131.3-54.2
		c36.1-36.1,54.2-79.9,54.2-131.3c0-51.4-18.1-95.2-54.2-131.3C332.2,68.7,288.4,50.7,237,50.7c-51.4,0-95.2,18.1-131.3,54.2
		C69.6,141,51.5,184.8,51.5,236.2C51.5,287.6,69.6,331.4,105.7,367.5z M309.1,341.8c-21.2,14.5-45.3,21.8-72.1,21.8
		c-26.8,0-50.8-7.3-72.1-21.8s-36.7-34.1-46.4-58.7h236.9C345.8,307.7,330.3,327.3,309.1,341.8z M180,203.2
		c-6.7,6.3-14.9,9.5-24.6,9.5c-9.7,0-17.9-3.2-24.6-9.5c-6.7-6.3-10.1-14.7-10.1-25.1c0-10.4,3.4-18.8,10.1-25.1
		c6.7-6.3,14.9-9.5,24.6-9.5c9.7,0,17.9,3.2,24.6,9.5c6.7,6.3,10.1,14.7,10.1,25.1C190.1,188.5,186.7,196.9,180,203.2z M343.2,203.2
		c-6.7,6.3-14.9,9.5-24.6,9.5c-9.7,0-17.9-3.2-24.6-9.5c-6.7-6.3-10.1-14.7-10.1-25.1c0-10.4,3.4-18.8,10.1-25.1
		c6.7-6.3,14.9-9.5,24.6-9.5c9.7,0,17.9,3.2,24.6,9.5c6.7,6.3,10.1,14.7,10.1,25.1C353.2,188.5,349.9,196.9,343.2,203.2z"/>
</g>
</svg>
