<svg id="Capa_1" enable-background="new 0 0 511.919 511.919" height="512" viewBox="0 0 511.919 511.919" width="512" xmlns="http://www.w3.org/2000/svg"><g><g><circle cx="255.96" cy="194.919" r="90"/><path d="m429.617 158.577c-6.108-4.541-8.086-12.114-5.083-19.204 8.599-19.922 5.024-33.706.278-42.188-6.987-11.631-19.409-18.384-36.519-20.054-7.866-.967-13.579-6.68-14.502-14.18-1.714-17.476-8.467-29.897-20.522-37.134-8.042-4.512-21.885-8.086-41.646.483-7.207 3.003-14.795 1.069-19.409-5.156-21.387-28.154-51.035-28.271-72.598.117-4.526 6.108-12.1 8.086-19.204 5.083-19.893-8.584-33.706-5.039-42.188-.278-11.631 6.987-18.384 19.409-20.054 36.519-.967 7.866-6.68 13.579-14.18 14.502-17.476 1.714-29.897 8.467-37.134 20.522-4.497 8.057-8.071 21.841.483 41.66 3.047 7.192 1.069 14.766-5.156 19.395-14.077 10.693-21.226 22.881-21.226 36.255s7.148 25.562 21.343 36.343c6.108 4.541 8.086 12.114 5.083 19.204-8.599 19.922-5.024 33.706-.278 42.188 6.987 11.631 19.409 18.384 36.519 20.054 7.866.967 13.579 6.68 14.502 14.18 1.714 17.476 8.467 29.897 20.522 37.134 8.042 4.512 21.841 8.071 41.66-.483 7.28-3.047 14.78-1.04 19.395 5.156 10.693 14.077 22.881 21.226 36.255 21.226s25.562-7.148 36.343-21.343c4.541-6.108 12.085-8.042 19.204-5.083 19.922 8.599 33.721 5.024 42.188.278 11.631-6.987 18.384-19.409 20.054-36.519.967-7.866 6.68-13.579 14.18-14.502 17.476-1.714 29.897-8.467 37.134-20.522 4.497-8.057 8.071-21.841-.483-41.66-3.047-7.192-1.069-14.766 5.156-19.395 14.077-10.693 21.226-22.881 21.226-36.255s-7.149-25.562-21.343-36.343zm-173.657 156.342c-66.167 0-120-53.833-120-120s53.833-120 120-120 120 53.833 120 120-53.833 120-120 120z"/></g><path d="m202.42 396.739c-8.379 2.651-16.772 3.999-24.961 3.999-11.924.015-23.511-2.959-33.486-8.555-5.07-3.036-10.338-7.454-15.355-12.779l-34.86 48.799c-3.267 4.57-3.706 10.576-1.143 15.586 2.578 4.995 7.719 8.13 13.345 8.13h50.728l25.854 51.709c2.549 5.083 7.734 8.291 13.418 8.291s10.869-3.208 13.418-8.291l41.098-82.196c-13.77-1.087-31.291-6.518-48.056-24.693z"/><path d="m383.412 379.558c-4.731 4.988-9.639 9.155-14.264 11.937-11.162 6.27-22.603 9.214-34.79 9.214-8.101 0-16.436-1.333-24.888-3.984-16.86 18.192-34.316 23.621-48.027 24.708l41.098 82.196c2.549 5.083 7.734 8.291 13.418 8.291s10.869-3.208 13.418-8.291l25.854-51.709h50.728c5.624 0 10.767-3.135 13.345-8.13 2.563-5.01 2.124-11.016-1.143-15.586z"/></g></svg>