<?xml version="1.0" encoding="iso-8859-1"?>
<!-- Generator: Adobe Illustrator 19.0.0, SVG Export Plug-In . SVG Version: 6.00 Build 0)  -->
<svg version="1.1" id="Capa_1" xmlns="http://www.w3.org/2000/svg" xmlns:xlink="http://www.w3.org/1999/xlink" x="0px" y="0px"
	 viewBox="0 0 467.839 467.839" style="enable-background:new 0 0 467.839 467.839;" xml:space="preserve">
<g>
	<g>
		<path d="M416.199,47.2h-174.24V8c0-4.418-3.582-8-8-8s-8,3.582-8,8v39.2H51.639c-4.418,0-8,3.582-8,8s3.582,8,8,8h23.2v246.96
			c0,4.418,3.582,8,8,8h302.16c4.418,0,8-3.582,8-8V63.2h23.2c4.418,0,8-3.582,8-8S420.618,47.2,416.199,47.2z"/>
	</g>
</g>
<g>
	<g>
		<path d="M318.387,454.563c-0.231-0.284-0.48-0.552-0.748-0.803l-75.68-81.44V337.6c0-4.418-3.582-8-8-8s-8,3.582-8,8v34.72
			l-75.6,81.44c-3.357,2.872-3.75,7.923-0.877,11.28s7.923,3.75,11.28,0.877c0.445-0.381,0.846-0.809,1.198-1.277l64-68.8v63.36
			c0,4.418,3.582,8,8,8s8-3.582,8-8v-63.36l64,68.8c2.783,3.432,7.821,3.958,11.253,1.175
			C320.644,463.032,321.17,457.994,318.387,454.563z"/>
	</g>
</g>
<g>
</g>
<g>
</g>
<g>
</g>
<g>
</g>
<g>
</g>
<g>
</g>
<g>
</g>
<g>
</g>
<g>
</g>
<g>
</g>
<g>
</g>
<g>
</g>
<g>
</g>
<g>
</g>
<g>
</g>
</svg>
