<?xml version="1.0" encoding="iso-8859-1"?>
<!-- Generator: Adobe Illustrator 17.1.0, SVG Export Plug-In . SVG Version: 6.00 Build 0)  -->
<!DOCTYPE svg PUBLIC "-//W3C//DTD SVG 1.1//EN" "http://www.w3.org/Graphics/SVG/1.1/DTD/svg11.dtd">
<svg version="1.1" id="Capa_1" xmlns="http://www.w3.org/2000/svg" xmlns:xlink="http://www.w3.org/1999/xlink" x="0px" y="0px"
	 viewBox="0 0 196.973 196.973" style="enable-background:new 0 0 196.973 196.973;" xml:space="preserve">
<path d="M178.024,0.531h-51.983c-10.448,0-18.948,8.501-18.948,18.949v51.983c0,10.448,8.5,18.948,18.948,18.948h51.983
	c10.448,0,18.948-8.5,18.948-18.948V19.48C196.973,9.032,188.473,0.531,178.024,0.531z M172.616,52.971h-41.167
	c-4.142,0-7.5-3.357-7.5-7.5s3.358-7.5,7.5-7.5h41.167c4.142,0,7.5,3.357,7.5,7.5S176.758,52.971,172.616,52.971z M70.932,0.531
	H18.948C8.5,0.531,0,9.032,0,19.48v51.983c0,10.448,8.5,18.948,18.948,18.948h51.983c10.448,0,18.948-8.5,18.948-18.948V19.48
	C89.88,9.032,81.38,0.531,70.932,0.531z M65.785,52.971H52.701v13.083c0,4.143-3.358,7.5-7.5,7.5s-7.5-3.357-7.5-7.5V52.971H24.618
	c-4.142,0-7.5-3.357-7.5-7.5s3.358-7.5,7.5-7.5h13.083V24.888c0-4.143,3.358-7.5,7.5-7.5s7.5,3.357,7.5,7.5v13.083h13.083
	c4.142,0,7.5,3.357,7.5,7.5S69.927,52.971,65.785,52.971z M70.932,106.562H18.948C8.5,106.562,0,115.062,0,125.51v51.983
	c0,10.448,8.5,18.948,18.948,18.948h51.983c10.448,0,18.948-8.5,18.948-18.948V125.51C89.88,115.062,81.38,106.562,70.932,106.562z
	 M65.059,160.752c2.929,2.93,2.929,7.678,0,10.607c-1.464,1.464-3.384,2.196-5.303,2.196s-3.839-0.732-5.303-2.196l-9.251-9.251
	l-9.251,9.251c-1.464,1.464-3.384,2.196-5.303,2.196s-3.839-0.732-5.303-2.196c-2.929-2.93-2.929-7.678,0-10.607l9.251-9.251
	l-9.251-9.251c-2.929-2.93-2.929-7.678,0-10.607c2.929-2.928,7.678-2.928,10.606,0l9.251,9.251l9.251-9.251
	c2.929-2.928,7.678-2.928,10.606,0c2.929,2.93,2.929,7.678,0,10.607l-9.251,9.251L65.059,160.752z M178.024,106.562h-51.983
	c-10.448,0-18.948,8.5-18.948,18.948v51.983c0,10.448,8.5,18.948,18.948,18.948h51.983c10.448,0,18.948-8.5,18.948-18.948V125.51
	C196.973,115.062,188.473,106.562,178.024,106.562z M152.033,121.751h1.167c4.142,0,7.5,3.357,7.5,7.5s-3.358,7.5-7.5,7.5h-1.167
	c-4.142,0-7.5-3.357-7.5-7.5S147.891,121.751,152.033,121.751z M153.199,181.251h-1.167c-4.142,0-7.5-3.357-7.5-7.5
	s3.358-7.5,7.5-7.5h1.167c4.142,0,7.5,3.357,7.5,7.5S157.341,181.251,153.199,181.251z M172.616,159.001h-41.167
	c-4.142,0-7.5-3.357-7.5-7.5s3.358-7.5,7.5-7.5h41.167c4.142,0,7.5,3.357,7.5,7.5S176.758,159.001,172.616,159.001z"/>
<g>
</g>
<g>
</g>
<g>
</g>
<g>
</g>
<g>
</g>
<g>
</g>
<g>
</g>
<g>
</g>
<g>
</g>
<g>
</g>
<g>
</g>
<g>
</g>
<g>
</g>
<g>
</g>
<g>
</g>
</svg>
