<?xml version="1.0" encoding="iso-8859-1"?>
<!-- Generator: Adobe Illustrator 17.1.0, SVG Export Plug-In . SVG Version: 6.00 Build 0)  -->
<!DOCTYPE svg PUBLIC "-//W3C//DTD SVG 1.1//EN" "http://www.w3.org/Graphics/SVG/1.1/DTD/svg11.dtd">
<svg version="1.1" id="Capa_1" xmlns="http://www.w3.org/2000/svg" xmlns:xlink="http://www.w3.org/1999/xlink" x="0px" y="0px"
	 viewBox="0 0 216 216" style="enable-background:new 0 0 216 216;" xml:space="preserve">
<path d="M58.919,17.529H7.5c-4.143,0-7.5,3.357-7.5,7.5v165.941c0,4.143,3.357,7.5,7.5,7.5h51.419c4.143,0,7.5-3.357,7.5-7.5V25.029
	C66.419,20.887,63.062,17.529,58.919,17.529z M15.659,39.053c0-4.143,3.357-7.5,7.5-7.5H43.26c4.143,0,7.5,3.357,7.5,7.5v71.051
	c0,4.143-3.357,7.5-7.5,7.5H23.159c-4.143,0-7.5-3.357-7.5-7.5V39.053z M33.209,171.776c-9.806,0-17.783-7.978-17.783-17.784
	c0-9.806,7.978-17.783,17.783-17.783c9.807,0,17.784,7.978,17.784,17.783C50.993,163.799,43.016,171.776,33.209,171.776z
	 M133.709,17.529H82.291c-4.143,0-7.5,3.357-7.5,7.5v165.941c0,4.143,3.357,7.5,7.5,7.5h51.418c4.143,0,7.5-3.357,7.5-7.5V25.029
	C141.209,20.887,137.852,17.529,133.709,17.529z M90.45,39.053c0-4.143,3.357-7.5,7.5-7.5h20.1c4.143,0,7.5,3.357,7.5,7.5v71.051
	c0,4.143-3.357,7.5-7.5,7.5h-20.1c-4.143,0-7.5-3.357-7.5-7.5V39.053z M108,171.776c-9.807,0-17.784-7.978-17.784-17.784
	c0-9.806,7.978-17.783,17.784-17.783c9.806,0,17.783,7.978,17.783,17.783C125.783,163.799,117.806,171.776,108,171.776z
	 M208.5,17.529h-51.419c-4.143,0-7.5,3.357-7.5,7.5v165.941c0,4.143,3.357,7.5,7.5,7.5H208.5c4.143,0,7.5-3.357,7.5-7.5V25.029
	C216,20.887,212.643,17.529,208.5,17.529z M165.24,39.053c0-4.143,3.357-7.5,7.5-7.5h20.101c4.143,0,7.5,3.357,7.5,7.5v71.051
	c0,4.143-3.357,7.5-7.5,7.5H172.74c-4.143,0-7.5-3.357-7.5-7.5V39.053z M182.791,171.776c-9.807,0-17.784-7.978-17.784-17.784
	c0-9.806,7.978-17.783,17.784-17.783c9.806,0,17.783,7.978,17.783,17.783C200.574,163.799,192.597,171.776,182.791,171.776z"/>
<g>
</g>
<g>
</g>
<g>
</g>
<g>
</g>
<g>
</g>
<g>
</g>
<g>
</g>
<g>
</g>
<g>
</g>
<g>
</g>
<g>
</g>
<g>
</g>
<g>
</g>
<g>
</g>
<g>
</g>
</svg>
