<?xml version="1.0" encoding="utf-8"?>
<!-- Generator: Adobe Illustrator 25.2.0, SVG Export Plug-In . SVG Version: 6.00 Build 0)  -->
<svg version="1.1" id="Capa_1" xmlns="http://www.w3.org/2000/svg" xmlns:xlink="http://www.w3.org/1999/xlink" x="0px" y="0px"
	 viewBox="0 0 222.9 218" style="enable-background:new 0 0 222.9 218;" xml:space="preserve">
<path d="M152.5,5l69.1,119.6c1.7,3,1.8,6.6,0.2,9.7c-0.9,1.7-2.2,3.1-3.8,4c-1.3,0.7-2.7,1.2-4.3,1.3l-96.3,7.2
	c-0.6,2.5-2.2,4.8-4.7,6.3l-28.4,16.4l24.4,18c4.4,3.3,5.4,9.5,2.1,14l-9.2,12.5c-0.8,1.1-1.9,2-3,2.7c-1.1,0.6-2.3,1-3.5,1.2
	c-2.6,0.4-5.3-0.3-7.4-1.8l-36.9-27.2l-4.1,2.4c-4.8,2.8-10.9,1.1-13.7-3.7l-3.9-6.8c-9.2,3.5-19.9-0.1-25-8.9l-1.2-2
	c-5.1-8.8-2.9-19.8,4.8-26.1L3.6,137c-2.8-4.8-1.1-10.9,3.7-13.7l66.2-38.2c2.4-1.4,5.2-1.7,7.8-0.9l54.4-79.8
	c1.9-2.8,5.2-4.5,8.6-4.4C147.6,0.1,150.8,2,152.5,5z"/>
</svg>
