<?xml version="1.0" encoding="iso-8859-1"?>
<!-- Generator: Adobe Illustrator 17.1.0, SVG Export Plug-In . SVG Version: 6.00 Build 0)  -->
<!DOCTYPE svg PUBLIC "-//W3C//DTD SVG 1.1//EN" "http://www.w3.org/Graphics/SVG/1.1/DTD/svg11.dtd">
<svg version="1.1" id="Capa_1" xmlns="http://www.w3.org/2000/svg" xmlns:xlink="http://www.w3.org/1999/xlink" x="0px" y="0px"
	 viewBox="0 0 212.222 212.222" style="enable-background:new 0 0 212.222 212.222;" xml:space="preserve">
<path d="M197.477,142.092v40.296c0,16.45-13.383,29.833-29.833,29.833h-33.066H55.311H44.578c-16.45,0-29.833-13.383-29.833-29.833
	V29.833C14.745,13.383,28.128,0,44.578,0h10.732h79.268h33.066c16.45,0,29.833,13.383,29.833,29.833v40.296
	c-0.123-0.003-0.243-0.018-0.366-0.018h-14.634V29.833c0-8.179-6.654-14.833-14.833-14.833h-7.198
	c2.517,4.373,3.966,9.435,3.966,14.833v40.278h-26.7c-19.85,0-36,16.15-36,36s16.15,36,36,36h26.7v40.278
	c0,5.398-1.448,10.461-3.966,14.833h7.198c8.179,0,14.833-6.654,14.833-14.833v-40.278h14.634
	C197.235,142.111,197.354,142.095,197.477,142.092z M182.477,127.111L182.477,127.111l-18.065,0v0h-26.7c-11.598,0-21-9.402-21-21
	c0-11.598,9.402-21,21-21h59.399v42H182.477z M148.493,106.111c0-5.617-4.57-10.188-10.188-10.188
	c-5.618,0-10.188,4.57-10.188,10.188c0,5.618,4.57,10.188,10.188,10.188C143.923,116.299,148.493,111.729,148.493,106.111z"/>
<g>
</g>
<g>
</g>
<g>
</g>
<g>
</g>
<g>
</g>
<g>
</g>
<g>
</g>
<g>
</g>
<g>
</g>
<g>
</g>
<g>
</g>
<g>
</g>
<g>
</g>
<g>
</g>
<g>
</g>
</svg>
