<svg height="512pt" viewBox="-44 0 512 512" width="512pt" xmlns="http://www.w3.org/2000/svg"><path d="m148.894531 0h125.933594c13.980469 0 25.308594 11.332031 25.308594 25.308594v20.003906c0 13.976562-11.328125 25.308594-25.308594 25.308594h-125.933594c-13.976562 0-25.308593-11.332032-25.308593-25.308594v-20.003906c0-13.976563 11.332031-25.308594 25.308593-25.308594zm0 0"/><path d="m0 35.308594v476.691406h423.722656v-476.691406zm379.585938 423.726562h-335.449219v-388.414062h335.449219zm0 0"/><path d="m150.070312 123.585938c-29.253906 0-52.96875 23.714843-52.96875 52.964843 0 29.253907 23.714844 52.964844 52.96875 52.964844 29.25 0 52.964844-23.710937 52.964844-52.964844-.03125-29.238281-23.726562-52.933593-52.964844-52.964843zm0 88.277343c-19.503906 0-35.3125-15.808593-35.3125-35.3125 0-19.5 15.808594-35.308593 35.3125-35.308593v35.308593h35.308594c0 19.503907-15.808594 35.3125-35.308594 35.3125zm0 0"/><path d="m105.929688 264.828125h79.449218v17.65625h-79.449218zm0 0"/><path d="m105.929688 300.136719h79.449218v17.65625h-79.449218zm0 0"/><path d="m105.929688 335.449219h79.449218v17.652343h-79.449218zm0 0"/><path d="m273.65625 105.929688h26.480469v17.65625h-26.480469zm0 0"/><path d="m273.65625 141.242188h52.964844v17.65625h-52.964844zm0 0"/><path d="m256 229.515625h35.308594v35.3125h-35.308594zm0 0"/><path d="m256 300.136719h35.308594v35.3125h-35.308594zm0 0"/><path d="m256 370.757812h35.308594v35.3125h-35.308594zm0 0"/><path d="m317.792969 238.34375h35.308593v17.65625h-35.308593zm0 0"/><path d="m317.792969 308.964844h35.308593v17.65625h-35.308593zm0 0"/><path d="m317.792969 379.585938h35.308593v17.65625h-35.308593zm0 0"/></svg>