<?xml version="1.0" encoding="utf-8"?>
<!-- Generator: Adobe Illustrator 23.0.0, SVG Export Plug-In . SVG Version: 6.00 Build 0)  -->
<svg version="1.1" id="Layer_1" xmlns="http://www.w3.org/2000/svg" xmlns:xlink="http://www.w3.org/1999/xlink" x="0px" y="0px"
	 viewBox="0 0 286 309" style="enable-background:new 0 0 286 309;" xml:space="preserve">
<style type="text/css">
	.st0{fill:#003354;}
	.st1{fill:#7B99B3;}
	.st2{fill:#FFFFFF;}
</style>
<g>
	<path class="st0" d="M157.7,120l-25.7,87.9c-13-0.9-46.1,0.1-82.2,27.7l53.5-183.2C119,95.1,146.3,113.8,157.7,120L157.7,120z
		 M200.1,235.8l27.5,8c-6.8,16.3-18.5,37.3-38,53c-2.6,2.1-5.6,3.2-8.9,3.2c-4.3,0-8.3-1.9-11-5.3c-2.4-2.9-3.5-6.6-3.1-10.4
		c0.4-3.8,2.2-7.2,5.2-9.6C185.7,263.4,194.7,247.9,200.1,235.8L200.1,235.8z M239.6,237.9l-4.8-1.4c0,0,0,0,0,0L198.7,226h0
		l-57.6-16.8l24.9-85.3l98.5,28.7c4.5,1.3,8.2,4.3,10.4,8.4c2.2,4.1,2.8,8.8,1.5,13.3L261.2,226
		C258.5,235.3,248.8,240.6,239.6,237.9L239.6,237.9z M103.6,19.6L68,141.5L37.1,247.4c0,0,0,0,0,0l-4.7,16c-0.6,2.1-2,3.8-3.9,4.9
		c-1.9,1.1-4.1,1.3-6.2,0.7l-0.5-0.1c-4.3-1.3-6.8-5.8-5.6-10.2l31.7-108.5l11-37.5c0,0,0,0,0,0l28.5-97.8c1-3.6,4.3-5.9,7.9-5.9
		c0.8,0,1.5,0.1,2.3,0.3L98,9.5c2.1,0.6,3.8,2,4.9,3.9C104,15.3,104.2,17.5,103.6,19.6L103.6,19.6z M48.6,115.8l-9.5,32.5l-1.1,3.7
		l-21.4-13.2c-5.8-3.6-8.7-9.6-7.2-14.8c1.5-5.3,7.2-8.8,14-8.6L48.6,115.8L48.6,115.8z M107.9,37l4.3-14.8
		c1.3-4.4,0.8-9.1-1.4-13.1c-2.2-4-5.8-7-10.3-8.2l-0.5-0.1C91-2,81.4,3.3,78.7,12.4l-27.6,94.5l-27.6-0.4
		c-11-0.2-20.1,5.9-22.8,15.1c-2.7,9.2,1.8,19.3,11.1,25L35.4,161L7.6,256.2c-2.7,9.1,2.6,18.7,11.7,21.3c0,0,0,0,0,0l0.5,0.1
		c1.6,0.5,3.2,0.7,4.8,0.7c2.8,0,5.7-0.7,8.2-2.1c4-2.2,7-5.8,8.2-10.3l4.3-14.8c46.3-41.8,90.4-33.8,90.8-33.7
		c0.4,0.1,0.8,0.1,1.2,0l53.9,15.7c-5,11-13.1,24.6-25.3,34.5c-4.8,3.9-7.8,9.4-8.5,15.6c-0.6,6.2,1.1,12.2,5,17
		c4.4,5.5,11,8.6,18,8.6c5.3,0,10.5-1.8,14.6-5.2c21.2-17.2,33.9-40.1,41-57.5l0.8,0.2c2.5,0.7,5,1.1,7.4,1.1
		c11.5,0,22.1-7.5,25.4-19.1l15.1-51.8c2-6.8,1.2-13.9-2.2-20.1c-3.4-6.2-9-10.7-15.8-12.7l-99.5-29c-0.4-0.3-0.7-0.5-1.2-0.7
		C165.9,114,124.4,96.8,107.9,37L107.9,37z"/>
	<path class="st1" d="M171.7,274.8c14-11.4,23-26.8,28.4-39l27.5,8c-6.8,16.3-18.5,37.3-38,53c-2.6,2.1-5.6,3.2-8.9,3.2
		c-4.3,0-8.3-1.9-11-5.3c-2.4-2.9-3.5-6.6-3.1-10.4C166.9,280.5,168.7,277.1,171.7,274.8L171.7,274.8z"/>
	<path class="st2" d="M264.5,152.6c4.5,1.3,8.2,4.3,10.4,8.4c2.2,4.1,2.8,8.8,1.5,13.3L261.2,226c-2.7,9.2-12.4,14.6-21.7,11.9
		l-4.8-1.4c0,0,0,0,0,0L198.7,226h0l-57.6-16.8l24.9-85.3L264.5,152.6L264.5,152.6z"/>
	<path class="st2" d="M47.9,150.2l11-37.5c0,0,0,0,0,0l28.5-97.8c1-3.6,4.3-5.9,7.9-5.9c0.8,0,1.5,0.1,2.3,0.3L98,9.5
		c2.1,0.6,3.8,2,4.9,3.9c1.1,1.9,1.3,4.1,0.7,6.2L68,141.5L37.1,247.4c0,0,0,0,0,0l-4.7,16c-0.6,2.1-2,3.8-3.9,4.9
		c-1.9,1.1-4.1,1.3-6.2,0.7l-0.5-0.1c-4.3-1.3-6.8-5.8-5.6-10.2L47.9,150.2L47.9,150.2z"/>
	<path class="st1" d="M157.7,120l-25.7,87.9c-13-0.9-46.1,0.1-82.2,27.7l53.5-183.2C119,95.1,146.3,113.8,157.7,120L157.7,120z"/>
	<path class="st1" d="M9.4,124.1c1.5-5.3,7.2-8.8,14-8.6l25.1,0.4l-9.5,32.5l-1.1,3.7l-21.4-13.2C10.8,135.3,7.9,129.3,9.4,124.1
		L9.4,124.1z"/>
</g>
</svg>
