<?xml version="1.0" encoding="utf-8"?>
<!-- Generator: Adobe Illustrator 23.0.0, SVG Export Plug-In . SVG Version: 6.00 Build 0)  -->
<svg version="1.1" id="Layer_1" xmlns="http://www.w3.org/2000/svg" xmlns:xlink="http://www.w3.org/1999/xlink" x="0px" y="0px"
	 viewBox="0 0 309 309" style="enable-background:new 0 0 309 309;" xml:space="preserve">
<style type="text/css">
	.st0{fill:#003354;}
	.st1{fill:#7B99B3;}
	.st2{fill:#FFFFFF;}
</style>
<g>
	<path class="st0" d="M159,290.7v-27.9c56.5-2.3,102.1-47.5,105-103.8h27.9C288.9,230.7,230.8,288.4,159,290.7L159,290.7z M17.1,159
		H45c2.9,56.3,48.5,101.5,105,103.8v27.9C78.2,288.4,20.1,230.7,17.1,159L17.1,159z M150,15.8v27.9C92.7,46.1,46.6,92.6,44.9,150H17
		C18.7,77.2,77.3,18.2,150,15.8L150,15.8z M225.8,150c-1.6-36.3-30.6-65.7-66.8-67.9V52.8c52.3,2.3,94.4,44.8,96.1,97.2H225.8
		L225.8,150z M159,224.5c35.4-2.2,63.8-30.3,66.6-65.5H255c-2.9,51.3-44.5,92.5-96,94.8V224.5L159,224.5z M83.4,159
		c2.8,35.2,31.3,63.3,66.6,65.5v29.3c-51.5-2.3-93.1-43.4-96-94.8H83.4L83.4,159z M150,82.1c-36.2,2.3-65.1,31.6-66.8,67.9H53.9
		c1.7-52.5,43.7-94.9,96.1-97.2V82.1L150,82.1z M188.8,150c-1.5-16-14-28.8-29.8-30.9v-28c31.2,2.2,56.1,27.5,57.8,58.9H188.8
		L188.8,150z M159,187.4c15-2,27-13.6,29.5-28.4h28.1c-2.8,30.2-27.2,54.3-57.6,56.4V187.4L159,187.4z M120.5,159
		c2.5,14.8,14.5,26.5,29.5,28.4v28c-30.4-2.2-54.8-26.2-57.6-56.4H120.5L120.5,159z M150,119.1c-15.8,2.1-28.3,14.9-29.8,30.9h-28
		c1.6-31.4,26.6-56.7,57.8-58.9V119.1L150,119.1z M159,150v-21.8c10.8,1.9,19.3,10.8,20.8,21.8H159L159,150z M159,159h20.3
		c-2.3,9.9-10.3,17.5-20.3,19.3V159L159,159z M129.2,150c1.4-11,9.9-19.9,20.8-21.8V150H129.2L129.2,150z M150,159v19.3
		c-10-1.8-18-9.5-20.3-19.3H150L150,159z M292,150h-27.9C262.4,92.6,216.3,46.1,159,43.7V15.8C231.7,18.2,290.3,77.2,292,150
		L292,150z M304.5,150H301C299.3,72.2,236.6,9.2,159,6.8V4.5c0-2.5-2-4.5-4.5-4.5S150,2,150,4.5v2.3C72.4,9.2,9.7,72.2,8,150H4.5
		C2,150,0,152,0,154.5s2,4.5,4.5,4.5h3.6c3,76.6,65.1,138.4,141.9,140.7v4.8c0,2.5,2,4.5,4.5,4.5s4.5-2,4.5-4.5v-4.8
		c76.8-2.3,138.9-64.1,141.9-140.7h3.6c2.5,0,4.5-2,4.5-4.5S307,150,304.5,150L304.5,150z"/>
	<path class="st1" d="M216.6,159h-28.1c-2.5,14.8-14.5,26.5-29.5,28.4v28C189.4,213.3,213.8,189.2,216.6,159L216.6,159z"/>
	<path class="st2" d="M179.3,159H159v19.3C169,176.5,177,168.9,179.3,159L179.3,159z"/>
	<path class="st2" d="M45,159H17.1c3,71.7,61,129.4,132.9,131.7v-27.9C93.5,260.5,47.9,215.3,45,159L45,159z"/>
	<path class="st2" d="M255,159h-29.4c-2.8,35.2-31.3,63.3-66.6,65.5v29.3C210.5,251.5,252.1,210.3,255,159L255,159z"/>
	<path class="st1" d="M225.8,150h29.3c-1.7-52.5-43.7-94.9-96.1-97.2v29.3C195.2,84.3,224.1,113.7,225.8,150L225.8,150z"/>
	<path class="st2" d="M264.1,150H292c-1.7-72.8-60.3-131.8-133-134.2v27.9C216.3,46.1,262.4,92.6,264.1,150L264.1,150z"/>
	<path class="st1" d="M159,128.2V150h20.8C178.3,139,169.8,130.1,159,128.2L159,128.2z"/>
	<path class="st2" d="M188.8,150h28c-1.6-31.4-26.6-56.7-57.8-58.9v28C174.8,121.2,187.3,134,188.8,150L188.8,150z"/>
	<path class="st2" d="M129.2,150H150v-21.8C139.2,130.1,130.7,139,129.2,150L129.2,150z"/>
	<path class="st1" d="M17,150h27.9C46.6,92.6,92.7,46.1,150,43.7V15.8C77.3,18.2,18.7,77.2,17,150L17,150z"/>
	<path class="st2" d="M53.9,150h29.3c1.6-36.3,30.6-65.7,66.8-67.9V52.8C97.7,55.1,55.6,97.5,53.9,150L53.9,150z"/>
	<path class="st1" d="M159,262.8v27.9c71.8-2.3,129.9-60,132.9-131.7H264C261.1,215.3,215.5,260.5,159,262.8L159,262.8z"/>
	<path class="st1" d="M83.4,159H54c2.9,51.3,44.5,92.5,96,94.8v-29.3C114.6,222.3,86.2,194.2,83.4,159L83.4,159z"/>
	<path class="st2" d="M120.5,159H92.4c2.8,30.2,27.2,54.3,57.6,56.4v-28C135,185.5,123,173.8,120.5,159L120.5,159z"/>
	<path class="st1" d="M92.2,150h28c1.5-16,14-28.8,29.8-30.9v-28C118.8,93.3,93.9,118.6,92.2,150L92.2,150z"/>
	<path class="st1" d="M150,178.3V159h-20.3C132,168.9,140,176.5,150,178.3L150,178.3z"/>
</g>
</svg>
