<?xml version="1.0" encoding="utf-8"?>
<!-- Generator: Adobe Illustrator 23.0.0, SVG Export Plug-In . SVG Version: 6.00 Build 0)  -->
<svg version="1.1" id="Layer_1" xmlns="http://www.w3.org/2000/svg" xmlns:xlink="http://www.w3.org/1999/xlink" x="0px" y="0px"
	 viewBox="0 0 298.5 309" style="enable-background:new 0 0 298.5 309;" xml:space="preserve">
<style type="text/css">
	.st0{fill:#003354;}
	.st1{fill:#7B99B3;}
	.st2{fill:#FFFFFF;}
</style>
<g>
	<path class="st0" d="M17.1,284.8v-50.5H76c20.5,0,37.1-16.7,37.1-37.1S96.5,160.1,76,160.1H17.1v-50.5c0-8.4,6.8-15.2,15.2-15.2H53
		H71h17.5h93.7h23.8h23.4h44.9c8.4,0,15.2,6.8,15.2,15.2v175.3c0,8.4-6.8,15.2-15.2,15.2H32.3C23.9,300,17.1,293.2,17.1,284.8
		L17.1,284.8z M80.2,85.4l42-54.5l70.6,54.5h-9.1L149,58.5c-1.7-1.3-4.1-1.2-5.8,0.2c-5.8,5.2-13.4,8.1-21.2,8.1
		c-5,0-9.8-1.1-14.2-3.4c-1.9-1-4.3-0.4-5.6,1.3L86.3,85.4H80.2L80.2,85.4z M169.1,85.4H97.7l9.5-12.3c4.7,1.9,9.7,2.8,14.8,2.8
		c8.8,0,17.3-2.8,24.3-8.1L169.1,85.4L169.1,85.4z M216.3,85.4h-8.7L124.1,21c-0.9-0.7-2.1-1.1-3.3-0.9c-1.2,0.2-2.3,0.8-3,1.7
		l-49,63.5h-6.7l57.5-74.6L216.3,85.4L216.3,85.4z M9,176.2c0-3.9,3.2-7.1,7.1-7.1H76c15.5,0,28.1,12.6,28.1,28.1
		S91.5,225.3,76,225.3H16.1c-3.9,0-7.1-3.2-7.1-7.1V176.2L9,176.2z M8.1,109.5v52.7c-4.8,2.8-8.1,8-8.1,14v42c0,6,3.3,11.2,8.1,14
		v52.7C8.1,298.2,19,309,32.3,309h242.1c13.3,0,24.2-10.8,24.2-24.2V109.5c0-13.3-10.8-24.2-24.2-24.2H231L121.6,0.9
		c-0.9-0.7-2.1-1.1-3.3-0.9c-1.2,0.2-2.3,0.8-3,1.7L50.8,85.4H32.3C19,85.4,8.1,96.2,8.1,109.5L8.1,109.5z"/>
	<path class="st1" d="M122,75.9c8.8,0,17.3-2.8,24.3-8.1l22.7,17.5H97.7l9.5-12.3C111.9,74.9,116.9,75.9,122,75.9L122,75.9z"/>
	<path class="st1" d="M124.1,21c-0.9-0.7-2.1-1.1-3.3-0.9c-1.2,0.2-2.3,0.8-3,1.7l-49,63.5h-6.7l57.5-74.6l96.7,74.6h-8.7L124.1,21
		L124.1,21z"/>
	<path class="st2" d="M80.2,85.4l42-54.5l70.6,54.5h-9.1L149,58.5c-1.7-1.3-4.1-1.2-5.8,0.2c-5.8,5.2-13.4,8.1-21.2,8.1
		c-5,0-9.8-1.1-14.2-3.4c-1.9-1-4.3-0.4-5.6,1.3L86.3,85.4H80.2L80.2,85.4z"/>
	<path class="st1" d="M16.1,169.1H76c15.5,0,28.1,12.6,28.1,28.1S91.5,225.3,76,225.3H16.1c-3.9,0-7.1-3.2-7.1-7.1v-42
		C9,172.2,12.2,169.1,16.1,169.1L16.1,169.1z"/>
	<path class="st2" d="M113.1,197.2c0-20.5-16.7-37.1-37.1-37.1H17.1v-50.5c0-8.4,6.8-15.2,15.2-15.2H53H71h17.5h93.7h23.8h23.4h44.9
		c8.4,0,15.2,6.8,15.2,15.2v175.3c0,8.4-6.8,15.2-15.2,15.2H32.3c-8.4,0-15.2-6.8-15.2-15.2v-50.5H76
		C96.5,234.3,113.1,217.7,113.1,197.2L113.1,197.2z"/>
	<path class="st0" d="M65.4,197.2c0-6.4,5.2-11.6,11.6-11.6c6.4,0,11.6,5.2,11.6,11.6c0,6.4-5.2,11.6-11.6,11.6
		C70.6,208.8,65.4,203.6,65.4,197.2L65.4,197.2z M56.4,197.2c0,11.4,9.2,20.6,20.6,20.6c11.4,0,20.6-9.2,20.6-20.6
		c0-11.4-9.2-20.6-20.6-20.6C65.6,176.6,56.4,185.8,56.4,197.2L56.4,197.2z"/>
	<path class="st2" d="M65.4,197.2c0-6.4,5.2-11.6,11.6-11.6c6.4,0,11.6,5.2,11.6,11.6c0,6.4-5.2,11.6-11.6,11.6
		C70.6,208.8,65.4,203.6,65.4,197.2L65.4,197.2z"/>
</g>
</svg>
