<?xml version="1.0" encoding="utf-8"?>
<!-- Generator: Adobe Illustrator 23.0.0, SVG Export Plug-In . SVG Version: 6.00 Build 0)  -->
<svg version="1.1" id="Layer_1" xmlns="http://www.w3.org/2000/svg" xmlns:xlink="http://www.w3.org/1999/xlink" x="0px" y="0px"
	 viewBox="0 0 290.3 195.1" style="enable-background:new 0 0 290.3 195.1;" xml:space="preserve">
<style type="text/css">
	.st0{fill:#1E88E5;}
	.st1{fill:#FFFFFF;}
</style>
<g>
	<path class="st0" d="M280.9,9.4H9.4v176.2h271.5V9.4L280.9,9.4z M4.7,195.1c-2.6,0-4.7-2.1-4.7-4.7V4.7C0,2.1,2.1,0,4.7,0h280.9
		c2.6,0,4.7,2.1,4.7,4.7v185.6c0,2.6-2.1,4.7-4.7,4.7H4.7L4.7,195.1z"/>
	<polygon class="st1" points="280.9,9.4 9.4,9.4 9.4,185.6 280.9,185.6 280.9,9.4 	"/>
	<path class="st0" d="M34,134.9c0,13.8,11.2,25,25,25h70.9c13.8,0,25-11.2,25-25V123c0-13.8-11.2-25-25-25H59c-13.8,0-25,11.2-25,25
		V134.9L34,134.9z"/>
	<path class="st0" d="M59,102.7c-11.2,0-20.3,9.1-20.3,20.3v11.9c0,11.2,9.1,20.3,20.3,20.3h70.9c11.2,0,20.3-9.1,20.3-20.3V123
		c0-11.2-9.1-20.3-20.3-20.3H59L59,102.7z M59,164.6c-16.4,0-29.7-13.3-29.7-29.7V123c0-16.4,13.3-29.7,29.7-29.7h70.9
		c16.4,0,29.7,13.3,29.7,29.7v11.9c0,16.4-13.3,29.7-29.7,29.7H59L59,164.6z"/>
	<path class="st0" d="M250.6,48c2.6,0,4.7-2.1,4.7-4.7c0-2.6-2.1-4.7-4.7-4.7h-84.7c-2.6,0-4.7,2.1-4.7,4.7c0,2.6,2.1,4.7,4.7,4.7
		H250.6L250.6,48z"/>
	<path class="st0" d="M250.6,81.3c2.6,0,4.7-2.1,4.7-4.7c0-2.6-2.1-4.7-4.7-4.7h-62.8c-2.6,0-4.7,2.1-4.7,4.7c0,2.6,2.1,4.7,4.7,4.7
		H250.6L250.6,81.3z"/>
</g>
</svg>
