<?xml version="1.0" encoding="utf-8"?>
<!-- Generator: Adobe Illustrator 23.0.0, SVG Export Plug-In . SVG Version: 6.00 Build 0)  -->
<svg version="1.1" id="Layer_1" xmlns="http://www.w3.org/2000/svg" xmlns:xlink="http://www.w3.org/1999/xlink" x="0px" y="0px"
	 viewBox="0 0 309 225.5" style="enable-background:new 0 0 309 225.5;" xml:space="preserve">
<style type="text/css">
	.st0{fill:#003354;}
	.st1{fill:#FFFFFF;}
	.st2{fill:#7B99B3;}
</style>
<g>
	<path class="st0" d="M9,29.2C9,18.1,18.1,9,29.2,9h250.6c11.2,0,20.2,9.1,20.2,20.2v167c0,11.2-9.1,20.2-20.2,20.2H221H83.1H29.2
		c-11.2,0-20.2-9.1-20.2-20.2V29.2L9,29.2z M0,29.2v167c0,16.1,13.1,29.2,29.2,29.2h250.6c16.1,0,29.2-13.1,29.2-29.2v-167
		C309,13.1,295.9,0,279.8,0H29.2C13.1,0,0,13.1,0,29.2L0,29.2z"/>
	<path class="st1" d="M29.2,9h250.6c11.2,0,20.2,9.1,20.2,20.2v167c0,11.2-9.1,20.2-20.2,20.2H221H83.1H29.2
		c-11.2,0-20.2-9.1-20.2-20.2v-167C9,18.1,18.1,9,29.2,9L29.2,9z"/>
	<path class="st0" d="M35.4,35.4h238.3v135H35.4V35.4L35.4,35.4z M26.4,30.9v144c0,2.5,2,4.5,4.5,4.5h247.3c2.5,0,4.5-2,4.5-4.5
		v-144c0-2.5-2-4.5-4.5-4.5H30.9C28.4,26.4,26.4,28.4,26.4,30.9L26.4,30.9z"/>
	<polygon class="st2" points="35.4,35.4 273.6,35.4 273.6,170.3 35.4,170.3 35.4,35.4 	"/>
	<path class="st0" d="M250.1,150.7h-17V121h17V150.7L250.1,150.7z M259.1,155.2v-38.7c0-2.5-2-4.5-4.5-4.5h-26c-2.5,0-4.5,2-4.5,4.5
		v38.7c0,2.5,2,4.5,4.5,4.5h26C257.1,159.7,259.1,157.7,259.1,155.2L259.1,155.2z"/>
	<path class="st0" d="M206,150.7h-17V81.8h17V150.7L206,150.7z M215,155.2V77.3c0-2.5-2-4.5-4.5-4.5h-26c-2.5,0-4.5,2-4.5,4.5v77.9
		c0,2.5,2,4.5,4.5,4.5h26C213,159.7,215,157.7,215,155.2L215,155.2z"/>
	<path class="st0" d="M162,150.7h-17v-40.5h17V150.7L162,150.7z M171,155.2v-49.5c0-2.5-2-4.5-4.5-4.5h-26c-2.5,0-4.5,2-4.5,4.5
		v49.5c0,2.5,2,4.5,4.5,4.5h26C168.9,159.7,171,157.7,171,155.2L171,155.2z"/>
	<path class="st0" d="M117.9,150.7h-17V97.9h17V150.7L117.9,150.7z M126.9,155.2V93.4c0-2.5-2-4.5-4.5-4.5h-26c-2.5,0-4.5,2-4.5,4.5
		v61.8c0,2.5,2,4.5,4.5,4.5h26C124.8,159.7,126.9,157.7,126.9,155.2L126.9,155.2z"/>
	<path class="st0" d="M73.8,150.7h-17V57.1h17V150.7L73.8,150.7z M82.8,155.2V52.6c0-2.5-2-4.5-4.5-4.5h-26c-2.5,0-4.5,2-4.5,4.5
		v102.6c0,2.5,2,4.5,4.5,4.5h26C80.7,159.7,82.8,157.7,82.8,155.2L82.8,155.2z"/>
	<polygon class="st1" points="250.1,150.7 233.2,150.7 233.2,121 250.1,121 250.1,150.7 	"/>
	<polygon class="st1" points="206,150.7 189.1,150.7 189.1,81.8 206,81.8 206,150.7 	"/>
	<polygon class="st1" points="162,150.7 145,150.7 145,110.2 162,110.2 162,150.7 	"/>
	<polygon class="st1" points="117.9,150.7 100.9,150.7 100.9,97.9 117.9,97.9 117.9,150.7 	"/>
	<polygon class="st1" points="73.8,150.7 56.8,150.7 56.8,57.1 73.8,57.1 73.8,150.7 	"/>
	<path class="st0" d="M254.6,190.7h11.1c2.5,0,4.5,2,4.5,4.5c0,2.5-2,4.5-4.5,4.5h-11.1c-2.5,0-4.5-2-4.5-4.5
		C250.1,192.7,252.2,190.7,254.6,190.7L254.6,190.7z"/>
	<path class="st0" d="M225.8,190.7h11.1c2.5,0,4.5,2,4.5,4.5c0,2.5-2,4.5-4.5,4.5h-11.1c-2.5,0-4.5-2-4.5-4.5
		C221.3,192.7,223.3,190.7,225.8,190.7L225.8,190.7z"/>
	<path class="st0" d="M196.9,190.7h11.1c2.5,0,4.5,2,4.5,4.5c0,2.5-2,4.5-4.5,4.5h-11.1c-2.5,0-4.5-2-4.5-4.5
		C192.4,192.7,194.5,190.7,196.9,190.7L196.9,190.7z"/>
	<path class="st0" d="M168.1,190.7h11.1c2.5,0,4.5,2,4.5,4.5c0,2.5-2,4.5-4.5,4.5h-11.1c-2.5,0-4.5-2-4.5-4.5
		C163.6,192.7,165.6,190.7,168.1,190.7L168.1,190.7z"/>
	<path class="st0" d="M139.3,190.7h11.1c2.5,0,4.5,2,4.5,4.5c0,2.5-2,4.5-4.5,4.5h-11.1c-2.5,0-4.5-2-4.5-4.5
		C134.8,192.7,136.8,190.7,139.3,190.7L139.3,190.7z"/>
</g>
</svg>
