<?xml version="1.0" encoding="utf-8"?>
<!-- Generator: Adobe Illustrator 23.0.0, SVG Export Plug-In . SVG Version: 6.00 Build 0)  -->
<svg version="1.1" id="Layer_1" xmlns="http://www.w3.org/2000/svg" xmlns:xlink="http://www.w3.org/1999/xlink" x="0px" y="0px"
	 viewBox="0 0 309 257.8" style="enable-background:new 0 0 309 257.8;" xml:space="preserve">
<style type="text/css">
	.st0{fill:#003354;}
	.st1{fill:#7B99B3;}
	.st2{fill:#FFFFFF;}
</style>
<g>
	<path class="st0" d="M300,248.8H9V31.6h8.4V203v32.8c0,2.5,2,4.5,4.5,4.5h29.4H300V248.8L300,248.8z M30.5,185.9
		c7.6-30.6,19.5-65.6,43.2-65.6c21.6,0,30.3,15.3,36.2,25.5c1,1.8,2.4,4.2,3.6,5.9c0.8,1.2,2.2,2,3.7,2c0,0,0,0,0,0
		c1.5,0,2.8-0.7,3.7-1.9c3-4.3,6.6-11.9,9-17.1c3.7-7.8,7.5-15.9,12.3-22.5c7.1-9.7,15.6-14.6,25.2-14.6c19.9,0,27.9,15.7,33.1,26.1
		c0.9,1.7,2,4,3.2,5.9c0.7,1.3,2.1,2.1,3.5,2.2c1.5,0.1,2.9-0.5,3.8-1.7c3.8-4.7,10.2-14.7,18.8-35.3c3.1-7.5,6.3-15.7,9.3-24.3
		c0.4-1.2,0.3-2.5-0.3-3.6c-0.6-1.1-1.6-1.9-2.8-2.2l-15.1-4.1L270.1,13l18.3,66l-18.6-5.1c-2.3-0.6-4.7,0.6-5.4,2.9
		c-2.9,8.3-7.5,21-13,33.7c-15.2,34.8-28.2,49.6-43.3,49.6c-18.1,0-25.7-14.9-30.7-24.7c-2.1-4.2-4.2-8.1-6-10.1
		c-0.8-0.9-2-1.4-3.2-1.4c0,0,0,0,0,0c-1.2,0-2.4,0.5-3.2,1.4c-3.5,3.6-7.6,12-11.5,20.4c-7.8,16.6-16.6,35.4-35.4,35.4
		c-17.7,0-25.4-13.6-30.6-22.5c-4.3-7.5-6.4-10.5-9.6-11.7c-1.8-0.7-3.9-0.2-5.2,1.4c-3.6,4.5-10.9,17.2-18.7,51.3
		c-2.7,11.9-4.8,23.4-6.3,31.9H26.4v-27.8C27.7,197.3,29.1,191.4,30.5,185.9L30.5,185.9z M56.7,231.3c1.4-8.2,3.4-18.8,5.9-29.8
		c5.7-24.6,10.9-37.2,14.1-43.2c0.8,1.2,1.7,2.8,2.8,4.7c5.4,9.5,15.5,27.1,38.4,27.1c24.5,0,35.5-23.4,43.5-40.6
		c1.4-3,4-8.6,6.4-12.9c0.6,1.1,1.1,2.2,1.5,2.9c5.2,10.3,15,29.6,38.7,29.6c19.2,0,34.6-16.5,51.5-55c4.9-11.1,9-22.1,11.9-30.4
		l22.2,6c1.6,0.4,3.2,0,4.4-1.2c1.1-1.1,1.6-2.8,1.1-4.4L276.7,3.3c-0.4-1.5-1.6-2.7-3.2-3.1c-1.5-0.4-3.2,0-4.3,1.1l-60.3,58.4
		c-1.2,1.1-1.6,2.8-1.2,4.4c0.4,1.6,1.6,2.8,3.2,3.2l18,4.9c-2,5.4-4.5,12.3-7.5,19.3c-5.7,13.6-10.2,22.1-13.5,27.3
		c-5.6-11-16-30.2-40.7-30.2c-12.6,0-23.5,6.1-32.4,18.3c-5.4,7.3-9.4,15.8-13.2,24c-1.2,2.6-2.9,6.1-4.6,9.4
		c-6.1-10.6-17.3-29-43.4-29c-25,0-38.5,26.9-47.2,55.3V27.1c0-2.5-2-4.5-4.5-4.5H4.5c-2.5,0-4.5,2-4.5,4.5v226.2
		c0,2.5,2,4.5,4.5,4.5h300c2.5,0,4.5-2,4.5-4.5v-17.4c0-2.5-2-4.5-4.5-4.5H56.7L56.7,231.3z"/>
	<path class="st1" d="M53.8,199.5c7.8-34.1,15.1-46.8,18.7-51.3c1.2-1.5,3.3-2.1,5.2-1.4c3.2,1.3,5.3,4.2,9.6,11.7
		c5.1,9,12.9,22.5,30.6,22.5c18.8,0,27.6-18.8,35.4-35.4c3.9-8.4,8.1-16.8,11.5-20.4c0.8-0.9,2-1.4,3.2-1.4c0,0,0,0,0,0
		c1.2,0,2.4,0.5,3.2,1.4c1.8,2,3.9,5.9,6,10.1c5,9.8,12.5,24.7,30.7,24.7c15.1,0,28-14.8,43.3-49.6c5.6-12.7,10.2-25.3,13-33.7
		c0.8-2.2,3.1-3.5,5.4-2.9l18.6,5.1l-18.3-66l-49.2,47.6l15.1,4.1c1.2,0.3,2.2,1.1,2.8,2.2c0.6,1.1,0.7,2.4,0.3,3.6
		c-3,8.6-6.1,16.8-9.3,24.3c-8.6,20.7-15,30.6-18.8,35.3c-0.9,1.2-2.4,1.8-3.8,1.7c-1.5-0.1-2.8-0.9-3.5-2.2
		c-1.1-1.9-2.3-4.2-3.2-5.9c-5.3-10.4-13.2-26.1-33.1-26.1c-9.6,0-18.1,4.9-25.2,14.6c-4.9,6.6-8.6,14.7-12.3,22.5
		c-2.4,5.1-6,12.8-9,17.1c-0.8,1.2-2.2,1.9-3.7,1.9c0,0,0,0,0,0c-1.5,0-2.9-0.7-3.7-2c-1.2-1.8-2.6-4.2-3.6-5.9
		c-5.8-10.2-14.5-25.5-36.2-25.5c-23.8,0-35.6,35.1-43.2,65.6c-1.4,5.5-2.7,11.4-4,17.6v27.8h21.1C49,222.8,51.1,211.4,53.8,199.5
		L53.8,199.5z"/>
	<path class="st2" d="M51.4,240.3H21.9c-2.5,0-4.5-2-4.5-4.5V203V31.6H9v217.2h291v-8.4H51.4L51.4,240.3z"/>
</g>
</svg>
