<?xml version="1.0" encoding="utf-8"?>
<!-- Generator: Adobe Illustrator 23.0.0, SVG Export Plug-In . SVG Version: 6.00 Build 0)  -->
<svg version="1.1" id="Layer_1" xmlns="http://www.w3.org/2000/svg" xmlns:xlink="http://www.w3.org/1999/xlink" x="0px" y="0px"
	 viewBox="0 0 266.4 272" style="enable-background:new 0 0 266.4 272;" xml:space="preserve">
<style type="text/css">
	.st0{fill:#1E88E5;}
</style>
<g>
	<path class="st0" d="M104.2,231.5c4.9-9.3,33-16.5,39.1-13.8c0,0,8.2,9.9,10.4,10c2.2,0.3,27.7-12.9,41.4-27.1
		c14.1-13.7,27.4-39.2,27.1-41.4c-0.1-2.2-10-10.4-10-10.4c-2.8-6.1,4.5-34.2,13.8-39.1c9.6-4.8,29.7,4.8,34.6,16.1
		c4.8,10.6-4.9,51.5-46.6,93.6c-42.2,41.7-83,51.4-93.6,46.6C109,261.2,99.5,241.1,104.2,231.5L104.2,231.5z"/>
	<path class="st0" d="M228.1,114c-2.3,1.3-5.9,6.6-8.8,15.6c-2.6,8-3.1,13.9-3,16.2l0,0.4l0.3,0.3c10,8.5,10.1,11,10.2,12.4
		c0.3,2.6-2.8,9.3-8.8,19.2c-3.7,6.1-11.2,17.7-19.7,25.9c-12.4,12.8-39,28.4-44.6,28.4c-0.1,0-0.3,0-0.4,0
		c-1.4-0.1-3.9-0.2-12.4-10.2l-0.3-0.3l-0.4,0c-0.2,0-0.5,0-0.9,0c-10.3,0-28.2,6.8-30.9,11.8c-1.2,2.6-0.9,7.1,0.9,12
		c0.7,1.8,1.5,3.6,2.5,5.4c0,0.1,0.1,0.1,0.1,0.3c2.9,5,6.7,8.9,10.3,10.4c0.5,0.2,1.9,0.7,4.9,0.7c12.7,0,46.4-9.7,83.5-46.3
		c22.7-22.9,34.1-43.7,39.7-57.1c7.1-16.9,7.4-27.9,5.9-31.3c-3.1-7.2-15.3-14.5-24.2-14.5C230.5,113.3,229.1,113.5,228.1,114
		L228.1,114z M127.1,272c-3.5,0-6.4-0.5-8.7-1.5c-4.6-2-9.2-6.2-12.9-11.7l-0.3-0.4H68.7c-2.6,0-4.7-2.1-4.7-4.7v-49
		c0-18.5-9-25.8-20.3-35.1c-13.7-11.2-29.2-23.8-29.2-58.2V53.3l-6,8.3c-0.9,1.2-2.3,1.9-3.8,1.9c-1,0-1.9-0.3-2.8-0.9
		c-1-0.7-1.7-1.8-1.9-3.1c-0.2-1.2,0.1-2.5,0.8-3.5L15.4,36c0.9-1.2,2.3-1.9,3.8-1.9c1.5,0,2.9,0.7,3.8,1.9l14.5,20.1
		c1.5,2.1,1,5.1-1.1,6.6c-0.8,0.6-1.8,0.9-2.8,0.9c-1.5,0-2.9-0.7-3.8-2l-6-8.3v57.9c0,29.9,12.5,40.1,25.7,50.9
		c4.3,3.5,8.8,7.2,12.6,11.5l1.7,2V19.3l-6,8.3c-0.9,1.2-2.3,2-3.8,2c-1,0-1.9-0.3-2.8-0.9c-1-0.7-1.7-1.8-1.9-3.1
		c-0.2-1.2,0.1-2.5,0.8-3.5L64.9,2c0.9-1.2,2.3-2,3.8-2c1.5,0,2.9,0.7,3.8,2L87.1,22c0.7,1,1,2.3,0.8,3.5c-0.2,1.2-0.9,2.3-1.9,3.1
		c-0.8,0.6-1.8,0.9-2.8,0.9c-1.5,0-2.9-0.7-3.8-2l-6-8.3v95.4l1.7-1.6c3.4-3.2,7.1-5.5,10.7-7.7C96.2,99,105,93.6,105.4,66.5l0-3.2
		l-6,8.3c-0.9,1.2-2.3,2-3.8,2c-1,0-1.9-0.3-2.8-0.9c-1-0.7-1.7-1.8-1.9-3.1c-0.2-1.2,0.1-2.5,0.8-3.5l14.5-20.1
		c0.9-1.2,2.3-1.9,3.8-1.9c1.5,0,2.9,0.7,3.8,1.9l14.5,20.1c1.5,2.1,1,5.1-1.1,6.6c-0.8,0.6-1.8,0.9-2.8,0.9c-1.5,0-2.9-0.7-3.8-2
		l-6-8.3l0,3c-0.4,32.4-13,40.1-24.1,46.9c-9.7,5.9-17.3,10.6-17.3,33.2v102.4h27l-0.4-1.3c-2.3-7-2.3-13.5,0-18.1l0-0.1
		c5.5-10.5,28.6-16.9,39.3-16.9c2.5,0,4.4,0.3,5.9,1c0.6,0.3,1.2,0.7,1.7,1.3c2.4,2.9,5.2,5.9,7,7.5l0.5,0.4l0.6-0.3
		c7.3-3.1,26.1-14,36.7-25l0.1-0.1c11-10.7,21.9-29.5,25-36.7l0.3-0.6l-0.4-0.5c-1.6-1.8-4.7-4.6-7.5-7c-0.5-0.4-1-1-1.3-1.7
		c-2.2-4.9-0.4-15.3,2.2-23.3c2.1-6.5,6.6-18.1,13.7-21.8l0.1,0c2.3-1.2,5.1-1.7,8.2-1.7c11.3,0,27.8,8.6,32.8,20.1
		c3.4,7.5,1.2,22-5.9,38.7c-5.9,14.2-18,36.1-41.8,60.2C178.1,261.6,142.2,272,127.1,272L127.1,272L127.1,272z"/>
</g>
</svg>
