<?xml version="1.0" encoding="utf-8"?>
<!-- Generator: Adobe Illustrator 23.0.0, SVG Export Plug-In . SVG Version: 6.00 Build 0)  -->
<svg version="1.1" id="Layer_1" xmlns="http://www.w3.org/2000/svg" xmlns:xlink="http://www.w3.org/1999/xlink" x="0px" y="0px"
	 viewBox="0 0 263.1 309" style="enable-background:new 0 0 263.1 309;" xml:space="preserve">
<style type="text/css">
	.st0{fill:#003354;}
	.st1{fill:#7B99B3;}
	.st2{fill:#FFFFFF;}
</style>
<g>
	<path class="st0" d="M254.1,280.9c0,10.5-8.6,19.1-19.1,19.1H37.7c-10.5,0-19.1-8.6-19.1-19.1v-11.2H35c2.5,0,4.5-2,4.5-4.5
		c0-2.5-2-4.5-4.5-4.5H18.6v-27.9H35c2.5,0,4.5-2,4.5-4.5c0-2.5-2-4.5-4.5-4.5H18.6V196H35c2.5,0,4.5-2,4.5-4.5c0-2.5-2-4.5-4.5-4.5
		H18.6v-27.9H35c2.5,0,4.5-2,4.5-4.5s-2-4.5-4.5-4.5H18.6v-27.9H35c2.5,0,4.5-2,4.5-4.5c0-2.5-2-4.5-4.5-4.5H18.6V85.5H35
		c2.5,0,4.5-2,4.5-4.5s-2-4.5-4.5-4.5H18.6V48.6H35c2.5,0,4.5-2,4.5-4.5c0-2.5-2-4.5-4.5-4.5H18.6V28.1C18.6,17.6,27.2,9,37.7,9h153
		v241.9c0,2.5,2,4.5,4.5,4.5c2.5,0,4.5-2,4.5-4.5V9h35.2c10.5,0,19.1,8.6,19.1,19.1V280.9L254.1,280.9z M234.9,0H37.7
		C22.2,0,9.6,12.6,9.6,28.1v11.5H4.5c-2.5,0-4.5,2-4.5,4.5c0,2.5,2,4.5,4.5,4.5h5.1v27.9H4.5C2,76.5,0,78.5,0,81s2,4.5,4.5,4.5h5.1
		v27.9H4.5c-2.5,0-4.5,2-4.5,4.5c0,2.5,2,4.5,4.5,4.5h5.1v27.9H4.5c-2.5,0-4.5,2-4.5,4.5s2,4.5,4.5,4.5h5.1V187H4.5
		C2,187,0,189,0,191.5c0,2.5,2,4.5,4.5,4.5h5.1v27.9H4.5c-2.5,0-4.5,2-4.5,4.5c0,2.5,2,4.5,4.5,4.5h5.1v27.9H4.5
		c-2.5,0-4.5,2-4.5,4.5c0,2.5,2,4.5,4.5,4.5h5.1v11.2c0,15.5,12.6,28.1,28.1,28.1h197.2c15.5,0,28.1-12.6,28.1-28.1V28.1
		C263.1,12.6,250.4,0,234.9,0L234.9,0z"/>
	<path class="st1" d="M254.1,280.9c0,10.5-8.6,19.1-19.1,19.1H37.7c-10.5,0-19.1-8.6-19.1-19.1v-11.2H35c2.5,0,4.5-2,4.5-4.5
		c0-2.5-2-4.5-4.5-4.5H18.6v-27.9H35c2.5,0,4.5-2,4.5-4.5c0-2.5-2-4.5-4.5-4.5H18.6V196H35c2.5,0,4.5-2,4.5-4.5c0-2.5-2-4.5-4.5-4.5
		H18.6v-27.9H35c2.5,0,4.5-2,4.5-4.5s-2-4.5-4.5-4.5H18.6v-27.9H35c2.5,0,4.5-2,4.5-4.5c0-2.5-2-4.5-4.5-4.5H18.6V85.5H35
		c2.5,0,4.5-2,4.5-4.5s-2-4.5-4.5-4.5H18.6V48.6H35c2.5,0,4.5-2,4.5-4.5c0-2.5-2-4.5-4.5-4.5H18.6V28.1C18.6,17.6,27.2,9,37.7,9h153
		v241.9c0,2.5,2,4.5,4.5,4.5c2.5,0,4.5-2,4.5-4.5V9h35.2c10.5,0,19.1,8.6,19.1,19.1V280.9L254.1,280.9z"/>
</g>
<g>
	<path class="st0" d="M72.5,116.8c0.9-1.6,7.9-5.5,14.9-7.3c2.3-0.6,3.9-0.8,5-0.8c0.9,0,1.4,0.1,1.6,0.2c2.9,1.9,7.6,19.8,7.7,23.9
		c-0.7,0.7-2.9,2-4.2,2.7c-3.5,2.1-6.1,3.5-6.3,5.9c-0.3,3.4,4.4,13.2,15.6,24.4c11.2,11.2,21,15.8,24.4,15.6
		c2.4-0.2,3.9-2.7,5.9-6.3c0.8-1.3,2-3.5,2.7-4.2c4.1,0,22,4.8,23.9,7.7c0.2,0.4,0.6,2.2-0.5,6.6c-1.8,7-5.7,14-7.3,14.9
		c-2.8,1.2-28.6-1.8-55-28.2C74.3,145.4,71.3,119.6,72.5,116.8L72.5,116.8z M153.8,205.5c2,0,3.5-0.3,4.5-0.8
		c4.1-2.2,8.4-12.2,9.9-18.2c1.3-5,1.3-8.5-0.1-10.7c-3.8-5.9-26.4-10.6-29.5-10c-2.3,0.5-3.8,2.9-6,6.7c-0.7,1.2-1.7,2.8-2.3,3.6
		c-2.5-0.6-10.2-4.4-19.8-14c-9.6-9.6-13.4-17.4-14-19.8c0.8-0.6,2.4-1.6,3.6-2.3c3.9-2.2,6.3-3.7,6.7-6c0.6-3.1-4.1-25.7-10-29.5
		c-2.2-1.4-5.7-1.4-10.7-0.1c-6,1.6-15.9,5.8-18.2,9.9c-3.3,6,2.9,35,29.1,61.2C119.2,197.6,143.1,205.5,153.8,205.5L153.8,205.5z"
		/>
	<path class="st2" d="M72.5,116.8c0.9-1.6,7.9-5.5,14.9-7.3c2.3-0.6,3.9-0.8,5-0.8c0.9,0,1.4,0.1,1.6,0.2c2.9,1.9,7.6,19.8,7.7,23.9
		c-0.7,0.7-2.9,2-4.2,2.7c-3.5,2.1-6.1,3.5-6.3,5.9c-0.3,3.4,4.4,13.2,15.6,24.4c11.2,11.2,21,15.8,24.4,15.6
		c2.4-0.2,3.9-2.7,5.9-6.3c0.8-1.3,2-3.5,2.7-4.2c4.1,0,22,4.8,23.9,7.7c0.2,0.4,0.6,2.2-0.5,6.6c-1.8,7-5.7,14-7.3,14.9
		c-2.8,1.2-28.6-1.8-55-28.2C74.3,145.4,71.3,119.6,72.5,116.8L72.5,116.8z"/>
</g>
</svg>
