<?xml version="1.0" encoding="utf-8"?>
<!-- Generator: Adobe Illustrator 23.0.0, SVG Export Plug-In . SVG Version: 6.00 Build 0)  -->
<svg version="1.1" id="Layer_1" xmlns="http://www.w3.org/2000/svg" xmlns:xlink="http://www.w3.org/1999/xlink" x="0px" y="0px"
	 viewBox="0 0 245.1 309" style="enable-background:new 0 0 245.1 309;" xml:space="preserve">
<style type="text/css">
	.st0{fill:#FFFFFF;}
	.st1{fill:#7B99B3;}
	.st2{fill:#003354;}
</style>
<g>
	<path class="st0" d="M184.2,42.8c-0.6-0.2-1.2-0.4-1.7-0.6c-0.1,0-0.2-0.1-0.3-0.1c-0.6-0.2-1.2-0.4-1.8-0.5
		c-0.3-0.1-0.6-0.1-0.9-0.2c-0.2-0.1-0.5-0.1-0.7-0.2v-26c0-3.4,2.8-6.2,6.2-6.2c3.4,0,6.2,2.8,6.2,6.2v30.8
		c-2.1-1.2-4.4-2.3-6.7-3.1C184.2,42.8,184.2,42.8,184.2,42.8L184.2,42.8z"/>
	<path class="st1" d="M193.6,218.9h-60.7c-5.5,0-10-4.5-10-10V83.3c0-18.8,15.3-34.2,34.2-34.2h12.3c1.4,0,2.9,0.1,4.3,0.3
		c1.7,0.2,3.3,0.5,4.9,1c0.2,0,0.3,0.1,0.5,0.1c0.7,0.2,1.4,0.4,2.1,0.7c0.2,0.1,0.4,0.2,0.6,0.2c0.5,0.2,0.9,0.4,1.4,0.6
		c0.3,0.1,0.6,0.3,0.9,0.4c0.5,0.3,1.1,0.5,1.6,0.8c0.4,0.2,0.7,0.4,1,0.6c0.3,0.2,0.5,0.3,0.8,0.5c0.5,0.3,1,0.7,1.5,1
		c0.3,0.2,0.6,0.4,0.9,0.6c0.3,0.2,0.6,0.5,1,0.8c0.3,0.2,0.6,0.5,0.8,0.7c7.2,6.3,11.8,15.5,11.8,25.8v125.5
		C203.6,214.4,199.1,218.9,193.6,218.9L193.6,218.9z"/>
	<path class="st0" d="M10.6,244.2l21.1-63.9c4.3-13.2,16.6-22,30.5-22h51.8v50.7c0,10.5,8.5,19,19,19h60.7c10.5,0,19-8.5,19-19
		v-30.2c0.4,0.8,0.8,1.4,0.9,1.7l16.8,50.9c3.9,11.7,5.8,24,5.8,36.3v9.5c0,12.7-10.3,23-23,23H32c-12.7,0-23-10.3-23-23V254
		C9,250.6,9.5,247.3,10.6,244.2L10.6,244.2z"/>
	<path class="st2" d="M82.4,234.8c0,6.6-7.2,11.9-16,11.9c-8.8,0-16-5.3-16-11.9c0-6.6,7.2-11.9,16-11.9
		C75.2,222.9,82.4,228.3,82.4,234.8L82.4,234.8z M91.4,234.8c0-11.5-11.2-20.9-25-20.9c-13.8,0-25,9.4-25,20.9
		c0,11.5,11.2,20.9,25,20.9C80.2,255.7,91.4,246.3,91.4,234.8L91.4,234.8z"/>
	<path class="st1" d="M82.4,234.8c0,6.6-7.2,11.9-16,11.9c-8.8,0-16-5.3-16-11.9c0-6.6,7.2-11.9,16-11.9
		C75.2,222.9,82.4,228.3,82.4,234.8L82.4,234.8z"/>
	<path class="st2" d="M188.8,112.3h-51.1V84.4h51.1V112.3L188.8,112.3z M193.3,75.4h-60.1c-2.5,0-4.5,2-4.5,4.5v36.9
		c0,2.5,2,4.5,4.5,4.5h60.1c2.5,0,4.5-2,4.5-4.5V79.9C197.8,77.4,195.8,75.4,193.3,75.4L193.3,75.4z"/>
	<polygon class="st0" points="188.8,112.3 137.7,112.3 137.7,84.4 188.8,84.4 188.8,112.3 	"/>
	<path class="st2" d="M169.4,49.2c1.4,0,2.9,0.1,4.3,0.3c1.7,0.2,3.3,0.5,4.9,1c0.2,0,0.3,0.1,0.5,0.1c0.7,0.2,1.4,0.4,2.1,0.7
		c0.2,0.1,0.4,0.2,0.6,0.2c0.5,0.2,0.9,0.4,1.4,0.6c0.3,0.1,0.6,0.3,0.9,0.4c0.5,0.3,1.1,0.5,1.6,0.8c0.4,0.2,0.7,0.4,1,0.6
		c0.3,0.2,0.5,0.3,0.8,0.5c0.5,0.3,1,0.7,1.5,1c0.3,0.2,0.6,0.4,0.9,0.6c0.3,0.2,0.6,0.5,1,0.8c0.3,0.2,0.6,0.5,0.8,0.7
		c7.2,6.3,11.8,15.5,11.8,25.8v125.5c0,5.5-4.5,10-10,10h-60.7c-5.5,0-10-4.5-10-10V83.3c0-18.8,15.3-34.2,34.2-34.2H169.4
		L169.4,49.2z M113.9,158.2v50.7c0,10.5,8.5,19,19,19h60.7c10.5,0,19-8.5,19-19v-30.2c0.4,0.8,0.8,1.4,0.9,1.7l16.8,50.9
		c3.9,11.7,5.8,24,5.8,36.3v9.5c0,12.7-10.3,23-23,23H32c-12.7,0-23-10.3-23-23V254c0-3.3,0.5-6.6,1.6-9.8l21.1-63.9
		c4.3-13.2,16.6-22,30.5-22H113.9L113.9,158.2z M191,45.9c-2.1-1.2-4.4-2.3-6.7-3.1c0,0-0.1,0-0.1,0c-0.6-0.2-1.2-0.4-1.7-0.6
		c-0.1,0-0.2-0.1-0.3-0.1c-0.6-0.2-1.2-0.4-1.8-0.5c-0.3-0.1-0.6-0.1-0.9-0.2c-0.2-0.1-0.5-0.1-0.7-0.2v-26c0-3.4,2.8-6.2,6.2-6.2
		c3.4,0,6.2,2.8,6.2,6.2V45.9L191,45.9z M169.7,15.2v25c-0.1,0-0.2,0-0.3,0h-12.3c-23.8,0-43.2,19.4-43.2,43.2v65.9H62.1
		c-17.8,0-33.5,11.3-39,28.2L2,241.3c-1.3,4.1-2,8.3-2,12.6V277c0,17.6,14.3,32,32,32h181.1c17.6,0,32-14.3,32-32v-9.5
		c0-13.3-2.1-26.5-6.3-39.1l-16.8-51c-0.3-0.9-1.1-2.4-6.1-11c-1.3-2.3-3-5.1-3.2-5.7c0-0.1-0.1-0.1-0.1-0.2V83.3
		c0-11.9-4.8-22.6-12.6-30.4V15.2C200,6.8,193.2,0,184.8,0C176.5,0,169.7,6.8,169.7,15.2L169.7,15.2z"/>
	<path class="st2" d="M184.8,200c4.1,0,7.4,3.3,7.4,7.4c0,4.1-3.3,7.4-7.4,7.4c-4.1,0-7.4-3.3-7.4-7.4
		C177.5,203.3,180.8,200,184.8,200L184.8,200z"/>
	<path class="st2" d="M184.8,178.7c4.1,0,7.4,3.3,7.4,7.4c0,4.1-3.3,7.4-7.4,7.4c-4.1,0-7.4-3.3-7.4-7.4
		C177.5,182,180.8,178.7,184.8,178.7L184.8,178.7z"/>
	<path class="st2" d="M184.8,157.4c4.1,0,7.4,3.3,7.4,7.4s-3.3,7.4-7.4,7.4c-4.1,0-7.4-3.3-7.4-7.4S180.8,157.4,184.8,157.4
		L184.8,157.4z"/>
	<path class="st2" d="M184.8,136.1c4.1,0,7.4,3.3,7.4,7.4c0,4.1-3.3,7.4-7.4,7.4c-4.1,0-7.4-3.3-7.4-7.4
		C177.5,139.4,180.8,136.1,184.8,136.1L184.8,136.1z"/>
	<path class="st2" d="M163.2,200c4.1,0,7.4,3.3,7.4,7.4c0,4.1-3.3,7.4-7.4,7.4c-4.1,0-7.4-3.3-7.4-7.4
		C155.9,203.3,159.2,200,163.2,200L163.2,200z"/>
	<path class="st2" d="M163.2,178.7c4.1,0,7.4,3.3,7.4,7.4c0,4.1-3.3,7.4-7.4,7.4c-4.1,0-7.4-3.3-7.4-7.4
		C155.9,182,159.2,178.7,163.2,178.7L163.2,178.7z"/>
	<path class="st2" d="M163.2,157.4c4.1,0,7.4,3.3,7.4,7.4s-3.3,7.4-7.4,7.4c-4.1,0-7.4-3.3-7.4-7.4S159.2,157.4,163.2,157.4
		L163.2,157.4z"/>
	<path class="st2" d="M163.2,136.1c4.1,0,7.4,3.3,7.4,7.4c0,4.1-3.3,7.4-7.4,7.4c-4.1,0-7.4-3.3-7.4-7.4
		C155.9,139.4,159.2,136.1,163.2,136.1L163.2,136.1z"/>
	<path class="st2" d="M141.7,200c4.1,0,7.4,3.3,7.4,7.4c0,4.1-3.3,7.4-7.4,7.4c-4.1,0-7.4-3.3-7.4-7.4
		C134.3,203.3,137.6,200,141.7,200L141.7,200z"/>
	<path class="st2" d="M141.7,178.7c4.1,0,7.4,3.3,7.4,7.4c0,4.1-3.3,7.4-7.4,7.4c-4.1,0-7.4-3.3-7.4-7.4
		C134.3,182,137.6,178.7,141.7,178.7L141.7,178.7z"/>
	<path class="st2" d="M141.7,157.4c4.1,0,7.4,3.3,7.4,7.4s-3.3,7.4-7.4,7.4c-4.1,0-7.4-3.3-7.4-7.4S137.6,157.4,141.7,157.4
		L141.7,157.4z"/>
	<path class="st2" d="M141.7,136.1c4.1,0,7.4,3.3,7.4,7.4c0,4.1-3.3,7.4-7.4,7.4c-4.1,0-7.4-3.3-7.4-7.4
		C134.3,139.4,137.6,136.1,141.7,136.1L141.7,136.1z"/>
</g>
</svg>
