<?xml version="1.0" encoding="utf-8"?>
<!-- Generator: Adobe Illustrator 23.0.0, SVG Export Plug-In . SVG Version: 6.00 Build 0)  -->
<svg version="1.1" id="Layer_1" xmlns="http://www.w3.org/2000/svg" xmlns:xlink="http://www.w3.org/1999/xlink" x="0px" y="0px"
	 viewBox="0 0 220.2 309" style="enable-background:new 0 0 220.2 309;" xml:space="preserve">
<style type="text/css">
	.st0{fill:#1E88E5;}
	.st1{fill:#FFFFFF;}
</style>
<g>
	<path class="st0" d="M9,211.8c0-1.9,1.2-3.6,3.1-4.2h0l12.9-4c1.4-0.4,2.4-1.4,2.9-2.8c1.1-3,2.5-6,4.1-8.8
		c1.6-2.8,3.5-5.5,5.6-7.9c0.9-1.1,1.3-2.5,0.9-3.9l-3-13.1c-0.4-1.9,0.4-3.8,2.1-4.7l13.4-7.8c1.7-1,3.7-0.7,5.1,0.6l9.9,9.2
		c1,1,2.5,1.4,3.9,1.1c6.4-1.1,12.9-1.2,19.3,0c1.4,0.2,2.8-0.2,3.9-1.1l9.9-9.2c1.4-1.3,3.5-1.5,5.1-0.6l13.4,7.8
		c0.4,0.2,0.8,0.5,1.1,0.9c0.8,0.9,1.2,2,1.1,3.2c0,0.2,0,0.5-0.1,0.7l-3,13.2c-0.1,0.3-0.1,0.7-0.1,1c0,1,0.4,2.1,1.1,2.9
		c0.6,0.7,1.2,1.4,1.7,2.2c1.9,2.5,3.6,5.1,5,7.9c1.1,2.1,2.1,4.4,2.9,6.7c0.5,1.3,1.6,2.4,2.9,2.8l12.9,4c1.4,0.4,2.4,1.5,2.9,2.8
		c0.1,0.4,0.2,0.9,0.2,1.4v15.5c0,0.7-0.2,1.4-0.5,2c-0.4,0.8-1.1,1.5-1.9,1.9c-0.2,0.1-0.4,0.2-0.7,0.3l-12.9,4
		c-1.4,0.4-2.4,1.4-2.9,2.8c-1.1,3-2.5,6-4.1,8.8c-1.6,2.8-3.5,5.5-5.6,7.9c-0.9,1.1-1.3,2.5-0.9,3.9l3,13.1
		c0.4,1.9-0.4,3.8-2.1,4.7l-2.3,1.3v0l-11.2,6.5c-1.7,1-3.7,0.7-5.1-0.6l-9.9-9.2c-1-1-2.5-1.4-3.9-1.1c-6.4,1.1-12.9,1.2-19.3,0
		c-0.3,0-0.5-0.1-0.8-0.1c-1.1,0-2.2,0.4-3.1,1.2l-9.9,9.2c-1.4,1.3-3.5,1.5-5.1,0.6l-13.4-7.8c-1.7-1-2.5-2.9-2.1-4.7l3-13.2
		c0.3-1.4,0-2.8-0.9-3.9c-4.2-4.9-7.4-10.6-9.6-16.7c-0.5-1.3-1.6-2.4-2.9-2.8l-12.9-4c-1.8-0.6-3.1-2.2-3.1-4.2V211.8L9,211.8z
		 M126.9,283.9c0,0,0.1-0.1,0.1-0.1c0.2-0.2,0.5-0.4,0.7-0.5c0.1-0.1,0.2-0.2,0.3-0.2c0.2-0.1,0.3-0.3,0.5-0.4
		c0.1-0.1,0.2-0.2,0.3-0.3c0.1-0.1,0.3-0.3,0.4-0.4c0.1-0.1,0.2-0.2,0.3-0.3c0.1-0.2,0.3-0.3,0.4-0.5c0.1-0.1,0.2-0.2,0.3-0.4
		c0.1-0.2,0.2-0.3,0.3-0.5c0.1-0.1,0.2-0.3,0.2-0.4c0.1-0.2,0.2-0.3,0.3-0.5c0.1-0.1,0.1-0.3,0.2-0.4c0.1-0.2,0.2-0.3,0.2-0.5
		c0.1-0.1,0.1-0.3,0.2-0.4c0.1-0.2,0.1-0.3,0.2-0.5c0.1-0.1,0.1-0.3,0.2-0.4c0.1-0.2,0.1-0.4,0.2-0.5c0-0.1,0.1-0.3,0.1-0.4
		c0-0.2,0.1-0.4,0.1-0.6c0-0.1,0.1-0.3,0.1-0.4c0-0.2,0.1-0.4,0.1-0.6c0-0.1,0-0.3,0.1-0.5c0-0.2,0-0.4,0-0.6c0-0.1,0-0.3,0-0.4
		c0-0.2,0-0.4,0-0.6c0-0.1,0-0.3,0-0.4c0-0.2,0-0.5-0.1-0.7c0-0.1,0-0.2,0-0.4c-0.1-0.3-0.1-0.7-0.2-1l-2.5-11
		c1.8-2.4,3.5-4.9,5-7.5c1.5-2.6,2.8-5.3,3.9-8.1l10.8-3.3c4.3-1.3,7.5-4.6,8.8-8.7c0.4-1.3,0.6-2.6,0.6-4v-15.5
		c0-1.1-0.1-2.1-0.4-3.1c-0.7-3-2.4-5.6-4.8-7.5c-1.2-1-2.7-1.7-4.3-2.2l-10.8-3.3c-2.2-5.6-5.2-10.8-8.9-15.5l2.5-11
		c1.3-5.8-1.2-11.6-6.3-14.6l-1.1-0.6l0-26.5c8.3,3,16.8,4.3,24.4,4.3c1,0,2.1,0,3.1-0.1c0.2,0,0.4,0,0.6,0c0.5,0,1-0.1,1.5-0.1
		c0.4,0,0.8-0.1,1.2-0.1c0.3,0,0.6-0.1,1-0.1c0.7-0.1,1.4-0.2,2.1-0.3c0.2,0,0.4-0.1,0.6-0.1c3.1-0.5,8-1.5,13.8-3.5
		c0.3-0.1,0.6-0.2,0.9-0.3c0.1,0,0.1,0,0.2-0.1c0.9-0.3,1.9-0.7,2.9-1.1l0.1,147.9c0,14.4-11.7,26.1-26.1,26.1c0,0,0,0,0,0
		C140.4,300,130.9,293.5,126.9,283.9L126.9,283.9z M159.5,121.8c-0.7,0.1-1.5,0.3-2.2,0.4c0,0,0,0,0,0c0,0-0.1,0-0.1,0
		c-0.7,0.1-1.3,0.2-2,0.3c0,0-0.1,0-0.1,0c-10.6,1.1-22.7-1-32.8-5.9c0,0-0.1,0-0.1-0.1c-13.6-6.6-25.8-19.1-30.8-40
		c-6.2-25.7,3.2-42.2,7.6-48c3-4,5.7-6.2,7.4-7l7.4,33c1.9,8.4,6.9,15.5,14.2,20.1c7.3,4.6,15.9,6.1,24.2,4.2
		c17.3-3.9,28.2-21.1,24.4-38.4l-7-31.4c1.4,0.2,3.9,0.9,7.5,3c12.3,7.1,31.5,27.2,34,53.7C214.5,103.1,176.9,118.4,159.5,121.8
		L159.5,121.8z M0,211.8v15.5c0,5.9,3.8,11,9.4,12.8l10.8,3.3c2.2,5.6,5.2,10.8,8.9,15.5l-2.5,11c-1.3,5.8,1.2,11.6,6.3,14.6
		l13.4,7.8c2.1,1.2,4.4,1.8,6.7,1.8c3.3,0,6.5-1.2,9.1-3.6l8.3-7.7c5.9,0.8,12,0.8,17.9,0l8.3,7.7c4.3,4,10.7,4.7,15.8,1.8l6.6-3.8
		c5.6,12.3,18,20.5,31.9,20.5c0,0,0,0,0,0c19.3,0,35.1-15.8,35.1-35.1L186,121.9c4.3-2.2,8.6-5,12.8-8.3
		c15.7-12.6,22.9-29.4,21.1-48.8c-1.5-15.4-8.3-31-19.2-44c-9-10.6-20.2-18.7-28.5-20.5c-7.6-1.6-10.8,2.2-11.8,4
		c-0.6,1-0.7,2.1-0.5,3.2l7.8,34.8c2.8,12.5-5.1,24.9-17.5,27.7c-12.5,2.8-24.9-5.1-27.7-17.5l-7.8-34.8c-0.6-2.7-2.3-4.6-4.8-5.4
		c-3.8-1.1-8.5,0.7-13.3,5.3c-10.8,10.1-20.9,32.2-14,61c5.5,22.8,18.5,36.9,33.3,44.8l0,25.3l-3.3-1.9c-5.1-3-11.5-2.2-15.8,1.8
		l-8.3,7.7c-5.9-0.8-12-0.8-17.9,0l-8.3-7.7c-4.3-4-10.7-4.7-15.8-1.8L33,154.6c-5.1,3-7.7,8.8-6.3,14.6l2.5,11
		c-1.8,2.4-3.5,4.9-5,7.5c-1.5,2.6-2.8,5.3-3.9,8.1L9.4,199C3.8,200.8,0,205.9,0,211.8L0,211.8z"/>
	<path class="st1" d="M157.3,122.2C157.3,122.2,157.3,122.2,157.3,122.2c0,0-0.1,0-0.1,0c-0.7,0.1-1.3,0.2-2,0.3c0,0-0.1,0-0.1,0
		c-10.6,1.1-22.7-1-32.8-5.9c0,0-0.1,0-0.1-0.1c-13.6-6.6-25.8-19.1-30.8-40c-6.2-25.7,3.2-42.2,7.6-48c3-4,5.7-6.2,7.4-7l7.4,33
		c1.9,8.4,6.9,15.5,14.2,20.1c7.3,4.6,15.9,6.1,24.2,4.2c17.3-3.9,28.2-21.1,24.4-38.4l-7-31.4c1.4,0.2,3.9,0.9,7.5,3
		c12.3,7.1,31.5,27.2,34,53.7c3.6,37.4-34,52.7-51.5,56.1C158.7,121.9,158,122.1,157.3,122.2L157.3,122.2z"/>
	<path class="st1" d="M127.7,283.3c0.1-0.1,0.2-0.2,0.3-0.2c0.2-0.1,0.3-0.3,0.5-0.4c0.1-0.1,0.2-0.2,0.3-0.3
		c0.1-0.1,0.3-0.3,0.4-0.4c0.1-0.1,0.2-0.2,0.3-0.3c0.1-0.2,0.3-0.3,0.4-0.5c0.1-0.1,0.2-0.2,0.3-0.4c0.1-0.2,0.2-0.3,0.3-0.5
		c0.1-0.1,0.2-0.3,0.2-0.4c0.1-0.2,0.2-0.3,0.3-0.5c0.1-0.1,0.1-0.3,0.2-0.4c0.1-0.2,0.2-0.3,0.2-0.5c0.1-0.1,0.1-0.3,0.2-0.4
		c0.1-0.2,0.1-0.3,0.2-0.5c0.1-0.1,0.1-0.3,0.2-0.4c0.1-0.2,0.1-0.4,0.2-0.5c0-0.1,0.1-0.3,0.1-0.4c0-0.2,0.1-0.4,0.1-0.6
		c0-0.1,0.1-0.3,0.1-0.4c0-0.2,0.1-0.4,0.1-0.6c0-0.1,0-0.3,0.1-0.5c0-0.2,0-0.4,0-0.6c0-0.1,0-0.3,0-0.4c0-0.2,0-0.4,0-0.6
		c0-0.1,0-0.3,0-0.4c0-0.2,0-0.5-0.1-0.7c0-0.1,0-0.2,0-0.4c-0.1-0.3-0.1-0.7-0.2-1l-2.5-11c1.8-2.4,3.5-4.9,5-7.5
		c1.5-2.6,2.8-5.3,3.9-8.1l10.8-3.3c4.3-1.3,7.5-4.6,8.8-8.7c0.4-1.3,0.6-2.6,0.6-4v-15.5c0-1.1-0.1-2.1-0.4-3.1
		c-0.7-3-2.4-5.6-4.8-7.5c-1.2-1-2.7-1.7-4.3-2.2l-10.8-3.3c-2.2-5.6-5.2-10.8-8.9-15.5l2.5-11c1.3-5.8-1.2-11.6-6.3-14.6l-1.1-0.6
		l0-26.5c8.3,3,16.8,4.3,24.4,4.3c1,0,2.1,0,3.1-0.1c0.2,0,0.4,0,0.6,0c0.5,0,1-0.1,1.5-0.1c0.4,0,0.8-0.1,1.2-0.1
		c0.3,0,0.6-0.1,1-0.1c0.7-0.1,1.4-0.2,2.1-0.3c0.2,0,0.4-0.1,0.6-0.1c3.1-0.5,8-1.5,13.8-3.5c0.3-0.1,0.6-0.2,0.9-0.3
		c0.1,0,0.1,0,0.2-0.1c0.9-0.3,1.9-0.7,2.9-1.1l0.1,147.9c0,14.4-11.7,26.1-26.1,26.1c0,0,0,0,0,0c-10.6,0-20.1-6.5-24.1-16.1
		c0,0,0.1-0.1,0.1-0.1C127.2,283.7,127.5,283.5,127.7,283.3L127.7,283.3z"/>
	<path class="st1" d="M59.5,208c3.1-5.3,8-9.1,14-10.7c2-0.5,4-0.8,6-0.8c4,0,7.9,1,11.5,3.1c11,6.4,14.8,20.5,8.4,31.5
		c-3.1,5.3-8,9.1-14,10.7c-6,1.6-12.2,0.8-17.5-2.3c-5.3-3.1-9.1-8-10.7-14C55.6,219.6,56.4,213.4,59.5,208L59.5,208z M51.7,203.5
		c-4.3,7.4-5.4,16-3.2,24.3c2.2,8.3,7.5,15.2,14.9,19.5c4.9,2.8,10.4,4.3,16,4.3c2.8,0,5.6-0.4,8.4-1.1c8.3-2.2,15.2-7.5,19.5-14.9
		c8.8-15.3,3.6-35-11.7-43.8c-7.4-4.3-16-5.4-24.3-3.2C62.9,190.8,56,196.1,51.7,203.5L51.7,203.5z"/>
	<path class="st0" d="M51.7,203.5c4.3-7.4,11.2-12.7,19.5-14.9c8.3-2.2,16.9-1.1,24.3,3.2c15.3,8.8,20.6,28.5,11.7,43.8
		c-4.3,7.4-11.2,12.7-19.5,14.9c-2.8,0.7-5.6,1.1-8.4,1.1c-5.6,0-11-1.5-16-4.3c-7.4-4.3-12.7-11.2-14.9-19.5
		C46.3,219.6,47.4,210.9,51.7,203.5L51.7,203.5z M9,211.8v15.5c0,1.9,1.2,3.6,3.1,4.2l12.9,4c1.4,0.4,2.4,1.4,2.9,2.8
		c2.2,6.1,5.4,11.7,9.6,16.7c0.9,1.1,1.3,2.5,0.9,3.9l-3,13.2c-0.4,1.9,0.4,3.8,2.1,4.7l13.4,7.8c1.7,1,3.7,0.7,5.1-0.6l9.9-9.2
		c0.8-0.8,1.9-1.2,3.1-1.2c0.3,0,0.5,0,0.8,0.1c6.4,1.1,12.9,1.1,19.3,0c1.4-0.2,2.8,0.2,3.9,1.1l9.9,9.2c1.4,1.3,3.5,1.5,5.1,0.6
		l11.2-6.5v0l2.3-1.3c1.7-1,2.5-2.9,2.1-4.7l-3-13.1c-0.3-1.4,0-2.8,0.9-3.9c2.1-2.5,3.9-5.1,5.6-7.9c1.6-2.8,3-5.8,4.1-8.8
		c0.5-1.3,1.6-2.4,2.9-2.8l12.9-4c0.2-0.1,0.4-0.2,0.7-0.3c0.8-0.4,1.5-1.1,1.9-1.9c0.3-0.6,0.5-1.3,0.5-2v-15.5
		c0-0.5-0.1-0.9-0.2-1.4c-0.4-1.3-1.5-2.4-2.9-2.8l-12.9-4c-1.4-0.4-2.4-1.4-2.9-2.8c-0.8-2.3-1.8-4.5-2.9-6.7
		c-1.4-2.8-3.1-5.4-5-7.9c-0.6-0.7-1.1-1.5-1.7-2.2c-0.7-0.8-1.1-1.8-1.1-2.9c0-0.3,0-0.7,0.1-1l3-13.2c0.1-0.2,0.1-0.5,0.1-0.7
		c0.1-1.2-0.3-2.3-1.1-3.2c-0.3-0.3-0.7-0.6-1.1-0.9l-13.4-7.8c-1.7-1-3.7-0.7-5.1,0.6l-9.9,9.2c-1,1-2.5,1.4-3.9,1.1
		c-6.4-1.1-12.9-1.1-19.3,0c-1.4,0.2-2.8-0.2-3.9-1.1l-9.9-9.2c-1.4-1.3-3.5-1.5-5.1-0.6l-13.4,7.8c-1.7,1-2.5,2.9-2.1,4.7l3,13.1
		c0.3,1.4,0,2.8-0.9,3.9c-2.1,2.5-3.9,5.1-5.6,7.9c-1.6,2.8-3,5.8-4.1,8.8c-0.5,1.3-1.6,2.4-2.9,2.8l-12.9,4h0
		C10.2,208.2,9,209.9,9,211.8L9,211.8z"/>
</g>
</svg>
