<?xml version="1.0" encoding="utf-8"?>
<!-- Generator: Adobe Illustrator 23.0.0, SVG Export Plug-In . SVG Version: 6.00 Build 0)  -->
<svg version="1.1" id="Layer_1" xmlns="http://www.w3.org/2000/svg" xmlns:xlink="http://www.w3.org/1999/xlink" x="0px" y="0px"
	 viewBox="0 0 309 243.1" style="enable-background:new 0 0 309 243.1;" xml:space="preserve">
<style type="text/css">
	.st0{fill:#1E88E5;}
</style>
<g>
	<path class="st0" d="M9,43.2C9,24.3,24.3,9,43.2,9C62,9,77.3,24.3,77.3,43.2S62,77.3,43.2,77.3C24.3,77.3,9,62,9,43.2L9,43.2z
		 M304.5,234.1h-19V33.8c0-2.5-2-4.5-4.5-4.5c-2.5,0-4.5,2-4.5,4.5v200.3h-37.4V76c0-2.5-2-4.5-4.5-4.5c-2.5,0-4.5,2-4.5,4.5v158.1
		h-37.4V118.2c0-2.5-2-4.5-4.5-4.5c-2.5,0-4.5,2-4.5,4.5v115.9h-37.4v-73.7c0-2.5-2-4.5-4.5-4.5c-2.5,0-4.5,2-4.5,4.5v73.7H99.9
		v-31.5c0-2.5-2-4.5-4.5-4.5c-2.5,0-4.5,2-4.5,4.5v31.5H47.7v-148c21.7-2.3,38.7-20.6,38.7-42.9C86.3,19.4,67,0,43.2,0
		C19.4,0,0,19.4,0,43.2c0,22.3,17,40.7,38.7,42.9v148h-19c-2.5,0-4.5,2-4.5,4.5c0,2.5,2,4.5,4.5,4.5h284.8c2.5,0,4.5-2,4.5-4.5
		C309,236.1,307,234.1,304.5,234.1L304.5,234.1z"/>
	<path class="st0" d="M9,43.2C9,24.3,24.3,9,43.2,9C62,9,77.3,24.3,77.3,43.2S62,77.3,43.2,77.3C24.3,77.3,9,62,9,43.2L9,43.2z"/>
</g>
</svg>
