<?xml version="1.0" encoding="utf-8"?>
<!-- Generator: Adobe Illustrator 23.0.0, SVG Export Plug-In . SVG Version: 6.00 Build 0)  -->
<svg version="1.1" id="Layer_1" xmlns="http://www.w3.org/2000/svg" xmlns:xlink="http://www.w3.org/1999/xlink" x="0px" y="0px"
	 viewBox="0 0 308.6 308.6" style="enable-background:new 0 0 308.6 308.6;" xml:space="preserve">
<style type="text/css">
	.st0{fill:#003354;}
	.st1{fill:#7B99B3;}
</style>
<g>
	<path class="st0" d="M212.5,64.2l-0.4,0.2c-2.3,1.3-8.3,7.1-15,17c-7.8,11.6-9.5,18.3-9.3,20.3l0,0.3l0.2,0.2c1,1.3,2,2.6,3.1,3.9
		c6.3,7.7,14.8,18.3,5.6,31c-8.4,11.5-26.2,29.4-28.2,31.4c-0.8,0.8-19.7,19.7-31.4,28.2c-3.7,2.7-7.5,4-11.4,4
		c-7.7,0-14-5.1-19.5-9.6c-1.3-1.1-2.6-2.1-3.9-3l-0.2-0.2l-0.3,0c-0.1,0-0.1,0-0.2,0c-3.3,0-11.2,3.1-21.3,10.2
		c-9.2,6.4-14.5,11.9-15.8,14.1l-0.2,0.4l0.2,0.4c0.9,2.5,4.9,8.6,12.2,14.7c5,4.2,15.2,11.2,26.7,11.2c2.9,0,5.7-0.4,8.3-1.3
		c26.6-8.9,43.4-22.8,73.3-52.7c29.9-29.9,43.8-46.7,52.7-73.3c3.6-10.7-0.7-21.1-4.9-28c-6.8-11.1-16.3-18.1-19.7-19.2L212.5,64.2
		L212.5,64.2z M72.3,285.1c-10.8-6.7-17.1-15.4-18.4-25c-1.2-9.4,2.4-19.3,10.6-29.5l0.6-0.7c0,0-1.1-1.1-1.3-1.3
		c-3.6-3.9-9.5-11.2-9.1-16.9c0.4-4.9,7-12.2,18.7-20.6c5.4-3.8,18.9-12.8,28-12.8c2.4,0,4.4,0.6,6,1.8c1.5,1.1,3,2.3,4.6,3.6
		c4.6,3.7,9.3,7.5,13.6,7.5c1.9,0,3.8-0.7,5.8-2.2c11.2-8.2,30.1-27.1,30.3-27.3c0.8-0.8,19.2-19.2,27.3-30.3
		c4.7-6.5,1.3-11.4-5.3-19.5c-1.2-1.5-2.4-3-3.5-4.5c-2.8-3.8-2.3-9.7,1.6-18.1c5.4-11.8,20.9-33.9,30-34.6c0.2,0,0.4,0,0.6,0
		c7.1,0,18.6,10,25.5,19.6c9.7,13.5,12.8,27.7,8.6,40.2c-9.5,28.4-24,46-55,77c-31,31-48.6,45.5-77,55c-3.6,1.2-7.4,1.8-11.3,1.8
		c-12.5,0-23.3-6.2-30.2-11.5l-0.8-0.6l-0.6,0.8c-6.4,7.9-9.2,15.3-8.3,21.9c1.1,8.5,8.3,14.6,14.1,18.2c23,14.5,49.7,22.1,77,22.1
		c79.9,0,144.9-65,144.9-144.9c0-79.9-65-144.9-144.9-144.9C74.4,9.4,9.4,74.4,9.4,154.3c0,21.2,4.5,41.7,13.3,60.8
		c1.1,2.4,0.1,5.2-2.3,6.3c-0.6,0.3-1.3,0.4-2,0.4l0,0c-1.8,0-3.5-1.1-4.3-2.7C4.8,198.7,0,176.9,0,154.3c0-41.2,16.1-80,45.2-109.1
		C74.3,16.1,113.1,0,154.3,0c41.2,0,80,16.1,109.1,45.2c29.1,29.1,45.2,67.9,45.2,109.1c0,41.2-16.1,80-45.2,109.1
		c-29.1,29.1-67.9,45.2-109.1,45.2C125.2,308.6,96.8,300.5,72.3,285.1L72.3,285.1z"/>
	<path class="st1" d="M212.5,64.2l-0.4,0.2c-2.3,1.3-8.3,7.1-15,17c-7.8,11.6-9.5,18.3-9.3,20.3l0,0.3l0.2,0.2c1,1.3,2,2.6,3.1,3.9
		c6.3,7.7,14.8,18.3,5.6,31c-8.4,11.5-26.2,29.4-28.2,31.4c-0.8,0.8-19.7,19.7-31.4,28.2c-3.7,2.7-7.5,4-11.4,4
		c-7.7,0-14-5.1-19.5-9.6c-1.3-1.1-2.6-2.1-3.9-3l-0.2-0.2l-0.3,0c-0.1,0-0.1,0-0.2,0c-3.3,0-11.2,3.1-21.3,10.2
		c-9.2,6.4-14.5,11.9-15.8,14.1l-0.2,0.4l0.2,0.4c0.9,2.5,4.9,8.6,12.2,14.7c5,4.2,15.2,11.2,26.7,11.2c2.9,0,5.7-0.4,8.3-1.3
		c26.6-8.9,43.4-22.8,73.3-52.7c29.9-29.9,43.8-46.7,52.7-73.3c3.6-10.7-0.7-21.1-4.9-28c-6.8-11.1-16.3-18.1-19.7-19.2L212.5,64.2
		L212.5,64.2z"/>
</g>
</svg>
