<?xml version="1.0" encoding="utf-8"?>
<!-- Generator: Adobe Illustrator 23.0.0, SVG Export Plug-In . SVG Version: 6.00 Build 0)  -->
<svg version="1.1" id="Layer_1" xmlns="http://www.w3.org/2000/svg" xmlns:xlink="http://www.w3.org/1999/xlink" x="0px" y="0px"
	 viewBox="0 0 309 308.9" style="enable-background:new 0 0 309 308.9;" xml:space="preserve">
<style type="text/css">
	.st0{fill:#003354;}
	.st1{fill:#7B99B3;}
	.st2{fill:#FFFFFF;}
</style>
<g>
	<path class="st0" d="M132.7,157.6L28.7,229.3C15.8,208,9,183.6,9,158.4c0-30.5,10.2-60.2,28.8-84.2L132.7,157.6L132.7,157.6z
		 M144.5,158.3c0.1-1.4-0.5-2.7-1.5-3.6L40.2,64.3c-0.9-0.8-2.1-1.2-3.3-1.1c-1.2,0.1-2.3,0.7-3.1,1.6C12,91.1,0,124.3,0,158.4
		c0,28.4,8.2,56,23.6,79.7c0.7,1,1.7,1.7,2.9,2c0.3,0.1,0.6,0.1,0.9,0.1c0.9,0,1.8-0.3,2.6-0.8l112.7-77.7
		C143.7,161,144.5,159.7,144.5,158.3L144.5,158.3z"/>
	<path class="st0" d="M141.2,127.7l-89-78.2c23.9-24.1,55.2-38.2,89-40.3V127.7L141.2,127.7z M142.8,141c0.8,0.7,1.9,1.1,3,1.1
		c0.6,0,1.3-0.1,1.9-0.4c1.6-0.7,2.6-2.3,2.6-4.1V4.5c0-1.2-0.5-2.4-1.4-3.2c-0.9-0.8-2-1.3-3.3-1.3C106.1,1.1,69.4,17.7,42.4,46.7
		c-0.8,0.9-1.3,2.1-1.2,3.3s0.6,2.4,1.5,3.2L142.8,141L142.8,141z"/>
	<path class="st1" d="M132.7,157.6L28.7,229.3C15.8,208,9,183.6,9,158.4c0-30.5,10.2-60.2,28.8-84.2L132.7,157.6L132.7,157.6z"/>
	<path class="st2" d="M141.2,127.7l-89-78.2c23.9-24.1,55.2-38.2,89-40.3V127.7L141.2,127.7z"/>
	<path class="st0" d="M300,162.4c0,75.8-61.7,137.5-137.5,137.5c-42.1,0-82.2-19.6-108.2-52.6l17.1-11.8
		c22.3,27.2,55,42.7,90.3,42.7c64.5,0,117-52.5,117-117c0-30.4-11.6-59.2-32.6-81.1c-20-20.8-46.5-33.3-75.1-35.5V25.2
		C243.7,29.5,300,89,300,162.4L300,162.4z M171,162.4V53.6c55.7,4.7,98.7,51.1,98.7,107.6c0,59.6-48.4,108-108,108
		c-32.4,0-62.3-14.1-82.9-38.8l88.5-61c0,0,0,0,0,0c0.1-0.1,0.2-0.2,0.3-0.3c0.3-0.2,0.5-0.4,0.8-0.7c0.1-0.1,0.2-0.2,0.3-0.3
		c0.4-0.4,0.6-0.8,0.9-1.2c0.1-0.1,0.1-0.2,0.2-0.3c0.2-0.3,0.4-0.7,0.5-1c0.1-0.1,0.1-0.3,0.2-0.4c0.1-0.3,0.2-0.7,0.3-1
		c0-0.1,0.1-0.2,0.1-0.4C170.9,163.3,171,162.9,171,162.4L171,162.4z M309,162.4c0-38.4-14.8-74.7-41.6-102.2
		C240.7,32.7,204.9,17,166.6,16c-1.2,0-2.4,0.4-3.3,1.3c-0.9,0.8-1.4,2-1.4,3.2v28.4v113.3l-92.3,63.6c0,0,0,0,0,0l-24.4,16.8
		c-1,0.7-1.7,1.8-1.9,3c-0.2,1.2,0.1,2.4,0.8,3.4c27.5,37.6,71.7,60,118.3,60C243.3,308.9,309,243.2,309,162.4L309,162.4z"/>
	<path class="st1" d="M171,53.6c55.7,4.7,98.7,51.1,98.7,107.6c0,59.6-48.4,108-108,108c-32.4,0-62.3-14.1-82.9-38.8l88.5-61
		c0,0,0,0,0,0c0.1-0.1,0.2-0.2,0.3-0.3c0.3-0.2,0.5-0.4,0.8-0.7c0.1-0.1,0.2-0.2,0.3-0.3c0.4-0.4,0.6-0.8,0.9-1.2
		c0.1-0.1,0.1-0.2,0.2-0.3c0.2-0.3,0.4-0.7,0.5-1c0.1-0.1,0.1-0.3,0.2-0.4c0.1-0.3,0.2-0.7,0.3-1c0-0.1,0.1-0.2,0.1-0.4
		c0.1-0.5,0.1-0.9,0.1-1.4V53.6L171,53.6z"/>
	<path class="st2" d="M71.3,235.6c22.3,27.2,55,42.7,90.3,42.7c64.5,0,117-52.5,117-117c0-30.4-11.6-59.2-32.6-81.1
		c-20-20.8-46.5-33.3-75.1-35.5V25.2c72.7,4.4,129,63.8,129,137.3c0,75.8-61.7,137.5-137.5,137.5c-42.1,0-82.2-19.6-108.2-52.6
		L71.3,235.6L71.3,235.6z"/>
</g>
</svg>
