<?xml version="1.0" encoding="utf-8"?>
<!-- Generator: Adobe Illustrator 23.0.0, SVG Export Plug-In . SVG Version: 6.00 Build 0)  -->
<svg version="1.1" id="Layer_1" xmlns="http://www.w3.org/2000/svg" xmlns:xlink="http://www.w3.org/1999/xlink" x="0px" y="0px"
	 viewBox="0 0 263.9 266.6" style="enable-background:new 0 0 263.9 266.6;" xml:space="preserve">
<style type="text/css">
	.st0{fill:#7B99B3;}
	.st1{fill:#FFFFFF;}
	.st2{fill:#003354;}
</style>
<g>
	<path class="st0" d="M21.1,61.8H45v77.9c0,9.9,8,17.8,17.8,17.8h91.1l45.7,36.5c-2.8,5-8.2,8.3-14.3,8.3h-83.8L27,261.9l13.6-59.6
		H21.1c-9.1,0-16.4-7.4-16.4-16.4V78.2C4.7,69.1,12.1,61.8,21.1,61.8L21.1,61.8z"/>
	<path class="st1" d="M227.3,210.1l-70.4-56.3c-0.8-0.7-1.9-1-2.9-1H62.8c-7.2,0-13.1-5.9-13.1-13.1V22.6c0-7.2,5.9-13.1,13.1-13.1
		h178.5c7.2,0,13.1,5.9,13.1,13.1v117.1c0,7.2-5.9,13.1-13.1,13.1h-21.3c-1.4,0-2.8,0.6-3.7,1.8c-0.9,1.1-1.2,2.6-0.9,4L227.3,210.1
		L227.3,210.1z"/>
	<path class="st2" d="M204.9,60.6c2.6,0,4.7-2.1,4.7-4.7s-2.1-4.7-4.7-4.7h-108c-2.6,0-4.7,2.1-4.7,4.7s2.1,4.7,4.7,4.7H204.9
		L204.9,60.6z"/>
	<path class="st2" d="M204.9,109.6c2.6,0,4.7-2.1,4.7-4.7c0-2.6-2.1-4.7-4.7-4.7h-108c-2.6,0-4.7,2.1-4.7,4.7c0,2.6,2.1,4.7,4.7,4.7
		H204.9L204.9,109.6z"/>
	<path class="st2" d="M62.8,9.4c-7.2,0-13.1,5.9-13.1,13.1v117.1c0,7.2,5.9,13.1,13.1,13.1h91.1c1.1,0,2.1,0.4,2.9,1l70.4,56.3
		l-11.8-51.6c-0.3-1.4,0-2.9,0.9-4c0.9-1.1,2.2-1.8,3.7-1.8h21.3c7.2,0,13.1-5.9,13.1-13.1V22.6c0-7.2-5.9-13.1-13.1-13.1H62.8
		L62.8,9.4z M152.3,162.2H62.8c-12.4,0-22.6-10.1-22.6-22.6V66.5H21.1c-6.5,0-11.7,5.3-11.7,11.7v107.7c0,6.5,5.3,11.7,11.7,11.7
		h19.6c1.4,0,2.8,0.6,3.7,1.8c0.9,1.1,1.2,2.6,0.9,4l-10.6,46.4l64-51.1c0.8-0.7,1.9-1,2.9-1h83.8c2.4,0,4.6-0.7,6.6-2l1.1-0.8
		L152.3,162.2L152.3,162.2z M27,266.6c-2.6,0-4.7-2.1-4.7-4.7c0-0.5,0.1-0.9,0.2-1.5l12.2-53.4H21.1C9.5,207.1,0,197.6,0,185.9V78.2
		c0-11.7,9.5-21.1,21.1-21.1h19.1V22.6C40.3,10.1,50.4,0,62.8,0h178.5c12.4,0,22.6,10.1,22.6,22.6v117.1c0,12.4-10.1,22.6-22.6,22.6
		H226l13.5,59c0.4,1.9-0.4,4-2.1,5c-0.8,0.5-1.6,0.7-2.5,0.7c-1.1,0-2.1-0.4-2.9-1l-31.5-25.2l-0.6,0.6c-4,3.7-9.1,5.7-14.5,5.7
		h-82.1L30,265.6C29.2,266.2,28.1,266.6,27,266.6L27,266.6L27,266.6z"/>
</g>
</svg>
