<?xml version="1.0" encoding="utf-8"?>
<!-- Generator: Adobe Illustrator 23.0.0, SVG Export Plug-In . SVG Version: 6.00 Build 0)  -->
<svg version="1.1" id="Layer_1" xmlns="http://www.w3.org/2000/svg" xmlns:xlink="http://www.w3.org/1999/xlink" x="0px" y="0px"
	 viewBox="0 0 266.5 279.1" style="enable-background:new 0 0 266.5 279.1;" xml:space="preserve">
<style type="text/css">
	.st0{fill:#7B99B3;}
	.st1{fill:#FFFFFF;}
	.st2{fill:#003354;}
</style>
<g>
	<path class="st0" d="M151.7,25.3c-7.9-6.2-14.2-11.2-17.9-14.1l-0.6-0.5l-0.6,0.5c-3.7,2.9-10,7.9-17.9,14.1l-2.2,1.8h41.4
		L151.7,25.3L151.7,25.3z"/>
	<path class="st0" d="M254.1,109.3c-4.1-3.9-13.8-12.4-36.5-31L216,77v63.4l39-30.3L254.1,109.3L254.1,109.3z"/>
	<path class="st1" d="M136.1,214.5c-0.2,0.2-0.4,0.3-0.7,0.4c-0.7,0.4-1.4,0.6-2.2,0.6c-0.8,0-1.5-0.2-2.2-0.6
		c-0.2-0.1-0.5-0.3-0.7-0.4l-120.9-94v136c0,7.2,5.9,13.1,13.1,13.1h221.3c7.2,0,13.1-5.9,13.1-13.1v-136L136.1,214.5L136.1,214.5z"
		/>
	<path class="st0" d="M50.5,77l-1.6,1.3c-22.7,18.6-32.4,27.1-36.5,31l-0.9,0.8l39,30.3V77L50.5,77z"/>
	<polygon class="st1" points="206.6,147.8 206.6,36.6 59.9,36.6 59.9,147.8 133.2,204.8 206.6,147.8 	"/>
	<polygon class="st0" points="180.3,93 91.5,93 91.5,73.5 180.3,73.5 180.3,93 	"/>
	<polygon class="st0" points="180.3,139.5 91.5,139.5 91.5,120 180.3,120 180.3,139.5 	"/>
	<path class="st2" d="M132.6,11.2c-3.7,2.9-10,7.9-17.9,14.1l-2.2,1.8h41.4l-2.2-1.8c-7.9-6.2-14.2-11.2-17.9-14.1l-0.6-0.5
		L132.6,11.2L132.6,11.2z M48.8,78.4c-22.7,18.6-32.4,27.1-36.5,31l-0.9,0.8l39,30.3V77L48.8,78.4L48.8,78.4z M216,140.5l39-30.3
		l-0.9-0.8c-4.1-3.9-13.8-12.4-36.5-31L216,77V140.5L216,140.5z M59.9,147.8l73.3,57.1l73.3-57.1V36.6H59.9V147.8L59.9,147.8z
		 M9.4,256.5c0,7.2,5.9,13.1,13.1,13.1h221.3c7.2,0,13.1-5.9,13.1-13.1v-136l-120.9,94c-0.2,0.2-0.4,0.3-0.7,0.4
		c-0.7,0.4-1.4,0.6-2.2,0.6c-0.8,0-1.5-0.2-2.2-0.6c-0.2-0.1-0.5-0.3-0.7-0.4l-120.9-94V256.5L9.4,256.5z M22.6,279.1
		C10.1,279.1,0,268.9,0,256.5l0-145.7l0-0.3c0.2-2.2,1.8-4.1,5.6-7.7c2.6-2.4,6.3-5.8,11.2-10c8-6.8,19.2-16.1,33.3-27.7l0.4-0.3
		v-33c0-2.6,2.1-4.7,4.7-4.7h42.2l0.3-0.2c16-12.8,28.9-22.9,32.4-25.7l0.2-0.2c0.8-0.6,1.9-1,2.9-1c1.1,0,2.1,0.4,2.9,1l0.2,0.2
		c4.6,3.6,16.9,13.3,32.4,25.7l0.3,0.2h42.2c2.6,0,4.7,2.1,4.7,4.7v33l0.4,0.3c14.1,11.5,25.3,20.8,33.3,27.7
		c4.9,4.2,8.6,7.5,11.2,10c3.8,3.6,5.4,5.5,5.6,7.7l0,0.3l0,145.7c0,12.4-10.1,22.6-22.6,22.6H22.6L22.6,279.1z"/>
</g>
</svg>
