<?xml version="1.0" encoding="utf-8"?>
<!-- Generator: Adobe Illustrator 23.0.0, SVG Export Plug-In . SVG Version: 6.00 Build 0)  -->
<svg version="1.1" id="Layer_1" xmlns="http://www.w3.org/2000/svg" xmlns:xlink="http://www.w3.org/1999/xlink" x="0px" y="0px"
	 viewBox="0 0 309 301.2" style="enable-background:new 0 0 309 301.2;" xml:space="preserve">
<style type="text/css">
	.st0{fill:#FFFFFF;}
	.st1{fill:#7B99B3;}
	.st2{fill:#003354;}
</style>
<g>
	<path class="st0" d="M172,18.8c0-5.4,4.4-9.8,9.8-9.8c5.4,0,9.8,4.4,9.8,9.8v63.3H172V18.8L172,18.8z"/>
	<path class="st0" d="M251.3,18.8c0-5.4,4.4-9.8,9.8-9.8c5.4,0,9.8,4.4,9.8,9.8v63.3h-19.6V18.8L251.3,18.8z"/>
	<path class="st1" d="M41.2,137.4c25.6,0,46.4,20.8,46.4,46.4v65.9c0,9.6,7.8,17.4,17.4,17.4h86.5c9.6,0,17.4-7.8,17.4-17.4v-29.4
		c0-2.2-1.7-4.1-3.9-4.5c-26.5-3.7-46.4-26.6-46.4-53.3v-37.3h125.7v37.3c0,26.7-19.8,49.5-46.2,53.3h-18.6c-2.5,0-4.5,2-4.5,4.5
		c0,2.5,2,4.5,4.5,4.5H234v24.9c0,23.5-19.1,42.5-42.5,42.5H105c-23.5,0-42.5-19.1-42.5-42.5v-65.9c0-11.7-9.5-21.3-21.3-21.3H9
		v-25.1H41.2L41.2,137.4z"/>
	<path class="st1" d="M146.2,116.3c-1.8,0-3.3-1.5-3.3-3.3V94.5c0-1.8,1.5-3.3,3.3-3.3h21.2h28.6h50.8h28.6h21.2
		c1.8,0,3.3,1.5,3.3,3.3v18.5c0,1.8-1.5,3.3-3.3,3.3h-7.8H154.1H146.2L146.2,116.3z"/>
	<path class="st2" d="M208.9,175.7c0-6.9,5.6-12.6,12.6-12.6c6.9,0,12.6,5.6,12.6,12.6s-5.6,12.6-12.6,12.6
		C214.5,188.3,208.9,182.6,208.9,175.7L208.9,175.7z M221.4,197.3c11.9,0,21.6-9.7,21.6-21.6c0-11.9-9.7-21.6-21.6-21.6
		c-11.9,0-21.6,9.7-21.6,21.6C199.9,187.6,209.5,197.3,221.4,197.3L221.4,197.3z"/>
	<path class="st0" d="M208.9,175.7c0-6.9,5.6-12.6,12.6-12.6c6.9,0,12.6,5.6,12.6,12.6s-5.6,12.6-12.6,12.6
		C214.5,188.3,208.9,182.6,208.9,175.7L208.9,175.7z"/>
	<path class="st2" d="M41.2,162.5H9v-25.1h32.2c25.6,0,46.4,20.8,46.4,46.4v65.9c0,9.6,7.8,17.4,17.4,17.4h86.5
		c9.6,0,17.4-7.8,17.4-17.4v-29.4c0-2.2-1.7-4.1-3.9-4.5c-26.5-3.7-46.4-26.6-46.4-53.3v-37.3h125.7v37.3
		c0,26.7-19.8,49.5-46.2,53.3h-18.6c-2.5,0-4.5,2-4.5,4.5c0,2.5,2,4.5,4.5,4.5H234v24.9c0,23.5-19.1,42.5-42.5,42.5H105
		c-23.5,0-42.5-19.1-42.5-42.5v-65.9C62.5,172.1,52.9,162.5,41.2,162.5L41.2,162.5z M288.8,116.3H154.1h-7.8c-1.8,0-3.3-1.5-3.3-3.3
		V94.5c0-1.8,1.5-3.3,3.3-3.3h21.2h28.6h50.8h28.6h21.2c1.8,0,3.3,1.5,3.3,3.3v18.5c0,1.8-1.5,3.3-3.3,3.3H288.8L288.8,116.3z
		 M270.9,82.1h-19.6V18.8c0-5.4,4.4-9.8,9.8-9.8c5.4,0,9.8,4.4,9.8,9.8V82.1L270.9,82.1z M191.6,82.1H172V18.8
		c0-5.4,4.4-9.8,9.8-9.8c5.4,0,9.8,4.4,9.8,9.8V82.1L191.6,82.1z M0,132.9v34.5h0c0.2,2.3,2.1,4.2,4.5,4.2h36.7
		c6.8,0,12.3,5.5,12.3,12.3v65.9c0,28.4,23.1,51.5,51.5,51.5h86.5c28.4,0,51.5-23.1,51.5-51.5v-25.6c28.9-5.9,50.3-31.7,50.3-61.6
		v-37.3h3.3c6.8,0,12.3-5.5,12.3-12.3V94.5c0-6.8-5.5-12.3-12.3-12.3h-16.7V18.8c0-10.4-8.4-18.8-18.8-18.8
		c-10.4,0-18.8,8.4-18.8,18.8v63.3h-41.8V18.8c0-10.4-8.4-18.8-18.8-18.8S163,8.4,163,18.8v63.3h-16.7c-6.8,0-12.3,5.5-12.3,12.3
		v18.5c0,6.8,5.5,12.3,12.3,12.3h3.3v37.3c0,29.9,21.4,55.7,50.3,61.6v25.6c0,4.6-3.8,8.4-8.4,8.4H105c-4.6,0-8.4-3.8-8.4-8.4v-65.9
		c0-30.6-24.9-55.4-55.4-55.4H4.5C2,128.4,0,130.4,0,132.9L0,132.9z"/>
</g>
</svg>
