<?xml version="1.0" encoding="utf-8"?>
<!-- Generator: Adobe Illustrator 23.0.0, SVG Export Plug-In . SVG Version: 6.00 Build 0)  -->
<svg version="1.1" id="Layer_1" xmlns="http://www.w3.org/2000/svg" xmlns:xlink="http://www.w3.org/1999/xlink" x="0px" y="0px"
	 viewBox="0 0 309 309" style="enable-background:new 0 0 309 309;" xml:space="preserve">
<style type="text/css">
	.st0{fill:#003354;}
	.st1{fill:#7B99B3;}
	.st2{fill:#FFFFFF;}
</style>
<g>
	<path class="st0" d="M83.1,21.5c8.9-4.8,18.2-8.7,27.9-11.6c8,16.5,25,27.3,43.5,27.3S190,26.4,198,9.9c9.7,2.9,19,6.8,27.9,11.6
		c-6,17.3-1.7,37,11.5,50.1c13.1,13.1,32.8,17.5,50.1,11.5c4.8,8.9,8.7,18.2,11.6,27.9c-16.5,8-27.3,25-27.3,43.5
		s10.8,35.5,27.3,43.5c-2.9,9.7-6.8,19-11.6,27.9c-17.3-6-37-1.7-50.1,11.5c-13.1,13.1-17.5,32.8-11.5,50.1
		c-8.9,4.8-18.2,8.7-27.9,11.6c-8-16.5-25-27.3-43.5-27.3S119,282.6,111,299.1c-9.7-2.9-19-6.8-27.9-11.6c6-17.3,1.7-37-11.5-50.1
		c-13.1-13.1-32.8-17.5-50.1-11.5c-4.8-8.9-8.7-18.2-11.6-27.9c16.5-8,27.3-25,27.3-43.5S26.4,119,9.9,111c2.9-9.7,6.8-19,11.6-27.9
		c17.3,6,37,1.7,50.1-11.5C84.7,58.5,89.1,38.8,83.1,21.5L83.1,21.5z M73.3,21.3c6.6,14.8,3.4,32.5-8.1,43.9
		c-11.5,11.5-29.1,14.7-43.9,8.1c-2.1-0.9-4.6-0.1-5.7,1.9C8.9,86.8,3.7,99.4,0.2,112.3c-0.6,2.2,0.6,4.6,2.7,5.4
		c15.2,5.8,25.4,20.6,25.4,36.8s-10.2,31-25.4,36.8c-2.2,0.8-3.3,3.2-2.7,5.4c3.5,13,8.7,25.5,15.4,37.2c1.1,2,3.6,2.8,5.7,1.9
		c14.8-6.6,32.5-3.4,43.9,8.1c11.5,11.5,14.7,29.1,8.1,43.9c-0.9,2.1-0.1,4.6,1.9,5.7c11.7,6.7,24.2,11.9,37.2,15.4
		c0.4,0.1,0.8,0.2,1.2,0.2c1.8,0,3.5-1.1,4.2-2.9c5.8-15.2,20.6-25.4,36.8-25.4s31,10.2,36.8,25.4c0.8,2.2,3.2,3.3,5.4,2.7
		c13-3.5,25.5-8.7,37.2-15.4c2-1.1,2.8-3.6,1.9-5.7c-6.6-14.8-3.4-32.5,8.1-43.9c11.5-11.5,29.1-14.7,43.9-8.1
		c2.1,0.9,4.6,0.1,5.7-1.9c6.7-11.7,11.9-24.2,15.4-37.2c0.6-2.2-0.6-4.6-2.7-5.4c-15.2-5.8-25.4-20.6-25.4-36.8s10.2-31,25.4-36.8
		c2.2-0.8,3.3-3.2,2.7-5.4c-3.5-13-8.7-25.5-15.4-37.2c-1.1-2-3.6-2.8-5.7-1.9c-14.8,6.6-32.5,3.4-43.9-8.1
		c-11.5-11.5-14.7-29.1-8.1-43.9c0.9-2.1,0.1-4.6-1.9-5.7c-11.7-6.7-24.2-11.9-37.2-15.4c-2.2-0.6-4.6,0.6-5.4,2.7
		c-5.8,15.2-20.6,25.4-36.8,25.4s-31-10.2-36.8-25.4c-0.8-2.2-3.2-3.3-5.4-2.7c-13,3.5-25.5,8.7-37.2,15.4
		C73.2,16.7,72.4,19.2,73.3,21.3L73.3,21.3z"/>
	<path class="st0" d="M207.3,154.5c0,29.1-23.7,52.8-52.8,52.8s-52.8-23.7-52.8-52.8s23.7-52.8,52.8-52.8S207.3,125.4,207.3,154.5
		L207.3,154.5z M216.3,154.5c0-34.1-27.7-61.8-61.8-61.8s-61.8,27.7-61.8,61.8s27.7,61.8,61.8,61.8S216.3,188.6,216.3,154.5
		L216.3,154.5z"/>
	<path class="st1" d="M92.7,154.5c0-34.1,27.7-61.8,61.8-61.8s61.8,27.7,61.8,61.8s-27.7,61.8-61.8,61.8S92.7,188.6,92.7,154.5
		L92.7,154.5z M9.9,198c2.9,9.7,6.8,19,11.6,27.9c17.3-6,37-1.7,50.1,11.5c13.1,13.1,17.5,32.8,11.5,50.1
		c8.9,4.8,18.2,8.7,27.9,11.6c8-16.5,25-27.3,43.5-27.3s35.5,10.8,43.5,27.3c9.7-2.9,19-6.8,27.9-11.6c-6-17.3-1.7-37,11.5-50.1
		c13.1-13.1,32.8-17.5,50.1-11.5c4.8-8.9,8.7-18.2,11.6-27.9c-16.5-8-27.3-25-27.3-43.5s10.8-35.5,27.3-43.5
		c-2.9-9.7-6.8-19-11.6-27.9c-17.3,6-37,1.7-50.1-11.5c-13.1-13.1-17.5-32.8-11.5-50.1c-8.9-4.8-18.2-8.7-27.9-11.6
		c-8,16.5-25,27.3-43.5,27.3S119,26.4,111,9.9c-9.7,2.9-19,6.8-27.9,11.6c6,17.3,1.7,37-11.5,50.1C58.5,84.7,38.8,89.1,21.5,83.1
		c-4.8,8.9-8.7,18.2-11.6,27.9c16.5,8,27.3,25,27.3,43.5S26.4,190,9.9,198L9.9,198z"/>
	<path class="st2" d="M158,61.1c0,2.5-2,4.5-4.5,4.5c-48.8,0-88.4,39.7-88.4,88.4s39.7,88.4,88.4,88.4s88.4-39.7,88.4-88.4
		c0-2.5,2-4.5,4.5-4.5c2.5,0,4.5,2,4.5,4.5c0,53.7-43.7,97.4-97.4,97.4S56.1,207.7,56.1,154c0-53.7,43.7-97.4,97.4-97.4
		C156,56.6,158,58.6,158,61.1L158,61.1z"/>
</g>
</svg>
