<?xml version="1.0" encoding="utf-8"?>
<!-- Generator: Adobe Illustrator 23.0.0, SVG Export Plug-In . SVG Version: 6.00 Build 0)  -->
<svg version="1.1" id="Layer_1" xmlns="http://www.w3.org/2000/svg" xmlns:xlink="http://www.w3.org/1999/xlink" x="0px" y="0px"
	 viewBox="0 0 283.5 203.7" style="enable-background:new 0 0 283.5 203.7;" xml:space="preserve">
<style type="text/css">
	.st0{fill:#003354;}
	.st1{fill:#7B99B3;}
	.st2{fill:#FFFFFF;}
</style>
<g>
	<polygon class="st0" points="277.7,113.7 277.7,80.2 51.4,80.2 51.4,113.7 277.7,113.7 	"/>
	<polygon class="st0" points="179.5,149.3 239.1,149.3 239.1,147.3 179.5,147.3 179.5,149.3 	"/>
	<path class="st0" d="M62.6,54.7c-4.1,0-7.5,3.4-7.5,7.5v12.3h219V62.2c0-4.1-3.4-7.5-7.5-7.5H62.6L62.6,54.7z M274,83.9h-219V110
		h219V83.9L274,83.9z M16.9,9.4c-4.1,0-7.5,3.4-7.5,7.5v124.6c0,4.1,3.4,7.5,7.5,7.5h28.7V62.2c0-9.3,7.6-16.9,16.9-16.9h165.8V16.9
		c0-4.1-3.4-7.5-7.5-7.5H16.9L16.9,9.4z M274,119.4h-219v67.3c0,4.1,3.4,7.5,7.5,7.5h203.9c4.1,0,7.5-3.4,7.5-7.5V119.4L274,119.4z
		 M62.6,203.7c-9.3,0-16.9-7.6-16.9-16.9v-28.3H16.9c-9.3,0-16.9-7.6-16.9-16.9V16.9C0,7.6,7.6,0,16.9,0h203.9
		c9.3,0,16.9,7.6,16.9,16.9v28.3h28.7c9.3,0,16.9,7.6,16.9,16.9v124.6c0,9.3-7.6,16.9-16.9,16.9H62.6L62.6,203.7z"/>
	<polygon class="st1" points="274,110 55.1,110 55.1,83.9 274,83.9 274,110 	"/>
	<path class="st2" d="M274,186.7c0,4.1-3.4,7.5-7.5,7.5H62.6c-4.1,0-7.5-3.4-7.5-7.5v-67.3h219V186.7L274,186.7z"/>
	<path class="st2" d="M62.6,54.7h203.9c4.1,0,7.5,3.4,7.5,7.5v12.3h-219V62.2C55.1,58,58.4,54.7,62.6,54.7L62.6,54.7z"/>
	<path class="st1" d="M16.9,9.4h203.9c4.1,0,7.5,3.4,7.5,7.5v28.3H62.6c-9.3,0-16.9,7.6-16.9,16.9V149H16.9c-4.1,0-7.5-3.4-7.5-7.5
		V16.9C9.4,12.8,12.8,9.4,16.9,9.4L16.9,9.4z"/>
	<path class="st0" d="M239.1,153c2.6,0,4.7-2.1,4.7-4.7s-2.1-4.7-4.7-4.7h-59.6c-2.6,0-4.7,2.1-4.7,4.7s2.1,4.7,4.7,4.7H239.1
		L239.1,153z"/>
</g>
</svg>
