<?xml version="1.0" encoding="utf-8"?>
<!-- Generator: Adobe Illustrator 23.0.0, SVG Export Plug-In . SVG Version: 6.00 Build 0)  -->
<svg version="1.1" id="Layer_1" xmlns="http://www.w3.org/2000/svg" xmlns:xlink="http://www.w3.org/1999/xlink" x="0px" y="0px"
	 viewBox="0 0 309 283.1" style="enable-background:new 0 0 309 283.1;" xml:space="preserve">
<style type="text/css">
	.st0{fill:#003354;}
	.st1{fill:#7B99B3;}
	.st2{fill:#FFFFFF;}
</style>
<g>
	<path class="st0" d="M9,188.9c0-16.7,13.6-30.3,30.3-30.3c6.6,0,12.8,2.2,17.8,5.8c0.2,0.2,0.5,0.3,0.7,0.5
		c0.2,0.2,0.4,0.3,0.6,0.5c0.2,0.2,0.5,0.4,0.7,0.6c0.3,0.2,0.5,0.4,0.7,0.7c0.3,0.3,0.6,0.6,0.9,0.9c0.2,0.2,0.3,0.3,0.5,0.5
		c0.2,0.2,0.5,0.5,0.7,0.7c0.1,0.2,0.3,0.3,0.4,0.5c0.2,0.3,0.5,0.6,0.7,0.9c0.1,0.1,0.2,0.3,0.3,0.4c1.1,1.4,2,2.9,2.8,4.4
		c0,0,0,0,0,0c1.4,2.6,2.4,5.5,2.9,8.4c0,0.1,0,0.1,0,0.2c0.1,0.5,0.2,1,0.2,1.4c0,0.1,0,0.3,0.1,0.4c0.1,0.4,0.1,0.9,0.1,1.3
		c0,0.2,0,0.3,0,0.4c0,0.5,0,1,0,1.5c0,0.1,0,0.1,0,0.2c0,0,0,0.1,0,0.1c0,0,0,0,0,0c-0.1,16.7-13.6,30.2-30.3,30.2
		C22.6,219.2,9,205.6,9,188.9L9,188.9z M92.3,174.6L78,182c0,0,0-0.1,0-0.1c-0.3-1.9-0.8-3.8-1.4-5.6c0,0,0,0,0,0
		c-0.6-1.8-1.4-3.6-2.3-5.3c0-0.1-0.1-0.1-0.1-0.2c-0.4-0.8-0.9-1.7-1.4-2.5c0,0,0-0.1-0.1-0.1c-0.4-0.7-0.9-1.4-1.4-2.1
		c-0.1-0.2-0.2-0.3-0.3-0.5c-0.5-0.7-1-1.3-1.5-1.9c-0.2-0.2-0.3-0.4-0.5-0.6c-0.4-0.5-0.8-0.9-1.2-1.4c-0.1-0.1-0.3-0.3-0.4-0.4
		l14.9-7.7c0.2,0.7,0.4,1.5,0.6,2.2c0,0.1,0.1,0.2,0.1,0.3C85,162.8,88.2,169,92.3,174.6L92.3,174.6z M90.9,151.1
		c0-0.1-0.1-0.2-0.1-0.3c-0.2-0.7-0.3-1.4-0.5-2.2c0-0.1,0-0.2-0.1-0.3c-0.7-3.4-1.1-6.9-1.1-10.6c0-29.2,23.7-52.9,52.9-52.9
		c28.1,0,51.2,22.1,52.8,49.8c0,0.3,0,0.5,0,0.8c0,0.8,0.1,1.5,0.1,2.3c0,1,0,2.1-0.1,3.1c0,0.3,0,0.5-0.1,0.8
		c-0.1,0.8-0.1,1.6-0.2,2.4c0,0.3-0.1,0.5-0.1,0.8c-0.1,0.8-0.2,1.7-0.4,2.5c0,0.2-0.1,0.4-0.1,0.6c-0.4,2-0.9,4-1.5,6
		c-0.1,0.3-0.2,0.6-0.3,0.9c-0.2,0.6-0.4,1.2-0.7,1.8c-0.2,0.4-0.3,0.8-0.5,1.2c-0.2,0.5-0.4,0.9-0.6,1.4c-6.1,13.7-18,24.4-32.5,29
		c-0.1,0-0.2,0.1-0.3,0.1c-0.7,0.2-1.3,0.4-2,0.6c-0.2,0-0.3,0.1-0.5,0.1c-0.7,0.2-1.5,0.4-2.3,0.5c-0.2,0-0.3,0.1-0.5,0.1
		c-0.6,0.1-1.2,0.2-1.8,0.3c-0.2,0-0.5,0.1-0.7,0.1c-0.8,0.1-1.5,0.2-2.3,0.3c-0.1,0-0.2,0-0.3,0c-0.7,0.1-1.4,0.1-2.1,0.2
		c-0.2,0-0.4,0-0.7,0c-0.8,0-1.6,0.1-2.4,0.1C117.5,190.6,96.8,173.8,90.9,151.1L90.9,151.1z M147.5,249.1c0-6.5,2.5-12.4,6.5-16.8
		c0,0,0,0,0,0c1-1.1,2.1-2.1,3.3-3c0.1-0.1,0.2-0.2,0.3-0.2c0.2-0.1,0.4-0.3,0.6-0.4c0.2-0.1,0.3-0.2,0.5-0.4
		c0.1-0.1,0.3-0.2,0.5-0.3c0.2-0.1,0.4-0.3,0.7-0.4c0.1-0.1,0.2-0.1,0.4-0.2c0.3-0.2,0.5-0.3,0.8-0.4c0.1,0,0.2-0.1,0.3-0.1
		c0.3-0.2,0.6-0.3,1-0.5c0.1,0,0.1-0.1,0.2-0.1c0.4-0.2,0.7-0.3,1.1-0.5c0,0,0.1,0,0.1,0c0.4-0.2,0.8-0.3,1.2-0.4c0,0,0,0,0,0
		c1.6-0.5,3.3-0.9,5.1-1.1c0,0,0,0,0.1,0c0.4,0,0.8-0.1,1.2-0.1c0.1,0,0.1,0,0.2,0c0.4,0,0.9,0,1.3,0c0.6,0,1.2,0,1.7,0.1
		c0.1,0,0.3,0,0.4,0c0.6,0,1.1,0.1,1.7,0.2c0,0,0.1,0,0.1,0c0.5,0.1,1.1,0.2,1.6,0.3c0.1,0,0.3,0.1,0.4,0.1c0.5,0.1,1.1,0.3,1.6,0.4
		c10.2,3.2,17.5,12.7,17.5,23.9c0,13.8-11.2,25.1-25.1,25.1S147.5,262.9,147.5,249.1L147.5,249.1z M175,215.1
		c-0.8-0.1-1.6-0.1-2.5-0.1c-0.8,0-1.6,0-2.4,0.1c-0.2,0-0.3,0-0.5,0c-1.7,0.1-3.3,0.4-4.9,0.8c-0.1,0-0.1,0-0.2,0
		c-1.7,0.4-3.3,0.9-4.9,1.6c0,0-0.1,0-0.1,0c-0.8,0.3-1.5,0.7-2.3,1c-0.1,0-0.1,0.1-0.2,0.1c-0.7,0.3-1.3,0.7-2,1.1
		c-0.1,0-0.2,0.1-0.2,0.1c-0.6,0.4-1.3,0.8-1.9,1.2c-0.1,0.1-0.2,0.1-0.3,0.2l-6-21.8c0.2,0,0.5-0.1,0.7-0.1c0.5,0,1-0.1,1.5-0.2
		c0.5-0.1,1-0.1,1.5-0.2c0.5-0.1,1-0.1,1.5-0.2c0.5-0.1,1-0.2,1.5-0.3c0.5-0.1,1-0.2,1.5-0.3c0.5-0.1,1-0.2,1.5-0.4
		c0.5-0.1,0.9-0.2,1.4-0.3c0.6-0.1,1.1-0.3,1.7-0.5c0.4-0.1,0.8-0.2,1.1-0.3c0.7-0.2,1.3-0.4,2-0.7c0.3-0.1,0.5-0.2,0.8-0.3
		c0.8-0.3,1.6-0.6,2.4-1c0.1,0,0.2-0.1,0.3-0.1c1.1-0.5,2.1-0.9,3.2-1.4l6,21.8C175.2,215.1,175.1,215.1,175,215.1L175,215.1z
		 M199,161.9c0.1-0.2,0.1-0.3,0.2-0.5c0.3-0.7,0.6-1.4,0.9-2.2c0.1-0.4,0.3-0.8,0.4-1.2c0.2-0.5,0.4-1,0.5-1.5
		c0.2-0.5,0.3-1.1,0.5-1.6c0.1-0.4,0.2-0.8,0.3-1.2c0.2-0.6,0.3-1.2,0.5-1.8c0.1-0.3,0.2-0.7,0.2-1c0.1-0.6,0.3-1.2,0.4-1.9
		c0.1-0.4,0.1-0.7,0.2-1.1c0.1-0.6,0.2-1.2,0.3-1.8c0.1-0.4,0.1-0.8,0.2-1.3c0.1-0.5,0.1-1.1,0.2-1.6c0-0.5,0.1-1,0.1-1.5
		c0-0.5,0.1-1,0.1-1.5c0-0.2,0-0.4,0-0.6l22.1,5c-0.6,1.1-1.1,2.3-1.6,3.5c0,0,0,0.1,0,0.1c-1,2.5-1.9,5.1-2.4,7.7
		c-0.1,0.2-0.1,0.5-0.2,0.7c-0.1,0.5-0.2,0.9-0.3,1.4c-0.1,0.4-0.1,0.7-0.2,1.1c-0.1,0.4-0.1,0.8-0.2,1.2c-0.1,0.5-0.1,1-0.1,1.5
		c0,0.3-0.1,0.6-0.1,0.9c0,0.8-0.1,1.7-0.1,2.5c0,0.7,0,1.4,0,2.1l-22.1-5C198.9,162.2,198.9,162,199,161.9L199,161.9z M230.4,171.3
		c0-0.2-0.1-0.5-0.1-0.7c0-0.3-0.1-0.5-0.1-0.8c0-0.3-0.1-0.6-0.1-1c0-0.3,0-0.5-0.1-0.8c0-0.3-0.1-0.7-0.1-1c0-0.6,0-1.2,0-1.8
		c0-0.8,0-1.7,0.1-2.5c0-0.2,0-0.4,0-0.6c0.1-0.8,0.2-1.5,0.3-2.3c0-0.2,0.1-0.5,0.1-0.7c0.1-0.5,0.2-1.1,0.3-1.6
		c0.1-0.3,0.1-0.6,0.2-0.9c0.2-0.6,0.3-1.2,0.5-1.9c0.1-0.4,0.3-0.8,0.4-1.2c0.1-0.3,0.2-0.7,0.4-1c0.2-0.6,0.5-1.2,0.8-1.9
		c0.1-0.3,0.3-0.6,0.4-0.9c0.2-0.4,0.4-0.8,0.6-1.2c0.3-0.5,0.6-1,0.9-1.6c0.2-0.4,0.4-0.7,0.7-1c0.2-0.3,0.4-0.7,0.7-1
		c6.4-9,16.8-14.8,28.6-14.8c19.3,0,35,15.7,35,35c0,19.3-15.7,35-35,35C247.7,200.3,233.3,187.7,230.4,171.3L230.4,171.3z
		 M204.7,75.4l-16.4,21.3c-5.2-5.9-11.4-10.7-18.4-14.2l16.4-21.3c0.1,0.2,0.3,0.4,0.5,0.6c0.2,0.3,0.5,0.6,0.7,0.9
		c0.5,0.7,1.1,1.3,1.6,1.9c0.1,0.2,0.3,0.3,0.4,0.5c0.4,0.4,0.8,0.8,1.2,1.2c0,0,0.1,0.1,0.1,0.1c0.8,0.8,1.6,1.5,2.4,2.2
		c0.1,0.1,0.3,0.2,0.4,0.3c1.3,1.1,2.6,2,4,2.9c0.3,0.2,0.6,0.4,0.9,0.5c0.4,0.3,0.9,0.5,1.3,0.7c0.6,0.3,1.2,0.6,1.8,0.9
		c0.3,0.1,0.6,0.3,0.9,0.4c0.7,0.3,1.3,0.6,2,0.8C204.5,75.3,204.6,75.4,204.7,75.4L204.7,75.4z M218.1,68.8c-1.7,0-3.4-0.2-5.1-0.4
		c-0.5-0.1-1-0.2-1.6-0.3c-0.1,0-0.2,0-0.3-0.1c-0.5-0.1-0.9-0.2-1.4-0.4c-0.1,0-0.2-0.1-0.3-0.1c-0.5-0.2-1.1-0.3-1.6-0.5
		c-0.2-0.1-0.4-0.2-0.6-0.2c-0.3-0.1-0.6-0.2-0.9-0.3c-0.3-0.1-0.6-0.3-0.9-0.4c-0.2-0.1-0.3-0.1-0.5-0.2c-0.4-0.2-0.7-0.4-1.1-0.5
		c-0.1,0-0.1-0.1-0.2-0.1c-3.7-2-7-4.9-9.5-8.2c-0.1-0.1-0.1-0.1-0.1-0.2c-0.2-0.3-0.5-0.6-0.7-1c-0.1-0.1-0.2-0.3-0.3-0.4
		c-0.2-0.3-0.4-0.6-0.6-0.9c-0.3-0.4-0.5-0.8-0.7-1.3c-0.1-0.2-0.2-0.3-0.3-0.5c-0.2-0.3-0.4-0.7-0.5-1.1c-1.8-3.8-2.8-8.1-2.8-12.6
		c0-16.5,13.4-29.9,29.9-29.9C234.6,9,248,22.4,248,38.9C248,55.4,234.6,68.8,218.1,68.8L218.1,68.8z M109.4,85.1
		c-6.6,4.1-12.4,9.4-17.1,15.7l-20.2-22c0.9-0.4,1.8-0.8,2.7-1.3c0,0,0,0,0,0c0.4-0.2,0.7-0.4,1.1-0.6c0.1-0.1,0.2-0.1,0.3-0.2
		c0.3-0.2,0.6-0.4,1-0.6c0.1-0.1,0.2-0.2,0.4-0.2c0.3-0.2,0.6-0.4,0.9-0.6c0.1-0.1,0.3-0.2,0.4-0.3c0.3-0.2,0.5-0.4,0.8-0.6
		c0.2-0.1,0.3-0.2,0.4-0.4c0.3-0.2,0.5-0.4,0.8-0.6c0.2-0.1,0.3-0.3,0.5-0.4c0.2-0.2,0.5-0.4,0.7-0.6c0.2-0.2,0.4-0.4,0.6-0.6
		c0.3-0.2,0.5-0.5,0.7-0.7c0.3-0.3,0.6-0.6,0.8-0.9c0.1-0.1,0.2-0.3,0.4-0.4c0.2-0.3,0.5-0.5,0.7-0.8c0.1-0.1,0.2-0.3,0.4-0.4
		c0.2-0.3,0.4-0.5,0.6-0.8c0.1-0.1,0.2-0.3,0.3-0.4c0.2-0.3,0.4-0.6,0.6-0.9c0.1-0.1,0.2-0.3,0.3-0.4c0.2-0.3,0.4-0.6,0.6-0.9
		c0.1-0.1,0.2-0.3,0.3-0.4c0.2-0.3,0.4-0.7,0.6-1c0.1-0.1,0.1-0.2,0.2-0.4c0-0.1,0.1-0.2,0.1-0.2L109.4,85.1L109.4,85.1z M84.2,47
		c0,2.4-0.3,4.7-0.9,6.9c-0.1,0.4-0.3,0.9-0.4,1.3c0,0.1-0.1,0.3-0.1,0.4c-0.2,0.5-0.4,1-0.6,1.4c-0.1,0.1-0.1,0.2-0.2,0.4
		c-0.2,0.4-0.3,0.7-0.5,1.1c-0.1,0.2-0.2,0.3-0.3,0.5c-0.2,0.4-0.5,0.8-0.7,1.3c-0.1,0.1-0.1,0.2-0.2,0.3c-0.2,0.4-0.5,0.7-0.7,1
		c-0.1,0.1-0.2,0.3-0.3,0.4c-0.3,0.4-0.5,0.7-0.8,1.1c-0.1,0.1-0.1,0.1-0.1,0.2c-0.3,0.4-0.7,0.8-1,1.2c-0.1,0.1-0.2,0.2-0.3,0.3
		c-0.3,0.3-0.6,0.7-1,1c-0.1,0-0.1,0.1-0.2,0.1c-0.4,0.4-0.8,0.7-1.2,1.1c-0.1,0.1-0.2,0.1-0.2,0.2c-0.4,0.3-0.8,0.6-1.2,0.9
		c0,0-0.1,0.1-0.1,0.1c-0.5,0.3-0.9,0.6-1.4,0.9c0,0-0.1,0-0.1,0.1c-0.5,0.3-0.9,0.5-1.4,0.8c0,0-0.1,0-0.1,0.1
		c-1,0.5-2.1,1-3.2,1.3c0,0-0.1,0-0.1,0c-1.1,0.4-2.3,0.7-3.5,0.9c-1.5,0.3-3,0.4-4.5,0.4c-14.1,0-25.6-11.5-25.6-25.6
		c0-14.1,11.5-25.6,25.6-25.6C72.8,21.5,84.2,32.9,84.2,47L84.2,47z M0,188.9c0,21.7,17.6,39.3,39.3,39.3
		c20.7,0,37.7-16.1,39.2-36.3l19.9-10.3c10.2,10.2,23.9,16.8,39.2,17.9l7.9,28.9c-4.4,5.7-7,12.9-7,20.7c0,18.8,15.3,34.1,34.1,34.1
		s34.1-15.3,34.1-34.1c0-14.3-8.9-26.6-21.4-31.6l-7.9-28.9c6.8-4.8,12.7-10.9,17.1-17.9l28.1,6.3c5.1,18.7,22.2,32.4,42.5,32.4
		c24.3,0,44-19.8,44-44s-19.8-44-44-44c-13.4,0-25.4,6-33.4,15.4l-28.1-6.3c-1.1-9.6-4.5-18.5-9.5-26.3l20.4-26.5
		c1.2,0.1,2.5,0.2,3.8,0.2c21.4,0,38.9-17.4,38.9-38.9C257,17.4,239.6,0,218.1,0c-21.4,0-38.9,17.4-38.9,38.9
		c0,4.8,0.9,9.3,2.4,13.6l-20.4,26.5c-6.1-2-12.5-3.1-19.2-3.1c-8.6,0-16.8,1.8-24.3,5L92.6,53.5c0.4-2.1,0.6-4.3,0.6-6.5
		c0-19.1-15.5-34.6-34.6-34.6C39.6,12.5,24.1,28,24.1,47s15.5,34.6,34.6,34.6c1.2,0,2.4-0.1,3.6-0.2l25.1,27.3
		c-4.6,8.7-7.2,18.5-7.2,29c0,2.3,0.1,4.5,0.4,6.7l-20.9,10.8c-5.9-3.6-12.9-5.6-20.3-5.6C17.6,149.6,0,167.2,0,188.9L0,188.9z"/>
	<path class="st1" d="M230.1,162.1c0.1-0.8,0.2-1.5,0.3-2.3c0-0.2,0.1-0.5,0.1-0.7c0.1-0.5,0.2-1.1,0.3-1.6c0.1-0.3,0.1-0.6,0.2-0.9
		c0.2-0.6,0.3-1.2,0.5-1.9c0.1-0.4,0.3-0.8,0.4-1.2c0.1-0.3,0.2-0.7,0.4-1c0.2-0.6,0.5-1.2,0.8-1.9c0.1-0.3,0.3-0.6,0.4-0.9
		c0.2-0.4,0.4-0.8,0.6-1.2c0.3-0.5,0.6-1,0.9-1.6c0.2-0.4,0.4-0.7,0.7-1c0.2-0.3,0.4-0.7,0.7-1c6.4-9,16.8-14.8,28.6-14.8
		c19.3,0,35,15.7,35,35c0,19.3-15.7,35-35,35c-17.3,0-31.7-12.6-34.5-29c0-0.2-0.1-0.5-0.1-0.7c0-0.3-0.1-0.5-0.1-0.8
		c0-0.3-0.1-0.6-0.1-1c0-0.3,0-0.5-0.1-0.8c0-0.3-0.1-0.7-0.1-1c0-0.6,0-1.2,0-1.8c0-0.8,0-1.7,0.1-2.5
		C230,162.5,230,162.3,230.1,162.1L230.1,162.1z"/>
	<path class="st1" d="M218.1,68.8c-1.7,0-3.4-0.2-5.1-0.4c-0.5-0.1-1-0.2-1.6-0.3c-0.1,0-0.2,0-0.3-0.1c-0.5-0.1-0.9-0.2-1.4-0.4
		c-0.1,0-0.2-0.1-0.3-0.1c-0.5-0.2-1.1-0.3-1.6-0.5c-0.2-0.1-0.4-0.2-0.6-0.2c-0.3-0.1-0.6-0.2-0.9-0.3c-0.3-0.1-0.6-0.3-0.9-0.4
		c-0.2-0.1-0.3-0.1-0.5-0.2c-0.4-0.2-0.7-0.4-1.1-0.5c-0.1,0-0.1-0.1-0.2-0.1c-3.7-2-7-4.9-9.5-8.2c-0.1-0.1-0.1-0.1-0.1-0.2
		c-0.2-0.3-0.5-0.6-0.7-1c-0.1-0.1-0.2-0.3-0.3-0.4c-0.2-0.3-0.4-0.6-0.6-0.9c-0.3-0.4-0.5-0.8-0.7-1.3c-0.1-0.2-0.2-0.3-0.3-0.5
		c-0.2-0.3-0.4-0.7-0.5-1.1c-1.8-3.8-2.8-8.1-2.8-12.6c0-16.5,13.4-29.9,29.9-29.9C234.6,9,248,22.4,248,38.9
		C248,55.4,234.6,68.8,218.1,68.8L218.1,68.8z"/>
	<path class="st2" d="M92.3,100.9l-20.2-22c0.9-0.4,1.8-0.8,2.7-1.3c0,0,0,0,0,0c0.4-0.2,0.7-0.4,1.1-0.6c0.1-0.1,0.2-0.1,0.3-0.2
		c0.3-0.2,0.6-0.4,1-0.6c0.1-0.1,0.2-0.2,0.4-0.2c0.3-0.2,0.6-0.4,0.9-0.6c0.1-0.1,0.3-0.2,0.4-0.3c0.3-0.2,0.5-0.4,0.8-0.6
		c0.2-0.1,0.3-0.2,0.4-0.4c0.3-0.2,0.5-0.4,0.8-0.6c0.2-0.1,0.3-0.3,0.5-0.4c0.2-0.2,0.5-0.4,0.7-0.6c0.2-0.2,0.4-0.4,0.6-0.6
		c0.3-0.2,0.5-0.5,0.7-0.7c0.3-0.3,0.6-0.6,0.8-0.9c0.1-0.1,0.2-0.3,0.4-0.4c0.2-0.3,0.5-0.5,0.7-0.8c0.1-0.1,0.2-0.3,0.4-0.4
		c0.2-0.3,0.4-0.5,0.6-0.8c0.1-0.1,0.2-0.3,0.3-0.4c0.2-0.3,0.4-0.6,0.6-0.9c0.1-0.1,0.2-0.3,0.3-0.4c0.2-0.3,0.4-0.6,0.6-0.9
		c0.1-0.1,0.2-0.3,0.3-0.4c0.2-0.3,0.4-0.7,0.6-1c0.1-0.1,0.1-0.2,0.2-0.4c0-0.1,0.1-0.2,0.1-0.2l20.2,22
		C102.8,89.2,97,94.6,92.3,100.9L92.3,100.9z"/>
	<path class="st2" d="M189.4,65.1c0.4,0.4,0.8,0.8,1.2,1.2c0,0,0.1,0.1,0.1,0.1c0.8,0.8,1.6,1.5,2.4,2.2c0.1,0.1,0.3,0.2,0.4,0.3
		c1.3,1.1,2.6,2,4,2.9c0.3,0.2,0.6,0.4,0.9,0.5c0.4,0.3,0.9,0.5,1.3,0.7c0.6,0.3,1.2,0.6,1.8,0.9c0.3,0.1,0.6,0.3,0.9,0.4
		c0.7,0.3,1.3,0.6,2,0.8c0.1,0,0.2,0.1,0.2,0.1l-16.4,21.3c-5.2-5.9-11.4-10.7-18.4-14.2l16.4-21.3c0.1,0.2,0.3,0.4,0.5,0.6
		c0.2,0.3,0.5,0.6,0.7,0.9c0.5,0.7,1.1,1.3,1.6,1.9C189.2,64.8,189.3,65,189.4,65.1L189.4,65.1z"/>
	<path class="st1" d="M82.9,55.2c0,0.1-0.1,0.3-0.1,0.4c-0.2,0.5-0.4,1-0.6,1.4c-0.1,0.1-0.1,0.2-0.2,0.4c-0.2,0.4-0.3,0.7-0.5,1.1
		c-0.1,0.2-0.2,0.3-0.3,0.5c-0.2,0.4-0.5,0.8-0.7,1.3c-0.1,0.1-0.1,0.2-0.2,0.3c-0.2,0.4-0.5,0.7-0.7,1c-0.1,0.1-0.2,0.3-0.3,0.4
		c-0.3,0.4-0.5,0.7-0.8,1.1c-0.1,0.1-0.1,0.1-0.1,0.2c-0.3,0.4-0.7,0.8-1,1.2c-0.1,0.1-0.2,0.2-0.3,0.3c-0.3,0.3-0.6,0.7-1,1
		c-0.1,0-0.1,0.1-0.2,0.1c-0.4,0.4-0.8,0.7-1.2,1.1c-0.1,0.1-0.2,0.1-0.2,0.2c-0.4,0.3-0.8,0.6-1.2,0.9c0,0-0.1,0.1-0.1,0.1
		c-0.5,0.3-0.9,0.6-1.4,0.9c0,0-0.1,0-0.1,0.1c-0.5,0.3-0.9,0.5-1.4,0.8c0,0-0.1,0-0.1,0.1c-1,0.5-2.1,1-3.2,1.3c0,0-0.1,0-0.1,0
		c-1.1,0.4-2.3,0.7-3.5,0.9c-1.5,0.3-3,0.4-4.5,0.4c-14.1,0-25.6-11.5-25.6-25.6c0-14.1,11.5-25.6,25.6-25.6
		c14.1,0,25.6,11.5,25.6,25.6c0,2.4-0.3,4.7-0.9,6.9C83.2,54.3,83.1,54.8,82.9,55.2L82.9,55.2z"/>
	<path class="st2" d="M149.1,199.2c0.5-0.1,1-0.1,1.5-0.2c0.5-0.1,1-0.1,1.5-0.2c0.5-0.1,1-0.2,1.5-0.3c0.5-0.1,1-0.2,1.5-0.3
		c0.5-0.1,1-0.2,1.5-0.4c0.5-0.1,0.9-0.2,1.4-0.3c0.6-0.1,1.1-0.3,1.7-0.5c0.4-0.1,0.8-0.2,1.1-0.3c0.7-0.2,1.3-0.4,2-0.7
		c0.3-0.1,0.5-0.2,0.8-0.3c0.8-0.3,1.6-0.6,2.4-1c0.1,0,0.2-0.1,0.3-0.1c1.1-0.5,2.1-0.9,3.2-1.4l6,21.8c-0.1,0-0.2,0-0.3,0
		c-0.8-0.1-1.6-0.1-2.5-0.1c-0.8,0-1.6,0-2.4,0.1c-0.2,0-0.3,0-0.5,0c-1.7,0.1-3.3,0.4-4.9,0.8c-0.1,0-0.1,0-0.2,0
		c-1.7,0.4-3.3,0.9-4.9,1.6c0,0-0.1,0-0.1,0c-0.8,0.3-1.5,0.7-2.3,1c-0.1,0-0.1,0.1-0.2,0.1c-0.7,0.3-1.3,0.7-2,1.1
		c-0.1,0-0.2,0.1-0.2,0.1c-0.6,0.4-1.3,0.8-1.9,1.2c-0.1,0.1-0.2,0.1-0.3,0.2l-6-21.8c0.2,0,0.5-0.1,0.7-0.1
		C148.1,199.3,148.6,199.3,149.1,199.2L149.1,199.2z"/>
	<path class="st2" d="M69,163.1c-0.4-0.5-0.8-0.9-1.2-1.4c-0.1-0.1-0.3-0.3-0.4-0.4l14.9-7.7c0.2,0.7,0.4,1.5,0.6,2.2
		c0,0.1,0.1,0.2,0.1,0.3c2.1,6.6,5.2,12.8,9.4,18.4L78,182c0,0,0-0.1,0-0.1c-0.3-1.9-0.8-3.8-1.4-5.6c0,0,0,0,0,0
		c-0.6-1.8-1.4-3.6-2.3-5.3c0-0.1-0.1-0.1-0.1-0.2c-0.4-0.8-0.9-1.7-1.4-2.5c0,0,0-0.1-0.1-0.1c-0.4-0.7-0.9-1.4-1.4-2.1
		c-0.1-0.2-0.2-0.3-0.3-0.5c-0.5-0.7-1-1.3-1.5-1.9C69.3,163.5,69.2,163.3,69,163.1L69,163.1z"/>
	<path class="st2" d="M199.2,161.4c0.3-0.7,0.6-1.4,0.9-2.2c0.1-0.4,0.3-0.8,0.4-1.2c0.2-0.5,0.4-1,0.5-1.5c0.2-0.5,0.3-1.1,0.5-1.6
		c0.1-0.4,0.2-0.8,0.3-1.2c0.2-0.6,0.3-1.2,0.5-1.8c0.1-0.3,0.2-0.7,0.2-1c0.1-0.6,0.3-1.2,0.4-1.9c0.1-0.4,0.1-0.7,0.2-1.1
		c0.1-0.6,0.2-1.2,0.3-1.8c0.1-0.4,0.1-0.8,0.2-1.3c0.1-0.5,0.1-1.1,0.2-1.6c0-0.5,0.1-1,0.1-1.5c0-0.5,0.1-1,0.1-1.5
		c0-0.2,0-0.4,0-0.6l22.1,5c-0.6,1.1-1.1,2.3-1.6,3.5c0,0,0,0.1,0,0.1c-1,2.5-1.9,5.1-2.4,7.7c-0.1,0.2-0.1,0.5-0.2,0.7
		c-0.1,0.5-0.2,0.9-0.3,1.4c-0.1,0.4-0.1,0.7-0.2,1.1c-0.1,0.4-0.1,0.8-0.2,1.2c-0.1,0.5-0.1,1-0.1,1.5c0,0.3-0.1,0.6-0.1,0.9
		c0,0.8-0.1,1.7-0.1,2.5c0,0.7,0,1.4,0,2.1l-22.1-5c0.1-0.2,0.1-0.3,0.2-0.5C199.1,161.7,199.1,161.6,199.2,161.4L199.2,161.4z"/>
	<path class="st1" d="M39.3,158.6c6.6,0,12.8,2.2,17.8,5.8c0.2,0.2,0.5,0.3,0.7,0.5c0.2,0.2,0.4,0.3,0.6,0.5
		c0.2,0.2,0.5,0.4,0.7,0.6c0.3,0.2,0.5,0.4,0.7,0.7c0.3,0.3,0.6,0.6,0.9,0.9c0.2,0.2,0.3,0.3,0.5,0.5c0.2,0.2,0.5,0.5,0.7,0.7
		c0.1,0.2,0.3,0.3,0.4,0.5c0.2,0.3,0.5,0.6,0.7,0.9c0.1,0.1,0.2,0.3,0.3,0.4c1.1,1.4,2,2.9,2.8,4.4c0,0,0,0,0,0
		c1.4,2.6,2.4,5.5,2.9,8.4c0,0.1,0,0.1,0,0.2c0.1,0.5,0.2,1,0.2,1.4c0,0.1,0,0.3,0.1,0.4c0.1,0.4,0.1,0.9,0.1,1.3c0,0.2,0,0.3,0,0.4
		c0,0.5,0,1,0,1.5c0,0.1,0,0.1,0,0.2c0,0,0,0.1,0,0.1c0,0,0,0,0,0c-0.1,16.7-13.6,30.2-30.3,30.2C22.6,219.2,9,205.6,9,188.9
		C9,172.2,22.6,158.6,39.3,158.6L39.3,158.6z"/>
	<path class="st1" d="M90.8,150.8c-0.2-0.7-0.3-1.4-0.5-2.2c0-0.1,0-0.2-0.1-0.3c-0.7-3.4-1.1-6.9-1.1-10.6
		c0-29.2,23.7-52.9,52.9-52.9c28.1,0,51.2,22.1,52.8,49.8c0,0.3,0,0.5,0,0.8c0,0.8,0.1,1.5,0.1,2.3c0,1,0,2.1-0.1,3.1
		c0,0.3,0,0.5-0.1,0.8c-0.1,0.8-0.1,1.6-0.2,2.4c0,0.3-0.1,0.5-0.1,0.8c-0.1,0.8-0.2,1.7-0.4,2.5c0,0.2-0.1,0.4-0.1,0.6
		c-0.4,2-0.9,4-1.5,6c-0.1,0.3-0.2,0.6-0.3,0.9c-0.2,0.6-0.4,1.2-0.7,1.8c-0.2,0.4-0.3,0.8-0.5,1.2c-0.2,0.5-0.4,0.9-0.6,1.4
		c-6.1,13.7-18,24.4-32.5,29c-0.1,0-0.2,0.1-0.3,0.1c-0.7,0.2-1.3,0.4-2,0.6c-0.2,0-0.3,0.1-0.5,0.1c-0.7,0.2-1.5,0.4-2.3,0.5
		c-0.2,0-0.3,0.1-0.5,0.1c-0.6,0.1-1.2,0.2-1.8,0.3c-0.2,0-0.5,0.1-0.7,0.1c-0.8,0.1-1.5,0.2-2.3,0.3c-0.1,0-0.2,0-0.3,0
		c-0.7,0.1-1.4,0.1-2.1,0.2c-0.2,0-0.4,0-0.7,0c-0.8,0-1.6,0.1-2.4,0.1c-24.5,0-45.2-16.8-51.2-39.5C90.8,151,90.8,150.9,90.8,150.8
		L90.8,150.8z"/>
	<path class="st1" d="M154,232.2c1-1.1,2.1-2.1,3.3-3c0.1-0.1,0.2-0.2,0.3-0.2c0.2-0.1,0.4-0.3,0.6-0.4c0.2-0.1,0.3-0.2,0.5-0.4
		c0.1-0.1,0.3-0.2,0.5-0.3c0.2-0.1,0.4-0.3,0.7-0.4c0.1-0.1,0.2-0.1,0.4-0.2c0.3-0.2,0.5-0.3,0.8-0.4c0.1,0,0.2-0.1,0.3-0.1
		c0.3-0.2,0.6-0.3,1-0.5c0.1,0,0.1-0.1,0.2-0.1c0.4-0.2,0.7-0.3,1.1-0.5c0,0,0.1,0,0.1,0c0.4-0.2,0.8-0.3,1.2-0.4c0,0,0,0,0,0
		c1.6-0.5,3.3-0.9,5.1-1.1c0,0,0,0,0.1,0c0.4,0,0.8-0.1,1.2-0.1c0.1,0,0.1,0,0.2,0c0.4,0,0.9,0,1.3,0c0.6,0,1.2,0,1.7,0.1
		c0.1,0,0.3,0,0.4,0c0.6,0,1.1,0.1,1.7,0.2c0,0,0.1,0,0.1,0c0.5,0.1,1.1,0.2,1.6,0.3c0.1,0,0.3,0.1,0.4,0.1c0.5,0.1,1.1,0.3,1.6,0.4
		c10.2,3.2,17.5,12.7,17.5,23.9c0,13.8-11.2,25.1-25.1,25.1s-25.1-11.2-25.1-25.1C147.5,242.6,149.9,236.7,154,232.2
		C154,232.2,154,232.2,154,232.2L154,232.2z"/>
</g>
</svg>
