<?xml version="1.0" encoding="utf-8"?>
<!-- Generator: Adobe Illustrator 23.0.0, SVG Export Plug-In . SVG Version: 6.00 Build 0)  -->
<svg version="1.1" id="Layer_1" xmlns="http://www.w3.org/2000/svg" xmlns:xlink="http://www.w3.org/1999/xlink" x="0px" y="0px"
	 viewBox="0 0 385 235.1" style="enable-background:new 0 0 385 235.1;" xml:space="preserve">
<style type="text/css">
	.st0{fill:#7B99B3;}
	.st1{fill:#003354;}
	.st2{fill:#FFFFFF;}
</style>
<g>
	<polygon class="st0" points="55.4,113.3 123.2,45.5 72.5,45.5 4.7,113.3 72.5,181.1 123.2,181.1 55.4,113.3 	"/>
	<polygon class="st0" points="329.6,113.3 261.7,181.1 312.4,181.1 380.3,113.3 312.4,45.5 261.7,45.5 329.6,113.3 	"/>
	<path class="st1" d="M11.4,113.3l63.1,63.1h37.4l-59.8-59.8c-0.9-0.9-1.4-2.1-1.4-3.3c0-1.3,0.5-2.4,1.4-3.3l59.8-59.8H74.5
		L11.4,113.3L11.4,113.3z M72.5,185.8c-1.3,0-2.4-0.5-3.3-1.4L1.4,116.6c-0.9-0.9-1.4-2.1-1.4-3.3c0-1.3,0.5-2.4,1.4-3.3l67.8-67.8
		c0.9-0.9,2.1-1.4,3.3-1.4h50.7c1.9,0,3.6,1.1,4.4,2.9c0.7,1.8,0.3,3.8-1,5.1l-64.5,64.5l64.5,64.5c1.4,1.4,1.8,3.4,1,5.1
		c-0.7,1.8-2.4,2.9-4.4,2.9H72.5L72.5,185.8z"/>
	<path class="st1" d="M332.9,110c0.9,0.9,1.4,2.1,1.4,3.3c0,1.3-0.5,2.4-1.4,3.3l-59.8,59.8h37.4l63.1-63.1l-63.1-63.1h-37.4
		L332.9,110L332.9,110z M261.7,185.8c-1.9,0-3.6-1.1-4.4-2.9c-0.7-1.8-0.3-3.8,1-5.1l64.5-64.5l-64.5-64.5c-1.4-1.4-1.8-3.4-1-5.1
		c0.7-1.8,2.4-2.9,4.4-2.9h50.7c1.3,0,2.4,0.5,3.3,1.4l67.8,67.8c1.8,1.8,1.8,4.8,0,6.7l-67.8,67.8c-0.9,0.9-2.1,1.4-3.3,1.4H261.7
		L261.7,185.8z"/>
	<path class="st1" d="M140,225.7h19.9L242,9.4h-19.9L140,225.7L140,225.7z M133.2,235.1c-1.5,0-3-0.8-3.9-2
		c-0.9-1.3-1.1-2.9-0.5-4.3L214.5,3c0.7-1.8,2.5-3,4.4-3h30c1.6,0,3,0.8,3.9,2c0.9,1.3,1.1,2.9,0.5,4.3l-85.7,225.7
		c-0.7,1.8-2.5,3-4.4,3H133.2L133.2,235.1z"/>
	<polygon class="st2" points="222.1,9.4 140,225.7 159.9,225.7 242,9.4 222.1,9.4 	"/>
</g>
</svg>
