<?xml version="1.0" encoding="utf-8"?>
<!-- Generator: Adobe Illustrator 23.0.0, SVG Export Plug-In . SVG Version: 6.00 Build 0)  -->
<svg version="1.1" id="Layer_1" xmlns="http://www.w3.org/2000/svg" xmlns:xlink="http://www.w3.org/1999/xlink" x="0px" y="0px"
	 viewBox="0 0 246.6 266.4" style="enable-background:new 0 0 246.6 266.4;" xml:space="preserve">
<style type="text/css">
	.st0{fill:#003354;}
	.st1{fill:#7B99B3;}
	.st2{fill:#FFFFFF;}
</style>
<g>
	<path class="st0" d="M18.2,101.6l94.4,18.7l1.6,8.3c0.4,1.8,1.8,3.2,3.5,3.5l8.7,1.7l18.6,94.5L18.2,101.6L18.2,101.6z M161.1,217
		l5,4.9l-11,11l-19.1-97.1l97,19.3l-15.6,15.6l-5-4.9c-1.8-1.8-4.6-1.8-6.4,0c-1.8,1.8-1.8,4.6,0,6.4l5,5l-16.1,16.1l-4.9-5
		c-1.8-1.8-4.6-1.8-6.4,0c-1.8,1.8-1.8,4.6,0,6.4l4.9,4.9l-16.1,16.1l-4.9-4.9c-1.8-1.8-4.6-1.8-6.4,0
		C159.4,212.4,159.4,215.2,161.1,217L161.1,217z M110.6,110.8l-97-19.3l77.9-77.9L110.6,110.8L110.6,110.8z M101.6,18.1L228.4,145
		l-106-21L101.6,18.1L101.6,18.1z M0,94.3c0,0,0,0.1,0,0.1c0,0.2,0,0.4,0.1,0.7c0,0.1,0,0.2,0.1,0.3c0,0.2,0.1,0.3,0.1,0.5
		c0,0.1,0.1,0.2,0.1,0.3c0.1,0.2,0.2,0.3,0.3,0.5c0,0.1,0.1,0.2,0.1,0.2c0.2,0.2,0.3,0.4,0.5,0.6l147.8,147.8
		c0.2,0.2,0.5,0.4,0.7,0.6c0.2,0.2,0.5,0.3,0.8,0.4c0,0,0,0,0,0c0.3,0.1,0.5,0.2,0.8,0.2c0,0,0,0,0.1,0c0.3,0.1,0.6,0.1,0.9,0.1h0
		l0,0c0.3,0,0.5,0,0.8-0.1c0.1,0,0.1,0,0.2,0c0.2-0.1,0.5-0.1,0.7-0.2c0,0,0.1,0,0.1-0.1c0.1,0,0.2-0.1,0.3-0.2
		c0.1,0,0.1-0.1,0.2-0.1c0.1-0.1,0.2-0.1,0.3-0.2c0.2-0.1,0.3-0.3,0.5-0.4c0,0,0.1-0.1,0.1-0.1l17-17l36.8,36.8
		c0.9,0.9,2,1.3,3.2,1.3c1.2,0,2.3-0.4,3.2-1.3c1.8-1.8,1.8-4.6,0-6.4l-36.8-36.8l16.1-16.1l22.6,22.6c0.9,0.9,2,1.3,3.2,1.3
		c1.2,0,2.3-0.4,3.2-1.3c1.8-1.8,1.8-4.6,0-6.4l-22.6-22.6l16.1-16.1l8.5,8.5c0.9,0.9,2,1.3,3.2,1.3c1.2,0,2.3-0.4,3.2-1.3
		c1.8-1.8,1.8-4.6,0-6.4l-8.5-8.5l21.6-21.6c0,0,0-0.1,0.1-0.1c0.1-0.1,0.3-0.3,0.4-0.5c0.1-0.1,0.1-0.1,0.2-0.2
		c0.1-0.2,0.2-0.4,0.3-0.6c0-0.1,0.1-0.1,0.1-0.2c0.1-0.3,0.2-0.5,0.2-0.8c0,0,0,0,0,0c0.1-0.3,0.1-0.6,0.1-0.9c0-0.1,0-0.3,0-0.4
		c0-0.2,0-0.3,0-0.5c0-0.1-0.1-0.3-0.1-0.4c0-0.1-0.1-0.3-0.1-0.4c-0.1-0.1-0.1-0.3-0.2-0.4c-0.1-0.1-0.1-0.3-0.2-0.4
		c-0.2-0.2-0.4-0.5-0.6-0.7c0,0,0,0,0,0L97.5,1.3v0c-0.2-0.2-0.4-0.4-0.7-0.6c-0.1-0.1-0.2-0.1-0.4-0.2c-0.1-0.1-0.3-0.2-0.4-0.2
		c-0.1-0.1-0.3-0.1-0.4-0.1c-0.1,0-0.3-0.1-0.4-0.1c-0.1,0-0.3,0-0.4,0c-0.1,0-0.3,0-0.4,0c-0.3,0-0.6,0-0.9,0.1h0c0,0,0,0,0,0
		c-0.3,0.1-0.6,0.1-0.8,0.2c-0.1,0.1-0.2,0.1-0.4,0.2c-0.1,0.1-0.3,0.1-0.4,0.2c-0.2,0.2-0.5,0.3-0.7,0.5c0,0,0,0,0,0l0,0
		c0,0,0,0,0,0L1.3,91.1c0,0-0.1,0.1-0.1,0.1c-0.1,0.1-0.3,0.3-0.4,0.5c-0.1,0.1-0.1,0.2-0.2,0.3c0,0.1-0.1,0.1-0.1,0.2
		c0,0.1-0.1,0.2-0.1,0.3c0,0.1-0.1,0.2-0.1,0.3c-0.1,0.2-0.1,0.4-0.2,0.5c0,0.1,0,0.2-0.1,0.2C0,93.8,0,94,0,94.3L0,94.3z"/>
	<polygon class="st1" points="101.6,18.1 228.4,145 122.4,123.9 101.6,18.1 	"/>
	<polygon class="st2" points="13.6,91.5 91.5,13.6 110.6,110.8 13.6,91.5 	"/>
	<path class="st2" d="M114.2,128.6c0.4,1.8,1.8,3.2,3.5,3.5l8.7,1.7l18.6,94.5L18.2,101.6l94.4,18.7L114.2,128.6L114.2,128.6z"/>
	<path class="st2" d="M232.9,155.1l-15.6,15.6l-5-4.9c-1.8-1.8-4.6-1.8-6.4,0c-1.8,1.8-1.8,4.6,0,6.4l5,5l-16.1,16.1l-4.9-5
		c-1.8-1.8-4.6-1.8-6.4,0c-1.8,1.8-1.8,4.6,0,6.4l4.9,4.9l-16.1,16.1l-4.9-4.9c-1.8-1.8-4.6-1.8-6.4,0c-1.8,1.8-1.8,4.6,0,6.4l5,4.9
		l-11,11l-19.1-97.1L232.9,155.1L232.9,155.1z"/>
</g>
</svg>
