<?xml version="1.0" encoding="utf-8"?>
<!-- Generator: Adobe Illustrator 23.0.0, SVG Export Plug-In . SVG Version: 6.00 Build 0)  -->
<svg version="1.1" id="Layer_1" xmlns="http://www.w3.org/2000/svg" xmlns:xlink="http://www.w3.org/1999/xlink" x="0px" y="0px"
	 viewBox="0 0 309.1 200.8" style="enable-background:new 0 0 309.1 200.8;" xml:space="preserve">
<style type="text/css">
	.st0{fill:#003354;}
	.st1{fill:#FFFFFF;}
	.st2{fill:#7B99B3;}
</style>
<g>
	<path class="st0" d="M99.5,115.9c2.7-1.7,12.5-4.1,19-5.8c12.9-3.3,15.3-4,16.7-6.4c0.6-1,1.1-2.2,1.6-3.4c0,0,0,0,0,0
		c3.4,2.9,9.1,8.2,14.2,13.1v50.2c-22-0.5-48.7-4.4-56.1-6.3C94.2,148.7,96.5,120.3,99.5,115.9L99.5,115.9z M160,163.6v-50.2
		c5.1-4.9,10.8-10.2,14.2-13.1c0,0,0,0,0,0c0.5,1.3,1,2.4,1.6,3.4c1.4,2.4,3.9,3.2,16.7,6.4c6.5,1.6,16.3,4.1,19,5.8
		c3,4.3,5.3,32.7,4.6,41.4C208.7,159.2,182,163.1,160,163.6L160,163.6z M178.4,60.7c-0.7,4.8-3,8.2-3,8.3c-0.3,0.4-0.5,0.8-0.6,1.3
		c-0.1,0.2-1.3,4.2-1.9,7.8c-0.3,1.5-3.6,5.8-6,8.3l-0.3,0.3c-1.5,1.5-5.6,5.7-11.1,5.7s-9.6-4.1-11.1-5.7l-0.3-0.3
		c-2.4-2.4-5.7-6.8-6-8.3c-0.6-3.6-1.8-7.6-1.9-7.8c-0.1-0.5-0.4-0.9-0.6-1.3c0,0-2.3-3.4-3-8.2c-0.4-2.5,0-3.6,0.2-3.9
		c1.1-1.1,1.6-2.6,1.3-4.1c-1.1-5.6-1.6-15.1,1-17.9c3.2-3.5,10-6.6,19.7-4.6c0.6,0.1,1.2,0.1,1.8,0c9.7-2,16.5,1.1,19.7,4.6
		c2.4,2.7,2.1,12.2,1,17.9c-0.3,1.5,0.2,3,1.3,4.1C178.4,57.1,178.8,58.2,178.4,60.7L178.4,60.7z M150.8,100.8
		c1.4,0.3,3,0.5,4.6,0.5c1.7,0,3.3-0.2,4.7-0.6c-1.4,1.3-3,2.8-4.7,4.5C153.8,103.6,152.2,102.1,150.8,100.8L150.8,100.8z
		 M85.8,152.3c-0.1,8.6,0.6,10.2,2,11.6c0.9,0.9,2.7,2.7,25.6,5.7c15.2,2,30.5,3.1,42.1,3.1c11.6,0,26.9-1.1,42.1-3.1
		c23-3,24.7-4.7,25.6-5.7c1.4-1.4,2-3,2-11.6c0-5.1-0.3-11.3-0.9-17c-2.1-22.9-5.7-25.4-7.4-26.6c-3.5-2.4-11-4.4-22.2-7.2
		c-4.1-1-9.5-2.4-11.6-3.2c-0.2-0.4-0.4-0.9-0.6-1.4c-1.3-3.1-2.8-6.8-6.4-7.3c2.3-2.7,5.1-6.6,5.7-9.9c0.4-2.3,1.1-5,1.4-6.1
		c1-1.6,3.3-5.8,4.1-11.4c0.7-4.6-0.1-7.6-1.1-9.5c0.8-5.3,2.1-17.6-3.5-23.7c-4.7-5.2-14.3-9.9-27.3-7.6
		c-12.9-2.3-22.5,2.4-27.3,7.6c-5.5,6.1-4.3,18.5-3.5,23.7c-1,1.9-1.8,4.9-1.1,9.5c0.8,5.7,3.1,9.8,4.1,11.4c0.3,1.2,1,3.8,1.4,6.1
		c0.6,3.3,3.4,7.2,5.7,9.9c-3.5,0.6-5.1,4.3-6.3,7.3c-0.2,0.5-0.4,1-0.6,1.4c-2.1,0.8-7.5,2.2-11.6,3.2c-11.1,2.8-18.7,4.8-22.2,7.2
		c-1.7,1.2-5.4,3.7-7.4,26.6C86.2,141,85.9,147.2,85.8,152.3L85.8,152.3z"/>
	<path class="st0" d="M9,126.6c0-4.9,0.7-15,1.9-18.2c1.8-0.7,6.2-1.9,8.8-2.5c6.1-1.5,8.3-2.1,9.6-3.8c1.4,1.3,3,2.8,4.6,4.3v22.9
		C24.3,129,13.7,127.5,9,126.6L9,126.6z M42.9,129.4v-22.9c1.6-1.5,3.2-3,4.6-4.3c1.3,1.7,3.5,2.2,9.6,3.8c2.5,0.6,7,1.8,8.8,2.5
		c1.2,3.1,1.9,13.3,1.9,18.1C63.1,127.5,52.6,129,42.9,129.4L42.9,129.4z M48.3,80.9c0,0.2,0,0.4-0.1,0.8C47.9,83.6,47,85,47,85
		c-0.3,0.4-0.5,0.8-0.6,1.3c0,0.1-0.6,2.2-1,4.1c-0.3,0.7-1.7,2.4-2.6,3.3l-0.2,0.2c-0.7,0.7-2.3,2.3-4.3,2.3c-2,0-3.6-1.6-4.3-2.3
		L34,93.8c-0.9-0.9-2.2-2.6-2.6-3.3c-0.4-2-1-4-1-4.1c-0.1-0.5-0.4-0.9-0.6-1.3l0,0c0,0-0.9-1.4-1.2-3.3c0-0.3-0.1-0.6-0.1-0.8
		c0.7-1,1-2.3,0.8-3.5c-0.6-2.9-0.6-6.6,0-7.5c1.1-1.3,4-2.5,8.2-1.7c0.6,0.1,1.2,0.1,1.8,0c4.1-0.8,7,0.4,8.2,1.7
		c0.5,0.9,0.6,4.6,0,7.5C47.2,78.6,47.5,79.9,48.3,80.9L48.3,80.9z M0.5,116.7c-1.3,14.1,0.2,15.5,1.2,16.6
		c0.9,0.9,1.9,1.9,14.6,3.6c8,1,16,1.6,22.1,1.6s14.2-0.6,22.1-1.6c12.7-1.7,13.6-2.6,14.6-3.6c1-1,2.5-2.5,1.2-16.6
		c-1.1-11.9-3-14.2-4.8-15.4c-2.1-1.5-6-2.5-12.2-4.1c-1.6-0.4-3.7-0.9-5-1.3c-0.2-0.5-0.5-1.1-0.8-1.7c0.3-0.7,0.6-1.4,0.7-2
		c0.2-1,0.4-2.1,0.6-2.7c0.7-1.1,1.8-3.5,2.3-6.5c0.4-2.4,0-4.2-0.5-5.5c0.5-3.5,0.8-9.9-2.4-13.5c-3.6-4-9.5-5.7-15.8-4.7
		c-6.3-1-12.2,0.7-15.8,4.7c-3.3,3.6-2.9,10-2.4,13.5c-0.5,1.3-0.9,3.1-0.5,5.5c0.4,3,1.6,5.3,2.3,6.5c0.2,0.6,0.5,1.7,0.6,2.7
		c0.1,0.7,0.4,1.4,0.7,2.1c-0.3,0.6-0.6,1.2-0.8,1.7c-1.3,0.4-3.3,0.9-5,1.3c-6.2,1.6-10.1,2.6-12.2,4.1
		C3.5,102.5,1.6,104.8,0.5,116.7L0.5,116.7z"/>
	<path class="st0" d="M300.1,126.6c-4.7,0.9-15.3,2.4-24.9,2.8v-22.9c1.6-1.5,3.2-3,4.6-4.3c1.3,1.7,3.5,2.2,9.6,3.8
		c2.5,0.6,7,1.8,8.8,2.5C299.3,111.6,300.1,121.8,300.1,126.6L300.1,126.6z M280.5,80.9c0,0.2,0,0.4-0.1,0.8
		c-0.3,1.9-1.2,3.3-1.2,3.3c-0.3,0.4-0.5,0.8-0.6,1.3c0,0.1-0.6,2.2-1,4.1c-0.3,0.7-1.7,2.4-2.6,3.3l-0.2,0.2
		c-0.7,0.7-2.3,2.3-4.3,2.3c-2,0-3.6-1.6-4.3-2.3l-0.2-0.2c-0.9-0.9-2.2-2.6-2.6-3.3c-0.4-2-1-4-1-4.1c-0.1-0.5-0.4-0.9-0.6-1.3v0
		c0,0-0.9-1.4-1.2-3.3c0-0.3-0.1-0.6-0.1-0.8c0.7-1,1-2.3,0.8-3.5c-0.6-2.9-0.5-6.6,0-7.5c1.1-1.3,4-2.5,8.2-1.7
		c0.6,0.1,1.2,0.1,1.8,0c4.1-0.8,7,0.4,8.2,1.7c0.5,0.9,0.6,4.6,0,7.5C279.5,78.6,279.8,79.9,280.5,80.9L280.5,80.9z M261.6,102.2
		c1.4,1.3,3,2.8,4.6,4.3v22.9c-9.6-0.4-20.2-1.9-24.9-2.8c0-4.9,0.7-15,1.9-18.2c1.8-0.7,6.2-1.9,8.8-2.5
		C258.1,104.4,260.3,103.8,261.6,102.2L261.6,102.2z M307.4,133.3c1-1,2.5-2.5,1.2-16.6c-1.1-11.9-3-14.2-4.8-15.4
		c-2.1-1.5-6-2.5-12.2-4.1c-1.6-0.4-3.7-0.9-5-1.3c-0.2-0.5-0.5-1.1-0.8-1.7c0.3-0.7,0.6-1.4,0.7-2c0.2-0.9,0.4-2,0.6-2.7
		c0.7-1.1,1.8-3.5,2.3-6.5c0.4-2.4,0-4.2-0.5-5.5c0.5-3.5,0.8-9.9-2.4-13.5c-3.6-4-9.5-5.7-15.8-4.7c-6.3-1-12.2,0.7-15.8,4.7
		c-3.3,3.6-2.9,10-2.4,13.5c-0.5,1.3-0.9,3.1-0.5,5.5c0.4,3,1.6,5.3,2.3,6.5c0.2,0.6,0.5,1.7,0.6,2.7c0.1,0.7,0.4,1.4,0.7,2.1
		c-0.3,0.6-0.6,1.2-0.8,1.7c-1.3,0.4-3.3,0.9-5,1.3c-6.2,1.6-10.1,2.6-12.2,4.1c-1.8,1.2-3.7,3.5-4.8,15.4
		c-1.3,14.1,0.2,15.5,1.2,16.6c0.9,0.9,1.9,1.9,14.6,3.6c8,1,16,1.6,22.1,1.6s14.2-0.6,22.1-1.6
		C305.5,135.2,306.4,134.2,307.4,133.3L307.4,133.3z"/>
	<path class="st1" d="M175.4,69c-0.3,0.4-0.5,0.8-0.6,1.3c-0.1,0.2-1.3,4.2-1.9,7.8c-0.3,1.5-3.6,5.8-6,8.3l-0.3,0.3
		c-1.5,1.5-5.6,5.7-11.1,5.7s-9.6-4.1-11.1-5.7l-0.3-0.3c-2.4-2.4-5.7-6.8-6-8.3c-0.6-3.6-1.8-7.6-1.9-7.8c-0.1-0.5-0.4-0.9-0.6-1.3
		c0,0-2.3-3.4-3-8.2c-0.4-2.5,0-3.6,0.2-3.9c1.1-1.1,1.6-2.6,1.3-4.1c-1.1-5.6-1.6-15.1,1-17.9c3.2-3.5,10-6.6,19.7-4.6
		c0.6,0.1,1.2,0.1,1.8,0c9.7-2,16.5,1.1,19.7,4.6c2.4,2.7,2.1,12.2,1,17.9c-0.3,1.5,0.2,3,1.3,4.1c0.1,0.3,0.5,1.4,0.2,3.9
		C177.7,65.6,175.4,69,175.4,69L175.4,69z"/>
	<path class="st2" d="M118.5,110.2c12.9-3.3,15.3-4,16.7-6.4c0.6-1,1.1-2.2,1.6-3.4c0,0,0,0,0,0c3.4,2.9,9.1,8.2,14.2,13.1v50.2
		c-22-0.5-48.7-4.4-56.1-6.3c-0.7-8.6,1.6-37,4.6-41.4C102.2,114.3,112,111.8,118.5,110.2L118.5,110.2z"/>
	<path class="st2" d="M174.2,100.3c0.5,1.3,1,2.4,1.6,3.4c1.4,2.4,3.9,3.2,16.7,6.4c6.5,1.6,16.3,4.1,19,5.8
		c3,4.3,5.3,32.7,4.6,41.4c-7.4,1.9-34.1,5.8-56.1,6.3v-50.2C165.1,108.5,170.8,103.2,174.2,100.3
		C174.2,100.3,174.2,100.3,174.2,100.3L174.2,100.3z"/>
	<path class="st2" d="M155.5,101.3c1.7,0,3.3-0.2,4.7-0.6c-1.4,1.3-3,2.8-4.7,4.5c-1.7-1.7-3.3-3.1-4.7-4.5
		C152.3,101.1,153.8,101.3,155.5,101.3L155.5,101.3z"/>
	<path class="st2" d="M57.1,106c2.5,0.6,7,1.8,8.8,2.5c1.2,3.1,1.9,13.3,1.9,18.1c-4.7,0.9-15.3,2.4-24.9,2.8v-22.9
		c1.6-1.5,3.2-3,4.6-4.3C48.8,103.8,51,104.4,57.1,106L57.1,106z"/>
	<path class="st2" d="M10.9,108.5c1.8-0.7,6.2-1.9,8.8-2.5c6.1-1.5,8.3-2.1,9.6-3.8c1.4,1.3,3,2.8,4.6,4.3v22.9
		c-9.6-0.4-20.2-1.9-24.9-2.8C9,121.7,9.8,111.6,10.9,108.5L10.9,108.5z"/>
	<path class="st1" d="M30.4,86.3c-0.1-0.5-0.4-0.9-0.6-1.3l0,0c0,0-0.9-1.4-1.2-3.3c0-0.3-0.1-0.6-0.1-0.8c0.7-1,1-2.3,0.8-3.5
		c-0.6-2.9-0.6-6.6,0-7.5c1.1-1.3,4-2.5,8.2-1.7c0.6,0.1,1.2,0.1,1.8,0c4.1-0.8,7,0.4,8.2,1.7c0.5,0.9,0.6,4.6,0,7.5
		c-0.3,1.3,0,2.5,0.8,3.5c0,0.2,0,0.4-0.1,0.8C47.9,83.6,47,85,47,85c-0.3,0.4-0.5,0.8-0.6,1.3c0,0.1-0.6,2.2-1,4.1
		c-0.3,0.7-1.7,2.4-2.6,3.3l-0.2,0.2c-0.7,0.7-2.3,2.3-4.3,2.3c-2,0-3.6-1.6-4.3-2.3L34,93.8c-0.9-0.9-2.2-2.6-2.6-3.3
		C31.1,88.5,30.5,86.4,30.4,86.3L30.4,86.3z"/>
	<path class="st2" d="M252,106c6.1-1.5,8.3-2.1,9.6-3.8c1.4,1.3,3,2.8,4.6,4.3v22.9c-9.6-0.4-20.2-1.9-24.9-2.8
		c0-4.9,0.7-15,1.9-18.2C244.9,107.7,249.4,106.6,252,106L252,106z"/>
	<path class="st2" d="M289.4,106c2.5,0.6,7,1.8,8.8,2.5c1.2,3.1,1.9,13.3,1.9,18.1c-4.7,0.9-15.3,2.4-24.9,2.8v-22.9
		c1.6-1.5,3.2-3,4.6-4.3C281,103.8,283.3,104.4,289.4,106L289.4,106z"/>
	<path class="st1" d="M262.7,86.3c-0.1-0.5-0.4-0.9-0.6-1.3v0c0,0-0.9-1.4-1.2-3.3c0-0.3-0.1-0.6-0.1-0.8c0.7-1,1-2.3,0.8-3.5
		c-0.6-2.9-0.5-6.6,0-7.5c1.1-1.3,4-2.5,8.2-1.7c0.6,0.1,1.2,0.1,1.8,0c4.1-0.8,7,0.4,8.2,1.7c0.5,0.9,0.6,4.6,0,7.5
		c-0.3,1.3,0,2.5,0.8,3.5c0,0.2,0,0.4-0.1,0.8c-0.3,1.9-1.2,3.3-1.2,3.3c-0.3,0.4-0.5,0.8-0.6,1.3c0,0.1-0.6,2.2-1,4.1
		c-0.3,0.7-1.7,2.4-2.6,3.3l-0.2,0.2c-0.7,0.7-2.3,2.3-4.3,2.3c-2,0-3.6-1.6-4.3-2.3l-0.2-0.2c-0.9-0.9-2.2-2.6-2.6-3.3
		C263.3,88.5,262.7,86.4,262.7,86.3L262.7,86.3z"/>
	<path class="st0" d="M195.1,4.5c0-2.5,2-4.5,4.5-4.5h52.3c2.5,0,4.5,2,4.5,4.5v52.3c0,2.5-2,4.5-4.5,4.5c-2.5,0-4.5-2-4.5-4.5V9
		h-47.8C197.2,9,195.1,7,195.1,4.5L195.1,4.5z"/>
	<path class="st0" d="M60.1,139.5c2.5,0,4.5,2,4.5,4.5v47.8h47.8c2.5,0,4.5,2,4.5,4.5c0,2.5-2,4.5-4.5,4.5H60.1
		c-2.5,0-4.5-2-4.5-4.5V144C55.6,141.5,57.6,139.5,60.1,139.5L60.1,139.5z"/>
	<path class="st0" d="M60.1,61.3c-2.5,0-4.5-2-4.5-4.5V4.5c0-2.5,2-4.5,4.5-4.5h52.3c2.5,0,4.5,2,4.5,4.5c0,2.5-2,4.5-4.5,4.5H64.6
		v47.8C64.6,59.2,62.6,61.3,60.1,61.3L60.1,61.3z"/>
	<path class="st0" d="M251.9,139.5c2.5,0,4.5,2,4.5,4.5v52.3c0,2.5-2,4.5-4.5,4.5h-52.3c-2.5,0-4.5-2-4.5-4.5c0-2.5,2-4.5,4.5-4.5
		h47.8V144C247.4,141.5,249.4,139.5,251.9,139.5L251.9,139.5z"/>
</g>
</svg>
