<?xml version="1.0" encoding="utf-8"?>
<!-- Generator: Adobe Illustrator 23.0.0, SVG Export Plug-In . SVG Version: 6.00 Build 0)  -->
<svg version="1.1" id="Layer_1" xmlns="http://www.w3.org/2000/svg" xmlns:xlink="http://www.w3.org/1999/xlink" x="0px" y="0px"
	 viewBox="0 0 233.3 242.7" style="enable-background:new 0 0 233.3 242.7;" xml:space="preserve">
<style type="text/css">
	.st0{fill:#003354;}
	.st1{fill:#7B99B3;}
	.st2{fill:#FFFFFF;}
</style>
<g>
	<path class="st0" d="M223.7,217.6c-0.7,1.5-7.6,6.4-31.2,10.7c-17.9,3.2-40,5.2-61.4,5.4c-0.5-36.7-0.9-47-1.3-50.3
		c0.5-1.8,3.2-7.7,4.6-10.6c1-2.2,1.8-3.9,2.3-5c1.6-4-1.3-7.8-4.9-12.7c-1.7-2.3-4.1-5.4-4.7-7.3c2.4-3.7,17.3-11.4,21.6-12.2
		c1.2,0.5,3.5,3.3,4.6,4.7c0.9,1.1,1.7,2.1,2.6,3c1.7,1.7,4.7,2.5,18.9,5.8c10.7,2.4,32.9,7.5,36.1,10.9
		C216.7,166.5,227.3,209.5,223.7,217.6L223.7,217.6z M101.5,155.2c-3.6,4.9-6.5,8.7-4.9,12.7c0.4,1.1,1.2,2.8,2.3,5
		c1.3,2.9,4.1,8.7,4.6,10.6c-0.4,3.3-0.8,13.5-1.3,50.3c-21.4-0.2-43.5-2.2-61.4-5.4c-23.6-4.3-30.5-9.2-31.2-10.7
		c-3.6-8.1,7.1-51.1,12.8-57.4c3.1-3.4,25.4-8.5,36.1-10.9c14.2-3.2,17.2-4,18.9-5.8c0.8-0.8,1.7-1.9,2.6-3c1.1-1.4,3.5-4.3,4.7-4.7
		c4.3,0.7,19.3,8.5,21.6,12.2C105.6,149.8,103.3,152.9,101.5,155.2L101.5,155.2z M103.5,183.2c0-0.2,0.1-0.5,0.1-0.8
		C103.6,182.6,103.5,182.8,103.5,183.2L103.5,183.2z M129.7,182.4c0.1,0.3,0.1,0.6,0.1,0.8C129.8,182.8,129.8,182.6,129.7,182.4
		L129.7,182.4z M232,221.2c5.4-12.4-6.9-58.8-14.4-67.1c-4.7-5.1-19.8-8.9-40.7-13.7c-5.8-1.3-12.9-2.9-14.9-3.7
		c-0.5-0.5-1-1.2-1.6-1.9c-2.9-3.6-6.6-8.1-11.6-8.1c-5,0-22.7,8.5-28.3,15.1c-2,2.3-2.8,4.7-2.4,7c0.7,3.9,3.6,7.9,6.5,11.8
		c1.1,1.5,2.8,3.7,3.4,4.9c-0.4,0.9-1,2.2-1.7,3.6c-4.8,10.1-6,13.2-5.3,15.7c0.4,3.7,0.9,30.2,1.1,49h-11c0.3-18.8,0.7-45.3,1.1-49
		c0.7-2.5-0.5-5.6-5.3-15.7c-0.6-1.3-1.2-2.6-1.7-3.6c0.6-1.2,2.2-3.4,3.4-4.9c2.9-3.9,5.9-7.8,6.5-11.8c0.4-2.3-0.4-4.7-2.4-7
		c-5.6-6.6-23.3-15.1-28.3-15.1c-5,0-8.7,4.5-11.6,8.1c-0.6,0.7-1.1,1.4-1.6,1.9c-2,0.8-9.1,2.4-14.9,3.7
		c-20.9,4.8-36.1,8.5-40.7,13.7c-7.5,8.3-19.8,54.7-14.4,67.1c1.1,2.4,4.3,9.8,37.9,15.9c19.6,3.5,44.2,5.6,67.4,5.6h20.1
		c23.3,0,47.8-2,67.4-5.6C227.7,231.1,230.9,223.6,232,221.2L232,221.2z"/>
	<path class="st0" d="M157.6,63.6l-0.1,1.2c-0.4,5.1-1.6,8.5-2.5,10.3c-3.1,1.6-3.5,5.8-3.7,10.8c-0.2,7.1-15.8,35.2-34.7,35.2
		c-18.9,0-34.5-28.1-34.7-35.2c-0.2-5-0.5-9.3-3.7-10.8c-0.8-1.8-2-5.2-2.5-10.3l-0.1-1.2c-0.8-9.3-2.3-26.7,3-37.7
		c4.2-8.6,16.6-18.1,37.7-16.8c0.2,0,0.4,0,0.6,0c21.1-1.3,33.5,8.2,37.7,16.8C159.9,36.8,158.4,54.2,157.6,63.6L157.6,63.6z
		 M166.6,64.3c0.9-10.2,2.5-29.2-3.9-42.4c-5.4-11-20.6-23.3-46-21.8C91.3-1.4,76,10.9,70.6,21.9l0,0c-6.4,13.2-4.8,32.2-3.9,42.4
		l0.1,1.2c0.9,10.7,4.6,16,5.1,16.5c0.2,0.3,0.5,0.6,0.8,0.9c0.1,0.7,0.2,1.8,0.2,3.3c0.3,11,18.4,43.9,43.7,43.9
		c25.3,0,43.4-33,43.7-43.9c0-1.5,0.1-2.5,0.2-3.3c0.3-0.2,0.6-0.5,0.8-0.9c0.4-0.6,4.1-5.8,5.1-16.5L166.6,64.3L166.6,64.3z"/>
	<path class="st1" d="M129.7,182.4c0.1,0.3,0.1,0.6,0.1,0.8C129.8,182.8,129.8,182.6,129.7,182.4L129.7,182.4z"/>
	<path class="st1" d="M148.7,135.7c1.2,0.5,3.5,3.3,4.6,4.7c0.9,1.1,1.7,2.1,2.6,3c1.7,1.7,4.7,2.5,18.9,5.8
		c10.7,2.4,32.9,7.5,36.1,10.9c5.8,6.3,16.4,49.3,12.8,57.4c-0.7,1.5-7.6,6.4-31.2,10.7c-17.9,3.2-40,5.2-61.4,5.4
		c-0.5-36.7-0.9-47-1.3-50.3c0.5-1.8,3.2-7.7,4.6-10.6c1-2.2,1.8-3.9,2.3-5c1.6-4-1.3-7.8-4.9-12.7c-1.7-2.3-4.1-5.4-4.7-7.3
		C129.4,144.2,144.4,136.5,148.7,135.7L148.7,135.7z"/>
	<path class="st1" d="M22.4,160.2c3.1-3.4,25.4-8.5,36.1-10.9c14.2-3.2,17.2-4,18.9-5.8c0.8-0.8,1.7-1.9,2.6-3
		c1.1-1.4,3.5-4.3,4.7-4.7c4.3,0.7,19.3,8.5,21.6,12.2c-0.7,1.9-3,5-4.7,7.3c-3.6,4.9-6.5,8.7-4.9,12.7c0.4,1.1,1.2,2.8,2.3,5
		c1.3,2.9,4.1,8.7,4.6,10.6c-0.4,3.3-0.8,13.5-1.3,50.3c-21.4-0.2-43.5-2.2-61.4-5.4c-23.6-4.3-30.5-9.2-31.2-10.7
		C6,209.5,16.6,166.5,22.4,160.2L22.4,160.2z"/>
	<path class="st1" d="M103.5,183.2c0-0.2,0.1-0.5,0.1-0.8C103.6,182.6,103.5,182.8,103.5,183.2L103.5,183.2z"/>
	<path class="st2" d="M157.6,63.6l-0.1,1.2c-0.4,5.1-1.6,8.5-2.5,10.3c-3.1,1.6-3.5,5.8-3.7,10.8c-0.2,7.1-15.8,35.2-34.7,35.2
		c-18.9,0-34.5-28.1-34.7-35.2c-0.2-5-0.5-9.3-3.7-10.8c-0.8-1.8-2-5.2-2.5-10.3l-0.1-1.2c-0.8-9.3-2.3-26.7,3-37.7
		c4.2-8.6,16.6-18.1,37.7-16.8c0.2,0,0.4,0,0.6,0c21.1-1.3,33.5,8.2,37.7,16.8C159.9,36.8,158.4,54.2,157.6,63.6L157.6,63.6z"/>
</g>
</svg>
