<?xml version="1.0" encoding="utf-8"?>
<!-- Generator: Adobe Illustrator 23.0.0, SVG Export Plug-In . SVG Version: 6.00 Build 0)  -->
<svg version="1.1" id="Layer_1" xmlns="http://www.w3.org/2000/svg" xmlns:xlink="http://www.w3.org/1999/xlink" x="0px" y="0px"
	 viewBox="0 0 309 309" style="enable-background:new 0 0 309 309;" xml:space="preserve">
<style type="text/css">
	.st0{fill:#FFFFFF;}
	.st1{fill:#7B99B3;}
	.st2{fill:#003354;}
</style>
<g>
	<path class="st0" d="M300,31.9V150H159V9h118.1C289.7,9,300,19.3,300,31.9L300,31.9z"/>
	<path class="st1" d="M300,277.1c0,12.6-10.3,22.9-22.9,22.9H159V159h141V277.1L300,277.1z"/>
	<path class="st0" d="M150,300H31.9C19.3,300,9,289.7,9,277.1V159h141V300L150,300z"/>
	<path class="st1" d="M31.9,9H150v141H9V31.9C9,19.3,19.3,9,31.9,9L31.9,9z"/>
	<path class="st2" d="M195.3,79.5c0-18.9,15.3-34.2,34.2-34.2s34.2,15.3,34.2,34.2c0,18.9-15.3,34.2-34.2,34.2
		S195.3,98.4,195.3,79.5L195.3,79.5z M186.3,79.5c0,23.8,19.4,43.2,43.2,43.2s43.2-19.4,43.2-43.2s-19.4-43.2-43.2-43.2
		S186.3,55.7,186.3,79.5L186.3,79.5z"/>
	<path class="st2" d="M38.9,79.5c0-22.4,18.2-40.6,40.6-40.6s40.6,18.2,40.6,40.6c0,22.4-18.2,40.6-40.6,40.6S38.9,101.9,38.9,79.5
		L38.9,79.5z M29.9,79.5c0,27.3,22.2,49.6,49.6,49.6s49.6-22.2,49.6-49.6c0-27.3-22.2-49.6-49.6-49.6S29.9,52.2,29.9,79.5L29.9,79.5
		z"/>
	<path class="st2" d="M9,31.9C9,19.3,19.3,9,31.9,9H150v141H9V31.9L9,31.9z M9,159h141v141H31.9C19.3,300,9,289.7,9,277.1V159L9,159
		z M277.1,300H159V159h141v118.1C300,289.7,289.7,300,277.1,300L277.1,300z M300,150H159V9h118.1C289.7,9,300,19.3,300,31.9V150
		L300,150z M0,31.9v122.6v122.6C0,294.7,14.3,309,31.9,309h122.6h122.6c17.6,0,31.9-14.3,31.9-31.9V154.5V31.9
		C309,14.3,294.7,0,277.1,0H154.5H31.9C14.3,0,0,14.3,0,31.9L0,31.9z"/>
	<path class="st2" d="M113.7,229.5c0,18.9-15.4,34.2-34.2,34.2s-34.2-15.3-34.2-34.2s15.4-34.2,34.2-34.2S113.7,210.6,113.7,229.5
		L113.7,229.5z M122.7,229.5c0-23.8-19.4-43.2-43.2-43.2s-43.2,19.4-43.2,43.2s19.4,43.2,43.2,43.2S122.7,253.3,122.7,229.5
		L122.7,229.5z"/>
	<path class="st2" d="M206.6,229.5c0-12.6,10.3-22.9,22.9-22.9c12.6,0,22.9,10.3,22.9,22.9c0,12.6-10.3,22.9-22.9,22.9
		C216.9,252.4,206.6,242.1,206.6,229.5L206.6,229.5z M197.6,229.5c0,17.6,14.3,31.9,31.9,31.9s31.9-14.3,31.9-31.9
		s-14.3-31.9-31.9-31.9S197.6,211.9,197.6,229.5L197.6,229.5z"/>
	<path class="st1" d="M195.3,79.5c0-18.9,15.3-34.2,34.2-34.2s34.2,15.3,34.2,34.2c0,18.9-15.3,34.2-34.2,34.2
		S195.3,98.4,195.3,79.5L195.3,79.5z"/>
	<path class="st0" d="M38.9,79.5c0-22.4,18.2-40.6,40.6-40.6s40.6,18.2,40.6,40.6c0,22.4-18.2,40.6-40.6,40.6S38.9,101.9,38.9,79.5
		L38.9,79.5z"/>
	<path class="st1" d="M113.7,229.5c0,18.9-15.4,34.2-34.2,34.2s-34.2-15.3-34.2-34.2s15.4-34.2,34.2-34.2S113.7,210.6,113.7,229.5
		L113.7,229.5z"/>
	<path class="st0" d="M206.6,229.5c0-12.6,10.3-22.9,22.9-22.9c12.6,0,22.9,10.3,22.9,22.9c0,12.6-10.3,22.9-22.9,22.9
		C216.9,252.4,206.6,242.1,206.6,229.5L206.6,229.5z"/>
</g>
</svg>
