<?xml version="1.0" encoding="utf-8"?>
<!-- Generator: Adobe Illustrator 25.4.1, SVG Export Plug-In . SVG Version: 6.00 Build 0)  -->
<svg version="1.1" id="Capa_1" xmlns="http://www.w3.org/2000/svg" xmlns:xlink="http://www.w3.org/1999/xlink" x="0px" y="0px"
	 viewBox="0 0 525 525" style="enable-background:new 0 0 525 525;" xml:space="preserve">
<style type="text/css">
	.st0{fill:none;stroke:#DBE1EA;stroke-width:18;stroke-miterlimit:10;}
	.st1{fill:#989CAD;}
</style>
<circle class="st0" cx="262.5" cy="262.5" r="253.5"/>
<g>
	<path class="st1" d="M374.6,283.9c-11.8,11.8-31,11.8-42.8,0s-11.8-31,0-42.8s31-11.8,42.8,0C386.5,252.9,386.5,272.1,374.6,283.9"
		/>
	<path class="st1" d="M283.9,283.9c-11.8,11.8-31,11.8-42.8,0s-11.8-31,0-42.8s31-11.8,42.8,0C295.7,252.9,295.7,272.1,283.9,283.9"
		/>
	<path class="st1" d="M193.1,283.9c-11.8,11.8-31,11.8-42.8,0c-11.8-11.8-11.8-31,0-42.8c11.8-11.8,31-11.8,42.8,0
		C205,252.9,205,272.1,193.1,283.9"/>
</g>
</svg>
