<?xml version="1.0" encoding="utf-8"?>
<!-- Generator: Adobe Illustrator 23.0.0, SVG Export Plug-In . SVG Version: 6.00 Build 0)  -->
<svg version="1.1" id="Capa_1" xmlns="http://www.w3.org/2000/svg" xmlns:xlink="http://www.w3.org/1999/xlink" x="0px" y="0px"
	 viewBox="0 0 512 512" style="enable-background:new 0 0 512 512;" xml:space="preserve">
<style type="text/css">
	.st0{fill:#00B9EE;}
</style>
<g>
	<g>
		<path class="st0" d="M462,44h-47.7V30c0-16.5-13.5-30-30-30s-30,13.5-30,30v14h-168V30c0-16.5-13.5-30-30-30s-30,13.5-30,30v14.4
			c-0.8-0.2-1.7-0.4-2.7-0.4H83.8c-27.6,0-50,22.4-50,50v170.3c0,5.5,4.5,10,10,10s10-4.5,10-10V147h360.5c5.5,0,10-4.5,10-10
			s-4.5-10-10-10H53.8V94c0-16.5,13.5-30,30-30h39.8c0.9,0,1.8-0.1,2.7-0.4v12.9c0,16.5,13.5,30,30,30s30-13.5,30-30V64h168v12.5
			c0,16.5,13.5,30,30,30s30-13.5,30-30V64H462c16.5,0,30,13.5,30,30v380c0,9.9-8.1,18-18,18s-18-8.1-18-18v-25.9c0-5.5-4.5-10-10-10
			H329.7c-5.5,0-10,4.5-10,10s4.5,10,10,10H436V474c0,6.5,1.6,12.6,4.5,18H38c-9.9,0-18-8.1-18-18v-15.9h223.8c5.5,0,10-4.5,10-10
			s-4.5-10-10-10h-99.9c17.5-15,28.6-37.3,28.6-62.1c0-45.2-36.8-82-82-82s-82,36.8-82,82c0,24.8,11.1,47.1,28.6,62.1H10
			c-5.5,0-10,4.5-10,10V474c0,21,17,38,38,38h436c21,0,38-17,38-38V94C512,66.4,489.6,44,462,44z M166.3,76.5c0,5.5-4.5,10-10,10
			s-10-4.5-10-10V30c0-5.5,4.5-10,10-10s10,4.5,10,10V76.5z M394.3,76.5c0,5.5-4.5,10-10,10s-10-4.5-10-10V30c0-5.5,4.5-10,10-10
			s10,4.5,10,10V76.5z M28.5,376c0-34.2,27.8-62,62-62s62,27.8,62,62s-27.8,62-62,62S28.5,410.2,28.5,376z"/>
	</g>
</g>
<g>
	<g>
		<path class="st0" d="M468.3,129.9c-1.9-1.9-4.4-2.9-7.1-2.9c-2.6,0-5.2,1.1-7.1,2.9c-1.9,1.9-2.9,4.4-2.9,7.1s1.1,5.2,2.9,7.1
			s4.4,2.9,7.1,2.9c2.6,0,5.2-1.1,7.1-2.9c1.9-1.9,2.9-4.4,2.9-7.1S470.2,131.8,468.3,129.9z"/>
	</g>
</g>
<g>
	<g>
		<path class="st0" d="M298.6,441.1c-1.9-1.9-4.4-2.9-7.1-2.9s-5.2,1.1-7.1,2.9c-1.9,1.9-2.9,4.4-2.9,7.1c0,2.6,1.1,5.2,2.9,7.1
			c1.9,1.9,4.4,2.9,7.1,2.9s5.2-1.1,7.1-2.9c1.9-1.9,2.9-4.5,2.9-7.1C301.6,445.5,300.5,442.9,298.6,441.1z"/>
	</g>
</g>
<g>
	<g>
		<path class="st0" d="M226.2,304c-21,0-38,17-38,38s17,38,38,38s38-17,38-38S247.2,304,226.2,304z M226.2,360c-9.9,0-18-8.1-18-18
			s8.1-18,18-18s18,8.1,18,18S236.2,360,226.2,360z"/>
	</g>
</g>
<g>
	<g>
		<path class="st0" d="M319.6,304c-21,0-38,17-38,38s17,38,38,38s38-17,38-38S340.5,304,319.6,304z M319.6,360c-9.9,0-18-8.1-18-18
			s8.1-18,18-18s18,8.1,18,18S329.5,360,319.6,360z"/>
	</g>
</g>
<g>
	<g>
		<path class="st0" d="M412.9,304c-21,0-38,17-38,38s17,38,38,38s38-17,38-38S433.9,304,412.9,304z M412.9,360c-9.9,0-18-8.1-18-18
			s8.1-18,18-18s18,8.1,18,18S422.8,360,412.9,360z"/>
	</g>
</g>
<g>
	<g>
		<path class="st0" d="M132.9,200c-21,0-38,17-38,38s17,38,38,38s38-17,38-38S153.9,200,132.9,200z M132.9,256c-9.9,0-18-8.1-18-18
			s8.1-18,18-18s18,8.1,18,18S142.8,256,132.9,256z"/>
	</g>
</g>
<g>
	<g>
		<path class="st0" d="M319.6,200c-21,0-38,17-38,38s17,38,38,38s38-17,38-38S340.5,200,319.6,200z M319.6,256c-9.9,0-18-8.1-18-18
			s8.1-18,18-18s18,8.1,18,18S329.5,256,319.6,256z"/>
	</g>
</g>
<g>
	<g>
		<path class="st0" d="M412.9,200c-21,0-38,17-38,38s17,38,38,38s38-17,38-38S433.9,200,412.9,200z M412.9,256c-9.9,0-18-8.1-18-18
			s8.1-18,18-18s18,8.1,18,18S422.8,256,412.9,256z"/>
	</g>
</g>
<g>
	<g>
		<path class="st0" d="M226.2,200c-21,0-38,17-38,38s17,38,38,38s38-17,38-38S247.2,200,226.2,200z M226.2,256c-9.9,0-18-8.1-18-18
			s8.1-18,18-18s18,8.1,18,18S236.2,256,226.2,256z"/>
	</g>
</g>
<g>
	<g>
		<path class="st0" d="M126.1,351.6c-3.9-3.9-10.2-3.9-14.1,0l-32.6,32.6l-11.1-11.1c-3.9-3.9-10.2-3.9-14.1,0
			c-3.9,3.9-3.9,10.2,0,14.1l18.2,18.2c1.9,1.9,4.4,2.9,7.1,2.9s5.2-1.1,7.1-2.9l39.6-39.6C130,361.9,130,355.5,126.1,351.6z"/>
	</g>
</g>
</svg>
