<?xml version="1.0" encoding="utf-8"?>
<!-- Generator: Adobe Illustrator 23.0.0, SVG Export Plug-In . SVG Version: 6.00 Build 0)  -->
<svg version="1.1" id="Слой_1" xmlns="http://www.w3.org/2000/svg" xmlns:xlink="http://www.w3.org/1999/xlink" x="0px" y="0px"
	 viewBox="0 0 339.5 304.1" style="enable-background:new 0 0 339.5 304.1;" xml:space="preserve">
<style type="text/css">
	.st0{fill:#00B9EE;}
</style>
<path class="st0" d="M329.5,1.9h-319C8.4,1.8,6.4,2.6,4.9,4.1S2.5,7.6,2.5,9.7v51.2l2,189.7l214-1.7h32.8l73.5,52.5
	c1.4,0.9,3,1.4,4.7,1.4c4.4-0.1,8-3.7,8-8.1V9.7c0-2.1-0.9-4.1-2.4-5.6C333.6,2.6,331.6,1.8,329.5,1.9z M321.5,279.1l-62.9-44.9
	c-1.4-0.9-3-1.4-4.7-1.3H18.5v-215h303V279.1z"/>
<path class="st0" d="M103,183.9h17.8c4.2,0,7.7-3.3,8-7.5l4.1-59.2c0.1-2.2-0.6-4.3-2.1-5.9c-1.5-1.6-3.6-2.5-5.8-2.4h-6.5V96.6
	c0-27.1,21.9-49,49-49s49,21.9,49,49v12.3h-6.3c-2.2-0.1-4.3,0.8-5.8,2.4c-1.5,1.6-2.3,3.8-2.1,5.9l4.1,59.2c0.3,4.2,3.8,7.5,8,7.5
	h2.3v5.5c0,5-3.6,9.5-8.5,9.5h-35.7c-4.4,0-8,3.6-8,8c0,4.4,3.6,8,8,8h35.7c13.8,0,24.5-11.7,24.5-25.5v-5.6
	c5.1-0.2,9.9-2.3,13.5-5.9c3.8-3.8,6-8.9,6-14.3c0-0.4,0.1-0.8,0-1.1c0-0.1,0-0.1,0-0.2l-2.8-34.8c-0.6-9.3-7.6-17-16.8-18.6V96.5
	c0-35.9-29.1-65-65-65s-65,29.1-65,65v12.4c-9.2,1.6-16.2,9.3-16.8,18.6l-2.7,34.8c0,0.1,0,0.1,0,0.2c0,0.4,0,0.8,0,1.1
	C82.8,174.8,91.9,183.9,103,183.9z M233.5,128.8l2.7,34.7v0.2c0,1.1-0.4,2.2-1.2,3c-0.8,0.8-1.8,1.2-2.9,1.3h-10.3l-3-43h10.5
	C231.5,124.8,233.3,126.5,233.5,128.8C233.5,128.8,233.5,128.7,233.5,128.8z M98.8,163.5l2.7-34.7c0-0.1,0,0,0,0
	c0.1-2.2,2-3.9,4.2-3.8h10.5l-3,43h-10.3c-2.3,0-4.2-1.9-4.2-4.2C98.8,163.6,98.8,163.6,98.8,163.5z"/>
</svg>
