<?xml version="1.0" encoding="utf-8"?>
<!-- Generator: Adobe Illustrator 23.0.0, SVG Export Plug-In . SVG Version: 6.00 Build 0)  -->
<svg version="1.1" id="Слой_1" xmlns="http://www.w3.org/2000/svg" xmlns:xlink="http://www.w3.org/1999/xlink" x="0px" y="0px"
	 viewBox="0 0 410.9 101.9" style="enable-background:new 0 0 410.9 101.9;" xml:space="preserve">
<style type="text/css">
	.st0{fill-rule:evenodd;clip-rule:evenodd;fill:url(#SVGID_1_);}
	.st1{fill-rule:evenodd;clip-rule:evenodd;fill:url(#SVGID_2_);}
	.st2{fill-rule:evenodd;clip-rule:evenodd;fill:url(#SVGID_3_);}
	.st3{fill-rule:evenodd;clip-rule:evenodd;}
	.st4{fill-rule:evenodd;clip-rule:evenodd;fill:url(#SVGID_4_);}
	.st5{fill-rule:evenodd;clip-rule:evenodd;fill:url(#SVGID_5_);}
	.st6{fill-rule:evenodd;clip-rule:evenodd;fill:url(#SVGID_6_);}
	.st7{fill-rule:evenodd;clip-rule:evenodd;fill:url(#SVGID_7_);}
	.st8{fill-rule:evenodd;clip-rule:evenodd;fill:url(#SVGID_8_);}
	.st9{fill-rule:evenodd;clip-rule:evenodd;fill:url(#SVGID_9_);}
	.st10{fill-rule:evenodd;clip-rule:evenodd;fill:url(#SVGID_10_);}
	.st11{fill-rule:evenodd;clip-rule:evenodd;fill:url(#SVGID_11_);}
	.st12{fill-rule:evenodd;clip-rule:evenodd;fill:url(#SVGID_12_);}
	.st13{fill-rule:evenodd;clip-rule:evenodd;fill:url(#SVGID_13_);}
	.st14{fill-rule:evenodd;clip-rule:evenodd;fill:url(#SVGID_14_);}
	.st15{fill-rule:evenodd;clip-rule:evenodd;fill:url(#SVGID_15_);}
	.st16{fill-rule:evenodd;clip-rule:evenodd;fill:url(#SVGID_16_);}
	.st17{fill-rule:evenodd;clip-rule:evenodd;fill:url(#SVGID_17_);}
	.st18{fill-rule:evenodd;clip-rule:evenodd;fill:url(#SVGID_18_);}
	.st19{fill-rule:evenodd;clip-rule:evenodd;fill:url(#SVGID_19_);}
	.st20{fill-rule:evenodd;clip-rule:evenodd;fill:url(#SVGID_20_);}
	.st21{fill-rule:evenodd;clip-rule:evenodd;fill:url(#SVGID_21_);}
	.st22{fill-rule:evenodd;clip-rule:evenodd;fill:url(#SVGID_22_);}
	.st23{fill-rule:evenodd;clip-rule:evenodd;fill:url(#SVGID_23_);}
	.st24{fill-rule:evenodd;clip-rule:evenodd;fill:url(#SVGID_24_);}
	.st25{fill-rule:evenodd;clip-rule:evenodd;fill:url(#SVGID_25_);}
	.st26{stroke:url(#SVGID_26_);stroke-width:4;stroke-miterlimit:10;}
</style>
<g>
	<path d="M103.1,14.3v83.3H84.2L51.1,52.4v1.3V55V55v1.7v11.9v0.5v0.6v1v18.8v0.5v0.3v1v6.2H36.4l-3.2-3.2l3.9-3.9l-8.2-8.2V82l0,0
		l7.7-7.7l-5.7-5.6l4.8-4.9L30,57.9L28.9,59v-1.7l1.9-1.9l-1.9-1.9v-2.6l1.7,1.7l4.6-4.6l-4.8-4.8l1.5-1.5l1.2-1.2l0.8-0.8l0.3-0.3
		l0,0l0.3-0.3L30.3,35l4.2-4.2l-5.7-5.4v-4.2l1.5,1.5l1.8-1.8l0.9-0.9l0.1-0.1l0.7-0.7l0.7-0.7l-4.1-4.1h18.3l32,43.7V14.3H103.1
		L103.1,14.3z M35.3,22.4l-0.9,0.9l-0.6,0.6l3.2,3.2l3.2-3.2L37,20.8l-0.7,0.7l-0.6,0.6L35.3,22.4L35.3,22.4z M35.4,41.1l-0.6,0.6
		L34.5,42l4.6,4.6l4.6-4.6l-4.6-4.6l-3,3l-0.4,0.4L35.4,41.1L35.4,41.1z M46.4,51.5l0.5-0.5l0,0l0.5-0.5l-3.4-3.4l-3.4,3.4l3.4,3.4
		l1.2-1.2l0.7-0.7L46.4,51.5L46.4,51.5z M43.2,69.2l0.8-0.8l0.8-0.8l-4.6-4.6l-4.6,4.6l4.6,4.6l1.5-1.5l1-1L43.2,69.2L43.2,69.2z
		 M46.8,90.1l0.5-0.5l0.5-0.5l-4.6-4.6l-4.6,4.6l4.6,4.6l2.8-2.8l0.4-0.4L46.8,90.1z"/>
	
		<linearGradient id="SVGID_1_" gradientUnits="userSpaceOnUse" x1="12.9512" y1="57.295" x2="19.2634" y2="57.295" gradientTransform="matrix(1 0 0 -1 0 105.23)">
		<stop  offset="0" style="stop-color:#00AEE6"/>
		<stop  offset="1" style="stop-color:#00AEE6"/>
	</linearGradient>
	<polygon class="st0" points="13,47.9 16.1,44.8 19.3,47.9 16.1,51.1 	"/>
	
		<linearGradient id="SVGID_2_" gradientUnits="userSpaceOnUse" x1="21.5612" y1="82.055" x2="26.2913" y2="82.055" gradientTransform="matrix(1 0 0 -1 0 105.23)">
		<stop  offset="0" style="stop-color:#00AEE6"/>
		<stop  offset="1" style="stop-color:#00AEE6"/>
	</linearGradient>
	<polygon class="st1" points="21.6,23.2 23.9,20.8 26.3,23.2 23.9,25.5 	"/>
	
		<linearGradient id="SVGID_3_" gradientUnits="userSpaceOnUse" x1="1.3913" y1="83.33" x2="4.0541" y2="83.33" gradientTransform="matrix(1 0 0 -1 0 105.23)">
		<stop  offset="0" style="stop-color:#00AEE6"/>
		<stop  offset="1" style="stop-color:#00AEE6"/>
	</linearGradient>
	<polygon class="st2" points="1.4,21.9 2.7,20.6 4.1,21.9 2.7,23.2 	"/>
	<rect x="26.7" y="59" transform="matrix(0.7071 -0.7071 0.7071 0.7071 -35.2624 39.3737)" class="st3" width="6.5" height="6.5"/>
	
		<linearGradient id="SVGID_4_" gradientUnits="userSpaceOnUse" x1="34.4212" y1="38.72" x2="43.6012" y2="38.72" gradientTransform="matrix(1 0 0 -1 0 105.23)">
		<stop  offset="0" style="stop-color:#00AEE6"/>
		<stop  offset="1" style="stop-color:#00AEE6"/>
	</linearGradient>
	<polygon class="st4" points="34.4,66.5 39,61.9 43.6,66.5 39,71.1 	"/>
	
		<linearGradient id="SVGID_5_" gradientUnits="userSpaceOnUse" x1="17.6113" y1="34.48" x2="26.7913" y2="34.48" gradientTransform="matrix(1 0 0 -1 0 105.23)">
		<stop  offset="0" style="stop-color:#00AEE6"/>
		<stop  offset="1" style="stop-color:#00AEE6"/>
	</linearGradient>
	<polygon class="st5" points="17.6,70.8 22.2,66.2 26.8,70.8 22.2,75.3 	"/>
	
		<linearGradient id="SVGID_6_" gradientUnits="userSpaceOnUse" x1="9.0612" y1="67.005" x2="13.7954" y2="67.005" gradientTransform="matrix(1 0 0 -1 0 105.23)">
		<stop  offset="0" style="stop-color:#00AEE6"/>
		<stop  offset="1" style="stop-color:#00AEE6"/>
	</linearGradient>
	<polygon class="st6" points="9.1,38.2 11.4,35.9 13.8,38.2 11.4,40.6 	"/>
	
		<linearGradient id="SVGID_7_" gradientUnits="userSpaceOnUse" x1="14.3112" y1="81.195" x2="19.0412" y2="81.195" gradientTransform="matrix(1 0 0 -1 0 105.23)">
		<stop  offset="0" style="stop-color:#00AEE6"/>
		<stop  offset="1" style="stop-color:#00AEE6"/>
	</linearGradient>
	<polygon class="st7" points="14.3,24 16.7,21.7 19,24 16.7,26.4 	"/>
	
		<linearGradient id="SVGID_8_" gradientUnits="userSpaceOnUse" x1="2.3181" y1="77.31" x2="4.981" y2="77.31" gradientTransform="matrix(1 0 0 -1 0 105.23)">
		<stop  offset="0" style="stop-color:#00AEE6"/>
		<stop  offset="1" style="stop-color:#00AEE6"/>
	</linearGradient>
	<polygon class="st8" points="2.3,27.9 3.7,26.6 5,27.9 3.7,29.3 	"/>
	
		<linearGradient id="SVGID_9_" gradientUnits="userSpaceOnUse" x1="6.8213" y1="89.4" x2="9.4842" y2="89.4" gradientTransform="matrix(1 0 0 -1 0 105.23)">
		<stop  offset="0" style="stop-color:#00AEE6"/>
		<stop  offset="1" style="stop-color:#00AEE6"/>
	</linearGradient>
	<polygon class="st9" points="6.8,15.8 8.2,14.5 9.5,15.8 8.2,17.2 	"/>
	
		<linearGradient id="SVGID_10_" gradientUnits="userSpaceOnUse" x1="17.3568" y1="87.93" x2="20.0197" y2="87.93" gradientTransform="matrix(1 0 0 -1 0 105.23)">
		<stop  offset="0" style="stop-color:#00AEE6"/>
		<stop  offset="1" style="stop-color:#00AEE6"/>
	</linearGradient>
	<polygon class="st10" points="17.4,17.3 18.7,16 20,17.3 18.7,18.6 	"/>
	
		<linearGradient id="SVGID_11_" gradientUnits="userSpaceOnUse" x1="24.3712" y1="58.97" x2="33.5512" y2="58.97" gradientTransform="matrix(1 0 0 -1 0 105.23)">
		<stop  offset="0" style="stop-color:#00AEE6"/>
		<stop  offset="1" style="stop-color:#00AEE6"/>
	</linearGradient>
	<polygon class="st11" points="24.4,46.3 29,41.7 33.6,46.3 29,50.8 	"/>
	
		<linearGradient id="SVGID_12_" gradientUnits="userSpaceOnUse" x1="1.7713" y1="88.49" x2="3.6312" y2="88.49" gradientTransform="matrix(1 0 0 -1 0 105.23)">
		<stop  offset="0" style="stop-color:#00AEE6"/>
		<stop  offset="1" style="stop-color:#00AEE6"/>
	</linearGradient>
	<polygon class="st12" points="1.8,16.7 2.7,15.8 3.6,16.7 2.7,17.7 	"/>
	<g>
		
			<linearGradient id="SVGID_13_" gradientUnits="userSpaceOnUse" x1="46.4515" y1="18.7018" x2="2.9561" y2="55.1988" gradientTransform="matrix(1 0 0 -1 0 105.23)">
			<stop  offset="0" style="stop-color:#010000"/>
			<stop  offset="1" style="stop-color:#010000"/>
		</linearGradient>
		<polygon class="st13" points="14.4,62.3 17.6,59.1 20.8,62.3 17.6,65.5 		"/>
		
			<linearGradient id="SVGID_14_" gradientUnits="userSpaceOnUse" x1="52.5379" y1="40.0572" x2="10.09" y2="75.6752" gradientTransform="matrix(1 0 0 -1 0 105.23)">
			<stop  offset="0" style="stop-color:#010000"/>
			<stop  offset="1" style="stop-color:#010000"/>
		</linearGradient>
		<polygon class="st14" points="16.6,38.9 21.2,34.3 25.8,38.9 21.2,43.5 		"/>
		
			<linearGradient id="SVGID_15_" gradientUnits="userSpaceOnUse" x1="45.5015" y1="49.9294" x2="3.2075" y2="85.4184" gradientTransform="matrix(1 0 0 -1 0 105.23)">
			<stop  offset="0" style="stop-color:#010000"/>
			<stop  offset="1" style="stop-color:#010000"/>
		</linearGradient>
		<polygon class="st15" points="15,31.7 17.4,29.4 19.8,31.7 17.4,34.1 		"/>
		
			<linearGradient id="SVGID_16_" gradientUnits="userSpaceOnUse" x1="37.1082" y1="29.7128" x2="-5.9997" y2="65.8846" gradientTransform="matrix(1 0 0 -1 0 105.23)">
			<stop  offset="0" style="stop-color:#010000"/>
			<stop  offset="1" style="stop-color:#010000"/>
		</linearGradient>
		<polygon class="st16" points="10.2,54.9 12.6,52.6 15,54.9 12.6,57.3 		"/>
		
			<linearGradient id="SVGID_17_" gradientUnits="userSpaceOnUse" x1="54.7323" y1="-2.176" x2="10.8864" y2="34.6151" gradientTransform="matrix(1 0 0 -1 0 105.23)">
			<stop  offset="0" style="stop-color:#010000"/>
			<stop  offset="1" style="stop-color:#010000"/>
		</linearGradient>
		<polygon class="st17" points="19.7,80 22,77.6 24.4,80 22,82.3 		"/>
		
			<linearGradient id="SVGID_18_" gradientUnits="userSpaceOnUse" x1="32.6778" y1="56.8394" x2="-9.6163" y2="92.3284" gradientTransform="matrix(1 0 0 -1 0 105.23)">
			<stop  offset="0" style="stop-color:#010000"/>
			<stop  offset="1" style="stop-color:#010000"/>
		</linearGradient>
		<polygon class="st18" points="8,29.7 10.4,27.3 12.8,29.7 10.4,32.1 		"/>
		
			<linearGradient id="SVGID_19_" gradientUnits="userSpaceOnUse" x1="28.3152" y1="65.9946" x2="-13.978" y2="101.4827" gradientTransform="matrix(1 0 0 -1 0 105.23)">
			<stop  offset="0" style="stop-color:#010000"/>
			<stop  offset="1" style="stop-color:#010000"/>
		</linearGradient>
		<polygon class="st19" points="6.7,22.2 8,20.9 9.3,22.2 8,23.5 		"/>
		
			<linearGradient id="SVGID_20_" gradientUnits="userSpaceOnUse" x1="37.1426" y1="65.4504" x2="-5.1536" y2="100.9411" gradientTransform="matrix(1 0 0 -1 0 105.23)">
			<stop  offset="0" style="stop-color:#010000"/>
			<stop  offset="1" style="stop-color:#010000"/>
		</linearGradient>
		<polygon class="st20" points="11.5,19.4 12.8,18 14.2,19.4 12.8,20.7 		"/>
		
			<linearGradient id="SVGID_21_" gradientUnits="userSpaceOnUse" x1="30.8492" y1="42.2346" x2="-12.4469" y2="78.5645" gradientTransform="matrix(1 0 0 -1 0 105.23)">
			<stop  offset="0" style="stop-color:#010000"/>
			<stop  offset="1" style="stop-color:#010000"/>
		</linearGradient>
		<polygon class="st21" points="7.3,44.8 9.1,43 10.9,44.8 9.1,46.5 		"/>
		
			<linearGradient id="SVGID_22_" gradientUnits="userSpaceOnUse" x1="24.2862" y1="55.9359" x2="-18.0116" y2="91.4279" gradientTransform="matrix(1 0 0 -1 0 105.23)">
			<stop  offset="0" style="stop-color:#010000"/>
			<stop  offset="1" style="stop-color:#010000"/>
		</linearGradient>
		<polygon class="st22" points="4,33.8 5.8,32 7.6,33.8 5.8,35.5 		"/>
		
			<linearGradient id="SVGID_23_" gradientUnits="userSpaceOnUse" x1="54.491" y1="24.118" x2="12.1063" y2="59.683" gradientTransform="matrix(1 0 0 -1 0 105.23)">
			<stop  offset="0" style="stop-color:#010000"/>
			<stop  offset="1" style="stop-color:#010000"/>
		</linearGradient>
		<polygon class="st23" points="18.4,54.1 22.3,50.2 26.2,54.1 22.3,58 		"/>
		
			<linearGradient id="SVGID_24_" gradientUnits="userSpaceOnUse" x1="40.6246" y1="68.2063" x2="-1.6766" y2="103.7012" gradientTransform="matrix(1 0 0 -1 0 105.23)">
			<stop  offset="0" style="stop-color:#010000"/>
			<stop  offset="1" style="stop-color:#010000"/>
		</linearGradient>
		<polygon class="st24" points="13.9,15.3 14.7,14.5 15.5,15.3 14.7,16.1 		"/>
	</g>
	
		<linearGradient id="SVGID_25_" gradientUnits="userSpaceOnUse" x1="22.6312" y1="19.46" x2="33.9713" y2="19.46" gradientTransform="matrix(1 0 0 -1 0 105.23)">
		<stop  offset="0" style="stop-color:#00AEE6"/>
		<stop  offset="1" style="stop-color:#00AEE6"/>
	</linearGradient>
	<polygon class="st25" points="22.6,85.8 28.3,80.1 34,85.8 28.3,91.4 	"/>
	<rect x="26.2" y="16.6" transform="matrix(0.7071 -0.7071 0.7071 0.7071 -4.7525 25.0762)" class="st3" width="3.3" height="3.3"/>
	
		<rect x="24.7" y="25.5" transform="matrix(0.7071 -0.7071 0.7071 0.7071 -12.1594 28.1956)" class="st3" width="6.6" height="6.6"/>
</g>
<g>
	<path d="M182.6,65.7c0,0.9,0,1.9-0.1,2.8s-0.2,1.9-0.4,3h-47.7c0.7,3.7,2.2,6.5,4.5,8.4c2.3,1.9,5.1,2.8,8.6,2.8
		c2.6,0,4.9-0.5,6.9-1.6s3.6-2.6,4.7-4.5h22c-1.1,3.7-2.7,6.9-4.9,9.9c-2.1,3-4.7,5.5-7.6,7.6s-6.1,3.6-9.8,4.8s-7.4,1.7-11.5,1.7
		c-5,0-9.6-0.9-13.9-2.6c-4.2-1.7-7.9-4.1-11.1-7.2s-5.6-6.7-7.3-10.8c-1.7-4.2-2.6-8.7-2.6-13.6c0-4.9,0.9-9.5,2.6-13.7
		c1.7-4.2,4.2-7.8,7.3-10.9c3.1-3.1,6.8-5.4,11.1-7.1s8.9-2.6,13.9-2.6c5.1,0,9.9,0.9,14.2,2.6c4.3,1.7,8,4.1,11.1,7.1
		c3.1,3,5.5,6.6,7.2,10.6C181.7,56.6,182.6,61,182.6,65.7z M147.5,49.4c-3.3,0-6,0.8-8.1,2.5c-2.2,1.7-3.7,4.1-4.6,7.4h26
		C158.8,52.7,154.3,49.4,147.5,49.4z"/>
	<rect x="192.7" y="34.2" width="22.1" height="64.2"/>
	<path d="M270.5,33.9v20.3h-8.6c-4,0-6.8,0.9-8.5,2.7c-1.7,1.8-2.6,4.8-2.6,8.8v32.7h-22.1V34.2h14.7l3.5,7.1
		c2.3-2.6,4.9-4.5,7.7-5.7c2.9-1.2,6.2-1.8,10-1.8L270.5,33.9L270.5,33.9z"/>
	<path d="M310,100.6c-5.2,0-10-0.9-14.4-2.6c-4.4-1.7-8.2-4.1-11.4-7.1c-3.2-3.1-5.7-6.7-7.5-10.8s-2.7-8.7-2.7-13.7
		s0.9-9.6,2.7-13.7c1.8-4.2,4.3-7.8,7.5-10.8c3.2-3.1,7-5.4,11.4-7.1s9.2-2.6,14.4-2.6s10,0.8,14.4,2.6s8.2,4.1,11.4,7.1
		c3.2,3.1,5.7,6.7,7.5,10.8s2.7,8.7,2.7,13.7s-0.9,9.6-2.7,13.7c-1.8,4.2-4.3,7.8-7.5,10.8c-3.2,3.1-7,5.4-11.4,7.1
		C320,99.7,315.2,100.6,310,100.6z M310,80.7c4,0,7.4-1.3,9.9-4s3.9-6.1,3.9-10.4s-1.3-7.8-3.9-10.4c-2.6-2.7-5.9-4-9.9-4
		s-7.4,1.3-10,4c-2.6,2.7-3.9,6.1-3.9,10.4s1.3,7.8,3.9,10.4C302.7,79.4,306,80.7,310,80.7z"/>
	<path d="M381,100.6c-4.4,0-8.3-0.6-11.8-1.7c-3.5-1.1-6.4-2.7-8.9-4.7c-2.4-2-4.3-4.5-5.6-7.3c-1.4-2.9-2-6-2-9.5H374
		c0,2.3,0.7,4,2.1,5.2c1.4,1.2,3.2,1.7,5.2,1.7c1.7,0,3.1-0.4,4.4-1.3s1.9-2.1,1.9-3.7c0-1.8-1.1-3.1-3.2-3.9
		c-2.1-0.8-4.7-1.4-7.7-2c-2.5-0.4-5-0.9-7.8-1.6c-2.7-0.7-5.3-1.7-7.5-3.2s-4.2-3.4-5.6-5.9c-1.5-2.5-2.2-5.6-2.2-9.5
		c0-3.3,0.6-6.2,2-8.7c1.3-2.6,3.1-4.8,5.5-6.7c2.4-1.9,5.3-3.3,8.6-4.3s7.1-1.5,11.2-1.5c4.1,0,7.9,0.5,11.2,1.6
		c3.3,1,6.2,2.5,8.5,4.4s4.2,4.2,5.5,6.9c1.3,2.7,2,5.7,2.1,8.9h-20.7c0-2.1-0.6-3.6-1.8-4.6c-1.2-1-2.9-1.5-4.9-1.5
		c-1.8,0-3.3,0.4-4.3,1.3s-1.6,2-1.6,3.5c0,1.8,1.1,3.1,3.3,3.7s4.8,1.3,7.8,1.8c2.5,0.5,5.2,1,8,1.7c2.8,0.6,5.3,1.7,7.7,3
		c2.3,1.4,4.3,3.3,5.8,5.8c1.5,2.5,2.3,5.7,2.3,9.8c0,3.3-0.7,6.4-2,9.1c-1.4,2.7-3.3,5.1-5.8,7c-2.5,1.9-5.5,3.4-9,4.5
		C389.2,100,385.3,100.6,381,100.6z"/>
</g>
<linearGradient id="SVGID_26_" gradientUnits="userSpaceOnUse" x1="190.6113" y1="89.5" x2="216.6913" y2="89.5" gradientTransform="matrix(1 0 0 -1 0 105.23)">
	<stop  offset="0" style="stop-color:#00AEE6"/>
	<stop  offset="1" style="stop-color:#00AEE6"/>
</linearGradient>
<ellipse transform="matrix(0.2567 -0.9665 0.9665 0.2567 136.1775 208.5215)" class="st26" cx="203.7" cy="15.7" rx="11" ry="11"/>
</svg>
