<?xml version="1.0" encoding="utf-8"?>
<!-- Generator: Adobe Illustrator 23.0.0, SVG Export Plug-In . SVG Version: 6.00 Build 0)  -->
<svg version="1.1" id="Capa_1" xmlns="http://www.w3.org/2000/svg" xmlns:xlink="http://www.w3.org/1999/xlink" x="0px" y="0px"
	 viewBox="0 0 512 512" style="enable-background:new 0 0 512 512;" xml:space="preserve">
<style type="text/css">
	.st0{fill:#00B9EE;}
</style>
<g>
	<g>
		<path class="st0" d="M211.3,115.4c-2-5.1-7.8-7.7-13-5.6c-29,11.4-53.8,31.1-71.6,56.8C108.5,193,98.8,223.9,98.8,256
			c0,5.5,4.5,10,10,10s10-4.5,10-10c0-56.7,34.1-106.8,86.8-127.6C210.8,126.4,213.3,120.6,211.3,115.4z"/>
	</g>
</g>
<g>
	<g>
		<path class="st0" d="M321.9,246.1c-5.5,0-10,4.5-10,10c0,30.9-25.1,56-56,56s-56-25.1-56-56c0-30.9,25.1-56,56-56
			c5.5,0,10-4.5,10-10c0-5.5-4.5-10-10-10c-41.9,0-76,34.1-76,76s34.1,76,76,76s76-34.1,76-76C331.9,250.6,327.4,246.1,321.9,246.1z
			"/>
	</g>
</g>
<g>
	<g>
		<path class="st0" d="M358.9,245.7c-5.5,0-10,4.5-10,10v0.4c0,5.5,4.5,10,10,10s10-4.5,10-10v-0.4
			C368.9,250.2,364.5,245.7,358.9,245.7z"/>
	</g>
</g>
<g>
	<g>
		<path class="st0" d="M318.5,336.9c-1.9-1.9-4.4-2.9-7.1-2.9c-2.6,0-5.2,1.1-7.1,2.9c-1.9,1.9-2.9,4.4-2.9,7.1
			c0,2.6,1.1,5.2,2.9,7.1c1.9,1.9,4.4,2.9,7.1,2.9c2.6,0,5.2-1.1,7.1-2.9c1.9-1.9,2.9-4.4,2.9-7.1
			C321.4,341.4,320.3,338.8,318.5,336.9z"/>
	</g>
</g>
<g>
	<g>
		<path class="st0" d="M478,362.6c-5.7,0-11.2,1.4-15.9,4l-29.6-29.6c-1.9-1.9-4.4-2.9-7.1-2.9h-72.9c-5.5,0-10,4.5-10,10
			c0,5.5,4.5,10,10,10h68.8l26.7,26.7c-2.5,4.7-4,10.2-4,15.9c0,18.7,15.3,34,34,34s34-15.3,34-34C512,377.8,496.7,362.6,478,362.6z
			 M478,410.6c-7.7,0-14-6.3-14-14c0-7.7,6.3-14,14-14s14,6.3,14,14S485.7,410.6,478,410.6z"/>
	</g>
</g>
<g>
	<g>
		<path class="st0" d="M478,81.5c-18.7,0-34,15.3-34,34c0,5.7,1.4,11.1,4,15.9L421.3,158H311.9c-13.9-7.9-29.5-13-45.9-14.5v-18.1
			h105.4c3.6,0,7-2,8.8-5.2l30.4-55.1c4.1,1.8,8.7,2.8,13.4,2.8c18.7,0,34-15.3,34-34c0-18.7-15.3-34-34-34s-34,15.3-34,34
			c0,6.6,1.9,12.7,5.1,17.9l-29.6,53.6H266V10c0-5.5-4.5-10-10-10h-44.8c-5.5,0-10,4.5-10,10V41c-20.7,5.2-40.3,13.4-58.7,24.3
			l-21.8-21.8c-1.9-1.9-4.4-2.9-7.1-2.9c-2.7,0-5.2,1.1-7.1,2.9l-63.2,63.3c-3.9,3.9-3.9,10.2,0,14.1l21.8,21.8
			c-10.9,18.3-19.1,38-24.3,58.7H10c-5.5,0-10,4.5-10,10v89.4c0,5.5,4.5,10,10,10h30.8c5.2,20.7,13.4,40.3,24.3,58.7l-21.8,21.8
			c-3.9,3.9-3.9,10.2,0,14.1l63.2,63.3c1.9,1.9,4.4,2.9,7.1,2.9c0,0,0,0,0,0c2.7,0,5.2-1.1,7.1-2.9l21.8-21.8
			c18.3,10.9,38,19.1,58.7,24.3V502c0,5.5,4.5,10,10,10H256h0c2.7,0,5.2-1,7.1-2.9c1.9-1.9,2.9-4.4,2.9-7.1v-95.9h99.5l29.6,54
			c-3.2,5.2-5.1,11.3-5.1,17.9c0,18.7,15.3,34,34,34c18.7,0,34-15.3,34-34c0-18.7-15.3-34-34-34c-4.8,0-9.3,1-13.4,2.8l-30.4-55.5
			c-1.8-3.2-5.1-5.2-8.8-5.2H266v-26.9c0-5.5-4.5-10-10-10c-51.4,0-93.2-41.8-93.2-93.2c0-50.7,40.8-92.1,91.3-93.1
			c0.6,0.1,1.2,0.2,1.8,0.2c38.7,0,73.8,24.4,87.3,60.6c1.5,4,5.3,6.5,9.4,6.5c1.2,0,2.3-0.2,3.5-0.6c5.2-1.9,7.8-7.7,5.9-12.9
			c-5.5-14.7-13.9-27.8-24.4-38.7h87.9c2.7,0,5.2-1.1,7.1-2.9l29.6-29.6c4.8,2.5,10.2,4,15.9,4c18.7,0,34-15.3,34-34
			C512,96.7,496.7,81.5,478,81.5z M424,20c7.7,0,14,6.3,14,14s-6.3,14-14,14s-14-6.3-14-14S416.3,20,424,20z M424,464
			c7.7,0,14,6.3,14,14s-6.3,14-14,14c-7.7,0-14-6.3-14-14S416.3,464,424,464z M246,143.3C188.3,148.4,142.8,197,142.8,256
			S188.3,363.7,246,368.8V492l-24.8,0v-28.8c0-4.7-3.3-8.8-7.9-9.8c-23.8-5.1-46.3-14.4-66.8-27.7c-4-2.6-9.2-2-12.5,1.3l-20.3,20.3
			l-49.1-49.1l20.3-20.3c3.3-3.3,3.9-8.5,1.3-12.5c-13.2-20.5-22.6-43-27.7-66.8c-1-4.6-5.1-7.9-9.8-7.9H20v-69.4h28.7
			c4.7,0,8.8-3.3,9.8-7.9c5.1-23.8,14.4-46.3,27.7-66.8c2.6-4,2-9.2-1.3-12.5l-20.3-20.3l49.1-49.1L133.9,85
			c3.3,3.3,8.5,3.9,12.5,1.3c20.5-13.2,43-22.6,66.8-27.7c4.6-1,7.9-5.1,7.9-9.8V20H246L246,143.3L246,143.3z M478,129.5
			c-7.7,0-14-6.3-14-14s6.3-14,14-14s14,6.3,14,14S485.7,129.5,478,129.5z"/>
	</g>
</g>
<g>
	<g>
		<path class="st0" d="M478,222.2c-15.3,0-28.2,10.1-32.5,24H416c-5.5,0-10,4.5-10,10c0,5.5,4.5,10,10,10h29.5
			c4.3,13.9,17.2,24,32.5,24c18.7,0,34-15.3,34-34C512,237.4,496.7,222.2,478,222.2z M478,270.2c-7.7,0-14-6.3-14-14
			c0-7.7,6.3-14,14-14s14,6.3,14,14C492,263.9,485.7,270.2,478,270.2z"/>
	</g>
</g>
</svg>
