<?xml version="1.0" encoding="utf-8"?>
<!-- Generator: Adobe Illustrator 23.0.0, SVG Export Plug-In . SVG Version: 6.00 Build 0)  -->
<svg version="1.1" id="Слой_1" xmlns="http://www.w3.org/2000/svg" xmlns:xlink="http://www.w3.org/1999/xlink" x="0px" y="0px"
	 viewBox="0 0 439 439" style="enable-background:new 0 0 439 439;" xml:space="preserve">
<style type="text/css">
	.st0{fill:#00B9EE;}
</style>
<path class="st0" d="M220.4,76.7c-78.7,0-142.8,64-142.8,142.8c0,78.7,64,142.8,142.8,142.8c78.7,0,142.8-64,142.8-142.8
	C363.2,140.8,299.1,76.7,220.4,76.7z M148.6,324v-50c0-15.4,11.5-28.4,26.8-30.2c20.2,23.5,55.1,27.5,80.1,9.2
	c3.7-2.7,7-5.8,9.9-9.2c15.3,1.9,26.8,14.8,26.8,30.2v50c-21,14.1-45.2,22.3-71.9,22.3S169.5,338,148.6,324z M308.2,310.9v-37
	c-0.1-25.6-20.9-46.4-46.5-46.4c-2.5,0-4.9,1.2-6.4,3.3c-8.2,11.1-21.1,17.7-34.9,17.7c-13.8,0-26.7-6.6-34.9-17.7
	c-1.5-2-3.9-3.3-6.4-3.3c-25.6,0-46.4,20.8-46.5,46.4v37c-24.9-23.9-39-56.9-39-91.4c0-69.9,56.9-126.8,126.8-126.8
	s126.8,56.9,126.8,126.8C347.2,254,333.1,287,308.2,310.9z"/>
<path class="st0" d="M414.2,241.9c1.9-17.8,1.5-35.8-1.4-53.5l22.1-21.2c2.4-2.3,3.1-5.9,1.8-9l-25.2-57.5c-1.4-3.1-4.5-5-7.9-4.8
	L373,98.3c-11-14.2-24.1-26.6-38.8-36.9l0.9-30.6c0.1-3.4-1.9-6.5-5.1-7.7L271.6,0.5c-3.1-1.2-6.7-0.3-8.9,2.2l-19.8,23
	c-17.8-1.9-35.8-1.5-53.5,1.4L168.2,5c-2.3-2.4-5.9-3.1-9-1.8l-57.5,25.2c-3.1,1.4-5,4.5-4.8,7.9l2.2,30.6
	C85,77.9,72.6,91,62.3,105.6l-30.6-0.9c-3.4-0.1-6.5,1.9-7.7,5.1L1.5,168.4c-1.2,3.1-0.3,6.7,2.2,8.9l23,19.8
	c-1.9,17.8-1.5,35.8,1.4,53.5L5.9,271.7c-2.4,2.3-3.1,5.9-1.8,9l25.2,57.5c1.4,3.1,4.5,5,7.9,4.8l30.6-2.2
	c11,14.2,24.1,26.6,38.8,36.9l-0.9,30.6c-0.1,3.4,1.9,6.5,5.1,7.7l58.5,22.6c3.1,1.2,6.7,0.3,8.9-2.2l19.8-23
	c17.8,1.9,35.8,1.5,53.5-1.4l21.2,22.1c2.3,2.4,5.9,3.1,9,1.8l57.5-25.2c3.1-1.4,5-4.5,4.8-7.9l-2.2-30.6
	c14.2-11,26.6-24.1,36.9-38.8l30.6,0.9c3.4,0.1,6.5-1.9,7.7-5.1l22.6-58.5c1.2-3.1,0.3-6.7-2.2-8.9L414.2,241.9z M403.9,318.1
	l-29.3-0.9c-2.8-0.1-5.4,1.3-6.9,3.6c-10.6,15.9-23.8,29.8-39.2,41.1c-2.2,1.6-3.4,4.3-3.2,7l2.2,29.3l-47.2,20.7l-20.3-21.1
	c-1.9-1.9-4.6-2.8-7.2-2.3c-18.8,3.4-38.1,3.9-57.1,1.5c-2.7-0.3-5.3,0.7-7.1,2.7l-18.9,21.9l-48-18.5l0.9-29.3
	c0.1-2.7-1.3-5.3-3.5-6.9C103.2,356.3,89.3,343,78,327.7c-1.6-2.2-4.3-3.4-7-3.2l-29.3,2.2L21,279.4l21.1-20.3
	c1.9-1.9,2.8-4.6,2.3-7.2c-3.4-18.8-3.9-38.1-1.5-57.1c0.3-2.7-0.7-5.3-2.7-7.1l-21.9-18.9l18.5-48l29.3,0.9
	c2.7,0.1,5.3-1.3,6.9-3.6c10.6-15.9,23.8-29.8,39.2-41.1c2.2-1.6,3.4-4.3,3.2-7l-2.2-29.3l47.2-20.7l20.3,21.1
	c1.9,1.9,4.6,2.8,7.2,2.3c18.8-3.5,38.1-4,57.1-1.5c2.7,0.3,5.3-0.7,7.1-2.7l18.9-21.9l48,18.5l-0.9,29.3c-0.1,2.8,1.3,5.4,3.6,6.9
	c15.9,10.6,29.8,23.8,41.1,39.2c1.6,2.2,4.3,3.4,7,3.2l29.3-2.2l20.7,47.2l-21.1,20.3c-1.9,1.9-2.8,4.6-2.3,7.2
	c3.4,18.8,3.9,38.1,1.5,57.1c-0.3,2.7,0.7,5.3,2.7,7.1l21.9,18.9L403.9,318.1z"/>
<path class="st0" d="M220.4,124.8c-28,0-50.7,22.7-50.7,50.7c0,28,22.7,50.7,50.7,50.7s50.7-22.7,50.7-50.7
	C271.1,147.5,248.4,124.8,220.4,124.8z M220.4,210.2c-19.2,0-34.7-15.6-34.7-34.7s15.6-34.7,34.7-34.7s34.7,15.6,34.7,34.7
	C255.1,194.7,239.6,210.2,220.4,210.2z"/>
</svg>
