<?xml version="1.0" encoding="utf-8"?>
<!-- Generator: Adobe Illustrator 25.4.1, SVG Export Plug-In . SVG Version: 6.00 Build 0)  -->
<svg version="1.1" id="Layer_1" xmlns="http://www.w3.org/2000/svg" xmlns:xlink="http://www.w3.org/1999/xlink" x="0px" y="0px"
	 viewBox="0 0 450.6 491.5" style="enable-background:new 0 0 450.6 491.5;" xml:space="preserve">
<style type="text/css">
	.st0{fill:#00B9EE;}
</style>
<g>
	<g>
		<path class="st0" d="M225.3,0C101.1,0,0,100.6,0,224.4C0,287.6,25.4,344.9,71.7,386v95.3c0,3.7,2,7.1,5.2,8.9
			c1.6,0.9,3.3,1.4,5.1,1.4c1.8,0,3.6-0.5,5.2-1.4l82.3-48.4c18.2,4.6,36.9,7,55.8,7c124.2,0,225.3-100.6,225.3-224.4
			S349.5,0,225.3,0z M225.3,428.2c-18.6,0-36.9-2.5-54.6-7.3c-2.7-0.7-5.5-0.4-7.9,1l-70.6,41.5v-82c0-3-1.3-5.9-3.6-7.8
			c-43.9-37.4-68.1-90.4-68.1-149.2c0-112.4,91.9-203.9,204.8-203.9s204.8,91.5,204.8,203.9S338.2,428.2,225.3,428.2z"/>
	</g>
</g>
<g>
	<g>
		<path class="st0" d="M378.9,252.6v-54.7l-35.8-6c-2.6-9.1-6.2-18-10.9-26.3l21.1-29.6l-38.7-38.7l-29.6,21.1
			c-8.3-4.7-17.1-8.3-26.3-10.9l-6-35.8h-54.7l-6,35.8c-9.2,2.6-18,6.3-26.3,10.9L136,97.3L97.3,136l21.1,29.6
			c-4.7,8.3-8.3,17.1-10.9,26.3l-35.8,6v54.7l35.8,6c2.6,9.1,6.2,18,10.9,26.3l-21.1,29.6l38.7,38.7l29.6-21.1
			c8.4,4.7,17.2,8.3,26.3,10.9l6,35.8h54.7l6-35.8c9.1-2.6,18-6.2,26.3-10.9l29.6,21.1l38.7-38.7l-21.1-29.6
			c4.7-8.3,8.3-17.1,10.9-26.3L378.9,252.6z M326.5,312.3l-14.2,14.2l-26.6-19l-5.8,3.7c-10.1,6.4-21,11-32.5,13.5l-6.8,1.5
			l-5.4,32.1h-20l-5.4-32.1l-6.8-1.5c-11.5-2.5-22.4-7.1-32.5-13.5l-5.8-3.7l-26.6,19l-14.2-14.2l19-26.6l-3.7-5.8
			c-6.4-10-11-21-13.5-32.5l-1.5-6.8l-32.2-5.4v-20.1l32.2-5.4l1.5-6.8c2.5-11.5,7.1-22.4,13.5-32.5l3.7-5.8l-19-26.6l14.2-14.2
			l26.6,19l5.8-3.7c10-6.4,21-10.9,32.5-13.5l6.7-1.5l5.4-32.2h20l5.4,32.2l6.7,1.5c11.5,2.6,22.5,7.1,32.5,13.5l5.8,3.7l26.6-19
			l14.2,14.2l-19,26.6l3.7,5.8c6.4,10.1,11,21,13.5,32.5l1.5,6.8l32.2,5.4v20.1l-32.2,5.4l-1.5,6.8c-2.5,11.5-7.1,22.4-13.5,32.5
			l-3.7,5.8L326.5,312.3z"/>
	</g>
</g>
<g>
	<g>
		<path class="st0" d="M225.3,170.9c-30,0-54.3,24.4-54.3,54.4s24.4,54.4,54.4,54.4s54.4-24.4,54.4-54.4
			C279.6,195.3,255.3,170.9,225.3,170.9z M225.3,259.1c-18.7,0-33.9-15.2-33.9-33.9s15.2-33.9,33.9-33.9c18.7,0,33.9,15.2,33.9,33.9
			S244,259.1,225.3,259.1z"/>
	</g>
</g>
</svg>
