<?xml version="1.0" encoding="utf-8"?>
<!-- Generator: Adobe Illustrator 23.0.0, SVG Export Plug-In . SVG Version: 6.00 Build 0)  -->
<svg version="1.1" id="Layer_1" xmlns="http://www.w3.org/2000/svg" xmlns:xlink="http://www.w3.org/1999/xlink" x="0px" y="0px"
	 viewBox="0 0 512 512" style="enable-background:new 0 0 512 512;" xml:space="preserve">
<style type="text/css">
	.st0{fill:#00B9EE;}
</style>
<g>
	<g>
		<path class="st0" d="M72.5,313.8v7.9c0,25.4,10.7,51.1,29.6,70.5c19.6,20.2,45.1,31.3,71.9,31.3s52.4-11.1,72.1-31.3
			c18.9-19.4,29.7-45.1,29.7-70.5v-7.9L72.5,313.8L72.5,313.8z M234.8,381.2c-16.6,17.1-38.2,26.5-60.8,26.5s-44.1-9.4-60.8-26.5
			c-14.1-14.5-22.9-33-24.9-51.7h171.3C257.7,348.2,248.9,366.7,234.8,381.2z"/>
	</g>
</g>
<g>
	<g>
		<path class="st0" d="M239,204.8c-16.3,0-29.5,13.2-29.5,29.5c0,16.3,13.2,29.5,29.5,29.5c16.3,0,29.5-13.2,29.5-29.5
			S255.3,204.8,239,204.8z M239,248.1c-7.6,0-13.8-6.2-13.8-13.8c0-7.6,6.2-13.8,13.8-13.8c7.6,0,13.8,6.2,13.8,13.8
			C252.9,241.9,246.7,248.1,239,248.1z"/>
	</g>
</g>
<g>
	<g>
		<path class="st0" d="M103,204.8c-16.3,0-29.5,13.2-29.5,29.5c0,16.3,13.2,29.5,29.5,29.5s29.5-13.2,29.5-29.5
			S119.3,204.8,103,204.8z M103,248.1c-7.6,0-13.8-6.2-13.8-13.8c0-7.6,6.2-13.8,13.8-13.8s13.8,6.2,13.8,13.8
			C116.8,241.9,110.6,248.1,103,248.1z"/>
	</g>
</g>
<g>
	<g>
		<path class="st0" d="M425.8,45.9h-50.7c-47.5,0-86.2,38.7-86.2,86.2v29.5c-31.6-27.8-72.5-43.4-115-43.4c-96,0-174,78.1-174,174
			s78.1,174,174,174c96,0,174-78.1,174-174c0-4.6-0.2-9.2-0.6-13.8h78.3c47.5,0,86.2-38.7,86.2-86.2V132
			C512,84.5,473.3,45.9,425.8,45.9z M174,450.4c-87.3,0-158.3-71-158.3-158.3s71-158.3,158.3-158.3c43.4,0,85.1,18,115,49.5v95h42.7
			c0.4,4.6,0.6,9.2,0.6,13.8C332.3,379.4,261.3,450.4,174,450.4z M496.3,192.1c0,38.8-31.6,70.5-70.5,70.5H304.7V132
			c0-38.8,31.6-70.5,70.5-70.5h50.7c38.9,0,70.5,31.6,70.5,70.5V192.1z"/>
	</g>
</g>
<g>
	<g>
		<rect x="352.3" y="90.6" class="st0" width="95.4" height="15.7"/>
	</g>
</g>
<g>
	<g>
		<rect x="335.6" y="123.1" class="st0" width="128.9" height="15.7"/>
	</g>
</g>
<g>
	<g>
		<rect x="335.6" y="153.4" class="st0" width="128.9" height="15.7"/>
	</g>
</g>
<g>
	<g>
		<rect x="335.6" y="185.9" class="st0" width="128.9" height="15.7"/>
	</g>
</g>
<g>
	<g>
		<rect x="335.6" y="218.4" class="st0" width="89.1" height="15.7"/>
	</g>
</g>
<g>
	<g>
		<path class="st0" d="M187.8,275.8c0,3.6-3,6.6-6.6,6.6h-14.4c-3.6,0-6.6-3-6.6-6.6h-15.7c0,12.3,10,22.3,22.3,22.3h14.4
			c12.3,0,22.3-10,22.3-22.3H187.8z"/>
	</g>
</g>
</svg>
