<?xml version="1.0" encoding="utf-8"?>
<!-- Generator: Adobe Illustrator 23.0.0, SVG Export Plug-In . SVG Version: 6.00 Build 0)  -->
<svg version="1.1" id="Слой_1" xmlns="http://www.w3.org/2000/svg" xmlns:xlink="http://www.w3.org/1999/xlink" x="0px" y="0px"
	 viewBox="0 0 512 512" style="enable-background:new 0 0 512 512;" xml:space="preserve">
<style type="text/css">
	.st0{fill:#00B9EE;}
</style>
<path class="st0" d="M159.4,318.9C71.5,318.9,0,247.4,0,159.4S71.5,0,159.4,0C234.6,0,299,52.1,315.1,124.8
	c12.4,2.4,27.9,1.8,39.9-9.8c3.1-3,7.8-3.7,11.6-1.7s5.9,6.2,5.3,10.5c-6.7,41.4-38,65.7-58.5,77.5c-8.8,32.5-28.1,61.8-54.5,82.9
	C230.3,306.9,196,318.9,159.4,318.9z M159.4,20C82.6,20,20,82.6,20,159.4s62.6,139.4,139.4,139.4c64.7,0,120.4-43.9,135.6-106.7
	c0.7-2.8,2.5-5.1,5-6.5c12.9-6.9,33.1-20.4,44.5-42.2c-12.2,3.5-26,3.3-40.6-0.8c-3.7-1-6.5-4.1-7.2-7.9
	C284.9,68.3,227.1,20,159.4,20z"/>
<path class="st0" d="M383.5,512c-29,0-57.5-9.9-80.1-28c-21.1-16.8-36.5-40.1-43.7-66c-16.7-9.7-41.4-29.3-46.7-62.5
	c-0.7-4.3,1.4-8.5,5.3-10.5c3.8-2,8.5-1.3,11.6,1.7c8.5,8.3,19.4,9,28.5,7.5c13.4-57.9,65-99.2,125.2-99.2
	c70.9,0,128.5,57.6,128.5,128.5S454.4,512,383.5,512z M240.9,374c9,14.4,22.9,23.7,32.1,28.6c2.5,1.3,4.4,3.7,5,6.5
	c11.8,48.9,55.1,83,105.5,83c59.8,0,108.5-48.7,108.5-108.5S443.3,275,383.5,275c-52.7,0-97.6,37.6-106.8,89.3
	c-0.7,3.8-3.5,6.9-7.2,7.9C259.4,375,249.7,375.6,240.9,374z"/>
<path class="st0" d="M341,394c-2.6,0-5.2-1.1-7.1-2.9s-2.9-4.4-2.9-7.1s1.1-5.2,2.9-7.1s4.4-2.9,7.1-2.9s5.2,1.1,7.1,2.9
	s2.9,4.4,2.9,7.1s-1.1,5.2-2.9,7.1S343.6,394,341,394z"/>
<path class="st0" d="M384,394c-2.6,0-5.2-1.1-7.1-2.9s-2.9-4.4-2.9-7.1s1.1-5.2,2.9-7.1s4.4-2.9,7.1-2.9s5.2,1.1,7.1,2.9
	s2.9,4.4,2.9,7.1s-1.1,5.2-2.9,7.1S386.6,394,384,394z"/>
<path class="st0" d="M427,394c-2.6,0-5.2-1.1-7.1-2.9s-2.9-4.4-2.9-7.1s1.1-5.2,2.9-7.1s4.4-2.9,7.1-2.9c2.6,0,5.2,1.1,7.1,2.9
	s2.9,4.4,2.9,7.1s-1.1,5.2-2.9,7.1S429.6,394,427,394z"/>
<path class="st0" d="M221.2,145H87c-5.5,0-10-4.5-10-10s4.5-10,10-10h134.2c5.5,0,10,4.5,10,10S226.7,145,221.2,145z"/>
<path class="st0" d="M176,193H87c-5.5,0-10-4.5-10-10s4.5-10,10-10h89c5.5,0,10,4.5,10,10S181.5,193,176,193z"/>
<path class="st0" d="M221.2,193c-2.6,0-5.2-1.1-7.1-2.9c-1.9-1.9-2.9-4.4-2.9-7.1s1.1-5.2,2.9-7.1c1.9-1.9,4.4-2.9,7.1-2.9
	c2.6,0,5.2,1.1,7.1,2.9s2.9,4.4,2.9,7.1s-1.1,5.2-2.9,7.1C226.4,191.9,223.8,193,221.2,193z"/>
</svg>
