<?xml version="1.0" encoding="utf-8"?>
<!-- Generator: Adobe Illustrator 23.0.0, SVG Export Plug-In . SVG Version: 6.00 Build 0)  -->
<svg version="1.1" id="Capa_1" xmlns="http://www.w3.org/2000/svg" xmlns:xlink="http://www.w3.org/1999/xlink" x="0px" y="0px"
	 viewBox="0 0 512 512" style="enable-background:new 0 0 512 512;" xml:space="preserve">
<style type="text/css">
	.st0{fill:#9B9FA6;}
</style>
<g>
	<g>
		<path class="st0" d="M426,0H187.9c-5.3,0-10.3,2.1-14,5.7L42,134.9c-3.9,3.8-6,9-6,14.3v313.4c0,27.2,22.4,49.4,50,49.4h340
			c27.6,0,50-22.2,50-49.4V49.4C476,22.2,453.6,0,426,0z M167.9,67.6v61.6H105L167.9,67.6z M436,462.6c0,5.2-4.5,9.4-10,9.4H86
			c-5.5,0-10-4.2-10-9.4V169.2h111.9c11,0,20-9,20-20V40H426c5.5,0,10,4.2,10,9.4V462.6z"/>
	</g>
</g>
</svg>
