<?xml version="1.0" encoding="utf-8"?>
<!-- Generator: Adobe Illustrator 23.0.0, SVG Export Plug-In . SVG Version: 6.00 Build 0)  -->
<svg version="1.1" id="Capa_1" xmlns="http://www.w3.org/2000/svg" xmlns:xlink="http://www.w3.org/1999/xlink" x="0px" y="0px"
	 viewBox="0 0 318.6 314.9" style="enable-background:new 0 0 318.6 314.9;" xml:space="preserve">
<style type="text/css">
	.st0{fill:#00BAF1;}
</style>
<g>
	<path class="st0" d="M51.4,49.2C81,19.5,116.9,4.7,159,4.7s78,14.8,107.6,44.5c29.6,29.7,44.5,65.5,44.5,107.6
		c0,42.1-14.8,78-44.5,107.6c-29.7,29.6-65.5,44.5-107.6,44.5s-78-14.8-107.6-44.5C21.7,234.8,6.9,198.9,6.9,156.8
		C6.9,114.7,21.7,78.8,51.4,49.2z M74.8,255.9l1.4,1.4c3.2,2.7,8.4,6.3,15.6,10.9c-11.3-11.3-16.1-29-14.3-53l2-16.3
		c0.4-0.9,0.1-2.1-1-3.7c-1.1-1.6-1.7-2.8-1.7-3.7c0-3.2-0.9-5.2-2.7-6.1c-0.9-0.9-1.8-1.8-2.7-2.7c-4.1-4.1-6.8-7.9-8.1-11.5
		c-3.6-7.7-1.4-17.4,6.8-29.2c2.3-3.6,1.8-7.9-1.4-12.9c-3.2-5-5-7.9-5.4-8.8c0-1.4-0.8-2.7-2.4-4.1c-1.6-1.4-2.2-2.7-1.7-4.1
		c0.4-2.3-0.5-3.6-2.7-4.1c-1.4-0.9-2.5-1.6-3.4-2c-3.2-1.8-4.5-4.9-4.1-9.2c0.4-4.3,0.2-7.1-0.7-8.5c-14.5,24-20.7,50-18.7,78.1
		c2,28.1,11.9,52.7,29.5,74l0.7,0.7v0.7h0.7c2.7,3.6,4.8,6.1,6.1,7.5c0.9,0.9,2.1,2,3.7,3.4c1.6,1.4,2.6,2.3,3.1,2.7L74.8,255.9z
		 M102.7,274.3l5.4,2.7c2.7,0.9,5,1.6,6.8,2c8.6,3.2,18.3,5.4,29.2,6.8c20.4,2.3,39.2,0.5,56.4-5.4c12.2-4.1,22-8.6,29.2-13.6
		c1.4-0.9,2.7-3.6,4.1-8.1c1.4-4.5,2.3-7.2,2.7-8.1c1.4-2.7,2.1-7.8,2.4-15.3c0.2-7.5,2.1-13,5.8-16.6c2.3-2.7,3.6-5.2,4.1-7.5
		c0.4-2.3,0.3-4.9-0.3-7.8c-0.7-2.9-1-5.5-1-7.8c0-1.4,0.7-4.3,2-8.8c1.4-4.5,1.6-8.1,0.7-10.9c0-0.9-0.9-1-2.7-0.3
		c-1.8,0.7-2.9,0.6-3.4-0.3c-0.9-1.4-2.6-2.1-5.1-2.4c-2.5-0.2-5.2-0.1-8.1,0.3c-2.9,0.5-4.9,0.7-5.8,0.7
		c-5.4-0.9-12.9-6.1-22.4-15.6c-1.4-1.4-1.1-7.2,0.7-17.7c0.4-1.4,0.9-4.5,1.4-9.5c0.4-5,1.5-8.7,3.1-11.2c1.6-2.5,4.4-4.2,8.5-5.1
		c1.4-0.4,2.6-1.7,3.7-3.7c1.1-2,2.1-3.3,3.1-3.7c1.4-0.4,3.1-0.9,5.1-1.4c2-0.4,3.7-0.9,5.1-1.4c2.3-0.4,5.3-0.3,9.2,0.3
		c3.8,0.7,6.7,1,8.5,1c3.2,0,8.1,2.5,14.9,7.5c1.4,1.4,2.8,2.2,4.4,2.4c1.6,0.2,3.4,0.3,5.4,0.3s3.7,0.2,5.1,0.7
		c1.8-0.4,1.4-2.3-1.4-5.4c-1.4-0.9-3.2-1.4-5.4-1.4c-4.1-0.9-8.6-4.2-13.6-9.8c-5-5.7-8.6-9.2-10.9-10.5c-3.2-1.8-5.7-1.8-7.5,0
		l0.7,8.1c0,0.5-2.9,1.6-8.8,3.4c-4.1,0.9-7.9-1.4-11.5-6.8c-2.3-4.1-1.8-6.8,1.4-8.1h2c0.9-0.4,1.8-0.8,2.7-1c0.9-0.2,2-0.6,3.4-1
		c1.4-0.4,2.5-0.9,3.4-1.4c0.9-0.4,1.8-1,2.7-1.7c0.9-0.7,1.6-1.5,2-2.4c0.4-0.9,0.4-1.8,0-2.7c-0.5-0.9-0.7-2.5-0.7-4.8
		c-0.5-2.7-1.4-4.3-2.7-4.8c-1.8-0.4-3.5-1.4-5.1-2.7c-1.6-1.4-3.3-2.3-5.1-2.7c-2.3-0.4-3.4-3.6-3.4-9.5c0-3.2,1.1-4.8,3.4-4.8
		c0.9,0,1.8,0,2.7,0c-11.3-7.2-24.2-12.7-38.7-16.3c-1.8,5.4-3.6,8.1-5.4,8.1c-3.2,0.9-5.2,1.6-6.1,2c-0.9,0.9-2,2.4-3.4,4.4
		s-2.5,3.5-3.4,4.4c-0.9,0.9-1.9,1.7-3.1,2.4c-1.1,0.7-2.3,0.5-3.4-0.7c-1.1-1.1-2.4-3.1-3.7-5.8c-0.9-2.7-0.8-6.1,0.3-10.2
		c1.1-4.1,1.5-7,1-8.8H159h-2c3.2,6.3,1.4,10.6-5.4,12.9c-1.8,0-3.7-0.6-5.8-1.7c-2-1.1-4-1.5-5.8-1c-0.9,0-2.2-0.3-3.7-1
		c-1.6-0.7-2.8-0.8-3.7-0.3c-5.9,2.7-9.1,5.4-9.5,8.1c-0.9,4.1-0.2,6.5,2,7.1c2.3,0.7,4.8-0.3,7.5-3.1c6.3-6.3,12-7.7,17-4.1
		c2.3,1.8,3.4,5,3.4,9.5c0,1.8-0.1,3.4-0.3,4.8c-0.2,1.4-0.8,2.8-1.7,4.4c-0.9,1.6-2.3,2.2-4.1,1.7c-0.5,0-1.3-0.3-2.4-1
		c-1.1-0.7-1.9-1.1-2.4-1.4c-0.5-0.2-1.4-0.1-2.7,0.3c-0.9,0.9-7.5,2.9-19.7,6.1c-2.7,0.5-6,1.5-9.8,3.1c-3.9,1.6-6.2,2.6-7.1,3.1
		c-5,1.8-7.7,4.5-8.1,8.1c0,6.3-0.7,9.7-2,10.2c-0.9,0.5-1.9-0.6-3.1-3.1c-1.1-2.5-2.7-5-4.8-7.5c-2-2.5-4.4-3.5-7.1-3.1
		c-4.5,0.5-8.8,2.6-12.9,6.5c-4.1,3.9-5.4,8-4.1,12.6c0.4,0.9,2.1,1.7,5.1,2.4c2.9,0.7,4.8,1.4,5.4,2c0.7,0.7-0.6,2.4-3.7,5.1
		c-0.5,0.9-0.6,2-0.3,3.4c0.2,1.4,0.6,3.3,1,5.8c0.4,2.5,0.7,4,0.7,4.4c0.4,3.2,2.3,5.7,5.4,7.5c3.2,1.8,6.1,1.6,8.8-0.7
		c2.3-2.3,5.4-2.7,9.5-1.4c17.7,9.5,27.8,15.6,30.6,18.3c0.9,0.9,2.6,4.1,5.1,9.5c2.5,5.4,4.6,8.6,6.5,9.5c0.4,0.5,3.1,1.6,7.8,3.4
		c4.8,1.8,8,3.9,9.8,6.1c1.8,2.7,1.9,5.5,0.3,8.5c-1.6,3-3.5,5.3-5.8,7.1c-0.9,0.5-2.7,3.6-5.4,9.5c-2.7,5.9-4.5,9.3-5.4,10.2
		c-0.9,1.4-4.5,3-10.9,4.8c-0.5,0-1.1,0.6-2,1.7c-0.9,1.1-1.7,2.3-2.4,3.4c-0.7,1.1-1.3,1.9-1.7,2.4c-0.9,0.9-2.5,2.9-4.8,6.1
		c-2.3,3.2-4.5,5.4-6.8,6.8c-10.4,7.2-14.5,17.2-12.2,29.9C96.5,268.8,99,272.5,102.7,274.3z M227.6,68.5c2.7,5.9,3.4,9.3,2,10.2
		c-0.9,0.9-2.4,1.1-4.4,0.7c-2-0.4-3.5-1.8-4.4-4.1c-0.5-1.4-0.7-2.7-0.7-4.1l-0.7-2h-2c-2.7,0.9-4.1,0-4.1-2.7
		c0.4-0.9,1.6-1.8,3.4-2.7c0-0.4-0.2-0.9-0.7-1.4c-0.5-2.7,0.2-3.8,2-3.4C221.7,59.9,224.9,63.1,227.6,68.5z"/>
</g>
</svg>
