<?xml version="1.0" encoding="utf-8"?>
<!-- Generator: Adobe Illustrator 23.0.0, SVG Export Plug-In . SVG Version: 6.00 Build 0)  -->
<svg version="1.1" id="Слой_1" xmlns="http://www.w3.org/2000/svg" xmlns:xlink="http://www.w3.org/1999/xlink" x="0px" y="0px"
	 viewBox="0 0 511 511" style="enable-background:new 0 0 511 511;" xml:space="preserve">
<style type="text/css">
	.st0{fill:#CCCFD5;}
</style>
<path class="st0" d="M0,340.6l49.9,24.9c49.6,116,183.3,175.9,303.5,132.1c31.5-11.5,59-29.9,82-51.5l2.6,29.7l29.8-2.6l-5.1-57.9
	c46.9-62.6,62.5-146.9,33.8-225.8c-26.8-73.7-86.3-127-156.1-148.1l24.7-15.9L348,1l-47.6,31.9c-36.3-4.5-75.2-0.9-111.9,12.5
	C73.5,87.3,9,209.7,36.4,326.2l-23.8-12.7L0,340.6z M198.8,73.5c23.6-8.6,47.7-12.6,71.5-12.6c8.5,0,17.9,0.9,26.2,1.9l32.3,46.1
	l24.5-17.2L340.1,73c57.4,20,105.9,65.4,128.3,126.8c25,68.8,11.5,142.4-29.3,197.1l-56.4,4.9l2.6,29.8l23.3-2
	c-18.8,16.4-40.7,29.8-65.5,38.8C238.3,506.6,120.4,455.3,77,353.9l23.9-51.2L73.8,290l-9.9,21.1C44.7,211.8,100.8,109.2,198.8,73.5
	z"/>
<path class="st0" d="M361.3,346.3c0-49.5-41.3-89.8-90.8-89.8s-89.8,40.3-89.8,89.8v29.9h180.7v-29.9H361.3z"/>
<path class="st0" d="M270.5,226.6c24.8,0,45.9-20.1,45.9-44.9s-21.1-45.9-45.9-45.9s-44.9,21.1-44.9,45.9S245.7,226.6,270.5,226.6z"
	/>
</svg>
