<?xml version="1.0" encoding="utf-8"?>
<!-- Generator: Adobe Illustrator 23.0.0, SVG Export Plug-In . SVG Version: 6.00 Build 0)  -->
<svg version="1.1" id="Capa_1" xmlns="http://www.w3.org/2000/svg" xmlns:xlink="http://www.w3.org/1999/xlink" x="0px" y="0px"
	 viewBox="0 0 354.6 314.9" style="enable-background:new 0 0 354.6 314.9;" xml:space="preserve">
<style type="text/css">
	.st0{fill:#00BAF1;}
</style>
<g>
	<path class="st0" d="M204.7,259.9H35.8V98.8h255.6v36.5l27.2-0.1V17.5c0-5-4.1-9.1-9.1-9.1H17.7c-5,0-9.1,4.1-9.1,9.1V278
		c0,5,4.1,9.1,9.1,9.1l186.8,0.3L204.7,259.9z M272.7,36.9c8.3,0,14.9,6.7,14.9,14.9c0,8.3-6.7,14.9-14.9,14.9
		c-8.3,0-14.9-6.7-14.9-14.9S264.4,36.9,272.7,36.9z M230,36.9c8.3,0,14.9,6.7,14.9,14.9c0,8.3-6.7,14.9-14.9,14.9
		c-8.3,0-14.9-6.7-14.9-14.9C215.1,43.6,221.8,36.9,230,36.9z M39.6,38.1h141.7v27.5H39.6V38.1z"/>
	<g>
		<path class="st0" d="M307.8,230.3c16.2,10.8,30.9,33,30.9,63.6h8c1.5,0,2.6,1.2,2.6,2.6v5.3c0,1.5-1.2,2.6-2.6,2.6H224.8
			c-1.5,0-2.6-1.2-2.6-2.6v-5.3c0-1.5,1.2-2.6,2.6-2.6h8c0-30.6,14.7-52.8,30.9-63.6c-16.2-10.8-30.9-33-30.9-63.6h-8
			c-1.5,0-2.6-1.2-2.6-2.6v-5.3c0-1.5,1.2-2.6,2.6-2.6h121.9c1.5,0,2.6,1.2,2.6,2.6v5.3c0,1.5-1.2,2.6-2.6,2.6h-8
			C338.7,197.3,324.1,219.5,307.8,230.3z M243.3,166.7c0,12.1,2.7,22.8,7,31.8h70.7c4.3-9,7-19.7,7-31.8H243.3z M295.3,235.6h-19
			c-11,4.5-22,15.8-28.2,31.8h75.4C317.3,251.4,306.3,240.1,295.3,235.6z"/>
	</g>
</g>
</svg>
