<?xml version="1.0" encoding="utf-8"?>
<!-- Generator: Adobe Illustrator 23.0.0, SVG Export Plug-In . SVG Version: 6.00 Build 0)  -->
<svg version="1.1" id="Capa_1" xmlns="http://www.w3.org/2000/svg" xmlns:xlink="http://www.w3.org/1999/xlink" x="0px" y="0px"
	 viewBox="0 0 354.6 314.9" style="enable-background:new 0 0 354.6 314.9;" xml:space="preserve">
<style type="text/css">
	.st0{fill:#00BAF1;}
</style>
<g>
	<path class="st0" d="M204.7,259.9H35.8V98.8h255.6v36.5l27.2-0.1V17.5c0-5-4.1-9.1-9.1-9.1H17.7c-5,0-9.1,4.1-9.1,9.1V278
		c0,5,4.1,9.1,9.1,9.1l186.8,0.3L204.7,259.9z M272.7,36.9c8.3,0,14.9,6.7,14.9,14.9c0,8.3-6.7,14.9-14.9,14.9
		c-8.3,0-14.9-6.7-14.9-14.9S264.4,36.9,272.7,36.9z M230,36.9c8.3,0,14.9,6.7,14.9,14.9c0,8.3-6.7,14.9-14.9,14.9
		c-8.3,0-14.9-6.7-14.9-14.9C215.1,43.6,221.8,36.9,230,36.9z M39.6,38.1h141.7v27.5H39.6V38.1z"/>
</g>
<g>
	<path class="st0" d="M342.8,246.9c-0.9,2.1-2.9,3.5-5.1,3.5h-33.2l17.5,41.4c1.2,2.9-0.2,6.1-3,7.3l-15.4,6.5
		c-2.9,1.2-6.1-0.2-7.3-3l-16.6-39.3l-27.1,27.1c-1,1-2.4,1.7-3.9,1.7c-0.7,0-1.5-0.2-2.1-0.4c-2.1-0.9-3.5-2.9-3.5-5.1V155.7
		c0-2.3,1.4-4.3,3.5-5.1c0.6-0.3,1.4-0.4,2.1-0.4c1.5,0,2.9,0.5,3.9,1.7l89.1,89.1C343.3,242.4,343.7,244.9,342.8,246.9z"/>
</g>
</svg>
