<?xml version="1.0" encoding="utf-8"?>
<!-- Generator: Adobe Illustrator 23.0.0, SVG Export Plug-In . SVG Version: 6.00 Build 0)  -->
<svg version="1.1" id="Capa_1" xmlns="http://www.w3.org/2000/svg" xmlns:xlink="http://www.w3.org/1999/xlink" x="0px" y="0px"
	 viewBox="0 0 512 444.2" style="enable-background:new 0 0 512 444.2;" xml:space="preserve">
<style type="text/css">
	.st0{fill:#0098F6;}
</style>
<g>
	<path class="st0" d="M482,0.3H30c-16.5,0-30,13.5-30,30v384c0,16.6,13.5,30,30,30h452c16.6,0,30-13.5,30-30v-384
		C512,13.8,498.5,0.3,482,0.3z M30,30.3h452v30.6H30V30.3L30,30.3z M30,414.3V91h452v323.3H30z"/>
	<path class="st0" d="M408,240.5l-62.1-49.2c-6.5-5.1-15.9-4.1-21.1,2.4c-5.1,6.5-4.1,15.9,2.4,21.1l47.2,37.4l-47.2,37.4
		c-6.5,5.1-7.6,14.6-2.4,21.1c3,3.7,7.3,5.7,11.8,5.7c3.3,0,6.6-1.1,9.3-3.2L408,264c3.6-2.8,5.7-7.2,5.7-11.8
		C413.7,247.7,411.6,243.4,408,240.5L408,240.5z"/>
	<path class="st0" d="M187.2,193.8c-5.1-6.5-14.6-7.6-21.1-2.4L104,240.5c-3.6,2.8-5.7,7.2-5.7,11.8s2.1,8.9,5.7,11.8l62.1,49.2
		c2.8,2.2,6,3.2,9.3,3.2c4.4,0,8.8-2,11.8-5.7c5.1-6.5,4.1-15.9-2.4-21.1l-47.3-37.4l47.2-37.4C191.2,209.7,192.3,200.3,187.2,193.8
		L187.2,193.8z"/>
	<path class="st0" d="M280.8,159.5c-8-2.1-16.2,2.7-18.4,10.7L221,326.7c-2.1,8,2.7,16.2,10.7,18.4c1.3,0.3,2.6,0.5,3.9,0.5
		c6.6,0,12.7-4.4,14.5-11.2l41.5-156.6C293.6,169.8,288.8,161.6,280.8,159.5L280.8,159.5z"/>
</g>
</svg>
