<?xml version="1.0" encoding="utf-8"?>
<!-- Generator: Adobe Illustrator 23.0.0, SVG Export Plug-In . SVG Version: 6.00 Build 0)  -->
<svg version="1.1" id="Слой_1" xmlns="http://www.w3.org/2000/svg" xmlns:xlink="http://www.w3.org/1999/xlink" x="0px" y="0px"
	 viewBox="0 0 504.45 196.05" style="enable-background:new 0 0 504.45 196.05;" xml:space="preserve">
<style type="text/css">
	.st0{fill-rule:evenodd;clip-rule:evenodd;fill:url(#SVGID_1_);}
	.st1{fill-rule:evenodd;clip-rule:evenodd;fill:url(#SVGID_2_);}
	.st2{fill-rule:evenodd;clip-rule:evenodd;fill:url(#SVGID_3_);}
	.st3{fill-rule:evenodd;clip-rule:evenodd;}
	.st4{fill-rule:evenodd;clip-rule:evenodd;fill:url(#SVGID_4_);}
	.st5{fill-rule:evenodd;clip-rule:evenodd;fill:url(#SVGID_5_);}
	.st6{fill-rule:evenodd;clip-rule:evenodd;fill:url(#SVGID_6_);}
	.st7{fill-rule:evenodd;clip-rule:evenodd;fill:url(#SVGID_7_);}
	.st8{fill-rule:evenodd;clip-rule:evenodd;fill:url(#SVGID_8_);}
	.st9{fill-rule:evenodd;clip-rule:evenodd;fill:url(#SVGID_9_);}
	.st10{fill-rule:evenodd;clip-rule:evenodd;fill:url(#SVGID_10_);}
	.st11{fill-rule:evenodd;clip-rule:evenodd;fill:url(#SVGID_11_);}
	.st12{fill-rule:evenodd;clip-rule:evenodd;fill:url(#SVGID_12_);}
	.st13{fill-rule:evenodd;clip-rule:evenodd;fill:url(#SVGID_13_);}
	.st14{fill-rule:evenodd;clip-rule:evenodd;fill:url(#SVGID_14_);}
	.st15{fill-rule:evenodd;clip-rule:evenodd;fill:url(#SVGID_15_);}
	.st16{fill-rule:evenodd;clip-rule:evenodd;fill:url(#SVGID_16_);}
	.st17{fill-rule:evenodd;clip-rule:evenodd;fill:url(#SVGID_17_);}
	.st18{fill-rule:evenodd;clip-rule:evenodd;fill:url(#SVGID_18_);}
	.st19{fill-rule:evenodd;clip-rule:evenodd;fill:url(#SVGID_19_);}
	.st20{fill-rule:evenodd;clip-rule:evenodd;fill:url(#SVGID_20_);}
	.st21{fill-rule:evenodd;clip-rule:evenodd;fill:url(#SVGID_21_);}
	.st22{fill-rule:evenodd;clip-rule:evenodd;fill:url(#SVGID_22_);}
	.st23{fill-rule:evenodd;clip-rule:evenodd;fill:url(#SVGID_23_);}
	.st24{fill-rule:evenodd;clip-rule:evenodd;fill:url(#SVGID_24_);}
	.st25{fill-rule:evenodd;clip-rule:evenodd;fill:url(#SVGID_25_);}
	.st26{fill:#FFFFFF;}
	.st27{stroke:url(#SVGID_26_);stroke-width:4;stroke-miterlimit:10;}
</style>
<g>
	<path d="M146.84,59.62v83.3h-18.92L94.83,97.7V99v1.3v0.07v1.72v11.94v0.46v0.61v1v18.83v0.52v0.32v0.96v6.19H80.11l-3.22-3.22
		l3.89-3.89l-8.2-8.2v-0.24h0l7.73-7.73L74.66,114l4.79-4.92l-5.78-5.85l-1.1,1.09v-1.7l1.95-1.95l-1.95-1.95v-2.63l1.71,1.73
		l4.59-4.59l-4.77-4.8l1.52-1.52l1.24-1.24l0.77-0.77l0.25-0.25l0,0l0.25-0.25l-4.09-4.09l4.18-4.18l-5.65-5.43v-4.24L74.12,68
		l1.77-1.77l0.93-0.93l0.09-0.09l0.73-0.73l0.73-0.73l-4.13-4.13h18.32l32.01,43.67V59.62H146.84L146.84,59.62z M79.06,67.76
		l-0.89,0.89l-0.62,0.62l3.16,3.16l3.16-3.16l-3.16-3.16L80,66.83l-0.6,0.6L79.06,67.76L79.06,67.76z M79.14,86.46l-0.57,0.57
		l-0.34,0.34l4.59,4.59l4.59-4.59l-4.59-4.59L79.8,85.8l-0.39,0.39L79.14,86.46L79.14,86.46z M90.12,96.87l0.49-0.49h0l0.49-0.49
		l-3.44-3.44l-3.44,3.44l3.44,3.44l1.18-1.18l0.67-0.67L90.12,96.87L90.12,96.87z M86.96,114.49l0.75-0.75l0.75-0.75l-4.57-4.57
		L79.32,113l4.57,4.57l1.46-1.46l1-1L86.96,114.49L86.96,114.49z M90.47,135.45l0.52-0.52l0.52-0.52l-4.59-4.59l-4.59,4.59
		l4.59,4.59l2.84-2.84l0.39-0.39L90.47,135.45z"/>
	<linearGradient id="SVGID_1_" gradientUnits="userSpaceOnUse" x1="56.6748" y1="93.2672" x2="62.987" y2="93.2672">
		<stop  offset="0" style="stop-color:#00AEE6"/>
		<stop  offset="1" style="stop-color:#00AEE6"/>
	</linearGradient>
	<polygon class="st0" points="56.67,93.27 59.83,90.11 62.99,93.27 59.83,96.42 	"/>
	<linearGradient id="SVGID_2_" gradientUnits="userSpaceOnUse" x1="65.2765" y1="68.5047" x2="70.0107" y2="68.5047">
		<stop  offset="0" style="stop-color:#00AEE6"/>
		<stop  offset="1" style="stop-color:#00AEE6"/>
	</linearGradient>
	<polygon class="st1" points="65.28,68.5 67.64,66.14 70.01,68.5 67.64,70.87 	"/>
	<linearGradient id="SVGID_3_" gradientUnits="userSpaceOnUse" x1="45.1109" y1="67.2276" x2="47.7737" y2="67.2276">
		<stop  offset="0" style="stop-color:#00AEE6"/>
		<stop  offset="1" style="stop-color:#00AEE6"/>
	</linearGradient>
	<polygon class="st2" points="45.11,67.23 46.44,65.9 47.77,67.23 46.44,68.56 	"/>
	
		<rect x="70.38" y="104.35" transform="matrix(0.7071 -0.7071 0.7071 0.7071 -54.5107 83.5622)" class="st3" width="6.47" height="6.47"/>
	<linearGradient id="SVGID_4_" gradientUnits="userSpaceOnUse" x1="78.1396" y1="111.8432" x2="87.3221" y2="111.8432">
		<stop  offset="0" style="stop-color:#00AEE6"/>
		<stop  offset="1" style="stop-color:#00AEE6"/>
	</linearGradient>
	<polygon class="st4" points="78.14,111.84 82.73,107.25 87.32,111.84 82.73,116.43 	"/>
	<linearGradient id="SVGID_5_" gradientUnits="userSpaceOnUse" x1="61.3282" y1="116.0799" x2="70.5107" y2="116.0799">
		<stop  offset="0" style="stop-color:#00AEE6"/>
		<stop  offset="1" style="stop-color:#00AEE6"/>
	</linearGradient>
	<polygon class="st5" points="61.33,116.08 65.92,111.49 70.51,116.08 65.92,120.67 	"/>
	<linearGradient id="SVGID_6_" gradientUnits="userSpaceOnUse" x1="52.7828" y1="83.553" x2="57.517" y2="83.553">
		<stop  offset="0" style="stop-color:#00AEE6"/>
		<stop  offset="1" style="stop-color:#00AEE6"/>
	</linearGradient>
	<polygon class="st6" points="52.78,83.55 55.15,81.19 57.52,83.55 55.15,85.92 	"/>
	<linearGradient id="SVGID_7_" gradientUnits="userSpaceOnUse" x1="58.0306" y1="69.3648" x2="62.7648" y2="69.3648">
		<stop  offset="0" style="stop-color:#00AEE6"/>
		<stop  offset="1" style="stop-color:#00AEE6"/>
	</linearGradient>
	<polygon class="st7" points="58.03,69.36 60.4,67 62.76,69.36 60.4,71.73 	"/>
	<linearGradient id="SVGID_8_" gradientUnits="userSpaceOnUse" x1="46.0369" y1="73.2529" x2="48.6998" y2="73.2529">
		<stop  offset="0" style="stop-color:#00AEE6"/>
		<stop  offset="1" style="stop-color:#00AEE6"/>
	</linearGradient>
	<polygon class="st8" points="46.04,73.25 47.37,71.92 48.7,73.25 47.37,74.58 	"/>
	<linearGradient id="SVGID_9_" gradientUnits="userSpaceOnUse" x1="50.5389" y1="61.161" x2="53.2018" y2="61.161">
		<stop  offset="0" style="stop-color:#00AEE6"/>
		<stop  offset="1" style="stop-color:#00AEE6"/>
	</linearGradient>
	<polygon class="st9" points="50.54,61.16 51.87,59.83 53.2,61.16 51.87,62.49 	"/>
	<linearGradient id="SVGID_10_" gradientUnits="userSpaceOnUse" x1="61.0756" y1="62.6298" x2="63.7385" y2="62.6298">
		<stop  offset="0" style="stop-color:#00AEE6"/>
		<stop  offset="1" style="stop-color:#00AEE6"/>
	</linearGradient>
	<polygon class="st10" points="61.08,62.63 62.41,61.3 63.74,62.63 62.41,63.96 	"/>
	<linearGradient id="SVGID_11_" gradientUnits="userSpaceOnUse" x1="68.0888" y1="91.5877" x2="77.2716" y2="91.5877">
		<stop  offset="0" style="stop-color:#00AEE6"/>
		<stop  offset="1" style="stop-color:#00AEE6"/>
	</linearGradient>
	<polygon class="st11" points="68.09,91.59 72.68,87 77.27,91.59 72.68,96.18 	"/>
	<linearGradient id="SVGID_12_" gradientUnits="userSpaceOnUse" x1="45.4893" y1="62.0739" x2="47.3505" y2="62.0739">
		<stop  offset="0" style="stop-color:#00AEE6"/>
		<stop  offset="1" style="stop-color:#00AEE6"/>
	</linearGradient>
	<polygon class="st12" points="45.49,62.07 46.42,61.14 47.35,62.07 46.42,63 	"/>
	<g>
		<linearGradient id="SVGID_13_" gradientUnits="userSpaceOnUse" x1="90.1706" y1="131.8578" x2="46.6752" y2="95.3608">
			<stop  offset="0" style="stop-color:#010000"/>
			<stop  offset="1" style="stop-color:#010000"/>
		</linearGradient>
		<polygon class="st13" points="58.12,107.65 61.32,104.45 64.52,107.65 61.32,110.85 		"/>
		<linearGradient id="SVGID_14_" gradientUnits="userSpaceOnUse" x1="96.258" y1="110.5012" x2="53.8101" y2="74.8832">
			<stop  offset="0" style="stop-color:#010000"/>
			<stop  offset="1" style="stop-color:#010000"/>
		</linearGradient>
		<polygon class="st14" points="60.35,84.22 64.94,79.63 69.53,84.22 64.94,88.82 		"/>
		<linearGradient id="SVGID_15_" gradientUnits="userSpaceOnUse" x1="89.2192" y1="100.6319" x2="46.9251" y2="65.1429">
			<stop  offset="0" style="stop-color:#010000"/>
			<stop  offset="1" style="stop-color:#010000"/>
		</linearGradient>
		<polygon class="st15" points="58.76,77.06 61.13,74.69 63.5,77.06 61.13,79.43 		"/>
		<linearGradient id="SVGID_16_" gradientUnits="userSpaceOnUse" x1="80.8285" y1="120.8454" x2="37.7206" y2="84.6736">
			<stop  offset="0" style="stop-color:#010000"/>
			<stop  offset="1" style="stop-color:#010000"/>
		</linearGradient>
		<polygon class="st16" points="53.94,100.27 56.31,97.91 58.68,100.27 56.31,102.64 		"/>
		<linearGradient id="SVGID_17_" gradientUnits="userSpaceOnUse" x1="98.4516" y1="152.7354" x2="54.6057" y2="115.9443">
			<stop  offset="0" style="stop-color:#010000"/>
			<stop  offset="1" style="stop-color:#010000"/>
		</linearGradient>
		<polygon class="st17" points="63.39,125.31 65.76,122.94 68.13,125.31 65.76,127.67 		"/>
		<linearGradient id="SVGID_18_" gradientUnits="userSpaceOnUse" x1="76.3954" y1="93.722" x2="34.1013" y2="58.233">
			<stop  offset="0" style="stop-color:#010000"/>
			<stop  offset="1" style="stop-color:#010000"/>
		</linearGradient>
		<polygon class="st18" points="51.74,75.02 54.11,72.65 56.47,75.02 54.11,77.39 		"/>
		<linearGradient id="SVGID_19_" gradientUnits="userSpaceOnUse" x1="72.0321" y1="84.5676" x2="29.7389" y2="49.0795">
			<stop  offset="0" style="stop-color:#010000"/>
			<stop  offset="1" style="stop-color:#010000"/>
		</linearGradient>
		<polygon class="st19" points="50.38,67.52 51.72,66.19 53.05,67.52 51.72,68.85 		"/>
		<linearGradient id="SVGID_20_" gradientUnits="userSpaceOnUse" x1="80.8635" y1="85.107" x2="38.5673" y2="49.6163">
			<stop  offset="0" style="stop-color:#010000"/>
			<stop  offset="1" style="stop-color:#010000"/>
		</linearGradient>
		<polygon class="st20" points="55.22,64.71 56.55,63.38 57.88,64.71 56.55,66.04 		"/>
		<linearGradient id="SVGID_21_" gradientUnits="userSpaceOnUse" x1="74.5651" y1="108.3288" x2="31.269" y2="71.999">
			<stop  offset="0" style="stop-color:#010000"/>
			<stop  offset="1" style="stop-color:#010000"/>
		</linearGradient>
		<polygon class="st21" points="51.05,90.09 52.83,88.31 54.6,90.09 52.83,91.86 		"/>
		<linearGradient id="SVGID_22_" gradientUnits="userSpaceOnUse" x1="68.0037" y1="94.6256" x2="25.7059" y2="59.1336">
			<stop  offset="0" style="stop-color:#010000"/>
			<stop  offset="1" style="stop-color:#010000"/>
		</linearGradient>
		<polygon class="st22" points="47.73,79.11 49.51,77.33 51.28,79.11 49.51,80.88 		"/>
		<linearGradient id="SVGID_23_" gradientUnits="userSpaceOnUse" x1="98.2092" y1="126.4427" x2="55.8245" y2="90.8777">
			<stop  offset="0" style="stop-color:#010000"/>
			<stop  offset="1" style="stop-color:#010000"/>
		</linearGradient>
		<polygon class="st23" points="62.11,99.44 66.03,95.53 69.94,99.44 66.03,103.35 		"/>
		<linearGradient id="SVGID_24_" gradientUnits="userSpaceOnUse" x1="84.3433" y1="82.3538" x2="42.0421" y2="46.8589">
			<stop  offset="0" style="stop-color:#010000"/>
			<stop  offset="1" style="stop-color:#010000"/>
		</linearGradient>
		<polygon class="st24" points="57.65,60.63 58.46,59.83 59.26,60.63 58.46,61.44 		"/>
	</g>
	<linearGradient id="SVGID_25_" gradientUnits="userSpaceOnUse" x1="66.3489" y1="131.0972" x2="77.6926" y2="131.0972">
		<stop  offset="0" style="stop-color:#00AEE6"/>
		<stop  offset="1" style="stop-color:#00AEE6"/>
	</linearGradient>
	<polygon class="st25" points="66.35,131.1 72.02,125.43 77.69,131.1 72.02,136.77 	"/>
	
		<rect x="69.94" y="61.93" transform="matrix(0.7071 -0.7071 0.7071 0.7071 -24.0019 69.2688)" class="st3" width="3.35" height="3.35"/>
	
		<rect x="68.38" y="70.81" transform="matrix(0.7071 -0.7071 0.7071 0.7071 -31.4069 72.3873)" class="st3" width="6.59" height="6.59"/>
</g>
<g>
	<path d="M226.32,111.06c0,0.95-0.04,1.9-0.12,2.85c-0.08,0.95-0.2,1.94-0.36,2.97h-47.67c0.71,3.73,2.2,6.52,4.46,8.38
		c2.26,1.86,5.13,2.79,8.62,2.79c2.62,0,4.93-0.53,6.95-1.6c2.02-1.07,3.58-2.56,4.7-4.46h21.99c-1.11,3.65-2.73,6.95-4.87,9.93
		c-2.14,2.97-4.66,5.49-7.55,7.55c-2.89,2.06-6.14,3.65-9.75,4.76c-3.61,1.11-7.43,1.66-11.47,1.66c-4.99,0-9.61-0.87-13.85-2.62
		c-4.24-1.74-7.93-4.14-11.06-7.19c-3.13-3.05-5.57-6.66-7.31-10.82c-1.74-4.16-2.62-8.7-2.62-13.61c0-4.91,0.87-9.47,2.62-13.67
		c1.74-4.2,4.16-7.83,7.25-10.88c3.09-3.05,6.78-5.43,11.06-7.13c4.28-1.7,8.92-2.56,13.91-2.56c5.15,0,9.89,0.87,14.21,2.62
		c4.32,1.74,8.02,4.12,11.12,7.13c3.09,3.01,5.49,6.56,7.19,10.64C225.46,101.89,226.32,106.3,226.32,111.06z M191.24,94.77
		c-3.25,0-5.96,0.83-8.14,2.5c-2.18,1.66-3.71,4.12-4.58,7.37h26.04C202.5,98.06,198.06,94.77,191.24,94.77z"/>
	<rect x="236.42" y="79.55" width="22.11" height="64.2"/>
	<path d="M314.17,79.2v20.33h-8.56c-3.96,0-6.8,0.91-8.5,2.73c-1.71,1.82-2.56,4.76-2.56,8.8v32.69h-22.11v-64.2h14.74l3.45,7.13
		c2.3-2.62,4.87-4.52,7.73-5.71c2.85-1.19,6.18-1.78,9.99-1.78H314.17z"/>
	<path d="M353.7,145.89c-5.22,0-10.03-0.85-14.42-2.56c-4.39-1.7-8.19-4.08-11.39-7.13c-3.21-3.05-5.7-6.66-7.48-10.82
		c-1.78-4.16-2.67-8.74-2.67-13.73s0.89-9.57,2.67-13.73c1.78-4.16,4.27-7.77,7.48-10.82c3.2-3.05,7-5.43,11.39-7.13
		c4.39-1.7,9.2-2.56,14.42-2.56c5.22,0,10.03,0.85,14.42,2.56c4.39,1.71,8.19,4.08,11.39,7.13c3.2,3.05,5.7,6.66,7.48,10.82
		c1.78,4.16,2.67,8.74,2.67,13.73s-0.89,9.57-2.67,13.73c-1.78,4.16-4.27,7.77-7.48,10.82c-3.21,3.05-7,5.43-11.39,7.13
		C363.73,145.04,358.92,145.89,353.7,145.89z M353.76,126.04c4.04,0,7.35-1.33,9.93-3.98c2.58-2.65,3.86-6.12,3.86-10.4
		s-1.29-7.75-3.86-10.4c-2.58-2.65-5.88-3.98-9.93-3.98s-7.37,1.33-9.99,3.98c-2.62,2.66-3.92,6.12-3.92,10.4s1.31,7.75,3.92,10.4
		C346.39,124.71,349.72,126.04,353.76,126.04z"/>
	<path d="M424.73,145.89c-4.36,0-8.28-0.56-11.77-1.66c-3.49-1.11-6.44-2.67-8.86-4.7c-2.42-2.02-4.3-4.46-5.65-7.31
		c-1.35-2.85-2.02-6.02-2.02-9.51h21.28c0,2.3,0.71,4.02,2.14,5.17c1.43,1.15,3.17,1.72,5.23,1.72c1.66,0,3.13-0.42,4.4-1.25
		c1.27-0.83,1.9-2.08,1.9-3.74c0-1.82-1.07-3.11-3.21-3.86c-2.14-0.75-4.72-1.41-7.73-1.96c-2.46-0.4-5.05-0.93-7.79-1.6
		c-2.73-0.67-5.25-1.74-7.55-3.21c-2.3-1.47-4.18-3.43-5.65-5.88c-1.47-2.46-2.2-5.63-2.2-9.51c0-3.25,0.65-6.16,1.96-8.74
		c1.31-2.57,3.15-4.79,5.53-6.66c2.38-1.86,5.25-3.29,8.62-4.28c3.37-0.99,7.11-1.49,11.23-1.49c4.12,0,7.85,0.52,11.17,1.55
		c3.33,1.03,6.16,2.5,8.5,4.4c2.34,1.9,4.16,4.2,5.47,6.9c1.31,2.7,2,5.67,2.08,8.92h-20.69c0-2.06-0.62-3.58-1.84-4.58
		c-1.23-0.99-2.87-1.49-4.93-1.49c-1.82,0-3.27,0.42-4.34,1.25c-1.07,0.83-1.6,2-1.6,3.51c0,1.82,1.09,3.07,3.27,3.74
		c2.18,0.67,4.77,1.29,7.79,1.84c2.54,0.48,5.19,1.03,7.97,1.66c2.77,0.64,5.33,1.65,7.67,3.03c2.34,1.39,4.26,3.31,5.77,5.77
		c1.5,2.46,2.26,5.71,2.26,9.75c0,3.33-0.67,6.36-2.02,9.09c-1.35,2.73-3.27,5.07-5.77,7.01c-2.5,1.94-5.49,3.45-8.98,4.52
		C432.89,145.36,429.01,145.89,424.73,145.89z"/>
</g>
<rect x="228.33" y="45.33" class="st26" width="40.88" height="31.13"/>
<linearGradient id="SVGID_26_" gradientUnits="userSpaceOnUse" x1="234.3285" y1="61.0625" x2="260.4066" y2="61.0625">
	<stop  offset="0" style="stop-color:#00AEE6"/>
	<stop  offset="1" style="stop-color:#00AEE6"/>
</linearGradient>
<circle class="st27" cx="247.37" cy="61.06" r="11.04"/>
</svg>
