<?xml version="1.0" encoding="utf-8"?>
<!-- Generator: Adobe Illustrator 23.0.0, SVG Export Plug-In . SVG Version: 6.00 Build 0)  -->
<svg version="1.1" id="Capa_1" xmlns="http://www.w3.org/2000/svg" xmlns:xlink="http://www.w3.org/1999/xlink" x="0px" y="0px"
	 viewBox="0 0 512 512" style="enable-background:new 0 0 512 512;" xml:space="preserve">
<style type="text/css">
	.st0{fill:#0098F6;}
</style>
<g>
	<path class="st0" d="M503.2,186.8l-25-25c-11.7-11.7-30.7-11.7-42.4,0L383,214.5V45c0-24.8-20.2-45-45-45H45C20.2,0,0,20.2,0,45
		v422c0,24.8,20.2,45,45,45h293c24.8,0,45-20.2,45-45V348l120.2-118.7C514.9,217.6,514.9,198.5,503.2,186.8L503.2,186.8z
		 M323.8,364.3l-45.1,21.1l21-45.1l112-112l24.8,24.8L323.8,364.3z M353,467c0,8.3-6.7,15-15,15H45c-8.3,0-15-6.7-15-15V45
		c0-8.3,6.7-15,15-15h293c8.3,0,15,6.7,15,15v199.5c-83.2,83.2-77.7,77.2-79.3,80.6L234.1,410c-2.7,5.7-1.5,12.5,3,17
		c4.5,4.5,11.2,5.7,16.9,3l84.9-39.6c3.1-1.5,3.6-2.4,14.1-12.7V467z M457.8,231.9L432.9,207l24-24l25,25L457.8,231.9z"/>
	<path class="st0" d="M80,127h224c8.3,0,15-6.7,15-15s-6.7-15-15-15H80c-8.3,0-15,6.7-15,15S71.7,127,80,127L80,127z"/>
	<path class="st0" d="M80,207h176c8.3,0,15-6.7,15-15s-6.7-15-15-15H80c-8.3,0-15,6.7-15,15S71.7,207,80,207L80,207z"/>
	<path class="st0" d="M208,257H80c-8.3,0-15,6.7-15,15s6.7,15,15,15h128c8.3,0,15-6.7,15-15S216.3,257,208,257z"/>
</g>
</svg>
