<?xml version="1.0" encoding="utf-8"?>
<!-- Generator: Adobe Illustrator 23.0.0, SVG Export Plug-In . SVG Version: 6.00 Build 0)  -->
<svg version="1.1" id="Capa_1" xmlns="http://www.w3.org/2000/svg" xmlns:xlink="http://www.w3.org/1999/xlink" x="0px" y="0px"
	 viewBox="0 0 512 512" style="enable-background:new 0 0 512 512;" xml:space="preserve">
<style type="text/css">
	.st0{fill:#0098F6;}
</style>
<g>
	<g>
		<path class="st0" d="M396,0H116C91.2,0,71,20.2,71,45v422c0,24.8,20.2,45,45,45h280c24.8,0,45-20.2,45-45V45
			C441,20.2,420.8,0,396,0z M411,467c0,8.3-6.7,15-15,15H116c-8.3,0-15-6.7-15-15v-73.7h310V467z M411,363.3H101v-270h310V363.3z
			 M411,63.3H101V45c0-8.3,6.7-15,15-15h280c8.3,0,15,6.7,15,15V63.3z"/>
	</g>
</g>
<g>
	<g>
		<path class="st0" d="M338.1,169.6c-5.9-5.9-15.4-5.9-21.2,0l-85.5,85.5l-36.3-36.3c-5.9-5.9-15.4-5.9-21.2,0
			c-5.9,5.9-5.9,15.4,0,21.2l46.9,46.9c5.9,5.9,15.4,5.9,21.2,0l96.1-96.1C344,185,344,175.5,338.1,169.6z"/>
	</g>
</g>
<g>
	<g>
		<path class="st0" d="M296,422.6h-80c-8.3,0-15,6.7-15,15s6.7,15,15,15h80c8.3,0,15-6.7,15-15S304.3,422.6,296,422.6z"/>
	</g>
</g>
</svg>
