<?xml version="1.0" encoding="utf-8"?>
<!-- Generator: Adobe Illustrator 23.0.0, SVG Export Plug-In . SVG Version: 6.00 Build 0)  -->
<svg version="1.1" id="Слой_1" xmlns="http://www.w3.org/2000/svg" xmlns:xlink="http://www.w3.org/1999/xlink" x="0px" y="0px"
	 viewBox="0 0 569 569" style="enable-background:new 0 0 569 569;" xml:space="preserve">
<style type="text/css">
	.st0{fill:#575757;}
	.st1{fill:#29B6F6;}
</style>
<path class="st0" d="M66.3,322.6h37.9v66.4c0,5.2,4.2,9.5,9.5,9.5c2.5,0,4.9-1,6.7-2.8l73.1-73.1h15v-19h-19c-2.5,0-4.9,1-6.7,2.8
	L123.2,366v-52.9c0-5.2-4.2-9.5-9.5-9.5H66.3c-26.2,0-47.4-21.2-47.4-47.4V66.6c0-26.2,21.2-47.4,47.4-47.4h303.3
	c26.2,0,47.4,21.2,47.4,47.4v142.2h19V66.6c0-36.6-29.7-66.3-66.4-66.3H66.3C29.7,0.3,0,30,0,66.6v189.6
	C0,292.8,29.7,322.5,66.3,322.6z"/>
<path class="st0" d="M502.4,227.8H293.8c-36.6,0-66.3,29.7-66.4,66.3v132.7c0,36.6,29.7,66.3,66.4,66.4h100.3l73,73
	c3.7,3.7,9.7,3.7,13.4,0c1.8-1.8,2.8-4.2,2.8-6.7v-66.3h19c36.6,0,66.3-29.7,66.3-66.4V294.1C568.7,257.5,539,227.8,502.4,227.8z
	 M549.8,426.8c0,26.2-21.2,47.4-47.4,47.4h-28.4c-5.2,0-9.5,4.2-9.5,9.5v52.9L404.8,477c-1.8-1.8-4.2-2.8-6.7-2.8H293.8
	c-26.2,0-47.4-21.2-47.4-47.4V294.1c0-26.2,21.2-47.4,47.4-47.4h208.5c26.2,0,47.4,21.2,47.4,47.4L549.8,426.8L549.8,426.8z"/>
<path class="st1" d="M75.8,76.1h189.6v19H75.8V76.1z"/>
<path class="st1" d="M303.3,76.1h56.9v19h-56.9V76.1z"/>
<path class="st1" d="M75.8,133h284.4v19H75.8V133z"/>
<path class="st1" d="M208.5,189.9h151.7v19H208.5V189.9z"/>
<path class="st1" d="M75.8,189.9h94.8v19H75.8V189.9z"/>
<path class="st1" d="M75.8,246.7h132.7v19H75.8V246.7z"/>
<path class="st1" d="M284.4,294.1h132.7v19H284.4V294.1z"/>
<path class="st1" d="M455,294.1h56.9v19H455V294.1z"/>
<path class="st1" d="M284.4,351h227.5v19H284.4V351z"/>
<path class="st1" d="M284.4,407.9h227.5v19H284.4V407.9z"/>
</svg>
