<?xml version="1.0" encoding="utf-8"?>
<!-- Generator: Adobe Illustrator 23.0.0, SVG Export Plug-In . SVG Version: 6.00 Build 0)  -->
<svg version="1.1" id="Режим_изоляции"
	 xmlns="http://www.w3.org/2000/svg" xmlns:xlink="http://www.w3.org/1999/xlink" x="0px" y="0px" viewBox="0 0 52.3 52.3"
	 style="enable-background:new 0 0 52.3 52.3;" xml:space="preserve">
<style type="text/css">
	.st0{fill:#BAB9BA;}
</style>
<g>
	<g>
		<path class="st0" d="M26.5,2.3c-13.2,0-24,10.8-24,24c0,4.2,1.1,8.4,3.2,12l-3.2,11c-0.1,0.3,0,0.5,0.2,0.7
			c0.1,0.1,0.3,0.2,0.5,0.2c0.1,0,0.1,0,0.2,0l11-3.2c3.7,2.1,7.8,3.2,12,3.2c13.2,0,24-10.8,24-24C50.5,13.1,39.7,2.3,26.5,2.3z
			 M26.5,48.9c-4.1,0-8.1-1.1-11.6-3.2c-0.1-0.1-0.2-0.1-0.4-0.1c-0.1,0-0.1,0-0.2,0l-10,2.9l2.9-10c0.1-0.2,0-0.4-0.1-0.6
			C5,34.4,3.9,30.4,3.9,26.3C3.9,13.9,14,3.8,26.5,3.8C38.9,3.8,49,13.9,49,26.3C49,38.8,38.9,48.9,26.5,48.9z"/>
	</g>
	<g>
		<path class="st0" d="M27,30.2c1.3-0.9,2.4-2,3.3-3.3c0.2-0.3,0.2-0.6,0-0.9l-2.5-3.4c0.1-0.2,0.1-0.3,0.2-0.5l4.2-0.7
			c0.3,0,0.6-0.3,0.6-0.6c0.1-0.8,0.2-1.6,0.2-2.3s-0.1-1.5-0.2-2.3c-0.1-0.3-0.3-0.6-0.6-0.6L28,15c-0.1-0.2-0.1-0.3-0.2-0.5
			l2.5-3.4c0.2-0.3,0.2-0.6,0-0.9C29.4,9,28.3,7.9,27,7c-0.3-0.2-0.6-0.2-0.9,0l-3.4,2.5c-0.2-0.1-0.3-0.1-0.5-0.2l-0.5-2.8
			c-0.1-0.4-0.4-0.7-0.8-0.6c-0.4,0.1-0.7,0.4-0.6,0.8l0.5,3.2c0,0.3,0.2,0.5,0.5,0.6c0.4,0.1,0.7,0.3,1.1,0.5
			c0.2,0.1,0.5,0.1,0.8-0.1l3.4-2.4c0.8,0.6,1.6,1.4,2.2,2.2L26.4,14c-0.2,0.2-0.2,0.5-0.1,0.8c0.2,0.4,0.3,0.7,0.5,1.1
			c0.1,0.3,0.3,0.4,0.6,0.5l4.1,0.7c0.1,0.5,0.1,1.1,0.1,1.6s0,1-0.1,1.6l-4.1,0.7c-0.3,0-0.5,0.2-0.6,0.5c-0.1,0.4-0.3,0.7-0.5,1.1
			c-0.1,0.2-0.1,0.5,0.1,0.8l2.4,3.4c-0.6,0.8-1.4,1.6-2.2,2.2l-3.4-2.4c-0.2-0.2-0.5-0.2-0.8-0.1c-0.3,0.2-0.7,0.3-1.1,0.5
			c-0.3,0.1-0.4,0.3-0.5,0.6l-0.7,4.1c-1,0.1-2.1,0.1-3.1,0l-0.7-4.1c0-0.3-0.2-0.5-0.5-0.6c-0.4-0.1-0.8-0.3-1.1-0.5
			c-0.2-0.1-0.5-0.1-0.8,0.1l-3.4,2.4c-0.8-0.6-1.6-1.4-2.2-2.2l2.4-3.4c0.2-0.2,0.2-0.5,0.1-0.8c-0.2-0.4-0.3-0.7-0.5-1.1
			c-0.1-0.3-0.3-0.4-0.6-0.5l-3.2-0.5c-0.4-0.1-0.8,0.2-0.8,0.6c-0.1,0.4,0.2,0.8,0.6,0.8l2.7,0.4c0.1,0.2,0.1,0.3,0.2,0.5l-2.5,3.4
			c-0.2,0.3-0.2,0.6,0,0.9c0.9,1.3,2,2.4,3.3,3.3c0.3,0.2,0.6,0.2,0.9,0l3.4-2.5c0.1,0.1,0.3,0.1,0.5,0.2l0.7,4.2
			c0,0.3,0.3,0.6,0.6,0.6c0.8,0.1,1.5,0.2,2.3,0.2c0.8,0,1.6-0.1,2.3-0.2c0.3-0.1,0.6-0.3,0.6-0.6l0.7-4.2c0.2-0.1,0.3-0.1,0.5-0.2
			l3.4,2.5C26.4,30.4,26.8,30.4,27,30.2z"/>
	</g>
	<g>
		<path class="st0" d="M18.7,22.9c2.4,0,4.3-1.9,4.3-4.3c0-2.4-1.9-4.3-4.3-4.3c-2.4,0-4.3,1.9-4.3,4.3C14.4,21,16.3,22.9,18.7,22.9
			z M18.7,15.7c1.6,0,2.9,1.3,2.9,2.9c0,1.6-1.3,2.9-2.9,2.9c-1.6,0-2.9-1.3-2.9-2.9C15.8,17,17.1,15.7,18.7,15.7z"/>
	</g>
	<g>
		<path class="st0" d="M40,35.6c-2.4,0-4.3,1.9-4.3,4.3c0,1.6,0.9,3,2.2,3.8c0.1,0.1,0.2,0.1,0.3,0.1c0.3,0,0.5-0.1,0.6-0.4
			c0.2-0.4,0.1-0.8-0.3-1c-0.9-0.5-1.5-1.5-1.5-2.5c0-1.6,1.3-2.9,2.9-2.9c1,0,2,0.6,2.5,1.5c0.2,0.3,0.6,0.5,1,0.3
			c0.4-0.2,0.5-0.6,0.3-1C43,36.4,41.6,35.6,40,35.6z"/>
	</g>
	<g>
		<path class="st0" d="M47.6,27.7c-0.7-0.4-1.4-0.8-2.1-1.1c-0.7-0.3-1.5-0.5-2.2-0.7c-0.3-0.1-0.6,0.1-0.8,0.3l-2.2,3.6
			c-0.2,0-0.3,0-0.5,0l-2.2-3.6c-0.2-0.3-0.5-0.4-0.8-0.3c-1.5,0.4-3,1-4.3,1.8c-0.3,0.2-0.4,0.5-0.3,0.8l1,4.1
			c-0.1,0.1-0.2,0.2-0.4,0.4l-4.1-1c-0.3-0.1-0.6,0.1-0.8,0.3c-0.4,0.7-0.8,1.4-1.1,2.1c-0.3,0.7-0.5,1.5-0.7,2.2
			c-0.1,0.3,0.1,0.6,0.3,0.8l3.6,2.2c0,0.2,0,0.3,0,0.5l-3.6,2.2c-0.3,0.2-0.4,0.5-0.3,0.8c0.4,1.5,1,3,1.8,4.3
			c0.1,0.2,0.4,0.3,0.6,0.3c0.1,0,0.3,0,0.4-0.1c0.3-0.2,0.4-0.7,0.2-1c-0.6-1-1.1-2.2-1.5-3.3l3.5-2.2c0.2-0.1,0.4-0.4,0.3-0.7
			c0-0.4,0-0.8,0-1.2c0-0.3-0.1-0.5-0.3-0.7l-3.5-2.2c0.1-0.5,0.3-1,0.5-1.5c0.2-0.5,0.4-1,0.7-1.4l4,1c0.3,0.1,0.5,0,0.7-0.2
			c0.2-0.3,0.5-0.6,0.8-0.8c0.2-0.2,0.3-0.5,0.2-0.7l-1-4c0.9-0.5,1.9-0.9,2.9-1.2l2.2,3.5c0.1,0.2,0.4,0.4,0.7,0.3
			c0.4,0,0.8,0,1.2,0c0.3,0,0.5-0.1,0.7-0.3l2.2-3.5c0.5,0.1,1,0.3,1.5,0.5c0.6,0.3,1.3,0.6,1.9,1c0.3,0.2,0.8,0.1,1-0.2
			C48,28.4,47.9,28,47.6,27.7z"/>
	</g>
</g>
</svg>
