<?xml version="1.0" encoding="utf-8"?>
<!-- Generator: Adobe Illustrator 23.0.0, SVG Export Plug-In . SVG Version: 6.00 Build 0)  -->
<svg version="1.1" id="Слой_1" xmlns="http://www.w3.org/2000/svg" xmlns:xlink="http://www.w3.org/1999/xlink" x="0px" y="0px"
	 viewBox="0 0 512 512" style="enable-background:new 0 0 512 512;" xml:space="preserve">
<style type="text/css">
	.st0{fill:#079AC4;}
</style>
<g>
	<g>
		<path class="st0" d="M464.1,67.7H47.9c-19.8,0-36.4,15.6-36.4,36.4v303.8c0,19.8,15.6,36.4,36.4,36.4H464
			c19.8,0,36.4-16.6,36.4-37.4V104.1C500.5,84.4,484.9,67.7,464.1,67.7z M480.7,406.8c0,9.4-7.3,16.6-16.6,16.6H47.9
			c-9.4,0-16.6-7.3-16.6-16.6V104.1c0-9.4,7.3-16.6,16.6-16.6H464c9.4,0,16.6,7.3,16.6,16.6v302.7H480.7z"/>
		<path class="st0" d="M178,134.3H69.8v108.2H178V134.3z M158.2,222.7H90.6v-67.6h67.6V222.7z"/>
		<rect x="80.2" y="294.5" class="st0" width="215.3" height="20.8"/>
		<rect x="80.2" y="360" class="st0" width="215.3" height="20.8"/>
	</g>
</g>
</svg>
