<?xml version="1.0" encoding="utf-8"?>
<!-- Generator: Adobe Illustrator 23.0.0, SVG Export Plug-In . SVG Version: 6.00 Build 0)  -->
<svg version="1.1" id="Capa_1" xmlns="http://www.w3.org/2000/svg" xmlns:xlink="http://www.w3.org/1999/xlink" x="0px" y="0px"
	 viewBox="0 0 471.8 471.8" style="enable-background:new 0 0 471.8 471.8;" xml:space="preserve">
<style type="text/css">
	.st0{fill:#079AC4;}
</style>
<g>
	<g>
		<path class="st0" d="M70.5,14.9C31.6,14.9,0,46.5,0,85.4c0,34.8,25.3,63.7,58.5,69.4v290.1c0,6.6,5.4,12,12,12s12-5.4,12-12V154.8
			c33.2-5.7,58.5-34.7,58.5-69.4C141,46.5,109.3,14.9,70.5,14.9z M70.5,131.9c-25.6,0-46.5-20.8-46.5-46.5s20.8-46.5,46.5-46.5
			S117,59.7,117,85.4S96.1,131.9,70.5,131.9z"/>
		<path class="st0" d="M235.3,253.9c6.6,0,12-5.4,12-12s-5.4-12-12-12s-12,5.4-12,12C223.3,248.6,228.7,253.9,235.3,253.9z"/>
		<path class="st0" d="M235.3,124.9c6.6,0,12-5.4,12-12s-5.4-12-12-12s-12,5.4-12,12S228.7,124.9,235.3,124.9z"/>
		<path class="st0" d="M235.3,210.9c6.6,0,12-5.4,12-12s-5.4-12-12-12s-12,5.4-12,12S228.7,210.9,235.3,210.9z"/>
		<path class="st0" d="M235.3,81.9c6.6,0,12-5.4,12-12s-5.4-12-12-12s-12,5.4-12,12S228.7,81.9,235.3,81.9z"/>
		<path class="st0" d="M235.3,296.9c6.6,0,12-5.4,12-12s-5.4-12-12-12s-12,5.4-12,12C223.3,291.6,228.7,296.9,235.3,296.9z"/>
		<path class="st0" d="M235.3,167.9c6.6,0,12-5.4,12-12s-5.4-12-12-12s-12,5.4-12,12S228.7,167.9,235.3,167.9z"/>
		<path class="st0" d="M235.3,315.9c-38.9,0-70.5,31.6-70.5,70.5s31.6,70.5,70.5,70.5s70.5-31.6,70.5-70.5S274.2,315.9,235.3,315.9z
			 M235.3,432.9c-25.6,0-46.5-20.8-46.5-46.5s20.8-46.5,46.5-46.5c25.6,0,46.5,20.8,46.5,46.5S260.9,432.9,235.3,432.9z"/>
		<path class="st0" d="M401.3,14.9c-38.9,0-70.5,31.6-70.5,70.5c0,34.8,25.3,63.7,58.5,69.4v290.1c0,6.6,5.4,12,12,12s12-5.4,12-12
			V154.8c33.2-5.7,58.5-34.7,58.5-69.4C471.8,46.5,440.2,14.9,401.3,14.9z M401.3,131.9c-25.6,0-46.5-20.8-46.5-46.5
			s20.9-46.5,46.5-46.5s46.5,20.8,46.5,46.5S427,131.9,401.3,131.9z"/>
	</g>
</g>
<g>
	<g>
		<path class="st0" d="M70.5,14.9C31.6,14.9,0,46.5,0,85.4c0,34.8,25.3,63.7,58.5,69.4v290.1c0,6.6,5.4,12,12,12s12-5.4,12-12V154.8
			c33.2-5.7,58.5-34.7,58.5-69.4C141,46.5,109.3,14.9,70.5,14.9z M70.5,131.9c-25.6,0-46.5-20.8-46.5-46.5s20.8-46.5,46.5-46.5
			S117,59.7,117,85.4S96.1,131.9,70.5,131.9z"/>
		<path class="st0" d="M235.3,253.9c6.6,0,12-5.4,12-12s-5.4-12-12-12s-12,5.4-12,12C223.3,248.6,228.7,253.9,235.3,253.9z"/>
		<path class="st0" d="M235.3,124.9c6.6,0,12-5.4,12-12s-5.4-12-12-12s-12,5.4-12,12S228.7,124.9,235.3,124.9z"/>
		<path class="st0" d="M235.3,210.9c6.6,0,12-5.4,12-12s-5.4-12-12-12s-12,5.4-12,12S228.7,210.9,235.3,210.9z"/>
		<path class="st0" d="M235.3,81.9c6.6,0,12-5.4,12-12s-5.4-12-12-12s-12,5.4-12,12S228.7,81.9,235.3,81.9z"/>
		<path class="st0" d="M235.3,296.9c6.6,0,12-5.4,12-12s-5.4-12-12-12s-12,5.4-12,12C223.3,291.6,228.7,296.9,235.3,296.9z"/>
		<path class="st0" d="M235.3,167.9c6.6,0,12-5.4,12-12s-5.4-12-12-12s-12,5.4-12,12S228.7,167.9,235.3,167.9z"/>
		<path class="st0" d="M235.3,315.9c-38.9,0-70.5,31.6-70.5,70.5s31.6,70.5,70.5,70.5s70.5-31.6,70.5-70.5S274.2,315.9,235.3,315.9z
			 M235.3,432.9c-25.6,0-46.5-20.8-46.5-46.5s20.8-46.5,46.5-46.5c25.6,0,46.5,20.8,46.5,46.5S260.9,432.9,235.3,432.9z"/>
		<path class="st0" d="M401.3,14.9c-38.9,0-70.5,31.6-70.5,70.5c0,34.8,25.3,63.7,58.5,69.4v290.1c0,6.6,5.4,12,12,12s12-5.4,12-12
			V154.8c33.2-5.7,58.5-34.7,58.5-69.4C471.8,46.5,440.2,14.9,401.3,14.9z M401.3,131.9c-25.6,0-46.5-20.8-46.5-46.5
			s20.9-46.5,46.5-46.5s46.5,20.8,46.5,46.5S427,131.9,401.3,131.9z"/>
	</g>
</g>
</svg>
