<?xml version="1.0" encoding="utf-8"?>
<!-- Generator: Adobe Illustrator 23.0.0, SVG Export Plug-In . SVG Version: 6.00 Build 0)  -->
<svg version="1.1" id="Слой_1" xmlns="http://www.w3.org/2000/svg" xmlns:xlink="http://www.w3.org/1999/xlink" x="0px" y="0px"
	 viewBox="0 0 512 512" style="enable-background:new 0 0 512 512;" xml:space="preserve">
<style type="text/css">
	.st0{fill:#079AC4;}
</style>
<g>
	<path class="st0" d="M421.4,81.2C336.1,81.2,256,11.5,256,11.5S175.9,80.2,90.6,80.2c-27.7,0-46.8-5.2-46.8-5.2v136.3
		c0,54.1,16.6,107.2,48.9,152.9C125,408.9,178,469.3,251.9,499.4l4.2,1l4.2-2.1c72.8-29.1,126.9-89.5,159.2-135.2
		c32.3-44.7,48.9-97.8,48.9-152.9V76C468.2,76,444.9,81.2,421.4,81.2L421.4,81.2z M423.5,102c9.4,0,17.7-1,26-2.1v110.3
		c0,12.3-0.9,24.4-2.7,36.4H265.4V44.9C292.6,64.8,353.9,102,423.5,102z M64.6,99.9c8.3,1,16.6,1,26,2.1c67.9,0,126.6-34.5,155-54.8
		v199.4H67.3c-1.8-12-2.7-24.1-2.7-36.4V99.9L64.6,99.9z M110.4,351.7c-18.9-26-32-54.9-39.3-85.3h174.5v207
		C184.7,444,138.8,391.9,110.4,351.7z M403.7,351.7c-28.9,40.9-75.9,94.1-138.4,123.2V266.4H443
		C435.8,296.8,422.6,325.7,403.7,351.7z"/>
</g>
</svg>
