<?xml version="1.0" encoding="utf-8"?>
<!-- Generator: Adobe Illustrator 23.0.0, SVG Export Plug-In . SVG Version: 6.00 Build 0)  -->
<svg version="1.1" id="Capa_1" xmlns="http://www.w3.org/2000/svg" xmlns:xlink="http://www.w3.org/1999/xlink" x="0px" y="0px"
	 viewBox="0 0 512 512" style="enable-background:new 0 0 512 512;" xml:space="preserve">
<style type="text/css">
	.st0{fill:#9B9FA6;}
</style>
<g>
	<g>
		<path class="st0" d="M456,58.8H326V20c0-11-9-20-20-20H206c-11,0-20,9-20,20v38.8H56c-11,0-20,9-20,20v78.3c0,11,9,20,20,20h30
			V462c0,27.6,22.4,50,50,50h240c27.6,0,50-22.4,50-50V177.1h30c11,0,20-9,20-20V78.8C476,67.7,467,58.8,456,58.8z M226,40h60v18.8
			h-60V40z M386,462c0,5.5-4.5,10-10,10H136c-5.5,0-10-4.5-10-10V177.1h260V462z M436,137.1c-10.7,0-341.5,0-360,0V98.8h360V137.1z"
			/>
	</g>
</g>
<g>
	<g>
		<path class="st0" d="M206,206.6c-11,0-20,9-20,20v195.9c0,11,9,20,20,20s20-9,20-20V226.6C226,215.6,217,206.6,206,206.6z"/>
	</g>
</g>
<g>
	<g>
		<path class="st0" d="M306,206.6c-11,0-20,9-20,20v195.9c0,11,9,20,20,20s20-9,20-20V226.6C326,215.6,317,206.6,306,206.6z"/>
	</g>
</g>
</svg>
