<?xml version="1.0" encoding="utf-8"?>
<!-- Generator: Adobe Illustrator 23.0.0, SVG Export Plug-In . SVG Version: 6.00 Build 0)  -->
<svg version="1.1" id="Layer_1" xmlns="http://www.w3.org/2000/svg" xmlns:xlink="http://www.w3.org/1999/xlink" x="0px" y="0px"
	 viewBox="0 0 551 427.1" style="enable-background:new 0 0 551 427.1;" xml:space="preserve">
<style type="text/css">
	.st0{fill:#D4D5DB;}
	.st1{fill:#FFFFFF;}
</style>
<g>
	<path class="st0" d="M316.7,91.8c-9.4,9.4-14,20.7-14,34.1c0,13.4,4.7,24.7,14,34.1c9.3,9.4,20.7,14,34.1,14
		c13.4,0,24.7-4.7,34.1-14c9.3-9.3,14-20.7,14-34.1c0-13.4-4.7-24.7-14-34.1c-9.4-9.3-20.7-14-34.1-14
		C337.4,77.8,326.1,82.5,316.7,91.8z"/>
	<path class="st0" d="M455.1,21.6c-5.4-5.3-12-8-20.1-8H42c-8,0-14.7,2.7-20.1,8c-5.4,5.4-8,12-8,20.1v328.9c0,8,2.7,14.7,8,20.1
		c5.3,5.4,12,8,20.1,8h309.4c-14.3-24.3-21.9-33.7-24.4-61.4c-3.4-37.1,1.3-63.9,31.3-96.2l-26.6-28.9c-3.4-4-7.7-6-13-6
		c-4,0-8.4,1.7-13,5l-18,16c-4.7,3.4-8.7,5-12,5c-3.4,0-7-1.3-11-4l-4-4L206.4,165c-4-4.7-9.7-7-17-7c-6,0-11.7,2.7-17,8L46,318.4
		V57.7c1.3-8,5.7-12,13-12H418c8.7,0,13,4,13,12V197l32.1,0.4V41.7C463.1,33.7,460.4,27,455.1,21.6z"/>
</g>
<circle class="st0" cx="447.5" cy="316.7" r="93"/>
<g>
	<path class="st1" d="M496.1,342.2l-39.9,38c-2.3,2.3-5.2,3.4-8.7,3.4c-3.3,0-6.1-1.1-8.4-3.4l-40.2-38c-2.3-2.3-3.4-5-3.4-8.2
		c0-3.2,1.1-5.9,3.4-8.2s5.2-3.4,8.7-3.4c3.5,0,6.5,1.1,8.7,3.4l19,18.2v-82.4c0-3.3,1.2-6.1,3.6-8.4c2.4-2.3,5.2-3.4,8.5-3.4
		c3.3,0,6.1,1.1,8.5,3.4c2.4,2.3,3.6,5.1,3.6,8.4v82.4l19-18.2c2.3-2.3,5.2-3.4,8.7-3.4c3.5,0,6.5,1.1,8.7,3.4s3.4,5,3.4,8.2
		C499.5,337.2,498.4,339.9,496.1,342.2z"/>
</g>
</svg>
