<?xml version="1.0" encoding="utf-8"?>
<!-- Generator: Adobe Illustrator 23.0.0, SVG Export Plug-In . SVG Version: 6.00 Build 0)  -->
<svg version="1.1" id="Capa_1" xmlns="http://www.w3.org/2000/svg" xmlns:xlink="http://www.w3.org/1999/xlink" x="0px" y="0px"
	 viewBox="0 0 489.7 489.7" style="enable-background:new 0 0 489.7 489.7;" xml:space="preserve">
<style type="text/css">
	.st0{fill:#00B9EE;}
</style>
<g>
	<g>
		<path class="st0" d="M483.9,15.5c-6.5-9.7-17.1-15.4-28.5-15.4c-4.5,0-8.9,0.9-13.2,2.7L130.6,130.9
			c-13.4,5.5-21.7,18.4-21.3,32.9c0.4,14.5,9.6,26.8,23.3,31.5l120.7,41.2l41.3,120.7c4.8,14.1,17.6,23.3,32.6,23.3
			c14.2,0,26.4-8.2,31.8-21.3L487.1,47.6C491.5,36.8,490.4,25.1,483.9,15.5z M464.4,38.3L336.2,349.9c-2.3,5.5-7.1,6.1-9.1,6.1
			c-1.7,0-7.3-0.5-9.4-6.7l-43.2-126.4c-1.2-3.6-4-6.4-7.6-7.6l-126.4-43.2c-6-2.1-6.6-7.5-6.7-9.1c0-1.6,0.2-7,6.1-9.5L451.5,25.4
			c1.3-0.5,2.6-0.8,3.9-0.8c3.2,0,6.3,1.7,8.2,4.6C464.9,31.1,466.1,34.2,464.4,38.3z"/>
		<path class="st0" d="M183.9,288.6L12.5,460c-4.8,4.8-4.8,12.5,0,17.3c2.4,2.4,5.5,3.6,8.7,3.6s6.3-1.2,8.7-3.6l171.3-171.4
			c4.8-4.8,4.8-12.5,0-17.3C196.4,283.8,188.7,283.8,183.9,288.6z"/>
		<path class="st0" d="M3.6,327c-4.8,4.8-4.8,12.5,0,17.3c2.4,2.4,5.5,3.6,8.7,3.6s6.3-1.2,8.7-3.6l62-62c4.8-4.8,4.8-12.5,0-17.3
			s-12.5-4.8-17.3,0L3.6,327z"/>
		<path class="st0" d="M145.5,486.1c2.4,2.4,5.5,3.6,8.7,3.6s6.3-1.2,8.7-3.6l62-62c4.8-4.8,4.8-12.5,0-17.3s-12.5-4.8-17.3,0
			l-62,62C140.7,473.6,140.7,481.4,145.5,486.1z"/>
	</g>
</g>
</svg>
