<?xml version="1.0" encoding="utf-8"?>
<!-- Generator: Adobe Illustrator 23.0.0, SVG Export Plug-In . SVG Version: 6.00 Build 0)  -->
<svg version="1.1" id="Слой_1" xmlns="http://www.w3.org/2000/svg" xmlns:xlink="http://www.w3.org/1999/xlink" x="0px" y="0px"
	 viewBox="0 0 512 512" style="enable-background:new 0 0 512 512;" xml:space="preserve">
<style type="text/css">
	.st0{fill:#00B9EE;}
</style>
<path class="st0" d="M256,0C165,0,91,74,91,165c0,62.3,35,118.9,90,147v140h30v60h90v-60h30c0-14.4,0-125.4,0-140
	c55-28.1,90-84.7,90-147C421,74,347,0,256,0z M271,482h-30v-30h30V482z M211,422v-30h90v30H211z M301,362h-30v-92h-30v92h-30
	c0-24.2,0-97.1,0-122h90V362z M220.3,210l35.7-71.5l35.7,71.5H220.3z M331,277.3v-55.8l-75-150l-75,150v55.8
	c-37.1-24.8-60-66.7-60-112.3c0-74.4,60.6-135,135-135c74.4,0,135,60.6,135,135C391,210.6,368.1,252.5,331,277.3z"/>
<path class="st0" d="M0,150h61v30H0V150z"/>
<path class="st0" d="M451,150h61v30h-61V150z"/>
<path class="st0" d="M79.6,249.5l15,26l-52,30l-15-26L79.6,249.5z"/>
<path class="st0" d="M417.4,54.5l52-30l15,26l-52,30L417.4,54.5z"/>
<path class="st0" d="M79.6,80.5l-52-30l15-26l52,30L79.6,80.5z"/>
<path class="st0" d="M417.4,275.5l15-26l52,30l-15,26L417.4,275.5z"/>
</svg>
