<?xml version="1.0" encoding="utf-8"?>
<!-- Generator: Adobe Illustrator 23.0.0, SVG Export Plug-In . SVG Version: 6.00 Build 0)  -->
<svg version="1.1" id="Capa_1" xmlns="http://www.w3.org/2000/svg" xmlns:xlink="http://www.w3.org/1999/xlink" x="0px" y="0px"
	 viewBox="0 0 402 512" style="enable-background:new 0 0 402 512;" xml:space="preserve">
<style type="text/css">
	.st0{fill:#00B9EE;}
</style>
<g>
	<g>
		<path class="st0" d="M201,160c-35.3,0-64,28.7-64,64s28.7,64,64,64s64-28.7,64-64S236.3,160,201,160z M201,256
			c-17.7,0-32-14.4-32-32s14.3-32,32-32s32,14.4,32,32S218.7,256,201,256z"/>
	</g>
</g>
<g>
	<g>
		<path class="st0" d="M217,288h-16h-16c-44.1,0-80,35.9-80,80c0,8.8,7.2,16,16,16h160c8.8,0,16-7.2,16-16
			C297,323.9,261.1,288,217,288z M139.8,352c6.6-18.6,24.4-32,45.2-32h32c20.9,0,38.7,13.4,45.2,32H139.8z"/>
	</g>
</g>
<g>
	<g>
		<path class="st0" d="M361,64h-48c-8.8,0-16,7.2-16,16s7.2,16,16,16h48v384H41V96h48c8.8,0,16-7.2,16-16s-7.2-16-16-16H41
			C23.3,64,9,78.4,9,96v384c0,17.6,14.3,32,32,32h320c17.7,0,32-14.4,32-32V96C393,78.4,378.7,64,361,64z"/>
	</g>
</g>
<g>
	<g>
		<path class="st0" d="M201,0c-35.3,0-64,28.7-64,64v48c0,8.8,7.2,16,16,16h96c8.8,0,16-7.2,16-16V64C265,28.7,236.3,0,201,0z
			 M233,96h-64V64c0-17.6,14.3-32,32-32s32,14.4,32,32V96z"/>
	</g>
</g>
<g>
	<g>
		<path class="st0" d="M281,416H121c-8.8,0-16,7.2-16,16s7.2,16,16,16h160c8.8,0,16-7.2,16-16S289.8,416,281,416z"/>
	</g>
</g>
</svg>
