<?xml version="1.0" encoding="utf-8"?>
<!-- Generator: Adobe Illustrator 23.0.0, SVG Export Plug-In . SVG Version: 6.00 Build 0)  -->
<svg version="1.1" id="Layer_1" xmlns="http://www.w3.org/2000/svg" xmlns:xlink="http://www.w3.org/1999/xlink" x="0px" y="0px"
	 viewBox="0 0 331 430" style="enable-background:new 0 0 331 430;" xml:space="preserve">
<style type="text/css">
	.st0{fill:#999999;}
</style>
<g>
	<path class="st0" d="M320.9,57.9v16.5h-21.9l-26.3,319.1c0,8.8-3.1,16.3-9.3,22.5c-6.2,6.2-13.7,9.3-22.5,9.3H86.2
		c-8.8,0-16.3-3.1-22.5-9.3c-6.2-6.2-9.3-13.7-9.3-22.5L28,74.4H5V57.9h87.7V36c0-8.8,3.1-16.3,9.3-22.5c6.2-6.2,13.7-9.3,22.5-9.3
		h76.8c8.8,0,16.3,3.1,22.5,9.3c6.2,6.2,9.3,13.7,9.3,22.5v21.9H320.9z M257.3,392.4l25.2-318h-238l25.2,318v1.1
		c0,10.2,5.5,15.4,16.5,15.4h154.6c11,0,16.5-5.1,16.5-15.4V392.4z M108.1,109.5l12.1,264.3h-15.4L92.8,109.5H108.1z M109.2,36v21.9
		h107.5V36c0-10.2-5.1-15.4-15.4-15.4h-76.8C114.3,20.6,109.2,25.8,109.2,36z M155.3,373.8V109.5h15.4v264.3H155.3z M233.1,109.5
		l-12.1,264.3h-15.4l11-264.3H233.1z"/>
</g>
</svg>
