<?xml version="1.0" encoding="utf-8"?>
<!-- Generator: Adobe Illustrator 23.0.0, SVG Export Plug-In . SVG Version: 6.00 Build 0)  -->
<svg version="1.1" id="Layer_1" xmlns="http://www.w3.org/2000/svg" xmlns:xlink="http://www.w3.org/1999/xlink" x="0px" y="0px"
	 viewBox="0 0 70.1 76.4" style="enable-background:new 0 0 70.1 76.4;" xml:space="preserve">
<style type="text/css">
	.st0{fill:#0063AF;}
	.st1{fill:#FFFFFF;}
</style>
<g>
	<path class="st0" d="M12.2,40.1c7.8-1.7,6.7-10.9,6.5-13c-0.4-3.1-4.1-8.6-9-8.1c-6.3,0.6-7.2,9.6-7.2,9.6
		C1.6,32.8,4.5,41.8,12.2,40.1 M26.6,24.6c4.3,0,7.7-4.9,7.7-11c0-6.1-3.5-11-7.7-11c-4.3,0-7.7,4.9-7.7,11
		C18.9,19.6,22.4,24.6,26.6,24.6 M45.1,25.3c5.7,0.7,9.4-5.4,10.1-10c0.8-4.6-3-10-7-10.9c-4.1-0.9-9.1,5.6-9.6,9.8
		C38.1,19.4,39.4,24.6,45.1,25.3 M67.8,33.1c0-2.2-1.8-8.9-8.7-8.9c-6.8,0-7.7,6.3-7.7,10.7c0,4.2,0.4,10.2,8.8,10
		C68.7,44.7,67.8,35.3,67.8,33.1 M59.1,52.5c0,0-8.9-6.8-14-14.3c-7-10.9-17-6.5-20.3-0.9c-3.3,5.6-8.5,9.1-9.2,10
		c-0.7,0.9-10.7,6.3-8.5,16.1c2.2,9.8,10,9.6,10,9.6s5.7,0.6,12.3-0.9c6.6-1.5,12.4,0.4,12.4,0.4s15.5,5.2,19.7-4.8
		C65.7,57.7,59.1,52.5,59.1,52.5"/>
	<path class="st1" d="M28,43v6.6h-5.4c0,0-5.4,0.4-7.2,6.5c-0.7,4.1,0.6,6.5,0.8,7c0.2,0.5,2,3.5,6.3,4.3h10.1V43L28,43z M27.9,63.4
		h-4.1c0,0-2.8-0.1-3.7-3.4c-0.4-1.4,0.1-3.1,0.3-3.8c0.2-0.7,1.2-2.2,3.1-2.8h4.3V63.4z"/>
	<path class="st1" d="M35,50.1V63c0,0,0.2,3.2,4.7,4.4h11.6V50.1h-5V63h-4.8c0,0-1.5-0.2-1.8-1.4V50.1L35,50.1z"/>
</g>
</svg>
