<?xml version="1.0" encoding="utf-8"?>
<!-- Generator: Adobe Illustrator 23.0.0, SVG Export Plug-In . SVG Version: 6.00 Build 0)  -->
<svg version="1.1" id="Слой_1" xmlns="http://www.w3.org/2000/svg" xmlns:xlink="http://www.w3.org/1999/xlink" x="0px" y="0px"
	 viewBox="0 0 264 264" style="enable-background:new 0 0 264 264;" xml:space="preserve">
<style type="text/css">
	.st0{fill:#2A89D8;}
	.st1{fill:#FFFFFF;}
</style>
<g>
	<path class="st0" d="M245.9,260c7.8,0,14.1-6.3,14.1-14.1V18.1c0-7.8-6.3-14.1-14.1-14.1H18.1C10.3,4,4,10.3,4,18.1v227.8
		c0,7.8,6.3,14.1,14.1,14.1H245.9"/>
</g>
<path class="st1" d="M226,214.5l-47.8-49.7c12.3-14.6,19-33,19-52.1c0-44.7-36.4-81.1-81.1-81.1S35.1,68,35.1,112.7
	s36.4,81.1,81.1,81.1c16.8,0,32.8-5.1,46.5-14.7l48.2,50.1c2,2.1,4.7,3.2,7.6,3.2c2.7,0,5.4-1,7.3-3
	C229.9,225.4,230,218.7,226,214.5z M116.1,52.7c33,0,59.9,26.9,59.9,59.9s-26.9,59.9-59.9,59.9s-59.9-26.9-59.9-59.9
	S83.1,52.7,116.1,52.7z"/>
</svg>
