<?xml version="1.0" encoding="utf-8"?>
<!-- Generator: Adobe Illustrator 23.0.0, SVG Export Plug-In . SVG Version: 6.00 Build 0)  -->
<svg version="1.1" id="Layer_1" xmlns="http://www.w3.org/2000/svg" xmlns:xlink="http://www.w3.org/1999/xlink" x="0px" y="0px"
	 viewBox="0 0 58.8 116.4" style="enable-background:new 0 0 58.8 116.4;" xml:space="preserve">
<style type="text/css">
	.st0{fill:#E30613;}
</style>
<g>
	<path class="st0" d="M54.5,2.1h-17C20.8,2.1,6.6,14.8,6.6,39.5c0,14.8,6.9,25.8,19.1,31.2L2.9,112c-0.7,1.3,0,2.4,1.2,2.4h10.6
		c0.9,0,1.5-0.3,1.8-1l20.8-40.6h7.5v40.6c0,0.4,0.4,1,1,1H55c0.9,0,1.2-0.4,1.2-1.2V3.6C56.2,2.5,55.6,2.1,54.5,2.1z M44.7,63.2
		h-6.3C28.6,63.2,19,56,19,38c0-18.7,9-26.4,18.1-26.4h7.6V63.2z"/>
</g>
</svg>
