<?xml version="1.0" encoding="utf-8"?>
<!-- Generator: Adobe Illustrator 23.0.0, SVG Export Plug-In . SVG Version: 6.00 Build 0)  -->
<svg version="1.1" id="Слой_1" xmlns="http://www.w3.org/2000/svg" xmlns:xlink="http://www.w3.org/1999/xlink" x="0px" y="0px"
	 viewBox="0 0 44.2 44.2" style="enable-background:new 0 0 44.2 44.2;" xml:space="preserve">
<style type="text/css">
	.st0{fill:#CAC9C9;}
	.st1{fill:#FFFFFF;}
</style>
<circle class="st0" cx="22.3" cy="22.1" r="21.2"/>
<g>
	<path class="st1" d="M31.8,13.3l-2.7,16.5c0,0.2-0.2,0.4-0.3,0.5c-0.1,0.1-0.2,0.1-0.3,0.1c-0.1,0-0.2,0-0.3-0.1l-4.9-2l-2.6,3.2
		c-0.1,0.2-0.3,0.2-0.5,0.2c-0.1,0-0.2,0-0.2,0c-0.3-0.1-0.4-0.4-0.4-0.6v-3.7l9.3-11.3l-11.5,9.9l-4.2-1.7
		c-0.2-0.1-0.4-0.3-0.4-0.6c0-0.3,0.1-0.5,0.3-0.6l17.8-10.3c0.1-0.1,0.2-0.1,0.3-0.1c0.1,0,0.3,0,0.4,0.1
		C31.8,12.8,31.9,13,31.8,13.3z"/>
</g>
</svg>
