<?xml version="1.0" encoding="utf-8"?>
<!-- Generator: Adobe Illustrator 23.0.0, SVG Export Plug-In . SVG Version: 6.00 Build 0)  -->
<svg version="1.1" id="Слой_1" xmlns="http://www.w3.org/2000/svg" xmlns:xlink="http://www.w3.org/1999/xlink" x="0px" y="0px"
	 viewBox="0 0 44.2 44.2" style="enable-background:new 0 0 44.2 44.2;" xml:space="preserve">
<style type="text/css">
	.st0{fill:#CAC9C9;}
	.st1{fill:#FFFFFF;}
</style>
<circle class="st0" cx="22" cy="22" r="21.2"/>
<g>
	<path class="st1" d="M22,27.9c-0.6,0-1.1,0-1.7-0.1C18.8,29.1,17,30,15,30.5c-0.4,0.1-0.9,0.2-1.3,0.3c0,0,0,0-0.1,0
		c-0.2,0-0.4-0.2-0.5-0.4c0,0,0,0,0,0c-0.1-0.3,0.1-0.5,0.3-0.7c0.7-0.8,1.5-1.5,2.1-3.4c-2.4-1.3-3.9-3.4-3.9-5.7
		c0-4.1,4.6-7.3,10.3-7.3s10.3,3.3,10.3,7.3C32.3,24.6,27.7,27.9,22,27.9z M13.2,20.5c0,1.7,1.1,3.3,3.1,4.5l1,0.6L17,26.7
		c-0.2,0.8-0.5,1.4-0.8,2c1.2-0.5,2.2-1.1,3.2-2l0.5-0.4l0.7,0.1c0.5,0.1,1,0.1,1.5,0.1c4.8,0,8.8-2.7,8.8-5.9s-4-5.9-8.8-5.9
		S13.2,17.3,13.2,20.5z M17.6,22c-0.8,0-1.5-0.7-1.5-1.5s0.7-1.5,1.5-1.5s1.5,0.7,1.5,1.5S18.4,22,17.6,22z M22,22
		c-0.8,0-1.5-0.7-1.5-1.5S21.2,19,22,19s1.5,0.7,1.5,1.5S22.8,22,22,22z M26.4,22c-0.8,0-1.5-0.7-1.5-1.5s0.7-1.5,1.5-1.5
		s1.5,0.7,1.5,1.5S27.2,22,26.4,22z"/>
</g>
</svg>
