<?xml version="1.0" encoding="utf-8"?>
<!-- Generator: Adobe Illustrator 23.0.0, SVG Export Plug-In . SVG Version: 6.00 Build 0)  -->
<svg version="1.1" id="Слой_1" xmlns="http://www.w3.org/2000/svg" xmlns:xlink="http://www.w3.org/1999/xlink" x="0px" y="0px"
	 viewBox="0 0 44.2 44.2" style="enable-background:new 0 0 44.2 44.2;" xml:space="preserve">
<style type="text/css">
	.st0{fill:#3E70A2;}
	.st1{fill:#FFFFFF;}
</style>
<circle class="st0" cx="22.2" cy="22.3" r="21.2"/>
<g>
	<path class="st1" d="M31.2,20.3c-2.2,2.9-2.4,2.6-0.6,4.3c1.7,1.6,2.1,2.4,2.1,2.5c0,0,0.7,1.2-0.8,1.3l-2.9,0
		c-0.6,0.1-1.4-0.4-1.4-0.4c-1.1-0.7-2.1-2.6-2.9-2.4c0,0-0.8,0.3-0.8,2c0,0.4-0.2,0.6-0.2,0.6s-0.2,0.2-0.6,0.2h-1.3
		c-2.8,0.2-5.3-2.4-5.3-2.4s-2.7-2.8-5.1-8.4c-0.2-0.4,0-0.5,0-0.5s0.2-0.2,0.6-0.2l3.1,0c0.3,0,0.5,0.2,0.5,0.2s0.2,0.1,0.3,0.4
		c0.5,1.3,1.1,2.4,1.1,2.4c1.1,2.3,1.9,2.7,2.3,2.5c0,0,0.6-0.3,0.4-3.1c0-1-0.3-1.5-0.3-1.5c-0.3-0.3-0.7-0.4-0.9-0.5
		c-0.2,0,0.1-0.4,0.5-0.6c0.5-0.3,1.5-0.3,2.7-0.3c0.9,0,1.2,0.1,1.5,0.1c1.1,0.3,0.7,1.2,0.7,3.6c0,0.8-0.1,1.8,0.4,2.2
		c0.2,0.2,0.8,0,2.2-2.4c0,0,0.7-1.2,1.2-2.5c0.1-0.2,0.3-0.3,0.3-0.3s0.2-0.1,0.4-0.1l3.2,0c1-0.1,1.1,0.3,1.1,0.3
		C33,17.5,32.5,18.6,31.2,20.3z"/>
</g>
</svg>
